#N canvas 0 24 1600 826 10;
#X obj 1155 257 eclbrowser;
#X obj 1147 479 mixer4 0.752323 1 0.01 0.01 0 0 0 0 0 1 0 1 1 0;
#X obj 1147 634 output;
#X obj 558 292 delaypanel 0 1 298.874 0.362015 2142.33 0.149231 1.16955
1 1.02239 0.534328;
#X obj 531 153 string 0 0 74 0 2561.38 74 27;
#X obj 414 28 keyb;
#X obj 550 458 rev3gui 0 85.7795 2164.85 47 1927.82 0.57037;
#X obj 550 573 bus 1;
#X obj 100 100 sampler3 0 100 0 100 0 1 /home/ada/Documents/soundlibrary/a123.wav
;
#X obj 322 250 sampler4;
#X obj 358 438 pitchshifterarp 0 0 0 0 0 0 0 0 3 7 10 0 0 1 38 0 210
38;
#X obj 203 369 adc~;
#X obj 358 528 bus 2;
#X obj 337 377 distortionmono;
#X connect 1 0 2 0;
#X connect 1 1 2 1;
#X connect 3 0 6 0;
#X connect 3 1 6 1;
#X connect 4 0 3 0;
#X connect 4 1 3 1;
#X connect 5 0 4 0;
#X connect 5 0 9 0;
#X connect 6 0 7 0;
#X connect 6 1 7 1;
#X connect 9 0 13 0;
#X connect 10 0 12 0;
#X connect 10 1 12 1;
#X connect 13 0 10 0;
