#N canvas 654 143 912 706 12;
#X obj 100 61 vsl 15 128 -24 24 0 0 \$0-band1snd \$0-band1rcv <85 -4
-8 0 10 -228856 -1 -1 0 1;
#X obj 122 61 vsl 15 128 -24 24 0 0 \$0-band2snd \$0-band2rcv 100 -2
-18 0 10 -228856 -1 -1 0 1;
#X obj 145 61 vsl 15 128 -24 24 0 0 \$0-band3snd \$0-band3rcv 200 0
-9 0 10 -228856 -1 -1 0 1;
#X obj 167 61 vsl 15 128 -24 24 0 0 \$0-band4snd \$0-band4rcv 400 -3
-18 0 10 -228856 -1 -1 0 1;
#X obj 190 61 vsl 15 128 -24 24 0 0 \$0-band5snd \$0-band5rcv 800 0
-9 0 10 -228856 -1 -1 0 1;
#X obj 213 61 vsl 15 128 -24 24 0 0 \$0-band6snd \$0-band6rcv 1600
-6 -19 0 10 -228856 -1 -1 0 1;
#X obj 236 61 vsl 15 128 -24 24 0 0 \$0-band7snd \$0-band7rcv 3200
0 -9 0 10 -228856 -1 -1 0 1;
#X obj 259 61 vsl 15 128 -24 24 0 0 \$0-band8snd \$0-band8rcv 6400
-2 -20 0 10 -228856 -1 -1 0 1;
#X obj 282 61 vsl 15 128 -24 24 0 0 \$0-band9snd \$0-band9rcv 12800
0 -9 0 10 -228856 -1 -1 0 1;
#X obj 305 61 vsl 15 128 -24 24 0 0 \$0-band10snd \$0-band10rcv >15000
-9 -22 0 10 -228856 -1 -1 0 1;
#N canvas 303 169 450 323 eqsoundthings 0;
#X obj 210 -134 inlet~;
#X obj 51 93 lowshelf~ 85 0.5, f 9;
#X obj 121 98 eq~ 100 1;
#X obj 195 98 eq~ 200 1;
#X obj 268 99 eq~ 400 1;
#X obj 343 97 eq~ 800 1;
#X obj 419 96 eq~ 1600 1;
#X obj 502 96 eq~ 3200 1;
#X obj 579 97 eq~ 6400 1;
#X msg 93 -102 bw;
#X obj 83 -162 initbang;
#X obj 759 87 highshelf~ 15000 0.5, f 10;
#X obj 657 95 eq~ 12800 0.8;
#X obj 255 -72 r \$0-band1snd;
#X obj 294 -102 r \$0-band2snd;
#X obj 362 -71 r \$0-band3snd;
#X obj 412 -113 r \$0-band4snd;
#X obj 467 -67 r \$0-band5snd;
#X obj 514 -101 r \$0-band6snd;
#X obj 572 -73 r \$0-band7snd;
#X obj 630 -101 r \$0-band8snd;
#X obj 686 -72 r \$0-band9snd;
#X obj 736 -99 r \$0-band10snd;
#X floatatom 531 -35 5 0 0 0 - - -, f 5;
#X obj 210 210 outlet~;
#X obj 210 185 *~ 0.1;
#X connect 0 0 1 0;
#X connect 0 0 2 0;
#X connect 0 0 3 0;
#X connect 0 0 11 0;
#X connect 0 0 4 0;
#X connect 0 0 12 0;
#X connect 0 0 8 0;
#X connect 0 0 7 0;
#X connect 0 0 6 0;
#X connect 0 0 5 0;
#X connect 1 0 25 0;
#X connect 2 0 25 0;
#X connect 3 0 25 0;
#X connect 4 0 25 0;
#X connect 5 0 25 0;
#X connect 6 0 25 0;
#X connect 7 0 25 0;
#X connect 8 0 25 0;
#X connect 9 0 2 0;
#X connect 9 0 8 0;
#X connect 9 0 7 0;
#X connect 9 0 6 0;
#X connect 9 0 5 0;
#X connect 9 0 4 0;
#X connect 9 0 3 0;
#X connect 9 0 12 0;
#X connect 10 0 9 0;
#X connect 11 0 25 0;
#X connect 12 0 25 0;
#X connect 13 0 1 3;
#X connect 14 0 2 3;
#X connect 15 0 3 3;
#X connect 16 0 4 3;
#X connect 17 0 5 3;
#X connect 18 0 6 3;
#X connect 18 0 23 0;
#X connect 19 0 7 3;
#X connect 20 0 8 3;
#X connect 21 0 12 3;
#X connect 22 0 11 3;
#X connect 25 0 24 0;
#X restore 193 412 pd eqsoundthings;
#X obj 203 323 inlet~;
#X obj 193 437 outlet~;
#N canvas 303 169 450 323 eqsoundthings 0;
#X obj 210 -134 inlet~;
#X obj 51 93 lowshelf~ 85 0.5, f 9;
#X obj 121 98 eq~ 100 1;
#X obj 195 98 eq~ 200 1;
#X obj 268 99 eq~ 400 1;
#X obj 343 97 eq~ 800 1;
#X obj 419 96 eq~ 1600 1;
#X obj 502 96 eq~ 3200 1;
#X obj 579 97 eq~ 6400 1;
#X msg 93 -102 bw;
#X obj 83 -162 initbang;
#X obj 759 87 highshelf~ 15000 0.5, f 10;
#X obj 657 95 eq~ 12800 0.8;
#X obj 255 -72 r \$0-band1snd;
#X obj 294 -102 r \$0-band2snd;
#X obj 362 -71 r \$0-band3snd;
#X obj 412 -113 r \$0-band4snd;
#X obj 467 -67 r \$0-band5snd;
#X obj 514 -101 r \$0-band6snd;
#X obj 572 -73 r \$0-band7snd;
#X obj 630 -101 r \$0-band8snd;
#X obj 686 -72 r \$0-band9snd;
#X obj 736 -99 r \$0-band10snd;
#X floatatom 531 -35 5 0 0 0 - - -, f 5;
#X obj 210 210 outlet~;
#X obj 210 185 *~ 0.1;
#X connect 0 0 1 0;
#X connect 0 0 2 0;
#X connect 0 0 3 0;
#X connect 0 0 11 0;
#X connect 0 0 4 0;
#X connect 0 0 12 0;
#X connect 0 0 8 0;
#X connect 0 0 7 0;
#X connect 0 0 6 0;
#X connect 0 0 5 0;
#X connect 1 0 25 0;
#X connect 2 0 25 0;
#X connect 3 0 25 0;
#X connect 4 0 25 0;
#X connect 5 0 25 0;
#X connect 6 0 25 0;
#X connect 7 0 25 0;
#X connect 8 0 25 0;
#X connect 9 0 2 0;
#X connect 9 0 8 0;
#X connect 9 0 7 0;
#X connect 9 0 6 0;
#X connect 9 0 5 0;
#X connect 9 0 4 0;
#X connect 9 0 3 0;
#X connect 9 0 12 0;
#X connect 10 0 9 0;
#X connect 11 0 25 0;
#X connect 12 0 25 0;
#X connect 13 0 1 3;
#X connect 14 0 2 3;
#X connect 15 0 3 3;
#X connect 16 0 4 3;
#X connect 17 0 5 3;
#X connect 18 0 6 3;
#X connect 18 0 23 0;
#X connect 19 0 7 3;
#X connect 20 0 8 3;
#X connect 21 0 12 3;
#X connect 22 0 11 3;
#X connect 25 0 24 0;
#X restore 343 412 pd eqsoundthings;
#X obj 351 335 inlet~;
#X obj 343 437 outlet~;
#N canvas 27 214 900 418 statesaving 0;
#X obj 54 111 pdlua;
#X obj 175 297 outlet;
#X obj 72 60 t b b;
#X obj 54 32 initbang;
#X msg 54 89 load adlibsavestate.pd_lua;
#X obj 201 201 adlibsavestate \$0-index \$0-band1 \$0-band2 \$0-band3
\$0-band4 \$0-band5 \$0-band6 \$0-band7 \$0-band8 \$0-band9 \$0-band10
;
#X obj 162 136 pack \$1 \$2 \$3 \$4 \$5 \$6 \$7 \$8 \$9 \$10 \$11;
#X connect 2 0 6 0;
#X connect 2 1 4 0;
#X connect 3 0 2 0;
#X connect 4 0 0 0;
#X connect 5 0 1 0;
#X connect 6 0 5 0;
#X restore 528 247 pd statesaving;
#X obj 538 277 canvasargs;
#X connect 10 0 12 0;
#X connect 11 0 10 0;
#X connect 13 0 15 0;
#X connect 14 0 13 0;
#X connect 16 0 17 0;
#X coords 0 -1 1 1 250 180 2 86 22;
