#N canvas 0 32 1920 1048 12;
#X obj 24 875 output;
#X obj 110 67 vsl 15 128 99999 10 1 0 empty empty empty 0 -9 0 10 -262144
-1 -1 3538 1;
#X obj 32 197 noise~;
#X obj 25 234 pow~ 150;
#X obj 198 75 vsl 15 128 40 10000 1 0 empty empty empty 0 -9 0 10 -262144
-1 -1 0 1;
#X obj 192 243 sig~;
#X obj 191 269 lop~ 10;
#X floatatom 186 331 5 0 0 0 - - -;
#X obj 75 457 vcf~;
#N canvas 0 50 450 250 (subpatch) 0;
#X array seq 5 float 3;
#A 0 0.557143 0.835713 0.535715 0.607143 0.935714;
#X coords 0 0 5 1 200 140 1 0 0;
#X restore 196 419 graph;
#X obj 280 182 tabread seq;
#N canvas 0 50 450 250 (subpatch) 0;
#X array seq2 4 float 3;
#A 0 0.671428 0.907143 0.364286 0.7;
#X coords 0 0 4 1 200 140 1 0 0;
#X restore 194 578 graph;
#X obj 275 123 f;
#X obj 343 134 + 1;
#X obj 275 148 mod 5;
#X obj 270 13 tgl 15 0 empty empty empty 17 7 0 10 -262144 -1 -1 1
1;
#X obj 409 125 f;
#X obj 477 136 + 1;
#X obj 404 15 tgl 15 0 empty empty empty 17 7 0 10 -262144 -1 -1 1
1;
#X obj 411 184 tabread seq2;
#X floatatom 290 261 5 0 0 0 - - -;
#X obj 426 234 max 0;
#X floatatom 426 259 5 0 0 0 - - -;
#X obj 278 236 max 0;
#X obj 409 150 mod 4;
#X obj 25 259 hip~ 25;
#X obj 279 208 pow 3;
#N canvas 0 50 450 250 (subpatch) 0;
#X array seq3 7 float 3;
#A 0 0.0928587 0.142855 0.214286 0.242858 0.435714 0.12143 0.264286
;
#X coords 0 0 7 1 200 140 1 0 0;
#X restore 194 737 graph;
#X obj 529 127 f;
#X obj 564 130 + 1;
#X obj 524 17 tgl 15 0 empty empty empty 17 7 0 10 -262144 -1 -1 1
1;
#X obj 546 211 pow 3;
#X obj 546 236 max 0;
#X floatatom 546 261 5 0 0 0 - - -;
#X obj 531 185 tabread seq3;
#X obj 546 338 max 1;
#X obj 545 369 sig~;
#X obj 546 285 pow 3;
#X obj 409 100 metro 3800;
#X obj 276 99 metro 1350;
#X obj 529 101 metro 890;
#X obj 90 262 lop~ 277;
#N canvas 0 50 450 250 (subpatch) 0;
#X array seq4 6 float 3;
#A 0 0.585714 0.878571 0.614286 0.585714 0.542857 0.164286;
#X coords 0 0 6 1 200 140 1 0 0;
#X restore 430 427 graph;
#N canvas 0 50 450 250 (subpatch) 0;
#X array seq5 11 float 3;
#A 0 0.9 0.792857 0.728571 0.164287 0.757143 0.792857 0.721428 0.942857
0.471429 0.528571 0.764287;
#X coords 0 0 11 1 200 140 1 0 0;
#X restore 430 581 graph;
#N canvas 0 50 450 250 (subpatch) 0;
#X array seq6 5 float 3;
#A 0 0.185714 0.0785709 0.214286 0.307141 0.642857;
#X coords 0 0 5 1 200 140 1 0 0;
#X restore 424 738 graph;
#X obj 675 135 f;
#X obj 743 146 + 1;
#X obj 675 160 mod 5;
#X obj 670 25 tgl 15 0 empty empty empty 17 7 0 10 -262144 -1 -1 1
1;
#X obj 809 137 f;
#X obj 877 148 + 1;
#X obj 804 27 tgl 15 0 empty empty empty 17 7 0 10 -262144 -1 -1 1
1;
#X floatatom 690 273 5 0 0 0 - - -;
#X obj 826 246 max 0;
#X floatatom 826 271 5 0 0 0 - - -;
#X obj 678 248 max 0;
#X obj 809 162 mod 4;
#X obj 679 220 pow 3;
#X obj 929 139 f;
#X obj 964 142 + 1;
#X obj 924 29 tgl 15 0 empty empty empty 17 7 0 10 -262144 -1 -1 1
1;
#X obj 946 223 pow 3;
#X obj 946 248 max 0;
#X floatatom 946 273 5 0 0 0 - - -;
#X obj 929 164 mod 4;
#X obj 946 350 max 1;
#X obj 945 381 sig~;
#X obj 946 297 pow 3;
#X obj 809 112 metro 3800;
#X obj 676 111 metro 1350;
#X obj 929 113 metro 890;
#X obj 680 194 tabread seq4;
#X obj 810 198 tabread seq5;
#X obj 931 197 tabread seq6;
#N canvas 0 50 450 250 (subpatch) 0;
#X array time 6 float 3;
#A 0 0.8 0.557143 0.707148 0.657147 0.578571 0.892857;
#X coords 0 1 6 0 200 140 1 0 0;
#X restore 677 443 graph;
#X obj 985 437 vsl 15 128 99999 10 1 0 empty empty empty 0 -9 0 10
-262144 -1 -1 6315 1;
#X obj 907 567 noise~;
#X obj 900 604 pow~ 150;
#X obj 1073 445 vsl 15 128 40 10000 1 0 empty empty empty 0 -9 0 10
-262144 -1 -1 0 1;
#X obj 1067 613 sig~;
#X obj 1066 639 lop~ 10;
#X floatatom 1061 701 5 0 0 0 - - -;
#X obj 943 799 vcf~;
#X obj 900 629 hip~ 25;
#X obj 965 632 lop~ 277;
#X obj 756 777 tabread time;
#X msg 726 640 6;
#X obj 706 692 until;
#X obj 726 665 t f b;
#X msg 780 695 0;
#X obj 723 724 f;
#X obj 765 726 + 1;
#X obj 723 749 t f f;
#X obj 699 888 pack f f;
#X obj 697 916 route 0 1 2 3 4 5;
#X obj 669 947 s met1;
#X obj 725 951 s met2;
#X obj 784 955 s met3;
#X obj 839 958 s met4;
#X obj 892 959 s met5;
#X obj 959 958 s met6;
#X obj 756 802 pow 2;
#X obj 756 827 * 5500;
#X obj 757 851 max 4;
#X obj 296 52 r met1;
#X obj 418 43 r met2;
#X obj 561 66 r met3;
#X obj 690 66 r met4;
#X obj 833 74 r met5;
#X obj 970 75 r met6;
#X obj 671 593 tgl 15 0 empty empty empty 17 7 0 10 -262144 -1 -1 1
1;
#X obj 671 618 metro 15;
#X obj 61 590 clip~ -1 1;
#X obj 930 858 clip~ -1 1;
#X obj 275 281 * 50000;
#X obj 425 285 * 35000;
#X obj 676 293 * 53000;
#X obj 825 297 * 38000;
#X obj 546 313 * 17000;
#X obj 947 325 * 17000;
#X obj 427 208 pow 2;
#X obj 826 221 pow 2;
#X obj 103 740 *~ 0.1;
#X obj 103 715 osc~ 330;
#X obj 529 151 mod 7;
#X obj 60 565 *~ 5;
#X obj 930 832 *~ 5;
#X connect 1 0 3 1;
#X connect 2 0 3 0;
#X connect 3 0 25 0;
#X connect 4 0 5 0;
#X connect 5 0 6 0;
#X connect 6 0 8 1;
#X connect 7 0 8 2;
#X connect 8 1 125 0;
#X connect 10 0 26 0;
#X connect 12 0 13 0;
#X connect 12 0 14 0;
#X connect 13 0 12 1;
#X connect 14 0 10 0;
#X connect 15 0 39 0;
#X connect 16 0 17 0;
#X connect 16 0 24 0;
#X connect 17 0 16 1;
#X connect 18 0 38 0;
#X connect 19 0 120 0;
#X connect 21 0 22 0;
#X connect 21 0 115 0;
#X connect 23 0 20 0;
#X connect 23 0 114 0;
#X connect 24 0 19 0;
#X connect 25 0 8 0;
#X connect 26 0 23 0;
#X connect 28 0 29 0;
#X connect 28 0 124 0;
#X connect 29 0 28 1;
#X connect 30 0 40 0;
#X connect 31 0 32 0;
#X connect 32 0 33 0;
#X connect 33 0 37 0;
#X connect 34 0 31 0;
#X connect 35 0 36 0;
#X connect 36 0 41 0;
#X connect 37 0 118 0;
#X connect 38 0 16 0;
#X connect 39 0 12 0;
#X connect 40 0 28 0;
#X connect 41 0 8 1;
#X connect 45 0 46 0;
#X connect 45 0 47 0;
#X connect 46 0 45 1;
#X connect 47 0 71 0;
#X connect 48 0 69 0;
#X connect 49 0 50 0;
#X connect 49 0 56 0;
#X connect 50 0 49 1;
#X connect 51 0 68 0;
#X connect 53 0 54 0;
#X connect 53 0 117 0;
#X connect 55 0 52 0;
#X connect 55 0 116 0;
#X connect 56 0 72 0;
#X connect 57 0 55 0;
#X connect 58 0 59 0;
#X connect 58 0 64 0;
#X connect 59 0 58 1;
#X connect 60 0 70 0;
#X connect 61 0 62 0;
#X connect 62 0 63 0;
#X connect 63 0 67 0;
#X connect 64 0 73 0;
#X connect 65 0 66 0;
#X connect 66 0 84 0;
#X connect 67 0 119 0;
#X connect 68 0 49 0;
#X connect 69 0 45 0;
#X connect 70 0 58 0;
#X connect 71 0 57 0;
#X connect 72 0 121 0;
#X connect 73 0 61 0;
#X connect 75 0 77 1;
#X connect 76 0 77 0;
#X connect 77 0 83 0;
#X connect 78 0 79 0;
#X connect 79 0 80 0;
#X connect 80 0 82 1;
#X connect 81 0 82 2;
#X connect 82 1 126 0;
#X connect 83 0 82 0;
#X connect 84 0 82 1;
#X connect 85 0 101 0;
#X connect 86 0 88 0;
#X connect 87 0 90 0;
#X connect 88 0 87 0;
#X connect 88 1 89 0;
#X connect 89 0 90 1;
#X connect 90 0 91 0;
#X connect 90 0 92 0;
#X connect 91 0 90 1;
#X connect 92 0 93 0;
#X connect 92 1 85 0;
#X connect 93 0 94 0;
#X connect 94 0 95 0;
#X connect 94 1 96 0;
#X connect 94 2 97 0;
#X connect 94 3 98 0;
#X connect 94 4 99 0;
#X connect 94 5 100 0;
#X connect 101 0 102 0;
#X connect 102 0 103 0;
#X connect 103 0 93 1;
#X connect 104 0 39 1;
#X connect 105 0 38 1;
#X connect 106 0 40 1;
#X connect 107 0 69 1;
#X connect 108 0 68 1;
#X connect 109 0 70 1;
#X connect 110 0 111 0;
#X connect 111 0 86 0;
#X connect 112 0 0 0;
#X connect 113 0 0 1;
#X connect 114 0 1 0;
#X connect 115 0 1 0;
#X connect 116 0 75 0;
#X connect 117 0 75 0;
#X connect 118 0 35 0;
#X connect 119 0 65 0;
#X connect 120 0 21 0;
#X connect 121 0 53 0;
#X connect 123 0 122 0;
#X connect 124 0 34 0;
#X connect 125 0 112 0;
#X connect 126 0 113 0;
