#N canvas 186 41 1037 674 10;
#X obj 172 12 cnv 15 146 146 empty empty empty 20 12 0 14 -261578 -66577
0;
#X obj 12 12 cnv 15 146 146 empty empty empty 20 12 0 14 -261578 -66577
0;
#X obj 13 16 vsl 25 90 0.01 1 1 0 \$0-fader1snd \$0-fader1rcv empty
0 -9 0 10 -261682 -260097 -1 0 1;
#X obj 40 16 vsl 25 90 0.01 1 1 0 \$0-fader2snd \$0-fader2rcv empty
0 -9 0 10 -261682 -260097 -1 0 1;
#X obj 67 16 vsl 25 90 0.01 1 1 0 \$0-fader3snd \$0-fader3rcv empty
0 -9 0 10 -261682 -260097 -1 0 1;
#X obj 94 16 vsl 25 90 0.01 1 1 0 \$0-fader4snd \$0-fader4rcv empty
0 -9 0 10 -261682 -260097 -1 0 1;
#X obj 420 367 *~;
#X obj 453 367 *~;
#X obj 535 571 outlet~;
#X obj 634 572 outlet~;
#X obj 509 367 *~;
#X obj 535 367 *~;
#X obj 599 367 *~;
#X obj 625 367 *~;
#X obj 689 367 *~;
#X obj 715 367 *~;
#X obj 420 321 adapan;
#X obj 270 484 s~ \$0-tovuL;
#X obj 372 486 s~ \$0-tovuR;
#X obj 295 437 mux~ . . . .;
#X obj 373 439 mux~ . . . .;
#X obj 122 32 hradio 9 1 0 4 \$0-vuselectorsnd \$0-vuselectorrcv empty
0 -8 0 10 -228856 -260097 -1 0;
#X obj 177 262 r~ \$0-tovuL;
#X obj 248 263 r~ \$0-tovuR;
#X obj 178 284 env~;
#X obj 248 284 env~;
#X obj 178 306 - 90;
#X obj 248 307 - 90;
#X obj 13 111 tgl 25 1 \$0-mute1snd \$0-mute1rcv empty 17 7 0 10 -239465
-257985 -1 1 1;
#X obj 40 111 tgl 25 1 \$0-mute2snd \$0-mute2rcv empty 17 7 0 10 -239465
-257985 -1 1 1;
#X obj 67 111 tgl 25 1 \$0-mute3snd \$0-mute3rcv empty 17 7 0 10 -239465
-257985 -1 1 1;
#X obj 94 111 tgl 25 1 \$0-mute4snd \$0-mute4rcv empty 17 7 0 10 -239465
-257985 -1 1 1;
#X obj 462 438 *~;
#X obj 493 437 *~;
#X obj 534 438 *~;
#X obj 565 437 *~;
#X obj 609 438 *~;
#X obj 640 437 *~;
#X obj 679 438 *~;
#X obj 710 437 *~;
#X obj 792 378 smoother 10;
#X obj 869 377 smoother 10;
#X obj 882 398 smoother 10;
#X obj 802 398 smoother 10;
#X obj 430 342 smoother 100;
#X obj 609 343 smoother 100;
#X obj 697 340 smoother 100;
#X obj 515 342 smoother 100;
#X obj 697 216 - 0.01;
#X obj 627 216 - 0.01;
#X obj 527 216 - 0.01;
#X obj 437 216 - 0.01;
#X obj 12 301 key;
#X obj 10 422 s \$0-mute1rcv;
#X obj 20 442 s \$0-mute2rcv;
#X obj 30 462 s \$0-mute3rcv;
#X obj 40 482 s \$0-mute4rcv;
#X obj 12 346 spigot;
#X obj 24 319 r keycontrol;
#X text 894 204 macros;
#X obj 795 204 s \$0-fader1rcv;
#X obj 918 136 inlet;
#X obj 795 158 route fader1 fader2 fader3 fader4 mute1 mute2 mute3
mute4;
#X obj 696 195 r \$0-fader4snd;
#X obj 605 193 r \$0-fader3snd;
#X obj 516 195 r \$0-fader2snd;
#X obj 419 194 r \$0-fader1snd;
#X obj 741 236 r \$0-pan4snd;
#X obj 631 236 r \$0-pan3snd;
#X obj 541 236 r \$0-pan2snd;
#X obj 451 239 r \$0-pan1snd;
#X obj 776 318 r \$0-mute1snd;
#X obj 786 338 r \$0-mute2snd;
#X obj 866 319 r \$0-mute3snd;
#X obj 876 338 r \$0-mute4snd;
#X obj 279 403 r \$0-vuselectorsnd;
#X obj 178 363 s \$0-vuLrcv;
#X obj 264 364 s \$0-vuRrcv;
#X obj 354 104 hradio 15 1 0 2 \$0-tabsnd \$0-tabrcv empty 0 -8 0 10
-261674 -259727 -1 0;
#X obj 25 208 namecanvas \$0-mixer4;
#N canvas 0 50 450 300 tabs 0;
#X msg 65 97 0;
#X obj 64 148 pack f f;
#X obj 44 70 t f f b;
#X msg 98 123 10;
#X msg 126 123 170;
#X msg 153 123 330;
#X msg 173 72 set \$1;
#X obj 182 27 loadbang;
#X msg 182 49 0;
#X msg 64 172 donecanvasdialog 1 -1 \$1 0 -1 1 1 150 150 \$2 10 \,
dirty 0;
#X obj 44 47 r \$0-tabsnd;
#X obj 98 98 sel 0 1;
#X obj 64 198 s \$0-mixer4;
#X obj 173 94 s \$0-tabrcv;
#X msg 36 101 -1;
#X connect 0 0 1 0;
#X connect 1 0 9 0;
#X connect 2 0 14 0;
#X connect 2 1 11 0;
#X connect 2 2 0 0;
#X connect 3 0 1 1;
#X connect 4 0 1 1;
#X connect 5 0 1 1;
#X connect 6 0 13 0;
#X connect 7 0 8 0;
#X connect 8 0 2 0;
#X connect 8 0 6 0;
#X connect 9 0 12 0;
#X connect 10 0 2 0;
#X connect 10 0 6 0;
#X connect 11 0 3 0;
#X connect 11 1 4 0;
#X connect 11 2 5 0;
#X connect 14 0 1 0;
#X restore 25 188 pd tabs;
#X obj 285 138 hradio 15 1 0 2 \$0-tabsnd \$0-tabrcv empty 0 -8 0 10
-261674 -259727 -1 0;
#N canvas 1 53 450 300 comp 0;
#X obj 106 46 inlet~;
#X obj 242 45 inlet~;
#X obj 107 227 outlet~;
#X obj 272 228 outlet~;
#X obj 315 70 r \$0-compswitchsnd;
#X obj 98 145 *~ 1;
#X obj 219 147 *~ 1;
#X obj 307 106 == 0;
#X connect 0 0 5 0;
#X connect 1 0 6 0;
#X connect 4 0 7 0;
#X connect 5 0 2 0;
#X connect 6 0 3 0;
#X connect 7 0 5 1;
#X connect 7 0 6 1;
#X restore 558 498 pd comp;
#X obj 176 15 tgl 15 1 \$0-compswitchsnd \$0-compswitchrcv Comp 17
7 0 10 -261234 -262144 -1 0 1;
#X obj 176 35 vsl 15 100 -40 0 0 1 \$0-thresholdsnd \$0-thresholdrcv
thr 1 20 0 8 -261676 -258892 -1 9900 1;
#X obj 193 35 vsl 15 100 1 20 1 1 \$0-ratiosnd \$0-ratiorcv ?:1 1 20
0 8 -260963 -258892 -1 0 1;
#X obj 210 35 vsl 15 100 5 400 1 1 \$0-attacksnd \$0-attackrcv atk
1 20 0 8 -260651 -258892 -1 0 1;
#X obj 244 35 vsl 15 100 0 30 0 1 \$0-makeupsnd \$0-makeuprcv mkp 1
20 0 8 -261344 -258892 -1 0 1;
#X obj 12 373 sel 49 50 51 52;
#X obj 178 337 spigot;
#X obj 247 335 spigot;
#X obj 227 35 vsl 15 100 10 1000 1 1 \$0-releasesnd \$0-releasercv
rel 1 20 0 8 -260287 -258892 -1 0 1;
#X obj 261 35 vsl 15 100 20 1000 1 1 \$0-hipsnd \$0-hiprcv hip 1 20
0 8 -260767 -258892 -1 0 1;
#X obj 140 14 tgl 15 0 \$0-switchsnd \$0-switchrcv empty 17 7 0 10
-253461 -258576 -1 0 1;
#N canvas 1 53 450 300 switch 0;
#X obj 130 73 r \$0-switchsnd;
#X msg 130 108 set \$1;
#X obj 130 130 s \$0-switchrcv;
#X obj 204 240 outlet;
#X connect 0 0 1 0;
#X connect 0 0 3 0;
#X connect 1 0 2 0;
#X restore 636 52 pd switch;
#X obj 300 14 tgl 15 0 \$0-switchsnd \$0-switchrcv empty 17 7 0 10
-253461 -258576 -1 0 1;
#X obj 636 73 switch~;
#X text 18 510 ^ key control \; numbers 1-4 control channels 1-4;
#N canvas 159 125 753 313 \$0-dyncatches 0;
#X obj 77 171 dyncatch~;
#X obj 127 135 dyncatch~;
#X obj 178 189 dyncatch~;
#X obj 227 162 dyncatch~;
#X obj 77 242 outlet~;
#X obj 127 242 outlet~;
#X obj 177 242 outlet~;
#X obj 227 242 outlet~;
#X obj 287 187 dyncatch~;
#X obj 337 138 dyncatch~;
#X obj 386 198 dyncatch~;
#X obj 437 174 dyncatch~;
#X obj 287 242 outlet~;
#X obj 337 242 outlet~;
#X obj 387 242 outlet~;
#X obj 437 242 outlet~;
#X obj 80 65 makefilename %s-bus1L;
#X obj 90 85 makefilename %s-bus1R;
#X obj 220 65 makefilename %s-bus2L;
#X obj 230 85 makefilename %s-bus2R;
#X obj 361 65 makefilename %s-bus3L;
#X obj 370 85 makefilename %s-bus3R;
#X obj 500 65 makefilename %s-bus4L;
#X obj 510 85 makefilename %s-bus4R;
#X obj 141 36 canvasdollarzero 2;
#X obj 30 9 inlet;
#X connect 0 0 4 0;
#X connect 1 0 5 0;
#X connect 2 0 6 0;
#X connect 3 0 7 0;
#X connect 8 0 12 0;
#X connect 9 0 13 0;
#X connect 10 0 14 0;
#X connect 11 0 15 0;
#X connect 16 0 0 0;
#X connect 17 0 1 0;
#X connect 18 0 2 0;
#X connect 19 0 3 0;
#X connect 20 0 8 0;
#X connect 21 0 9 0;
#X connect 22 0 10 0;
#X connect 23 0 11 0;
#X connect 24 0 16 0;
#X connect 24 0 17 0;
#X connect 24 0 18 0;
#X connect 24 0 19 0;
#X connect 24 0 20 0;
#X connect 24 0 21 0;
#X connect 24 0 22 0;
#X connect 24 0 23 0;
#X connect 25 0 24 0;
#X restore 552 138 pd \$0-dyncatches;
#X obj 374 172 inlet~ pan1;
#X obj 504 172 inlet~ pan2;
#X obj 614 172 inlet~ pan3;
#X obj 724 172 inlet~ pan4;
#X obj 510 321 adapan;
#X obj 607 317 adapan;
#X obj 687 317 adapan;
#X obj 450 301 smoother 40;
#X obj 540 298 smoother 40;
#X obj 630 298 smoother 40;
#X obj 740 298 smoother 40;
#X obj 350 274 r allguis;
#X obj 338 250 loadbang;
#X obj 317 300 value allguistgl;
#N canvas 177 50 729 332 indivouts 0;
#X obj 43 24 inlet~;
#X obj 93 24 inlet~;
#X obj 149 24 inlet~;
#X obj 199 24 inlet~;
#X obj 253 24 inlet~;
#X obj 303 24 inlet~;
#X obj 353 24 inlet~;
#X obj 403 24 inlet~;
#X obj 470 29 inlet switch;
#X obj 470 51 switch~, f 29;
#X obj 209 217 dac~ 5 6 7 8 9 10 11 12;
#X connect 0 0 10 0;
#X connect 1 0 10 1;
#X connect 2 0 10 2;
#X connect 3 0 10 3;
#X connect 4 0 10 4;
#X connect 5 0 10 5;
#X connect 6 0 10 6;
#X connect 7 0 10 7;
#X connect 8 0 9 0;
#X restore 739 506 pd indivouts;
#X obj 131 133 tgl 15 1 \$0-outputswitchsnd \$0-outputswitchrcv out
1 18 0 8 -261548 -262144 -1 0 1;
#X obj 918 450 r \$0-outputswitchsnd;
#X obj 557 530 *~ 1;
#X obj 623 528 *~ 1;
#X obj 926 531 == 0;
#X obj 181 216 canvasargs;
#N canvas 182 301 1177 342 state_saving 1;
#X obj 27 276 pdlua;
#X obj 181 195 outlet;
#X obj 94 87 pack \$1 \$2 \$3 \$4 \$5 \$6 \$7 \$8 \$9 \$10 \$11 \$12
\$13 \$14, f 80;
#X obj 28 14 inlet;
#X msg 30 254 load adlibsavestate.pd_lua;
#X obj 187 134 adlibsavestate \$0-fader1 \$0-fader2 \$0-fader3 \$0-fader4
\$0-pan1 \$0-pan2 \$0-pan3 \$0-pan4 \$0-mute1 \$0-mute2 \$0-mute3 \$0-mute4
\$0-switch \$0-outputswitch;
#X connect 2 0 5 0;
#X connect 3 0 2 0;
#X connect 3 0 4 0;
#X connect 4 0 0 0;
#X connect 5 0 1 0;
#X restore 181 192 pd state_saving;
#X floatatom 15 139 3 -100 100 0 - #0-pan1rcv #0-pan1snd, f 3;
#X floatatom 41 139 3 -100 100 0 - #0-pan2rcv #0-pan2snd, f 3;
#X floatatom 68 139 3 -100 100 0 - #0-pan3rcv #0-pan3snd, f 3;
#X floatatom 95 139 3 -100 100 0 - #0-pan4rcv #0-pan4snd, f 3;
#X obj 451 261 / 200;
#X obj 541 258 / 200;
#X obj 631 258 / 200;
#X obj 741 258 / 200;
#X obj 741 278 + 0.5;
#X obj 631 277 + 0.5;
#X obj 542 278 + 0.5;
#X obj 451 280 + 0.5;
#X obj 181 169 initbang;
#X obj 552 112 initbang;
#X obj 795 182 maxlib/scale 0 127 0.01 1 2;
#X obj 123 46 vu 14 80 \$0-vuLrcv empty -1 -8 0 10 -165780 -1 0 0;
#X obj 140 46 vu 14 80 \$0-vuRrcv empty -1 -8 0 10 -145305 -1 0 0;
#X connect 6 0 19 0;
#X connect 6 0 32 0;
#X connect 7 0 20 0;
#X connect 7 0 33 0;
#X connect 10 0 19 1;
#X connect 10 0 34 0;
#X connect 11 0 20 1;
#X connect 11 0 35 0;
#X connect 12 0 19 2;
#X connect 12 0 36 0;
#X connect 13 0 20 2;
#X connect 13 0 37 0;
#X connect 14 0 19 3;
#X connect 14 0 38 0;
#X connect 15 0 20 3;
#X connect 15 0 39 0;
#X connect 16 0 6 0;
#X connect 16 1 7 0;
#X connect 19 0 17 0;
#X connect 20 0 18 0;
#X connect 22 0 24 0;
#X connect 23 0 25 0;
#X connect 24 0 26 0;
#X connect 25 0 27 0;
#X connect 26 0 89 0;
#X connect 27 0 90 0;
#X connect 32 0 82 0;
#X connect 32 0 113 0;
#X connect 33 0 82 1;
#X connect 33 0 113 1;
#X connect 34 0 82 0;
#X connect 34 0 113 2;
#X connect 35 0 82 1;
#X connect 35 0 113 3;
#X connect 36 0 82 0;
#X connect 36 0 113 4;
#X connect 37 0 82 1;
#X connect 37 0 113 5;
#X connect 38 0 82 0;
#X connect 38 0 113 6;
#X connect 39 0 82 1;
#X connect 39 0 113 7;
#X connect 40 0 32 1;
#X connect 40 0 33 1;
#X connect 41 0 36 1;
#X connect 41 0 37 1;
#X connect 42 0 38 1;
#X connect 42 0 39 1;
#X connect 43 0 34 1;
#X connect 43 0 35 1;
#X connect 44 0 6 1;
#X connect 44 0 7 1;
#X connect 45 0 12 1;
#X connect 45 0 13 1;
#X connect 46 0 14 1;
#X connect 46 0 15 1;
#X connect 47 0 10 1;
#X connect 47 0 11 1;
#X connect 48 0 46 0;
#X connect 49 0 45 0;
#X connect 50 0 47 0;
#X connect 51 0 44 0;
#X connect 52 0 57 0;
#X connect 57 0 88 0;
#X connect 58 0 57 1;
#X connect 61 0 62 0;
#X connect 62 0 135 0;
#X connect 63 0 48 0;
#X connect 64 0 49 0;
#X connect 65 0 50 0;
#X connect 66 0 51 0;
#X connect 67 0 128 0;
#X connect 68 0 127 0;
#X connect 69 0 126 0;
#X connect 70 0 125 0;
#X connect 71 0 40 0;
#X connect 72 0 43 0;
#X connect 73 0 41 0;
#X connect 74 0 42 0;
#X connect 75 0 19 0;
#X connect 75 0 20 0;
#X connect 82 0 116 0;
#X connect 82 1 117 0;
#X connect 88 0 53 0;
#X connect 88 1 54 0;
#X connect 88 2 55 0;
#X connect 88 3 56 0;
#X connect 89 0 76 0;
#X connect 90 0 77 0;
#X connect 94 0 96 0;
#X connect 98 0 16 0;
#X connect 98 1 16 2;
#X connect 98 2 103 0;
#X connect 98 3 103 2;
#X connect 98 4 104 0;
#X connect 98 5 104 2;
#X connect 98 6 105 0;
#X connect 98 7 105 2;
#X connect 99 0 16 1;
#X connect 100 0 103 1;
#X connect 101 0 104 1;
#X connect 102 0 105 1;
#X connect 103 0 10 0;
#X connect 103 1 11 0;
#X connect 104 0 12 0;
#X connect 104 1 13 0;
#X connect 105 0 14 0;
#X connect 105 1 15 0;
#X connect 106 0 16 1;
#X connect 107 0 103 1;
#X connect 108 0 104 1;
#X connect 109 0 105 1;
#X connect 110 0 112 0;
#X connect 111 0 112 0;
#X connect 112 0 90 1;
#X connect 112 0 89 1;
#X connect 115 0 113 8;
#X connect 115 0 118 0;
#X connect 116 0 8 0;
#X connect 117 0 9 0;
#X connect 118 0 117 1;
#X connect 118 0 116 1;
#X connect 120 0 119 0;
#X connect 125 0 132 0;
#X connect 126 0 131 0;
#X connect 127 0 130 0;
#X connect 128 0 129 0;
#X connect 129 0 109 0;
#X connect 130 0 108 0;
#X connect 131 0 107 0;
#X connect 132 0 106 0;
#X connect 133 0 120 0;
#X connect 134 0 98 0;
#X connect 135 0 60 0;
#X coords 0 -1 1 1 150 150 2 10 10;
