#N canvas 5 57 1910 987 10;
#X obj 102 102 cnv 15 146 106 empty empty empty 20 12 0 14 -261234
-66577 0;
#X msg 498 182 \; pd dsp \$1;
#X obj 142 105 tgl 28 0 \$0-dspsnd \$0-dsprcv dsp 3 6 0 10 -259484
-262130 -99849 0 1;
#X obj 363 312 dac~;
#X obj 408 158 inlet~;
#X obj 352 157 inlet~;
#X obj 108 105 vsl 30 97 0.01 1.1 1 0 \$0-volsnd \$0-volrcv vol 5 4
0 10 -259753 -184321 -261234 8818 1;
#X obj 352 279 *~;
#X obj 408 280 *~;
#X floatatom 205 120 5 0 0 2 cpu #0-cpu -;
#X obj 20 159 cputime;
#X msg 22 47 1;
#X obj 20 131 t b b;
#X obj 20 219 * 0.1;
#X obj 20 188 int;
#X obj 142 135 tgl 28 1 \$0-kbsnd \$0-kbrcv kb 4 7 0 10 -260512 -261752
-1 1 1;
#X obj 145 279 s keycontrol;
#X text 324 37 most of the buttons should be self explanatory. 'kb'
turns keyboard control on and off globally., f 36;
#X text 317 112 madam data apr 2017;
#X obj 203 147 bng 15 250 50 0 \$0-cfgbang empty conf 17 7 0 10 -259613
-261824 -1;
#X obj 20 250 s \$0-cpu;
#N canvas 156 67 460 252 config 0;
#X obj 42 28 bng 15 250 50 0 empty empty empty 17 7 0 10 -262144 -1
-1;
#X obj 42 152 s recordingslocation;
#X obj 42 72 openpanel;
#X text 60 28 click to set recordings folder location. Select any file
in the folder to register that folder as the save location., f 36
;
#X text 180 138 make sure to open the output abstraction and save it
once you've done this!, f 22;
#X obj 279 32 loadbang;
#X msg 279 51 load adabasedir.pd_lua;
#X obj 279 70 pdlua;
#X obj 42 129 adabasedir;
#X connect 0 0 2 0;
#X connect 2 0 8 0;
#X connect 5 0 6 0;
#X connect 6 0 7 0;
#X connect 8 0 1 0;
#X restore 107 402 pd config;
#X obj 116 329 r \$0-cfgbang;
#X msg 116 351 \; pd-config vis 1;
#N canvas 12 53 699 382 recorder 0;
#X obj 101 101 cnv 15 98 38 empty empty empty 20 12 0 14 -261169 -66577
0;
#X obj 257 97 openpanel;
#X obj 104 103 bng 35 250 50 0 empty \$0-recordbutton rec 8 17 0 11
-261681 -166441 -262144;
#X obj 258 124 symbol hi;
#X symbolatom 142 118 8 0 0 2 filename - -;
#X msg 261 175 open \$1;
#X obj 218 60 inlet~;
#X obj 297 60 inlet~;
#X obj 259 237 writesf~ 2;
#X obj 138 190 tgl 15 0 empty empty empty 17 7 0 10 -262144 -1 -1 0
1;
#X obj 149 209 sel 0 1;
#X obj 155 261 s \$0-recordbutton;
#X msg 214 203 stop;
#X obj 217 225 print;
#X msg 378 111 start;
#X obj 351 88 t b b;
#X msg 5 210 color 34;
#X msg 95 230 color 13;
#X obj 129 32 loadbang;
#X msg 129 54 set myfile;
#X obj 423 35 r recordingslocation;
#X obj 423 57 t b s;
#X obj 356 23 loadbang;
#X msg 431 118 set /home/ada/Desktop/%s.wav;
#X obj 258 145 makefilename /home/ada/Desktop/%s.wav;
#X msg 444 93 set set \$1%s.wav;
#X connect 2 0 9 0;
#X connect 3 0 24 0;
#X connect 4 0 3 1;
#X connect 5 0 8 0;
#X connect 5 0 13 0;
#X connect 6 0 8 0;
#X connect 7 0 8 1;
#X connect 9 0 10 0;
#X connect 10 0 12 0;
#X connect 10 0 16 0;
#X connect 10 1 15 0;
#X connect 10 1 17 0;
#X connect 12 0 8 0;
#X connect 14 0 8 0;
#X connect 15 0 14 0;
#X connect 15 1 3 0;
#X connect 16 0 11 0;
#X connect 17 0 11 0;
#X connect 18 0 19 0;
#X connect 19 0 4 0;
#X connect 20 0 21 0;
#X connect 21 0 23 0;
#X connect 21 1 25 0;
#X connect 22 0 23 0;
#X connect 23 0 24 0;
#X connect 24 0 5 0;
#X connect 25 0 23 0;
#X coords 0 -1 1 1 100 40 1 100 100;
#X restore 142 165 pd recorder;
#X obj 172 135 tgl 28 0 \$0-allguissnd \$0-allguisrcv gui 3 6 0 10
-260336 -136768 -99849 1 1;
#X obj 498 152 r \$0-dspsnd;
#X obj 246 311 r \$0-allguissnd;
#X obj 145 249 r \$0-kbsnd;
#X obj 20 103 metro 1000;
#X obj 419 192 r \$0-volsnd;
#X obj 362 248 smoother 70;
#X obj 436 247 smoother 70;
#X obj 419 214 - 0.01;
#N canvas 505 81 450 300 vu 0;
#X obj 132 107 env~;
#X obj 132 129 - 90;
#X obj 132 184 s \$0-vurcv;
#X obj 132 151 spigot;
#X obj 132 85 *~ 0.5;
#X obj 132 50 inlet~;
#X obj 272 174 switch~;
#X obj 341 64 r allguis;
#X obj 324 38 loadbang;
#X obj 327 112 value allguistgl;
#X connect 0 0 1 0;
#X connect 1 0 3 0;
#X connect 3 0 2 0;
#X connect 4 0 0 0;
#X connect 5 0 4 0;
#X connect 7 0 9 0;
#X connect 8 0 9 0;
#X connect 9 0 6 0;
#X connect 9 0 3 1;
#X restore 395 364 pd vu;
#X obj 122 58 s \$0-allguisrcv;
#X obj 229 426 s allguis;
#X obj 246 350 t b f;
#X obj 273 390 value allguistgl;
#X obj 173 119 cnv 10 27 13 empty empty 0r5 2 5 0 12 -202944 -66577
0;
#X obj 173 105 cnv 10 27 13 empty empty asterism 2 3 0 12 -136557 -253900
0;
#X msg 128 32 0.75;
#X obj 20 19 loadbang;
#X connect 4 0 8 0;
#X connect 5 0 7 0;
#X connect 7 0 3 0;
#X connect 7 0 24 0;
#X connect 7 0 34 0;
#X connect 8 0 3 1;
#X connect 8 0 24 1;
#X connect 8 0 34 0;
#X connect 10 0 14 0;
#X connect 11 0 29 0;
#X connect 11 0 35 0;
#X connect 12 0 10 0;
#X connect 12 1 10 1;
#X connect 13 0 20 0;
#X connect 14 0 13 0;
#X connect 22 0 23 0;
#X connect 26 0 1 0;
#X connect 27 0 37 0;
#X connect 28 0 16 0;
#X connect 29 0 12 0;
#X connect 30 0 33 0;
#X connect 31 0 7 1;
#X connect 32 0 8 1;
#X connect 33 0 32 0;
#X connect 33 0 31 0;
#X connect 37 0 36 0;
#X connect 37 1 38 0;
#X connect 41 0 6 0;
#X connect 42 0 11 0;
#X connect 42 0 41 0;
#X coords 0 -1 1 1 150 110 2 100 100;
