#N canvas 337 296 947 504 10;
#X obj 12 12 cnv 15 146 81 empty empty empty 20 12 0 14 -143168 -66577
0;
#X floatatom 38 22 4 5 1500 0 del #0-maxdelayrcv #0-maxdelaysnd, f
4;
#X obj 560 143 r \$0-maxdelaysnd;
#X obj 252 96 inlet~;
#X floatatom 35 58 4 -48 48 0 - #0-unit1pitchrcv #0-unit1pitchsnd,
f 4;
#X obj 18 57 tgl 15 0 \$0-unit1tglsnd \$0-unit1tglrcv empty 17 7 0
10 -259584 -1 -1 1 1;
#X floatatom 35 75 4 -48 48 0 - #0-unit4pitchrcv #0-unit4pitchsnd,
f 4;
#X obj 18 74 tgl 15 0 \$0-unit4tglsnd \$0-unit4tglrcv empty 17 7 0
10 -259584 -1 -1 0 1;
#X floatatom 80 58 4 -48 48 0 - #0-unit2pitchrcv #0-unit2pitchsnd,
f 4;
#X obj 63 57 tgl 15 0 \$0-unit2tglsnd \$0-unit2tglrcv empty 17 7 0
10 -259584 -1 -1 1 1;
#X floatatom 80 75 4 -48 48 0 - #0-unit5pitchrcv #0-unit5pitchsnd,
f 4;
#X obj 63 74 tgl 15 0 \$0-unit5tglsnd \$0-unit5tglrcv empty 17 7 0
10 -259584 -1 -1 0 1;
#X floatatom 125 58 4 -48 48 0 - #0-unit3pitchrcv #0-unit3pitchsnd
, f 4;
#X obj 108 57 tgl 15 0 \$0-unit3tglsnd \$0-unit3tglrcv empty 17 7 0
10 -259584 -1 -1 1 1;
#X floatatom 125 75 4 -48 48 0 - #0-unit6pitchrcv #0-unit6pitchsnd
, f 4;
#X obj 108 74 tgl 15 0 \$0-unit6tglsnd \$0-unit6tglrcv empty 17 7 0
10 -259584 -1 -1 0 1;
#X obj 130 22 tgl 15 0 \$0-bypasssnd \$0-bypassrcv bp 17 8 0 10 -259584
-1 -1 1 1;
#N canvas 1 53 450 300 pitchrcv 0;
#X obj 38 37 r \$0-unit1pitchsnd;
#X obj 48 57 r \$0-unit2pitchsnd;
#X obj 180 33 r \$0-unit3pitchsnd;
#X obj 188 57 r \$0-unit4pitchsnd;
#X obj 326 30 r \$0-unit5pitchsnd;
#X obj 324 55 r \$0-unit6pitchsnd;
#X obj 29 119 outlet;
#X obj 87 119 outlet;
#X obj 146 120 outlet;
#X obj 204 120 outlet;
#X obj 261 122 outlet;
#X obj 320 123 outlet;
#X connect 0 0 6 0;
#X connect 1 0 7 0;
#X connect 2 0 8 0;
#X connect 3 0 9 0;
#X connect 4 0 10 0;
#X connect 5 0 11 0;
#X restore 358 65 pd pitchrcv;
#N canvas 1 53 450 300 tglrcv 0;
#X obj 50 72 r \$0-unit1tglsnd;
#X obj 56 98 r \$0-unit2tglsnd;
#X obj 170 72 r \$0-unit3tglsnd;
#X obj 180 92 r \$0-unit4tglsnd;
#X obj 289 70 r \$0-unit5tglsnd;
#X obj 299 90 r \$0-unit6tglsnd;
#X obj 52 175 outlet;
#X obj 101 176 outlet;
#X obj 153 175 outlet;
#X obj 203 175 outlet;
#X obj 256 174 outlet;
#X obj 306 174 outlet;
#X connect 0 0 6 0;
#X connect 1 0 7 0;
#X connect 2 0 8 0;
#X connect 3 0 9 0;
#X connect 4 0 10 0;
#X connect 5 0 11 0;
#X restore 456 62 pd tglrcv;
#X obj 37 255 *~;
#X obj 88 231 smoother 10;
#X obj 101 152 r \$0-bypasssnd;
#X obj 299 483 outlet~;
#X obj 403 485 outlet~;
#N canvas 26 190 900 418 statesaving 0;
#X obj 54 111 pdlua;
#X obj 175 297 outlet;
#X obj 72 60 t b b;
#X obj 54 32 initbang;
#X obj 162 136 pack \$1 \$2 \$3 \$4 \$5 \$6 \$7 \$8 \$9 \$10 \$11 \$12
\$13 \$14 \$15 \$16 \$17 \$18;
#X msg 54 89 load adlibsavestate.pd_lua;
#X obj 157 181 adlibsavestate \$0-index \$0-unit1tgl \$0-unit2tgl \$0-unit3tgl
\$0-unit4tgl \$0-unit5tgl \$0-unit6tgl \$0-unit1pitch \$0-unit2pitch
\$0-unit3pitch \$0-unit4pitch \$0-unit5pitch \$0-unit6pitch \$0-bypass
\$0-maxdelay \$0-spread \$0-arp \$0-fb;
#X connect 2 0 4 0;
#X connect 2 1 5 0;
#X connect 3 0 2 0;
#X connect 4 0 6 0;
#X connect 5 0 0 0;
#X connect 6 0 1 0;
#X restore 104 345 pd statesaving;
#X floatatom 57 410 5 0 0 0 index #0-indexrcv #0-indexsnd, f 5;
#X obj 114 375 canvasargs;
#X obj 646 85 inlet midi;
#N canvas 397 254 450 300 midi 0;
#X obj 10 210 s \$0-unit1pitchrcv;
#X obj 161 15 inlet;
#X obj 160 109 poly 6 1;
#X obj 168 133 pack 0 0;
#X obj 154 157 route 1 2 3 4 5 6;
#X obj 28 234 s \$0-unit2pitchrcv;
#X obj 149 211 s \$0-unit3pitchrcv;
#X obj 168 235 s \$0-unit4pitchrcv;
#X obj 292 210 s \$0-unit5pitchrcv;
#X obj 311 234 s \$0-unit6pitchrcv;
#X obj 161 37 unpack f f;
#X obj 161 59 - 64;
#X obj 161 81 pack f f;
#X connect 1 0 10 0;
#X connect 2 0 3 0;
#X connect 2 1 3 1;
#X connect 3 0 4 0;
#X connect 4 0 0 0;
#X connect 4 1 5 0;
#X connect 4 2 6 0;
#X connect 4 3 7 0;
#X connect 4 4 8 0;
#X connect 4 5 9 0;
#X connect 10 0 11 0;
#X connect 10 1 12 1;
#X connect 11 0 12 0;
#X connect 12 0 2 0;
#X restore 646 107 pd midi;
#X obj 772 72 inlet control;
#X obj 45 12 cnv 8 50 8 empty empty kv 32 2 0 8 -108794 -66577 0;
#X obj 93 12 cnv 8 65 8 empty empty ctrl 46 2 0 8 -108794 -66577 0
;
#X obj 117 300 *~ 0.5;
#N canvas 368 244 450 300 control 0;
#X obj 81 84 unpack f f f f f f;
#X obj 260 94 unpack f f f f f f;
#X obj 81 30 inlet notes;
#X obj 273 39 inlet voices;
#X obj 67 155 s \$0-unit1pitchrcv;
#X obj 77 175 s \$0-unit2pitchrcv;
#X obj 87 195 s \$0-unit3pitchrcv;
#X obj 97 215 s \$0-unit4pitchrcv;
#X obj 107 235 s \$0-unit5pitchrcv;
#X obj 117 255 s \$0-unit6pitchrcv;
#X obj 257 143 s \$0-unit1tglrcv;
#X obj 267 163 s \$0-unit2tglrcv;
#X obj 277 183 s \$0-unit3tglrcv;
#X obj 287 203 s \$0-unit4tglrcv;
#X obj 297 223 s \$0-unit5tglrcv;
#X obj 307 243 s \$0-unit6tglrcv;
#X connect 0 0 4 0;
#X connect 0 1 5 0;
#X connect 0 2 6 0;
#X connect 0 3 7 0;
#X connect 0 4 8 0;
#X connect 0 5 9 0;
#X connect 1 0 10 0;
#X connect 1 1 11 0;
#X connect 1 2 12 0;
#X connect 1 3 13 0;
#X connect 1 4 14 0;
#X connect 1 5 15 0;
#X connect 2 0 0 0;
#X connect 3 0 1 0;
#X restore 774 133 pd control;
#X floatatom 98 22 3 0 100 0 sprd #0-spreadrcv #0-spreadsnd, f 3;
#X obj 245 374 adamonopan;
#X obj 265 394 adamonopan;
#X obj 325 374 adamonopan;
#X obj 345 394 adamonopan;
#X obj 405 374 adamonopan;
#X obj 425 394 adamonopan;
#N canvas 1 53 450 300 spread 0;
#X obj 61 35 r \$0-spreadsnd;
#X obj 61 57 / 100;
#X obj 76 227 outlet;
#X obj 126 227 outlet;
#X obj 176 227 outlet;
#X obj 226 227 outlet;
#X obj 276 227 outlet;
#X obj 326 227 outlet;
#X obj 24 104 * 1;
#X obj 66 104 * 0.66;
#X obj 125 105 * 0.33;
#X obj 184 106 * -0.33;
#X obj 244 108 * -0.66;
#X obj 296 106 * -1;
#X connect 0 0 1 0;
#X connect 1 0 8 0;
#X connect 1 0 9 0;
#X connect 1 0 10 0;
#X connect 1 0 11 0;
#X connect 1 0 12 0;
#X connect 1 0 13 0;
#X connect 8 0 2 0;
#X connect 9 0 3 0;
#X connect 10 0 4 0;
#X connect 11 0 5 0;
#X connect 12 0 6 0;
#X connect 13 0 7 0;
#X restore 539 343 pd spread;
#N canvas 46 107 450 300 pitchctrl 0;
#X obj 173 43 unpack f f;
#X obj 76 15 inlet;
#X obj 173 102 makefilename \$0-unit%dpitchrcv;
#X obj 157 182 s;
#X obj 300 143 symbol;
#X obj 76 37 t a a;
#X obj 63 85 unpack f f;
#X obj 173 65 + 1;
#X connect 0 0 7 0;
#X connect 1 0 5 0;
#X connect 2 0 4 0;
#X connect 4 0 3 1;
#X connect 5 0 6 0;
#X connect 5 1 0 0;
#X connect 6 1 3 0;
#X connect 7 0 2 0;
#X restore 857 122 pd pitchctrl;
#X obj 774 99 route notes voices list delay;
#X obj 899 172 s \$0-maxdelayrcv;
#X obj 12 12 cnv 8 50 8 empty empty ~ 1 3 0 10 -108794 -184906 0;
#X floatatom 129 40 3 0 2000 0 arp #0-arprcv #0-arpsnd, f 3;
#N canvas 458 280 626 373 arpunits 0;
#X obj 82 168 ps2arpdelay;
#X obj 101 31 inlet~;
#X obj 147 31 inlet~;
#X obj 191 31 inlet~;
#X obj 237 31 inlet~;
#X obj 281 31 inlet~;
#X obj 327 31 inlet~;
#X obj 89 240 outlet~;
#X obj 138 240 outlet~;
#X obj 187 240 outlet~;
#X obj 236 240 outlet~;
#X obj 285 240 outlet~;
#X obj 334 240 outlet~;
#X obj 156 168 ps2arpdelay;
#X obj 229 168 ps2arpdelay;
#X obj 303 167 ps2arpdelay;
#X obj 377 167 ps2arpdelay;
#X obj 451 167 ps2arpdelay;
#X obj 360 74 *~ 1;
#X obj 392 74 *~ 2;
#X obj 425 74 *~ 3;
#X obj 459 74 *~ 4;
#X obj 497 75 *~ 5;
#X obj 535 75 *~ 6;
#X obj 432 13 inlet~ arpctrl;
#X connect 0 0 7 0;
#X connect 1 0 0 0;
#X connect 2 0 13 0;
#X connect 3 0 14 0;
#X connect 4 0 15 0;
#X connect 5 0 16 0;
#X connect 6 0 17 0;
#X connect 13 0 8 0;
#X connect 14 0 9 0;
#X connect 15 0 10 0;
#X connect 16 0 11 0;
#X connect 17 0 12 0;
#X connect 18 0 0 1;
#X connect 19 0 13 1;
#X connect 20 0 14 1;
#X connect 21 0 15 1;
#X connect 22 0 16 1;
#X connect 23 0 17 1;
#X connect 24 0 18 0;
#X connect 24 0 19 0;
#X connect 24 0 20 0;
#X connect 24 0 21 0;
#X connect 24 0 22 0;
#X connect 24 0 23 0;
#X restore 265 300 pd arpunits;
#X obj 547 201 r \$0-arpsnd;
#X floatatom 38 40 3 0 140 0 fb #0-fbrcv #0-fbsnd, f 3;
#X obj 441 311 s~ \$0-fb1;
#X obj 503 311 s~ \$0-fb2;
#X obj 564 312 s~ \$0-fb3;
#X obj 626 312 s~ \$0-fb4;
#X obj 688 312 s~ \$0-fb5;
#X obj 749 313 s~ \$0-fb6;
#X obj 453 280 *~;
#X obj 511 282 *~;
#X obj 563 281 *~;
#X obj 632 279 *~;
#X obj 690 281 *~;
#X obj 742 280 *~;
#X obj 638 188 r \$0-fbsnd;
#X obj 638 210 / 100;
#X obj 638 232 smoother 20;
#X obj 266 5 r~ \$0-fb1;
#X obj 331 5 r~ \$0-fb2;
#X obj 395 6 r~ \$0-fb3;
#X obj 460 6 r~ \$0-fb4;
#X obj 521 7 r~ \$0-fb5;
#X obj 586 7 r~ \$0-fb6;
#X obj 561 483 s~ \$0-fbtotalL;
#X obj 296 45 r~ \$0-fbtotalL;
#X floatatom 80 40 3 0 140 0 fb2 #0-fb2rcv #0-fb2snd, f 3;
#X obj 569 413 *~;
#X obj 685 351 r \$0-fb2snd;
#X obj 685 373 / 200;
#X obj 685 396 smoother 20;
#X obj 547 245 *~;
#X obj 557 68 inlet~ arp;
#X obj 557 90 *~ 24;
#X obj 557 112 midiratio~;
#X obj 547 223 smoother 1500;
#X obj 165 224 ps2unitexp;
#X obj 232 223 ps2unitexp;
#X obj 293 241 ps2unitexp;
#X obj 355 221 ps2unitexp;
#X obj 417 234 ps2unitexp;
#X obj 481 221 ps2unitexp;
#X obj 586 29 *~ -1;
#X obj 289 449 hip~ 30;
#X obj 429 452 hip~ 30;
#X connect 2 0 86 2;
#X connect 2 0 83 2;
#X connect 2 0 84 2;
#X connect 2 0 85 2;
#X connect 2 0 87 2;
#X connect 2 0 88 2;
#X connect 3 0 19 0;
#X connect 3 0 86 0;
#X connect 3 0 83 0;
#X connect 3 0 84 0;
#X connect 3 0 85 0;
#X connect 3 0 87 0;
#X connect 3 0 88 0;
#X connect 17 0 83 1;
#X connect 17 1 84 1;
#X connect 17 2 85 1;
#X connect 17 3 86 1;
#X connect 17 4 87 1;
#X connect 17 5 88 1;
#X connect 18 0 83 3;
#X connect 18 1 84 3;
#X connect 18 2 85 3;
#X connect 18 3 86 3;
#X connect 18 4 87 3;
#X connect 18 5 88 3;
#X connect 19 0 32 0;
#X connect 20 0 19 1;
#X connect 21 0 20 0;
#X connect 24 0 26 0;
#X connect 27 0 28 0;
#X connect 29 0 43 0;
#X connect 32 0 90 0;
#X connect 32 0 91 0;
#X connect 35 0 90 0;
#X connect 35 1 91 0;
#X connect 36 0 90 0;
#X connect 36 1 91 0;
#X connect 37 0 90 0;
#X connect 37 1 91 0;
#X connect 38 0 90 0;
#X connect 38 1 91 0;
#X connect 39 0 90 0;
#X connect 39 1 91 0;
#X connect 40 0 90 0;
#X connect 40 1 91 0;
#X connect 41 0 35 1;
#X connect 41 1 36 1;
#X connect 41 2 37 1;
#X connect 41 3 38 1;
#X connect 41 4 39 1;
#X connect 41 5 40 1;
#X connect 43 0 33 0;
#X connect 43 1 33 1;
#X connect 43 2 42 0;
#X connect 43 3 44 0;
#X connect 47 0 35 0;
#X connect 47 0 56 0;
#X connect 47 1 36 0;
#X connect 47 1 57 0;
#X connect 47 2 37 0;
#X connect 47 2 58 0;
#X connect 47 3 38 0;
#X connect 47 3 59 0;
#X connect 47 4 39 0;
#X connect 47 4 60 0;
#X connect 47 5 40 0;
#X connect 47 5 61 0;
#X connect 48 0 82 0;
#X connect 56 0 50 0;
#X connect 57 0 51 0;
#X connect 58 0 52 0;
#X connect 59 0 53 0;
#X connect 60 0 54 0;
#X connect 61 0 55 0;
#X connect 62 0 63 0;
#X connect 63 0 64 0;
#X connect 64 0 56 1;
#X connect 64 0 57 1;
#X connect 64 0 58 1;
#X connect 64 0 59 1;
#X connect 64 0 60 1;
#X connect 64 0 61 1;
#X connect 65 0 83 0;
#X connect 66 0 84 0;
#X connect 67 0 85 0;
#X connect 68 0 86 0;
#X connect 69 0 87 0;
#X connect 70 0 89 0;
#X connect 72 0 86 0;
#X connect 72 0 83 0;
#X connect 72 0 84 0;
#X connect 72 0 85 0;
#X connect 72 0 87 0;
#X connect 72 0 88 0;
#X connect 74 0 71 0;
#X connect 75 0 76 0;
#X connect 76 0 77 0;
#X connect 77 0 74 1;
#X connect 78 0 47 6;
#X connect 79 0 80 0;
#X connect 80 0 81 0;
#X connect 81 0 78 1;
#X connect 82 0 78 0;
#X connect 83 0 47 0;
#X connect 84 0 47 1;
#X connect 85 0 47 2;
#X connect 86 0 47 3;
#X connect 87 0 47 4;
#X connect 88 0 47 5;
#X connect 89 0 88 0;
#X connect 90 0 22 0;
#X connect 90 0 74 0;
#X connect 91 0 23 0;
#X connect 91 0 74 0;
#X coords 0 -1 1 1 150 85 2 10 10;
