#N canvas 5 24 1910 997 10;
#X obj 336 64 cnv 15 1305 867 empty empty REFLECTOR\ 14 229 742 0 30
-233017 -66577 0;
#X obj 829 103 cnv 15 272 202 empty empty empty 20 12 0 14 -174755
-66577 0;
#X obj 938 282 cnv 15 272 202 empty empty empty 20 12 0 14 -257964
-66577 0;
#X obj 560 294 cnv 15 136 187 empty empty empty 20 12 0 14 -257268
-66577 0;
#X obj 1102 352 cnv 15 197 206 empty empty empty 20 12 0 14 -229339
-66577 0;
#X obj 810 519 cnv 15 395 182 empty empty empty 20 12 0 14 -134201
-66577 0;
#X obj 660 462 cnv 15 170 203 empty empty empty 20 12 0 14 -134201
-66577 0;
#X obj 639 191 cnv 15 239 202 empty empty empty 20 12 0 14 -257268
-66577 0;
#X obj 481 117 cnv 15 159 185 empty empty empty 20 12 0 14 -233017
-66577 0;
#N canvas 5 24 1910 997 soundstuff 0;
#X obj 36 42 block~ 1;
#X obj 405 318 cos~;
#X obj 400 856 delwrite~ \$0-delayL;
#X obj 533 311 noise~;
#X obj 289 694 outlet~;
#X floatatom 525 513 5 0 0 0 - - -, f 5;
#X obj 429 460 hip~ 5;
#X obj 404 760 /~;
#X obj 456 629 sig~;
#X obj 449 650 lop~ 0.1;
#X obj 284 153 /~ 10;
#X obj 404 785 bob~;
#X obj 450 573 / 2;
#X obj 1182 302 cos~;
#X obj 1066 678 outlet~;
#X floatatom 1310 475 5 0 0 0 - - -, f 5;
#X obj 1208 448 hip~ 5;
#X obj 1195 739 /~;
#X obj 1245 645 sig~;
#X obj 1238 666 lop~ 0.1;
#X obj 1061 137 /~ 10;
#X obj 1195 764 bob~;
#X obj 1239 589 / 2;
#X obj 1239 614 - 30;
#X obj 450 598 - 30;
#X obj 1191 835 delwrite~ \$0-delayR;
#X obj 449 675 *~;
#X obj 1242 712 *~;
#X obj 436 528 f;
#X obj 575 434 tgl 15 0 empty empty empty 17 7 0 10 -262144 -1 -1 1
1;
#X obj 1241 529 f;
#X obj 1341 497 tgl 15 0 empty empty empty 17 7 0 10 -262144 -1 -1
1 1;
#X obj 525 471 metro 1;
#X obj 1302 535 metro 1;
#X obj 405 422 *~;
#X obj 430 487 env~ 64;
#X obj 1185 417 *~;
#X obj 1236 472 env~ 64;
#X floatatom 1305 434 5 1 5000 0 - - -, f 5;
#X floatatom 832 304 5 0 0 0 - - -, f 5;
#X floatatom 538 641 5 0 0 0 - - -, f 5;
#X obj 433 711 clip~ 0 10000;
#X obj 1242 737 clip~ 0 10000;
#X obj 713 782 *~;
#X obj 808 786 *~;
#X obj 533 336 *~ 0.0005;
#X obj 456 27 r \$0-pitchmodsnd;
#X obj 861 679 r \$0-crossmodsnd;
#X obj 820 505 r \$0-ressnd;
#X obj 1431 487 r \$0-smoothRsnd;
#X obj 647 527 r \$0-smoothLsnd;
#X obj 731 248 r \$0-scalesnd;
#X obj 918 241 r \$0-offsetsnd;
#X obj 717 176 r \$0-scrubsnd;
#X obj 1321 317 r \$0-spdLsnd;
#X obj 1321 342 r \$0-spdRsnd;
#X obj 520 196 r \$0-fbsnd;
#X obj 730 489 r \$0-lpLsnd;
#X obj 904 493 r \$0-lpRsnd;
#X obj 1391 396 loadbang;
#X msg 1391 421 1;
#N canvas 0 0 450 300 smoother 0;
#X obj 58 20 inlet;
#X obj 99 105 line~;
#X obj 109 186 outlet~;
#X obj 208 21 inlet;
#X obj 85 66 pack 0 15;
#X connect 0 0 4 0;
#X connect 1 0 2 0;
#X connect 3 0 4 1;
#X connect 4 0 1 0;
#X restore 718 586 pd smoother 15;
#N canvas 5 24 1910 997 smoother 0;
#X obj 58 20 inlet;
#X obj 99 105 line~;
#X obj 109 186 outlet~;
#X obj 208 21 inlet;
#X obj 85 66 pack 0 15;
#X connect 0 0 4 0;
#X connect 1 0 2 0;
#X connect 3 0 4 1;
#X connect 4 0 1 0;
#X restore 796 611 pd smoother 15;
#N canvas 960 0 950 1015 smoother 0;
#X obj 58 20 inlet;
#X obj 99 105 line~;
#X obj 109 186 outlet~;
#X obj 208 21 inlet;
#X obj 86 66 pack 0 15;
#X connect 0 0 4 0;
#X connect 1 0 2 0;
#X connect 3 0 4 1;
#X connect 4 0 1 0;
#X restore 916 588 pd smoother 15;
#N canvas 5 24 1910 997 smoother 0;
#X obj 58 20 inlet;
#X obj 99 105 line~;
#X obj 109 186 outlet~;
#X obj 208 21 inlet;
#X obj 85 66 pack 0 15;
#X connect 0 0 4 0;
#X connect 1 0 2 0;
#X connect 3 0 4 1;
#X connect 4 0 1 0;
#X restore 755 732 pd smoother 15;
#N canvas 5 24 1910 997 smoother 0;
#X obj 58 20 inlet;
#X obj 99 105 line~;
#X obj 109 186 outlet~;
#X obj 208 21 inlet;
#X obj 85 66 pack 0 25;
#X connect 0 0 4 0;
#X connect 1 0 2 0;
#X connect 3 0 4 1;
#X connect 4 0 1 0;
#X restore 502 246 pd smoother 25;
#X obj 1039 304 noise~;
#X obj 1039 329 *~ 0.0005;
#N canvas 5 24 1910 997 smoother 0;
#X obj 58 20 inlet;
#X obj 99 105 line~;
#X obj 109 186 outlet~;
#X obj 208 21 inlet;
#X obj 85 66 pack 0 30;
#X connect 0 0 4 0;
#X connect 1 0 2 0;
#X connect 3 0 4 1;
#X connect 4 0 1 0;
#X restore 725 319 pd smoother 30;
#N canvas 640 0 630 1015 smoother 0;
#X obj 58 20 inlet;
#X obj 99 105 line~;
#X obj 109 186 outlet~;
#X obj 208 21 inlet;
#X obj 85 66 pack 0 25;
#X connect 0 0 4 0;
#X connect 1 0 2 0;
#X connect 3 0 4 1;
#X connect 4 0 1 0;
#X restore 695 220 pd smoother 30;
#X obj 642 252 hip~ 0;
#X obj 261 251 vd~ \$0-delayL;
#X obj 1038 235 vd~ \$0-delayR;
#X obj 618 169 osc~ 0.3;
#X obj 612 126 r \$0-oscsnd;
#X obj 618 191 *~;
#X obj 719 102 r \$0-oscampsnd;
#N canvas 650 101 630 1015 smoother 0;
#X obj 58 20 inlet;
#X obj 99 105 line~;
#X obj 109 186 outlet~;
#X obj 208 21 inlet;
#X obj 85 66 pack 0 25;
#X connect 0 0 4 0;
#X connect 1 0 2 0;
#X connect 3 0 4 1;
#X connect 4 0 1 0;
#X restore 706 140 pd smoother 30;
#X connect 1 0 34 0;
#X connect 3 0 45 0;
#X connect 6 0 35 0;
#X connect 7 0 11 0;
#X connect 8 0 9 0;
#X connect 9 0 26 0;
#X connect 10 0 71 0;
#X connect 11 0 2 0;
#X connect 11 0 43 0;
#X connect 12 0 24 0;
#X connect 13 0 36 0;
#X connect 16 0 37 0;
#X connect 17 0 21 0;
#X connect 18 0 19 0;
#X connect 19 0 27 0;
#X connect 20 0 72 0;
#X connect 21 0 25 0;
#X connect 21 0 44 0;
#X connect 22 0 23 0;
#X connect 23 0 18 0;
#X connect 24 0 8 0;
#X connect 24 0 40 0;
#X connect 26 0 10 0;
#X connect 26 0 41 0;
#X connect 27 0 20 0;
#X connect 27 0 42 0;
#X connect 28 0 12 0;
#X connect 29 0 32 0;
#X connect 30 0 22 0;
#X connect 31 0 33 0;
#X connect 32 0 28 0;
#X connect 33 0 30 0;
#X connect 34 0 6 0;
#X connect 34 0 7 0;
#X connect 34 0 4 0;
#X connect 35 0 5 0;
#X connect 35 0 28 1;
#X connect 36 0 16 0;
#X connect 36 0 17 0;
#X connect 36 0 14 0;
#X connect 37 0 15 0;
#X connect 37 0 30 1;
#X connect 38 0 33 1;
#X connect 41 0 7 1;
#X connect 42 0 17 1;
#X connect 43 0 25 0;
#X connect 44 0 2 0;
#X connect 45 0 34 1;
#X connect 46 0 10 1;
#X connect 46 0 20 1;
#X connect 47 0 64 0;
#X connect 48 0 62 0;
#X connect 49 0 19 1;
#X connect 50 0 9 1;
#X connect 51 0 68 0;
#X connect 52 0 23 1;
#X connect 52 0 24 1;
#X connect 53 0 69 0;
#X connect 54 0 32 1;
#X connect 55 0 33 1;
#X connect 56 0 65 0;
#X connect 57 0 61 0;
#X connect 58 0 63 0;
#X connect 59 0 60 0;
#X connect 60 0 31 0;
#X connect 60 0 29 0;
#X connect 61 0 11 1;
#X connect 62 0 21 2;
#X connect 62 0 11 2;
#X connect 63 0 21 1;
#X connect 64 0 43 1;
#X connect 64 0 44 1;
#X connect 65 0 36 1;
#X connect 65 0 34 1;
#X connect 66 0 67 0;
#X connect 67 0 36 1;
#X connect 68 0 26 1;
#X connect 68 0 27 1;
#X connect 69 0 70 0;
#X connect 70 0 1 0;
#X connect 70 0 13 0;
#X connect 71 0 1 0;
#X connect 72 0 13 0;
#X connect 73 0 75 0;
#X connect 74 0 73 0;
#X connect 75 0 70 0;
#X connect 76 0 77 0;
#X connect 77 0 75 1;
#X restore 92 294 pd soundstuff;
#X obj 63 825 output;
#X obj 90 324 hip~ 5;
#X obj 148 327 hip~ 5;
#X obj 586 327 vsl 35 128 1000 1 0 1 \$0-pitchmodsnd \$0-pitchmodrcv
pitchmod 0 -9 0 10 -188482 -261827 -1 12700 0;
#X obj 639 326 vsl 35 128 0 1 0 1 \$0-crossmodsnd \$0-crossmodrcv crossmod
0 -9 0 10 -247906 -262144 -1 1500 1;
#X obj 958 142 vsl 35 128 15 25000 1 1 \$0-lpLsnd \$0-lpLrcv lpL 0
-9 0 10 -258114 -3072 -1 8055 0;
#X obj 985 302 vsl 35 128 1 4.4 0 1 \$0-ressnd \$0-resrcv res 0 -9
0 10 -112283 -261121 -1 9794 1;
#X obj 704 499 vsl 35 128 0.1 10 1 1 \$0-smoothLsnd \$0-smoothLrcv
smL 0 -9 0 10 -99150 -259504 -1 9237 1;
#X obj 756 500 vsl 35 128 0.1 10 1 1 \$0-smoothRsnd \$0-smoothRrcv
smR 0 -9 0 10 -253419 -184841 -1 7717 1;
#X obj 531 153 vsl 35 128 4 0 0 1 \$0-scalesnd \$0-scalercv scale 0
-9 0 10 -198169 -212212 -1 9691 1;
#X obj 578 155 vsl 35 128 0 40 0 1 \$0-offsetsnd \$0-offsetrcv offset
0 -9 0 10 -142976 -213058 -1 5600 0;
#X obj 1131 397 vsl 35 128 -1 1 0 1 \$0-scrubsnd \$0-scrubrcv scrub
0 -9 0 10 -261263 -258049 -1 6300 0;
#X obj 788 239 vsl 35 128 0 2 0 1 \$0-fbsnd \$0-fbrcv fb 0 -9 0 10
-261965 -2828 -1 5500 0;
#X obj 918 547 vsl 35 128 700 1 1 1 \$0-spdLsnd \$0-spdLrcv spdL 0
-9 0 10 -94014 -38114 -1 8300 0;
#X obj 1009 548 vsl 35 128 700 1 1 1 \$0-spdRsnd \$0-spdRrcv spdR 0
-9 0 10 -46247 -4092 -1 10900 0;
#X obj 234 695 adascope 0 50 1;
#X obj 349 692 adascope 0 50 1;
#X obj 1004 143 vsl 35 128 15 25000 1 1 \$0-lpRsnd \$0-lpRrcv lpR 0
-9 0 10 -163493 -1 -1 6701 0;
#X obj 359 433 tgl 50 0 \$0-togglesnd \$0-togglercv empty 17 7 0 10
-49738 -228271 -1 1 1;
#X obj 148 352 *~;
#X obj 90 349 *~;
#X obj 177 246 key;
#N canvas 0 0 450 300 smoother 0;
#X obj 58 20 inlet;
#X obj 99 105 line~;
#X obj 109 186 outlet~;
#X obj 85 66 pack 0 \$1;
#X obj 208 21 inlet;
#X connect 0 0 3 0;
#X connect 1 0 2 0;
#X connect 3 0 1 0;
#X connect 4 0 3 1;
#X restore 317 514 pd smoother 1;
#X obj 177 271 sel 39 44;
#X obj 217 312 s \$0-restglrcv;
#X obj 77 401 clip~ -1 1;
#X obj 159 400 clip~ -1 1;
#X obj 1181 398 vsl 35 128 0 4 0 1 \$0-oscsnd \$0-oscrcv osc 0 -9 0
10 -219663 -258049 -1 3400 0;
#X obj 1239 398 vsl 35 128 0 0.02 0 1 \$0-oscampsnd \$0-oscamprcv amp
0 -9 0 10 -219663 -258049 -1 7900 0;
#X obj 90 371 *~;
#X obj 148 377 *~;
#X obj 450 372 vsl 45 198 0 2 0 1 \$0-gainsnd \$0-gainrcv GAIN 0 -9
0 10 -261234 -1 -1 12100 0;
#N canvas 710 340 950 1015 smoother 0;
#X obj 58 20 inlet;
#X obj 99 105 line~;
#X obj 109 186 outlet~;
#X obj 208 21 inlet;
#X obj 85 66 pack 0 25;
#X connect 0 0 4 0;
#X connect 1 0 2 0;
#X connect 3 0 4 1;
#X connect 4 0 1 0;
#X restore 464 621 pd smoother 1;
#X obj 493 673 nbx 4 46 -1e+37 1e+37 0 0 empty empty empty 0 -8 0 36
-262144 -1 -1 1.22843 256 0;
#X obj 500 373 vsl 20 200 100 15 0 1 \$0-limitsnd \$0-limitrcv lim
0 -9 0 10 -262144 -1 -1 5450 1;
#N canvas 0 0 1920 1056 limiter2 0;
#X obj 7 14 inlet~;
#X obj 115 56 env~ 1024;
#X obj 115 78 moses;
#X obj 382 18 inlet thresh;
#X obj 238 19 initbang;
#X obj 153 121 expr (($f1 - $f3) / $f2) - $f1 + $f3;
#X obj 153 143 expr 100 + $f1;
#X obj 153 165 dbtorms;
#X msg 116 124 1;
#X obj 115 100 bang;
#X obj 31 233 *~;
#X obj 92 222 line~;
#X obj 33 339 outlet~;
#X msg 317 76 10;
#X floatatom 74 79 5 0 0 0 - - -, f 5;
#X obj 379 86 dbtorms, f 15;
#X obj 379 108 expr 1/$f1;
#X obj 31 255 *~;
#X msg 243 52 6;
#X obj 33 165 z~ 1024;
#X obj 404 128 pow 0.85;
#X obj 379 152 smoother 10;
#X msg 112 195 \$1 5;
#X floatatom 153 187 5 0 0 0 - - -, f 5;
#X obj 521 16 inlet~;
#X obj 629 58 env~ 1024;
#X obj 629 80 moses;
#X obj 752 21 initbang;
#X obj 667 123 expr (($f1 - $f3) / $f2) - $f1 + $f3;
#X obj 667 145 expr 100 + $f1;
#X obj 667 167 dbtorms;
#X msg 630 126 1;
#X obj 629 102 bang;
#X obj 545 235 *~;
#X obj 606 224 line~;
#X obj 547 341 outlet~;
#X msg 831 78 10;
#X floatatom 588 81 5 0 0 0 - - -, f 5;
#X obj 893 88 dbtorms, f 15;
#X obj 893 110 expr 1/$f1;
#X obj 545 257 *~;
#X msg 757 54 6;
#X obj 547 167 z~ 1024;
#X obj 918 130 pow 0.85;
#X obj 893 154 smoother 10;
#X msg 626 197 \$1 5;
#X floatatom 667 189 5 0 0 0 - - -, f 5;
#X obj 288 237 s \$0-limdispL;
#X obj 802 239 s \$0-limdispR;
#X msg 103 167 \$1 200;
#X msg 617 171 \$1 200;
#X connect 0 0 1 0;
#X connect 0 0 19 0;
#X connect 1 0 2 0;
#X connect 1 0 14 0;
#X connect 2 0 9 0;
#X connect 2 1 5 0;
#X connect 3 0 5 2;
#X connect 3 0 2 1;
#X connect 3 0 15 0;
#X connect 3 0 38 0;
#X connect 3 0 28 2;
#X connect 3 0 26 1;
#X connect 4 0 18 0;
#X connect 5 0 6 0;
#X connect 6 0 7 0;
#X connect 7 0 22 0;
#X connect 7 0 23 0;
#X connect 7 0 47 0;
#X connect 8 0 49 0;
#X connect 8 0 47 0;
#X connect 9 0 8 0;
#X connect 10 0 17 0;
#X connect 11 0 10 1;
#X connect 13 0 5 2;
#X connect 13 0 2 1;
#X connect 15 0 16 0;
#X connect 16 0 20 0;
#X connect 17 0 12 0;
#X connect 18 0 5 1;
#X connect 19 0 10 0;
#X connect 20 0 21 0;
#X connect 21 0 17 1;
#X connect 22 0 11 0;
#X connect 24 0 25 0;
#X connect 24 0 42 0;
#X connect 25 0 26 0;
#X connect 25 0 37 0;
#X connect 26 0 32 0;
#X connect 26 1 28 0;
#X connect 27 0 41 0;
#X connect 28 0 29 0;
#X connect 29 0 30 0;
#X connect 30 0 45 0;
#X connect 30 0 46 0;
#X connect 30 0 48 0;
#X connect 31 0 50 0;
#X connect 31 0 48 0;
#X connect 32 0 31 0;
#X connect 33 0 40 0;
#X connect 34 0 33 1;
#X connect 36 0 28 2;
#X connect 36 0 26 1;
#X connect 38 0 39 0;
#X connect 39 0 43 0;
#X connect 40 0 35 0;
#X connect 41 0 28 1;
#X connect 42 0 33 0;
#X connect 43 0 44 0;
#X connect 44 0 40 1;
#X connect 45 0 34 0;
#X connect 49 0 11 0;
#X connect 50 0 34 0;
#X restore 82 433 pd limiter2;
#X obj 522 373 vsl 8 200 0 1 0 0 \$0-foo \$0-limdispL empty 0 -9 0
10 -262144 -1 -1 19900 1;
#X obj 532 373 vsl 8 200 0 1 0 0 \$0-foo \$0-limdispR empty 0 -9 0
10 -262144 -1 -1 19900 1;
#X obj 58 665 mixer4 0.901688 0.288851 0.01 0.01 10 0 0 0 1 0 0 0 1
0;
#X obj 81 610 bus 1;
#N canvas 5 24 1910 997 datemod 0;
#X msg 353 219 date +%H;
#X obj 365 176 t b b b b b b b;
#X obj 425 253 shell;
#X obj 330 249 shell;
#X obj 515 241 shell;
#X obj 686 248 shell;
#X obj 832 233 shell;
#X floatatom 330 274 5 0 23 0 - - -, f 5;
#X floatatom 425 278 5 0 59 0 - - -, f 5;
#X msg 427 221 date +%M;
#X floatatom 515 266 5 1 7 0 - - -, f 5;
#X msg 515 216 date +%w;
#X msg 686 223 date +%W;
#X msg 832 208 date +%m;
#X floatatom 832 258 5 0 0 0 - - -, f 5;
#X obj 334 315 +;
#X obj 374 283 t b f;
#X obj 321 143 bng 15 250 50 0 empty empty empty 17 7 0 10 -262144
-1 -1;
#X obj 353 443 s \$0-scalercv;
#X obj 250 179 tgl 15 0 empty empty empty 17 7 0 10 -262144 -1 -1 0
1;
#X obj 333 390 + 0.3;
#X obj 334 340 / 30;
#X obj 553 497 +;
#X obj 549 551 s \$0-spdRrcv;
#X obj 515 306 t b f;
#X obj 488 321 +;
#X floatatom 487 400 5 0 0 0 - - -, f 5;
#X obj 559 384 t b f;
#X obj 515 284 - 1;
#X obj 488 375 - 70;
#X obj 488 350 * 10;
#X obj 553 522 clip 1 700;
#X obj 731 256 * 934;
#X floatatom 686 273 5 0 0 0 - - -, f 5;
#X floatatom 731 306 5 0 0 0 - - -, f 5;
#X obj 785 280 mod 37;
#X obj 731 281 mod 31;
#X floatatom 785 305 5 0 0 0 - - -, f 5;
#X obj 727 399 s \$0-smoothLrcv;
#X obj 780 417 s \$0-smoothRrcv;
#X obj 731 330 / 31;
#X obj 785 329 / 37;
#X obj 731 355 pow 2;
#X obj 731 380 * 10;
#X obj 785 354 pow 2;
#X obj 785 379 * 10;
#X obj 833 347 s \$0-fbrcv;
#X obj 832 282 / 7;
#X obj 832 307 + 0.8;
#X floatatom 847 328 5 0 0 0 - - -, f 5;
#X obj 365 151 r initbang;
#X obj 385 119 inlet;
#X msg 294 167 1;
#X obj 244 207 metro 600000;
#X connect 0 0 3 0;
#X connect 1 2 0 0;
#X connect 1 3 9 0;
#X connect 1 4 11 0;
#X connect 1 5 12 0;
#X connect 1 6 13 0;
#X connect 2 0 8 0;
#X connect 3 0 7 0;
#X connect 4 0 10 0;
#X connect 5 0 33 0;
#X connect 6 0 14 0;
#X connect 7 0 15 0;
#X connect 7 0 25 0;
#X connect 8 0 16 0;
#X connect 9 0 2 0;
#X connect 10 0 28 0;
#X connect 11 0 4 0;
#X connect 12 0 5 0;
#X connect 13 0 6 0;
#X connect 14 0 47 0;
#X connect 15 0 21 0;
#X connect 16 0 15 0;
#X connect 16 1 15 1;
#X connect 17 0 1 0;
#X connect 19 0 53 0;
#X connect 20 0 18 0;
#X connect 21 0 20 0;
#X connect 22 0 31 0;
#X connect 24 0 25 0;
#X connect 24 1 25 1;
#X connect 25 0 30 0;
#X connect 27 0 22 0;
#X connect 27 1 22 1;
#X connect 28 0 24 0;
#X connect 29 0 26 0;
#X connect 29 0 27 0;
#X connect 30 0 29 0;
#X connect 31 0 23 0;
#X connect 32 0 36 0;
#X connect 32 0 35 0;
#X connect 33 0 32 0;
#X connect 34 0 40 0;
#X connect 35 0 37 0;
#X connect 36 0 34 0;
#X connect 37 0 41 0;
#X connect 40 0 42 0;
#X connect 41 0 44 0;
#X connect 42 0 43 0;
#X connect 43 0 38 0;
#X connect 44 0 45 0;
#X connect 45 0 39 0;
#X connect 47 0 48 0;
#X connect 48 0 46 0;
#X connect 48 0 49 0;
#X connect 50 0 1 0;
#X connect 50 0 52 0;
#X connect 51 0 1 0;
#X connect 52 0 19 0;
#X connect 53 0 1 0;
#X restore 90 190 pd datemod;
#X obj 45 126 bng 15 250 50 0 empty empty empty 17 7 0 10 -262144 -1
-1;
#X obj 55 87 loadbang;
#X obj 90 491 filterpanel 0 6632.56 0.555556 0 0;
#N canvas 5 24 1910 997 seq1 0;
#X obj 150 120 vsl 22 128 40 100 0 1 empty empty lpR 0 -9 0 10 -239914
-1 -1 11000 0;
#X obj 176 120 vsl 22 128 40 100 0 1 empty empty lpR 0 -9 0 10 -239914
-1 -1 9900 0;
#X obj 202 120 vsl 22 128 40 100 0 1 empty empty lpR 0 -9 0 10 -239914
-1 -1 0 0;
#X obj 228 120 vsl 22 128 40 100 0 1 empty empty lpR 0 -9 0 10 -239914
-1 -1 8100 0;
#X obj 256 120 vsl 22 128 40 100 0 1 empty empty lpR 0 -9 0 10 -239914
-1 -1 9200 0;
#X obj 420 42 metro 250;
#X obj 420 67 f;
#X obj 467 68 + 1;
#X obj 420 92 mod 5;
#X obj 111 123 tgl 30 0 empty empty empty 17 7 0 10 -262144 -1 -1 1
1;
#X obj 420 117 sel 0 1 2 3 4;
#X obj 185 462 mtof;
#X obj 185 487 s;
#X obj 208 321 t f b;
#X obj 244 364 random 2;
#X obj 244 389 sel 0 1;
#X msg 234 421 symbol \$0-lpLrcv;
#X msg 292 444 symbol \$0-lpRrcv;
#X floatatom 111 164 5 5 1000 0 - - -, f 5;
#X connect 0 0 13 0;
#X connect 1 0 13 0;
#X connect 2 0 13 0;
#X connect 3 0 13 0;
#X connect 4 0 13 0;
#X connect 5 0 6 0;
#X connect 6 0 7 0;
#X connect 6 0 8 0;
#X connect 7 0 6 1;
#X connect 8 0 10 0;
#X connect 9 0 5 0;
#X connect 10 0 0 0;
#X connect 10 1 1 0;
#X connect 10 2 2 0;
#X connect 10 3 3 0;
#X connect 10 4 4 0;
#X connect 11 0 12 0;
#X connect 13 0 11 0;
#X connect 13 1 14 0;
#X connect 14 0 15 0;
#X connect 15 0 16 0;
#X connect 15 1 17 0;
#X connect 16 0 12 1;
#X connect 17 0 12 1;
#X connect 18 0 5 1;
#X coords 0 -1 1 1 213 174 1 100 100;
#X restore 1311 100 pd seq1;
#N canvas 5 24 1910 997 seq2 0;
#X obj 150 120 vsl 22 128 40 95 0 1 empty empty lpR 0 -9 0 10 -239914
-1 -1 6200 0;
#X obj 176 120 vsl 22 128 40 95 0 1 empty empty lpR 0 -9 0 10 -239914
-1 -1 10000 0;
#X obj 203 120 vsl 22 128 40 95 0 1 empty empty lpR 0 -9 0 10 -239914
-1 -1 12700 0;
#X obj 229 120 vsl 22 128 40 95 0 1 empty empty lpR 0 -9 0 10 -239914
-1 -1 11600 0;
#X obj 256 120 vsl 22 128 40 95 0 1 empty empty lpR 0 -9 0 10 -239914
-1 -1 10600 0;
#X obj 420 42 metro 250;
#X obj 420 67 f;
#X obj 467 68 + 1;
#X obj 420 92 mod 5;
#X obj 111 123 tgl 30 0 empty empty empty 17 7 0 10 -262144 -1 -1 0
1;
#X obj 420 117 sel 0 1 2 3 4;
#X obj 208 321 t f b;
#X floatatom 111 164 5 5 1000 0 - - -, f 5;
#X obj 178 590 s \$0-resrcv;
#X floatatom 246 519 5 0 0 0 - - -, f 5;
#X obj 185 462 / 23;
#X connect 0 0 11 0;
#X connect 1 0 11 0;
#X connect 2 0 11 0;
#X connect 3 0 11 0;
#X connect 4 0 11 0;
#X connect 5 0 6 0;
#X connect 6 0 7 0;
#X connect 6 0 8 0;
#X connect 7 0 6 1;
#X connect 8 0 10 0;
#X connect 9 0 5 0;
#X connect 10 0 0 0;
#X connect 10 1 1 0;
#X connect 10 2 2 0;
#X connect 10 3 3 0;
#X connect 10 4 4 0;
#X connect 11 0 15 0;
#X connect 12 0 5 1;
#X connect 15 0 13 0;
#X connect 15 0 14 0;
#X coords 0 -1 1 1 213 174 1 100 100;
#X restore 1311 280 pd seq2;
#N canvas 5 24 1910 997 seq3 0;
#X obj 150 120 vsl 22 128 -1 1 0 1 empty empty lpR 0 -9 0 10 -239914
-1 -1 6700 0;
#X obj 176 120 vsl 22 128 -1 1 0 1 empty empty lpR 0 -9 0 10 -239914
-1 -1 6900 0;
#X obj 203 120 vsl 22 128 -1 1 0 1 empty empty lpR 0 -9 0 10 -239914
-1 -1 5900 0;
#X obj 229 120 vsl 22 128 -1 1 0 1 empty empty lpR 0 -9 0 10 -239914
-1 -1 7500 0;
#X obj 256 120 vsl 22 128 -1 1 0 1 empty empty lpR 0 -9 0 10 -239914
-1 -1 6300 0;
#X obj 420 42 metro 250;
#X obj 420 67 f;
#X obj 467 68 + 1;
#X obj 420 92 mod 5;
#X obj 111 123 tgl 30 0 empty empty empty 17 7 0 10 -262144 -1 -1 1
1;
#X obj 420 117 sel 0 1 2 3 4;
#X obj 208 321 t f b;
#X floatatom 111 164 5 5 1000 0 - - -, f 5;
#X obj 178 590 s \$0-scrubrcv;
#X connect 0 0 11 0;
#X connect 1 0 11 0;
#X connect 2 0 11 0;
#X connect 3 0 11 0;
#X connect 4 0 11 0;
#X connect 5 0 6 0;
#X connect 6 0 7 0;
#X connect 6 0 8 0;
#X connect 7 0 6 1;
#X connect 8 0 10 0;
#X connect 9 0 5 0;
#X connect 10 0 0 0;
#X connect 10 1 1 0;
#X connect 10 2 2 0;
#X connect 10 3 3 0;
#X connect 10 4 4 0;
#X connect 11 0 13 0;
#X connect 12 0 5 1;
#X coords 0 -1 1 1 213 174 1 100 100;
#X restore 1311 460 pd seq3;
#X connect 9 0 11 0;
#X connect 9 1 12 0;
#X connect 11 0 30 0;
#X connect 12 0 29 0;
#X connect 28 0 32 0;
#X connect 29 0 40 0;
#X connect 30 0 39 0;
#X connect 31 0 33 0;
#X connect 32 0 29 1;
#X connect 32 0 30 1;
#X connect 33 0 28 0;
#X connect 33 1 34 0;
#X connect 35 0 45 0;
#X connect 36 0 45 2;
#X connect 39 0 35 0;
#X connect 40 0 36 0;
#X connect 41 0 42 0;
#X connect 41 0 43 0;
#X connect 42 0 40 1;
#X connect 42 0 39 1;
#X connect 44 0 45 1;
#X connect 45 0 25 0;
#X connect 45 0 53 0;
#X connect 45 1 26 0;
#X connect 45 1 53 1;
#X connect 48 0 10 0;
#X connect 48 1 10 1;
#X connect 51 0 50 0;
#X connect 52 0 51 0;
#X connect 53 0 49 0;
#X connect 53 1 49 1;
