#N canvas 0 24 1360 692 10;
#X obj 514 463 cnv 15 229 39 empty empty empty 14 352 0 28 -198299
-249749 0;
#X obj 514 128 cnv 15 177 372 empty empty centricities 14 352 0 28
-215008 -249749 0;
#X obj 23 46 cnv 15 476 438 empty empty circumstances 78 376 0 28 -202135
-249749 0;
#X obj 701 252 cnv 15 202 203 empty empty smears 125 181 0 20 -257268
-222030 0;
#N canvas 0 24 1360 692 soundstuff 0;
#X obj 280 645 outlet~ L;
#X obj 450 652 outlet~ R;
#X obj 683 335 r \$0-fb1snd;
#X obj 683 379 smoother 25;
#X obj 871 42 r \$0-deltimesnd;
#X obj 394 200 noise~;
#X obj 871 64 - 0.1;
#X obj 490 303 bob~;
#X obj 729 182 r \$0-cutoffsnd;
#X obj 749 208 r \$0-ressnd;
#X obj 644 217 smoother 15;
#X obj 750 233 smoother 15;
#X obj 322 562 lop~ 15000;
#X obj 486 333 hip~ 0.1;
#X obj 762 352 r \$0-hipsnd;
#X obj 762 374 - 0.01;
#X obj 321 604 hip~ 30;
#X obj 322 584 lop~ 16000;
#X obj 683 357 - 0.1;
#N canvas 253 135 1006 580 verb 0;
#X obj 150 276 freeverb~, f 11;
#X obj 107 494 outlet~;
#X obj 239 488 outlet~;
#X obj 36 9 inlet~;
#X obj 247 12 inlet~;
#X obj 312 16 r \$0-verbfreezesnd;
#X obj 312 38 tgl 15 0 empty empty empty 17 7 0 10 -262144 -1 -1 0
1;
#X msg 312 58 freeze \$1;
#X obj 150 357 vcf~;
#X obj 270 356 vcf~;
#X obj 313 237 r \$0-verbfiltsnd;
#X obj 313 259 smoother 15;
#X obj 593 151 loadbang;
#X msg 592 197 wet 0.5;
#X obj 440 23 r \$0-verbsizesnd;
#X msg 602 214 damping 0.7;
#X msg 440 45 roomsize \$1;
#X obj 442 85 r \$0-verbdrywetsnd;
#X obj 418 108 expr 1-$f1;
#X obj 362 156 smoother 10;
#X obj 449 153 smoother 10;
#X msg 557 186 3;
#X obj 61 67 *~;
#X obj 90 67 *~;
#X obj 229 63 *~;
#X obj 258 63 *~;
#X obj 456 316 noise~;
#X obj 388 391 lop~ 2;
#X obj 450 347 phasor~ 3;
#X obj 390 367 samphold~;
#X obj 388 413 *~ 25;
#X obj 778 339 block~ 1;
#X msg 645 184 width 0.5;
#X obj 604 323 noise~;
#X obj 536 398 lop~ 2;
#X obj 598 354 phasor~ 3;
#X obj 538 374 samphold~;
#X obj 536 420 *~ 25;
#X connect 0 0 8 0;
#X connect 0 1 9 0;
#X connect 3 0 22 0;
#X connect 3 0 23 0;
#X connect 4 0 24 0;
#X connect 4 0 25 0;
#X connect 5 0 6 0;
#X connect 6 0 7 0;
#X connect 7 0 0 0;
#X connect 8 0 1 0;
#X connect 9 0 2 0;
#X connect 10 0 11 0;
#X connect 11 0 9 1;
#X connect 11 0 8 1;
#X connect 12 0 21 0;
#X connect 12 0 13 0;
#X connect 12 0 15 0;
#X connect 12 0 32 0;
#X connect 13 0 0 0;
#X connect 14 0 16 0;
#X connect 15 0 0 0;
#X connect 16 0 0 0;
#X connect 17 0 18 0;
#X connect 17 0 20 0;
#X connect 18 0 19 0;
#X connect 19 0 24 1;
#X connect 19 0 22 1;
#X connect 20 0 25 1;
#X connect 20 0 23 1;
#X connect 21 0 9 2;
#X connect 21 0 8 2;
#X connect 22 0 1 0;
#X connect 23 0 0 0;
#X connect 24 0 2 0;
#X connect 25 0 0 1;
#X connect 26 0 29 0;
#X connect 27 0 30 0;
#X connect 28 0 29 1;
#X connect 29 0 27 0;
#X connect 30 0 8 1;
#X connect 32 0 0 0;
#X connect 33 0 36 0;
#X connect 34 0 37 0;
#X connect 35 0 36 1;
#X connect 36 0 34 0;
#X connect 37 0 9 1;
#X restore 671 541 pd verb;
#X obj 516 508 *~;
#X obj 504 149 r \$0-scrubsnd;
#X obj 504 171 smoother 1;
#X obj 941 284 r \$0-verbauxsnd;
#X obj 911 314 - 0.01;
#X obj 911 336 smoother 15;
#X obj 669 480 *~;
#X obj 492 404 *~ 1;
#X obj 669 502 *~;
#X obj 907 374 r \$0-verbmutesnd;
#X obj 907 396 smoother 6;
#N canvas 354 64 808 431 pitchshifter 0;
#X obj 102 22 inlet~;
#X obj 269 26 inlet~;
#X obj 87 276 outlet~;
#X obj 167 277 outlet~;
#X obj 79 177 ps2unitexp;
#X obj 146 177 ps2unitexp;
#X obj 282 178 ps2unitexp;
#X obj 349 178 ps2unitexp;
#X obj 338 44 r \$0-bypasssnd;
#X obj 360 68 r \$0-voice1snd;
#X obj 393 89 r \$0-voice2snd;
#X obj 53 177 *~;
#X obj 250 179 *~;
#X obj 85 217 ps2arpdelay;
#X obj 159 217 ps2arpdelay;
#X obj 283 220 ps2arpdelay;
#X obj 357 219 ps2arpdelay;
#X obj 21 72 loadbang;
#X msg 21 94 48;
#X obj 488 183 *~ 2;
#X obj 473 160 smoother 25;
#X obj 630 207 *~ 2;
#X obj 615 184 smoother 25;
#X obj 473 138 r \$0-arpdelayleftsnd;
#X obj 615 161 r \$0-arpdelayrightsnd;
#X obj 494 71 r \$0-voice1pitchsnd;
#X obj 509 104 r \$0-voice2pitchsnd;
#N canvas 456 232 450 300 arpfb 0;
#X obj 66 187 outlet~;
#X obj 123 188 outlet~;
#X obj 186 189 outlet~;
#X obj 243 190 outlet~;
#X obj 74 106 *~;
#X obj 132 105 *~;
#X obj 194 105 *~;
#X obj 252 104 *~;
#X obj 306 127 smoother 25;
#X obj 326 72 r \$0-arpfbsnd;
#X obj 326 94 / 100;
#X obj 17 47 delread~ \$0-arpfb1L;
#X obj 144 50 delread~ \$0-arpfb2L;
#X obj 246 19 delread~ \$0-arpfb1R;
#X obj 329 44 delread~ \$0-arpfb2R;
#X connect 4 0 0 0;
#X connect 5 0 1 0;
#X connect 6 0 2 0;
#X connect 7 0 3 0;
#X connect 8 0 7 1;
#X connect 8 0 6 1;
#X connect 8 0 5 1;
#X connect 8 0 4 1;
#X connect 9 0 10 0;
#X connect 10 0 8 0;
#X connect 11 0 4 0;
#X connect 12 0 5 0;
#X connect 13 0 6 0;
#X connect 14 0 7 0;
#X restore 187 14 pd arpfb;
#X obj 672 228 block~ 1;
#X obj 207 308 delwrite~ \$0-arpfb1L 50;
#X obj 311 332 delwrite~ \$0-arpfb2L 50;
#X obj 380 301 delwrite~ \$0-arpfb1R 50;
#X obj 514 277 delwrite~ \$0-arpfb2R 50;
#X connect 0 0 11 0;
#X connect 0 0 4 0;
#X connect 0 0 5 0;
#X connect 1 0 12 0;
#X connect 1 0 6 0;
#X connect 1 0 7 0;
#X connect 4 0 13 0;
#X connect 5 0 14 0;
#X connect 6 0 15 0;
#X connect 7 0 16 0;
#X connect 8 0 11 1;
#X connect 8 0 12 1;
#X connect 9 0 4 3;
#X connect 9 0 6 3;
#X connect 10 0 7 3;
#X connect 10 0 5 3;
#X connect 11 0 2 0;
#X connect 12 0 3 0;
#X connect 13 0 2 0;
#X connect 13 0 29 0;
#X connect 14 0 2 0;
#X connect 14 0 30 0;
#X connect 15 0 3 0;
#X connect 15 0 31 0;
#X connect 16 0 3 0;
#X connect 16 0 32 0;
#X connect 17 0 18 0;
#X connect 18 0 7 2;
#X connect 18 0 6 2;
#X connect 18 0 5 2;
#X connect 18 0 4 2;
#X connect 19 0 14 1;
#X connect 20 0 19 0;
#X connect 20 0 13 1;
#X connect 21 0 16 1;
#X connect 22 0 21 0;
#X connect 22 0 15 1;
#X connect 23 0 20 0;
#X connect 24 0 22 0;
#X connect 25 0 4 1;
#X connect 25 0 6 1;
#X connect 26 0 7 1;
#X connect 26 0 5 1;
#X connect 27 0 4 0;
#X connect 27 1 5 0;
#X connect 27 2 6 0;
#X connect 27 3 7 0;
#X restore 656 586 pd pitchshifter;
#X obj 871 93 smoother 50;
#X obj 684 158 *~;
#X obj 803 150 r \$0-fbmutesnd;
#X obj 393 222 *~ 0.001;
#X obj 440 124 r \$0-injectsnd;
#X obj 982 433 - 0.01;
#X obj 981 467 smoother 15;
#X obj 891 489 *~;
#X obj 891 511 *~;
#X obj 1098 478 smoother 6;
#X obj 845 569 hip~ 30;
#X obj 980 414 r \$0-tremauxsnd;
#N canvas 0 24 1360 692 trem 0;
#X obj 135 141 inlet~;
#X obj 968 254 block~ 1;
#X obj 146 363 outlet~;
#X obj 148 291 *~;
#X obj 264 201 +~ 1;
#X obj 264 245 *~;
#X obj 318 272 *~;
#X obj 404 197 r \$0-tremshapesnd;
#X obj 404 219 sel 0 1;
#X msg 404 241 0 1;
#X msg 442 240 1 0;
#X obj 404 263 unpack f f;
#X obj 266 168 *~;
#X obj 411 95 r \$0-tremdepthsnd;
#X obj 411 119 smoother 15;
#X obj 316 -2 r \$0-tremspdsnd;
#X obj 314 23 smoother 15;
#X obj 317 169 >~ 0;
#X obj 317 191 -~ 0.5;
#X obj 319 212 *~;
#X obj 319 234 +~ 1;
#X obj 460 140 r \$0-trempwsnd;
#X obj 712 165 inlet~;
#X obj 707 288 *~;
#X obj 698 372 outlet~;
#X obj 377 55 phasor~;
#X obj 251 126 cos~;
#X obj 568 264 +~ 1;
#X obj 568 308 *~;
#X obj 622 325 *~;
#X obj 570 231 *~;
#X obj 621 232 >~ 0;
#X obj 621 254 -~ 0.5;
#X obj 623 275 *~;
#X obj 623 297 +~ 1;
#X obj 555 189 cos~;
#X obj 609 18 r \$0-tremphasesnd;
#X obj 608 122 +~ 0;
#X obj 608 144 wrap~;
#X connect 0 0 3 0;
#X connect 3 0 2 0;
#X connect 4 0 5 0;
#X connect 5 0 3 1;
#X connect 6 0 3 1;
#X connect 7 0 8 0;
#X connect 8 0 9 0;
#X connect 8 1 10 0;
#X connect 9 0 11 0;
#X connect 10 0 11 0;
#X connect 11 0 5 1;
#X connect 11 0 28 1;
#X connect 11 1 6 1;
#X connect 11 1 29 1;
#X connect 12 0 4 0;
#X connect 13 0 14 0;
#X connect 14 0 12 1;
#X connect 14 0 19 1;
#X connect 14 0 30 1;
#X connect 14 0 33 1;
#X connect 15 0 16 0;
#X connect 16 0 25 0;
#X connect 17 0 18 0;
#X connect 18 0 19 0;
#X connect 19 0 20 0;
#X connect 20 0 6 0;
#X connect 21 0 17 1;
#X connect 21 0 31 1;
#X connect 22 0 23 0;
#X connect 23 0 24 0;
#X connect 25 0 26 0;
#X connect 25 0 37 0;
#X connect 26 0 12 0;
#X connect 26 0 17 0;
#X connect 27 0 28 0;
#X connect 28 0 23 1;
#X connect 29 0 23 1;
#X connect 30 0 27 0;
#X connect 31 0 32 0;
#X connect 32 0 33 0;
#X connect 33 0 34 0;
#X connect 34 0 29 0;
#X connect 35 0 30 0;
#X connect 35 0 31 0;
#X connect 36 0 37 1;
#X connect 37 0 38 0;
#X connect 38 0 35 0;
#X restore 883 540 pd trem;
#X obj 1099 455 r \$0-tremmutesnd;
#X obj 685 63 *~;
#X obj 685 85 *~ 15;
#X obj 789 22 r \$0-delmodsnd;
#X obj 789 44 - 0.1;
#X obj 789 66 smoother 15;
#X obj 685 108 lop~ 100;
#X obj 847 117 r \$0-delmodlopsnd;
#X obj 322 534 *~ 0.75;
#X obj 440 146 - 0.001;
#X obj 598 664 delwrite~ \$0-fb1L 10000;
#X obj 785 667 delwrite~ \$0-fb1R 10000;
#X obj 745 483 *~;
#X obj 742 506 *~;
#X obj 685 41 delread~ \$0-fb1L;
#X obj 685 133 vd~ \$0-fb1L;
#X obj 1053 179 *~;
#X obj 1053 85 *~;
#X obj 1053 107 *~ 15;
#X obj 1053 131 lop~ 100;
#X obj 1052 53 delread~ \$0-fb1R;
#X obj 1053 154 vd~ \$0-fb1R;
#X obj 588 299 bob~;
#X obj 584 329 hip~ 0.1;
#X obj 597 402 *~ 1;
#X obj 442 570 lop~ 15000;
#X obj 441 612 hip~ 30;
#X obj 442 592 lop~ 16000;
#X obj 442 542 *~ 0.75;
#X obj 592 508 *~;
#X obj 954 492 *~;
#X obj 954 514 *~;
#X obj 897 571 hip~ 30;
#X obj 180 318 block~ 1 1 1;
#X connect 2 0 18 0;
#X connect 3 0 20 1;
#X connect 3 0 74 1;
#X connect 4 0 6 0;
#X connect 5 0 35 0;
#X connect 6 0 32 0;
#X connect 7 0 13 0;
#X connect 8 0 10 0;
#X connect 9 0 11 0;
#X connect 10 0 7 1;
#X connect 10 0 67 1;
#X connect 11 0 7 2;
#X connect 11 0 67 2;
#X connect 12 0 17 0;
#X connect 13 0 27 0;
#X connect 14 0 15 0;
#X connect 15 0 13 1;
#X connect 15 0 68 1;
#X connect 16 0 0 0;
#X connect 17 0 16 0;
#X connect 18 0 3 0;
#X connect 19 0 31 0;
#X connect 19 1 31 1;
#X connect 20 0 55 0;
#X connect 21 0 22 0;
#X connect 22 0 7 0;
#X connect 22 0 67 0;
#X connect 23 0 24 0;
#X connect 24 0 25 0;
#X connect 25 0 26 1;
#X connect 25 0 57 1;
#X connect 26 0 28 0;
#X connect 27 0 20 0;
#X connect 27 0 26 0;
#X connect 27 0 39 0;
#X connect 27 0 53 0;
#X connect 28 0 19 0;
#X connect 29 0 30 0;
#X connect 30 0 28 1;
#X connect 30 0 58 1;
#X connect 31 0 55 0;
#X connect 31 1 56 0;
#X connect 32 0 60 0;
#X connect 32 0 66 0;
#X connect 33 0 7 0;
#X connect 34 0 33 1;
#X connect 34 0 61 1;
#X connect 35 0 7 0;
#X connect 35 0 67 0;
#X connect 36 0 54 0;
#X connect 37 0 38 0;
#X connect 38 0 39 1;
#X connect 38 0 75 1;
#X connect 39 0 40 0;
#X connect 40 0 44 0;
#X connect 41 0 40 1;
#X connect 41 0 76 1;
#X connect 42 0 55 0;
#X connect 43 0 37 0;
#X connect 44 0 42 0;
#X connect 44 1 77 0;
#X connect 45 0 41 0;
#X connect 46 0 47 0;
#X connect 47 0 51 0;
#X connect 48 0 49 0;
#X connect 49 0 50 0;
#X connect 50 0 46 1;
#X connect 50 0 62 1;
#X connect 51 0 60 0;
#X connect 52 0 51 1;
#X connect 52 0 64 1;
#X connect 53 0 12 0;
#X connect 54 0 35 1;
#X connect 57 0 58 0;
#X connect 58 0 19 1;
#X connect 59 0 46 0;
#X connect 60 0 33 0;
#X connect 61 0 67 0;
#X connect 62 0 63 0;
#X connect 63 0 64 0;
#X connect 64 0 66 0;
#X connect 65 0 62 0;
#X connect 66 0 61 0;
#X connect 67 0 68 0;
#X connect 68 0 69 0;
#X connect 69 0 57 0;
#X connect 69 0 73 0;
#X connect 69 0 74 0;
#X connect 69 0 75 0;
#X connect 70 0 72 0;
#X connect 71 0 1 0;
#X connect 72 0 71 0;
#X connect 73 0 70 0;
#X connect 74 0 56 0;
#X connect 75 0 76 0;
#X connect 76 0 44 1;
#X connect 77 0 56 0;
#X restore 1044 385 pd soundstuff;
#X obj 1006 469 output;
#X obj 538 172 vsl 25 200 0.1 4 1 0 \$0-fb1snd \$0-fb1rcv fb1 0 -9
0 10 -262144 -1 -1 4100 1;
#X obj 158 143 vsl 25 200 0.1 10000 1 0 \$0-deltimesnd \$0-deltimercv
deltime 0 -9 0 10 -262144 -1 -1 8600 1;
#X obj 945 581 adascope 0 15 1;
#X obj 1070 584 adascope 0 15 1;
#X obj 315 107 vsl 25 200 38 20000 1 0 \$0-cutoffsnd \$0-cutoffrcv
cutoff 0 -9 0 10 -262144 -1 -1 19900 1;
#X obj 363 168 vsl 25 200 0.03 3 1 0 \$0-ressnd \$0-resrcv res 0 -9
0 10 -262144 -1 -1 600 1;
#X obj 414 230 vsl 25 200 0.01 15000 1 0 \$0-hipsnd \$0-hiprcv hip
0 -9 0 10 -262144 -1 -1 4769 1;
#X obj 719 275 vsl 25 128 35 10000 1 0 \$0-verbfiltsnd \$0-verbfiltrcv
verbfilt 0 -9 0 10 -262144 -1 -1 5750 1;
#X obj 752 291 vsl 25 128 0.1 1 0 0 \$0-verbsizesnd \$0-verbsizercv
size 0 -9 0 10 -262144 -1 -1 12700 1;
#X obj 783 301 vsl 25 128 0 1 0 0 \$0-verbdrywetsnd \$0-verbdrywetrcv
drywet 0 -9 0 10 -262144 -1 -1 11600 1;
#X obj 826 327 tgl 35 0 \$0-verbfreezesnd \$0-verbfreezercv freeze
1 41 0 10 -262144 -1 -1 0 1;
#X obj 102 101 vsl 25 200 -1 1 0 0 \$0-scrubsnd \$0-scrubrcv scrub
0 -9 0 10 -262144 -1 -1 10105 1;
#X obj 575 222 vsl 25 200 0.01 15 1 0 \$0-verbauxsnd \$0-verbauxrcv
verb 0 -9 0 10 -262144 -1 -1 0 1;
#X obj 575 434 tgl 25 0 \$0-verbmutesnd \$0-verbmutercv empty 17 7
0 10 -262144 -1 -1 1 1;
#X obj 904 183 cnv 15 220 145 empty empty vocalizations 106 132 0 14
-248816 -128135 0;
#X obj 926 215 tgl 30 0 \$0-bypasssnd \$0-bypassrcv bypass -2 34 0
10 -262144 -1 -1 1 1;
#X obj 983 199 tgl 30 0 \$0-voice1snd \$0-voice1rcv voice1 -1 34 0
10 -262144 -1 -1 1 1;
#X obj 1049 198 tgl 30 0 \$0-voice2snd \$0-voice2rcv voice2 -1 34 0
10 -262144 -1 -1 1 1;
#X obj 972 241 nbx 5 17 -48 48 0 0 \$0-voice1pitchsnd \$0-voice1pitchrcv
empty 0 -8 0 11 -262144 -1 -1 -11 256 0;
#X obj 1038 241 nbx 5 17 -48 48 0 0 \$0-voice2pitchsnd \$0-voice2pitchrcv
empty 0 -8 0 11 -262144 -1 -1 -14 256 0;
#X obj 928 289 nbx 3 14 0 2500 0 0 \$0-arpdelayleftsnd \$0-arpdelayleftrcv
delL 0 -8 0 11 -262144 -1 -1 140 256 0;
#X obj 1048 289 nbx 3 14 0 2500 0 0 \$0-arpdelayrightsnd \$0-arpdelayrightrcv
delR 0 -8 0 11 -262144 -1 -1 164 256 0;
#X obj 984 291 nbx 3 14 0 100 0 0 \$0-arpfbsnd \$0-arpfbrcv arpFB 0
-8 0 11 -262144 -1 -1 35 256 0;
#X obj 538 385 tgl 25 0 \$0-fbmutesnd \$0-fbmutercv empty 17 7 0 10
-238739 -262083 -1 1 1;
#X obj 45 167 vsl 25 200 0.001 0.05 1 0 \$0-injectsnd \$0-injectrcv
inject 0 -9 0 10 -262144 -1 -1 800 1;
#X obj 611 154 vsl 25 200 0.01 10 1 0 \$0-tremauxsnd \$0-tremauxrcv
trem 0 -9 0 10 -262144 -1 -1 3500 1;
#X obj 612 369 tgl 25 0 \$0-tremmutesnd \$0-tremmutercv empty 17 7
0 10 -262144 -1 -1 1 1;
#X obj 701 51 cnv 15 202 203 empty empty urges 134 150 0 20 -244395
-120068 0;
#X obj 713 72 vsl 25 128 0.2 40 1 0 \$0-tremspdsnd \$0-tremspdrcv speed
0 -9 0 10 -262144 -1 -1 1650 1;
#X obj 741 80 vsl 25 128 0.01 1 1 0 \$0-tremdepthsnd \$0-tremdepthrcv
depth 0 -9 0 10 -262144 -1 -1 12700 1;
#X obj 831 91 hradio 25 0 0 2 \$0-tremshapesnd \$0-tremshapercv shape
0 -8 0 10 -262144 -1 -1 1;
#X obj 212 93 vsl 25 200 0.1 0.2 1 0 \$0-delmodsnd \$0-delmodrcv delmod
0 -9 0 10 -262144 -1 -1 0 1;
#X obj 259 155 vsl 25 200 50 500 1 0 \$0-delmodlopsnd \$0-delmodloprcv
dmlop 0 -9 0 10 -262144 -1 -1 0 1;
#X obj 770 94 vsl 25 128 0.01 0.999 1 0 \$0-trempwsnd \$0-trempwrcv
pw 0 -9 0 10 -262144 -1 -1 7999 1;
#N canvas 0 24 1360 692 presets 0;
#X obj 18 18 cnv 15 196 146 empty empty scars 66 130 0 14 -144531 -241604
0;
#X obj 28 28 bng 20 250 50 0 \$0-preset1snd \$0-preset1rcv empty 17
7 0 10 -99865 -1 -262144;
#X obj 50 28 bng 20 250 50 0 \$0-preset2snd \$0-preset2rcv empty 17
7 0 10 -262144 -1 -262144;
#X obj 72 28 bng 20 250 50 0 \$0-preset3snd \$0-preset3rcv empty 17
7 0 10 -262144 -1 -262144;
#X obj 94 28 bng 20 250 50 0 \$0-preset4snd \$0-preset4rcv empty 17
7 0 10 -262144 -1 -262144;
#X obj 116 28 bng 20 250 50 0 \$0-preset5snd \$0-preset5rcv empty 17
7 0 10 -262144 -1 -262144;
#X obj 138 28 bng 20 250 50 0 \$0-preset6snd \$0-preset6rcv empty 17
7 0 10 -262144 -1 -262144;
#X obj 160 28 bng 20 250 50 0 \$0-preset7snd \$0-preset7rcv empty 17
7 0 10 -262144 -1 -262144;
#X obj 182 28 bng 20 250 50 0 \$0-preset8snd \$0-preset8rcv empty 17
7 0 10 -262144 -1 -262144;
#X obj 28 50 bng 20 250 50 0 \$0-preset9snd \$0-preset9rcv empty 17
7 0 10 -262144 -1 -262144;
#X obj 50 50 bng 20 250 50 0 \$0-preset10snd \$0-preset10rcv empty
17 7 0 10 -262144 -1 -262144;
#X obj 72 50 bng 20 250 50 0 \$0-preset11snd \$0-preset11rcv empty
17 7 0 10 -262144 -1 -262144;
#X obj 94 50 bng 20 250 50 0 \$0-preset12snd \$0-preset12rcv empty
17 7 0 10 -262144 -1 -262144;
#X obj 116 50 bng 20 250 50 0 \$0-preset13snd \$0-preset13rcv empty
17 7 0 10 -262144 -1 -262144;
#X obj 138 50 bng 20 250 50 0 \$0-preset14snd \$0-preset14rcv empty
17 7 0 10 -262144 -1 -262144;
#X obj 160 50 bng 20 250 50 0 \$0-preset15snd \$0-preset15rcv empty
17 7 0 10 -262144 -1 -262144;
#X obj 182 50 bng 20 250 50 0 \$0-preset16snd \$0-preset16rcv empty
17 7 0 10 -262144 -1 -262144;
#X obj 28 72 bng 20 250 50 0 \$0-preset17snd \$0-preset17rcv empty
17 7 0 10 -262144 -1 -262144;
#X obj 50 72 bng 20 250 50 0 \$0-preset18snd \$0-preset18rcv empty
17 7 0 10 -262144 -1 -262144;
#X obj 72 72 bng 20 250 50 0 \$0-preset19snd \$0-preset19rcv empty
17 7 0 10 -262144 -1 -262144;
#X obj 94 72 bng 20 250 50 0 \$0-preset20snd \$0-preset20rcv empty
17 7 0 10 -262144 -1 -262144;
#X obj 116 72 bng 20 250 50 0 \$0-preset21snd \$0-preset21rcv empty
17 7 0 10 -262144 -1 -262144;
#X obj 138 72 bng 20 250 50 0 \$0-preset22snd \$0-preset22rcv empty
17 7 0 10 -262144 -1 -262144;
#X obj 160 72 bng 20 250 50 0 \$0-preset23snd \$0-preset23rcv empty
17 7 0 10 -262144 -1 -262144;
#X obj 182 72 bng 20 250 50 0 \$0-preset24snd \$0-preset24rcv empty
17 7 0 10 -262144 -1 -262144;
#X obj 28 94 bng 20 250 50 0 empty empty empty 17 7 0 10 -262144 -1
-1;
#X obj 50 94 bng 20 250 50 0 empty empty empty 17 7 0 10 -262144 -1
-1;
#X obj 72 94 bng 20 250 50 0 empty empty empty 17 7 0 10 -262144 -1
-1;
#X obj 94 94 bng 20 250 50 0 empty empty empty 17 7 0 10 -262144 -1
-1;
#X obj 116 94 bng 20 250 50 0 empty empty empty 17 7 0 10 -262144 -1
-1;
#X obj 138 94 bng 20 250 50 0 empty empty empty 17 7 0 10 -262144 -1
-1;
#X obj 160 94 bng 20 250 50 0 empty empty empty 17 7 0 10 -262144 -1
-1;
#X obj 182 94 bng 20 250 50 0 empty empty empty 17 7 0 10 -262144 -1
-1;
#X obj 28 116 bng 20 250 50 0 empty empty empty 17 7 0 10 -262144 -1
-1;
#X obj 50 116 bng 20 250 50 0 empty empty empty 17 7 0 10 -262144 -1
-1;
#X obj 72 116 bng 20 250 50 0 empty empty empty 17 7 0 10 -262144 -1
-1;
#X obj 94 116 bng 20 250 50 0 empty empty empty 17 7 0 10 -262144 -1
-1;
#X obj 116 116 bng 20 250 50 0 empty empty empty 17 7 0 10 -262144
-1 -1;
#X obj 138 116 bng 20 250 50 0 empty empty empty 17 7 0 10 -262144
-1 -1;
#X obj 160 116 bng 20 250 50 0 empty empty empty 17 7 0 10 -262144
-1 -1;
#X obj 182 116 bng 20 250 50 0 empty empty empty 17 7 0 10 -262144
-1 -1;
#N canvas 0 24 1360 715 presets 0;
#X obj 108 23 inlet data;
#X msg 116 390;
#X msg 181 390;
#X msg 596 494;
#X msg 629 494;
#X msg 663 494;
#X msg 696 494;
#X msg 728 494;
#X msg 761 494;
#X msg 795 494;
#X msg 828 494;
#X msg 596 524;
#X msg 629 524;
#X msg 663 524;
#X msg 696 524;
#X msg 728 524;
#X msg 761 524;
#X msg 795 524;
#X msg 828 524;
#X obj 107 113 list prepend set;
#X obj 104 52 route 1 2 3 4 5 6 7 8 9 10 11 12 13 14 15 16 17 18 19
20 21 22 23 24 25 26 27 28 29 30 31 32 33 34 35 36 37 38 39 40;
#X obj 107 135 list trim;
#X obj 215 112 list prepend set;
#X obj 215 134 list trim;
#X obj 323 112 list prepend set;
#X obj 323 134 list trim;
#X obj 433 111 list prepend set;
#X obj 433 133 list trim;
#X obj 540 111 list prepend set;
#X obj 540 133 list trim;
#X obj 648 110 list prepend set;
#X obj 648 132 list trim;
#X obj 760 111 list prepend set;
#X obj 760 133 list trim;
#X obj 868 110 list prepend set;
#X obj 868 132 list trim;
#X obj 728 17 inlet loadnumber;
#X obj 728 55 sel 1 2 3 4 5 6 7 8 9 10 11 12 13 14 15 16 17 18 19 20
21 22 23 24 25 26 27 28 29 30 31 32 33 34 35 36 37 38 39 40;
#X obj 421 612 outlet loaddata;
#X obj 116 169 list prepend set;
#X obj 116 191 list trim;
#X obj 224 168 list prepend set;
#X obj 224 190 list trim;
#X obj 332 168 list prepend set;
#X obj 332 190 list trim;
#X obj 440 167 list prepend set;
#X obj 440 189 list trim;
#X obj 549 167 list prepend set;
#X obj 549 189 list trim;
#X obj 657 166 list prepend set;
#X obj 657 188 list trim;
#X obj 769 167 list prepend set;
#X obj 769 189 list trim;
#X obj 877 166 list prepend set;
#X obj 877 188 list trim;
#X obj 143 219 list prepend set;
#X obj 143 241 list trim;
#X obj 251 218 list prepend set;
#X obj 251 240 list trim;
#X obj 359 218 list prepend set;
#X obj 359 240 list trim;
#X obj 467 217 list prepend set;
#X obj 467 239 list trim;
#X obj 576 217 list prepend set;
#X obj 576 239 list trim;
#X obj 684 216 list prepend set;
#X obj 684 238 list trim;
#X obj 796 217 list prepend set;
#X obj 796 239 list trim;
#X obj 904 216 list prepend set;
#X obj 904 238 list trim;
#X msg 1151 295;
#X msg 48 389;
#X msg 82 390;
#X msg 149 390;
#X msg 214 390;
#X msg 247 390;
#X msg 281 390;
#X msg 58 492;
#X msg 91 492;
#X msg 125 492;
#X msg 158 492;
#X msg 190 492;
#X msg 223 492;
#X msg 257 492;
#X msg 39 298 0 0.00117031 0.0155779 14.4812 0.1 50 20000 0.0344685
0.302057 0.0907017 0.0337006 0.213832 1 1 1 0.398091 1 0.181724 1 517.631
1 0.913386 1 1 1 -11 -14 140 35 164 43.6181 0.547244;
#X msg 261 289 0 0.00108181 0.0200401 0.357079 0.119877 50 4014.44
0.270331 0.643349 0.253806 0.560717 0.366524 1 1 1 0.783023 1 0.746683
0 362.506 1 0.913386 1 1 1 -7 -10 161 22 45 63.2663;
#X msg 401 296 0 0.001 -0.0201005 0.194511 0.128952 430.173 20000 1.21664
0.159566 0.0149818 1.82518 0.207968 1 1 1 40 1 0.999 0 9779.82 1 0.913386
1 1 1 -7 -10 161 22 45 19.6985 0.444882;
#X msg 659 345 0 0.001 0 0.318063 0.105731 50 20000 0.03 5.01303 0.0754769
0.835816 0.147592 1 1 1 3.86752 1 0.999 0 578.582 1 1 1 1 1 -11.21
-3.74 182 59 144 15 0.531496;
#X msg 811 287 0 0.00131682 -0.218813 1.35099 0.176737 500 208.071
0.840151 34.7172 0.01 0.471375 1.0241 1 1 1 0.586301 1 0.280564 1 706.946
0.348031 0.952756 0 1 1 34.41 44 464 49 388 35.9296 0.555118;
#X msg 879 300 0 0.00106075 0.0300503 0.137465 0.147201 238.431 20000
0.607651 1445.39 0.0197363 0.496569 0.180975 1 1 1 15.2209 1 0.963432
0 517.631 0.879528 0.96063 1 1 1 -4.53 -11.55 161 68 45 39.7739 0.523622
;
#X msg 1005 300;
#X msg 290 492;
#X connect 0 0 20 0;
#X connect 1 0 38 0;
#X connect 2 0 38 0;
#X connect 3 0 38 0;
#X connect 4 0 38 0;
#X connect 5 0 38 0;
#X connect 6 0 38 0;
#X connect 7 0 38 0;
#X connect 8 0 38 0;
#X connect 9 0 38 0;
#X connect 10 0 38 0;
#X connect 11 0 38 0;
#X connect 12 0 38 0;
#X connect 13 0 38 0;
#X connect 14 0 38 0;
#X connect 15 0 38 0;
#X connect 16 0 38 0;
#X connect 17 0 38 0;
#X connect 18 0 38 0;
#X connect 19 0 21 0;
#X connect 20 0 19 0;
#X connect 20 1 22 0;
#X connect 20 2 24 0;
#X connect 20 3 26 0;
#X connect 20 4 28 0;
#X connect 20 5 30 0;
#X connect 20 6 32 0;
#X connect 20 7 34 0;
#X connect 20 8 39 0;
#X connect 20 9 41 0;
#X connect 20 10 43 0;
#X connect 20 11 45 0;
#X connect 20 12 47 0;
#X connect 20 13 49 0;
#X connect 20 14 51 0;
#X connect 20 15 53 0;
#X connect 20 16 55 0;
#X connect 20 17 57 0;
#X connect 20 18 59 0;
#X connect 20 19 61 0;
#X connect 20 20 63 0;
#X connect 20 21 65 0;
#X connect 20 22 67 0;
#X connect 20 23 69 0;
#X connect 21 0 85 0;
#X connect 22 0 23 0;
#X connect 23 0 86 0;
#X connect 24 0 25 0;
#X connect 25 0 87 0;
#X connect 26 0 27 0;
#X connect 27 0 88 0;
#X connect 28 0 29 0;
#X connect 29 0 89 0;
#X connect 30 0 31 0;
#X connect 31 0 90 0;
#X connect 32 0 33 0;
#X connect 33 0 91 0;
#X connect 34 0 35 0;
#X connect 35 0 71 0;
#X connect 36 0 37 0;
#X connect 37 0 85 0;
#X connect 37 1 86 0;
#X connect 37 2 87 0;
#X connect 37 3 88 0;
#X connect 37 4 89 0;
#X connect 37 5 90 0;
#X connect 37 6 91 0;
#X connect 37 7 71 0;
#X connect 37 8 72 0;
#X connect 37 9 73 0;
#X connect 37 10 1 0;
#X connect 37 11 74 0;
#X connect 37 12 2 0;
#X connect 37 13 75 0;
#X connect 37 14 76 0;
#X connect 37 15 77 0;
#X connect 37 16 78 0;
#X connect 37 17 79 0;
#X connect 37 18 80 0;
#X connect 37 19 81 0;
#X connect 37 20 82 0;
#X connect 37 21 83 0;
#X connect 37 22 84 0;
#X connect 37 23 92 0;
#X connect 39 0 40 0;
#X connect 40 0 72 0;
#X connect 41 0 42 0;
#X connect 42 0 73 0;
#X connect 43 0 44 0;
#X connect 44 0 1 0;
#X connect 45 0 46 0;
#X connect 46 0 74 0;
#X connect 47 0 48 0;
#X connect 48 0 2 0;
#X connect 49 0 50 0;
#X connect 50 0 75 0;
#X connect 51 0 52 0;
#X connect 52 0 76 0;
#X connect 53 0 54 0;
#X connect 54 0 77 0;
#X connect 55 0 56 0;
#X connect 56 0 78 0;
#X connect 57 0 58 0;
#X connect 58 0 79 0;
#X connect 59 0 60 0;
#X connect 60 0 80 0;
#X connect 61 0 62 0;
#X connect 62 0 81 0;
#X connect 63 0 64 0;
#X connect 64 0 82 0;
#X connect 65 0 66 0;
#X connect 66 0 83 0;
#X connect 67 0 68 0;
#X connect 68 0 84 0;
#X connect 69 0 70 0;
#X connect 70 0 92 0;
#X connect 71 0 38 0;
#X connect 72 0 38 0;
#X connect 73 0 38 0;
#X connect 74 0 38 0;
#X connect 75 0 38 0;
#X connect 76 0 38 0;
#X connect 77 0 38 0;
#X connect 78 0 38 0;
#X connect 79 0 38 0;
#X connect 80 0 38 0;
#X connect 81 0 38 0;
#X connect 82 0 38 0;
#X connect 83 0 38 0;
#X connect 84 0 38 0;
#X connect 85 0 38 0;
#X connect 86 0 38 0;
#X connect 87 0 38 0;
#X connect 88 0 38 0;
#X connect 89 0 38 0;
#X connect 90 0 38 0;
#X connect 91 0 38 0;
#X connect 92 0 38 0;
#X restore 424 400 pd presets;
#X obj 26 140 bng 20 250 50 0 empty empty save 25 7 0 10 -169710 -1
-1;
#X obj 278 230 v \$0-currentpreset;
#X floatatom 328 266 5 0 0 0 - - -, f 5;
#X obj 237 203 t b b b;
#X obj 417 375 list prepend;
#X obj 255 288 bng 15 250 50 0 empty empty empty 17 7 0 10 -262144
-1 -1;
#N canvas 0 24 1360 692 bangreceivesandcolors 0;
#X obj 59 25 r \$0-preset1snd;
#X obj 183 26 r \$0-preset2snd;
#X obj 296 27 r \$0-preset3snd;
#X obj 441 29 r \$0-preset4snd;
#X obj 559 28 r \$0-preset5snd;
#X obj 666 28 r \$0-preset6snd;
#X obj 777 28 r \$0-preset7snd;
#X obj 898 26 r \$0-preset8snd;
#X obj 267 418 t b b b;
#X msg 280 480 1;
#X obj 470 512 v \$0-currentpreset;
#X obj 478 544 makefilename \$0-preset%drcv;
#X obj 412 619 s;
#X obj 433 481 t b b, f 6;
#X msg 423 559 color 0;
#X obj 263 523 v \$0-currentpreset;
#X obj 184 559 v \$0-currentpreset;
#X obj 201 600 makefilename \$0-preset%drcv;
#X obj 126 666 s;
#X obj 147 528 t b b, f 6;
#X msg 308 251 set 1;
#X obj 284 217 t b b;
#X obj 350 216 t b b;
#X msg 374 250 set 2;
#X obj 428 216 t b b;
#X obj 493 216 t b b;
#X obj 570 210 t b b;
#X obj 636 209 t b b;
#X obj 713 209 t b b;
#X obj 779 208 t b b;
#X msg 452 250 set 3;
#X msg 518 250 set 4;
#X msg 594 244 set 5;
#X msg 659 243 set 6;
#X msg 737 243 set 7;
#X msg 803 242 set 8;
#X msg 136 606 color 21;
#X obj 149 115 r \$0-preset1snd;
#X obj 273 116 r \$0-preset2snd;
#X obj 386 117 r \$0-preset3snd;
#X obj 531 119 r \$0-preset4snd;
#X obj 649 118 r \$0-preset5snd;
#X obj 756 118 r \$0-preset6snd;
#X obj 867 118 r \$0-preset7snd;
#X obj 988 116 r \$0-preset8snd;
#X obj 189 145 r \$0-preset1snd;
#X obj 313 146 r \$0-preset2snd;
#X obj 426 147 r \$0-preset3snd;
#X obj 571 149 r \$0-preset4snd;
#X obj 689 148 r \$0-preset5snd;
#X obj 796 148 r \$0-preset6snd;
#X obj 907 148 r \$0-preset7snd;
#X obj 1028 146 r \$0-preset8snd;
#X obj 89 55 r \$0-preset9snd;
#X obj 212 56 r \$0-preset10snd;
#X obj 326 57 r \$0-preset11snd;
#X obj 469 59 r \$0-preset12snd;
#X obj 589 58 r \$0-preset13snd;
#X obj 696 58 r \$0-preset14snd;
#X obj 808 58 r \$0-preset15snd;
#X obj 928 56 r \$0-preset16snd;
#X obj 316 286 t b b;
#X obj 382 285 t b b;
#X obj 460 285 t b b;
#X obj 526 284 t b b;
#X obj 602 279 t b b;
#X obj 668 278 t b b;
#X obj 745 278 t b b;
#X obj 811 277 t b b;
#X msg 340 320 set 9;
#X msg 406 319 set 10;
#X msg 484 319 set 11;
#X msg 550 319 set 12;
#X msg 626 313 set 13;
#X msg 691 312 set 14;
#X msg 769 312 set 15;
#X msg 835 311 set 16;
#X obj 321 643 outlet currentpreset;
#X obj 433 351 t b b;
#X obj 499 350 t b b;
#X obj 577 350 t b b;
#X obj 643 349 t b b;
#X obj 719 344 t b b;
#X msg 457 385 set 17;
#X msg 523 384 set 18;
#X msg 601 384 set 19;
#X msg 667 384 set 20;
#X msg 743 378 set 21;
#X msg 821 382 set 22;
#X msg 886 377 set 23;
#X msg 952 376 set 24;
#X obj 796 345 t b b;
#X obj 862 344 t b b;
#X obj 938 339 t b b;
#X obj 119 85 r \$0-preset17snd;
#X obj 243 86 r \$0-preset18snd;
#X obj 356 87 r \$0-preset19snd;
#X obj 501 89 r \$0-preset20snd;
#X obj 619 88 r \$0-preset21snd;
#X obj 726 88 r \$0-preset22snd;
#X obj 837 88 r \$0-preset23snd;
#X obj 958 86 r \$0-preset24snd;
#X connect 0 0 21 0;
#X connect 1 0 22 0;
#X connect 2 0 24 0;
#X connect 3 0 25 0;
#X connect 4 0 26 0;
#X connect 5 0 27 0;
#X connect 6 0 28 0;
#X connect 7 0 29 0;
#X connect 8 0 19 0;
#X connect 8 1 9 0;
#X connect 8 2 13 0;
#X connect 9 0 15 0;
#X connect 9 0 77 0;
#X connect 10 0 11 0;
#X connect 11 0 12 1;
#X connect 13 0 14 0;
#X connect 13 1 10 0;
#X connect 14 0 12 0;
#X connect 16 0 17 0;
#X connect 17 0 18 1;
#X connect 19 0 36 0;
#X connect 19 1 16 0;
#X connect 20 0 9 0;
#X connect 21 0 8 0;
#X connect 21 1 20 0;
#X connect 22 0 8 0;
#X connect 22 1 23 0;
#X connect 23 0 9 0;
#X connect 24 0 8 0;
#X connect 24 1 30 0;
#X connect 25 0 8 0;
#X connect 25 1 31 0;
#X connect 26 0 8 0;
#X connect 26 1 32 0;
#X connect 27 0 8 0;
#X connect 27 1 33 0;
#X connect 28 0 8 0;
#X connect 28 1 34 0;
#X connect 29 0 8 0;
#X connect 29 1 35 0;
#X connect 30 0 9 0;
#X connect 31 0 9 0;
#X connect 32 0 9 0;
#X connect 33 0 9 0;
#X connect 34 0 9 0;
#X connect 35 0 9 0;
#X connect 36 0 18 0;
#X connect 53 0 61 0;
#X connect 54 0 62 0;
#X connect 55 0 63 0;
#X connect 56 0 64 0;
#X connect 57 0 65 0;
#X connect 58 0 66 0;
#X connect 59 0 67 0;
#X connect 60 0 68 0;
#X connect 61 0 8 0;
#X connect 61 1 69 0;
#X connect 62 0 8 0;
#X connect 62 1 70 0;
#X connect 63 0 8 0;
#X connect 63 1 71 0;
#X connect 64 0 8 0;
#X connect 64 1 72 0;
#X connect 65 0 8 0;
#X connect 65 1 73 0;
#X connect 66 0 8 0;
#X connect 66 1 74 0;
#X connect 67 0 8 0;
#X connect 67 1 75 0;
#X connect 68 0 8 0;
#X connect 68 1 76 0;
#X connect 69 0 9 0;
#X connect 70 0 9 0;
#X connect 71 0 9 0;
#X connect 72 0 9 0;
#X connect 73 0 9 0;
#X connect 74 0 9 0;
#X connect 75 0 9 0;
#X connect 76 0 9 0;
#X connect 78 0 8 0;
#X connect 78 1 83 0;
#X connect 79 0 8 0;
#X connect 79 1 84 0;
#X connect 80 0 8 0;
#X connect 80 1 85 0;
#X connect 81 0 8 0;
#X connect 81 1 86 0;
#X connect 82 0 8 0;
#X connect 82 1 87 0;
#X connect 83 0 9 0;
#X connect 84 0 9 0;
#X connect 85 0 9 0;
#X connect 86 0 9 0;
#X connect 87 0 9 0;
#X connect 88 0 9 0;
#X connect 89 0 9 0;
#X connect 90 0 9 0;
#X connect 91 0 8 0;
#X connect 91 1 88 0;
#X connect 92 0 8 0;
#X connect 92 1 89 0;
#X connect 93 0 8 0;
#X connect 93 1 90 0;
#X connect 94 0 78 0;
#X connect 95 0 79 0;
#X connect 96 0 80 0;
#X connect 97 0 81 0;
#X connect 98 0 82 0;
#X connect 99 0 91 0;
#X connect 100 0 92 0;
#X connect 101 0 93 0;
#X restore 144 322 pd bangreceivesandcolors;
#X obj 340 77 r \$0-injectsnd;
#X obj 340 99 r \$0-scrubsnd;
#X obj 340 121 r \$0-deltimesnd;
#X obj 340 143 r \$0-delmodsnd;
#X obj 340 165 r \$0-delmodlopsnd;
#X obj 481 79 r \$0-cutoffsnd;
#X obj 482 106 r \$0-ressnd;
#X obj 493 137 r \$0-hipsnd;
#X obj 585 86 r \$0-verbauxsnd;
#X obj 593 105 r \$0-tremauxsnd;
#X obj 600 125 r \$0-fb1snd;
#X obj 606 148 r \$0-verbmutesnd;
#X obj 618 171 r \$0-tremmutesnd;
#X obj 629 194 r \$0-fbmutesnd;
#X obj 767 63 r \$0-tremspdsnd;
#X obj 767 85 r \$0-tremdepthsnd;
#X obj 767 107 r \$0-trempwsnd;
#X obj 767 129 r \$0-tremshapesnd;
#X obj 899 83 r \$0-verbfiltsnd;
#X obj 899 105 r \$0-verbsizesnd;
#X obj 899 127 r \$0-verbdrywetsnd;
#X obj 1032 106 r \$0-bypasssnd;
#X obj 1032 128 r \$0-voice1snd;
#X obj 1032 150 r \$0-voice2snd;
#X obj 1032 172 r \$0-voice1pitchsnd;
#X obj 1032 195 r \$0-voice2pitchsnd;
#X obj 1032 217 r \$0-arpdelayleftsnd;
#X obj 1032 239 r \$0-arpfbsnd;
#X obj 1033 265 r \$0-arpdelayrightsnd;
#X obj 338 521 s \$0-injectrcv;
#X obj 338 543 s \$0-scrubrcv;
#X obj 338 565 s \$0-deltimercv;
#X obj 338 587 s \$0-delmodrcv;
#X obj 338 609 s \$0-delmodloprcv;
#X obj 472 516 s \$0-cutoffrcv;
#X obj 473 538 s \$0-resrcv;
#X obj 473 563 s \$0-hiprcv;
#X obj 580 520 s \$0-verbauxrcv;
#X obj 580 542 s \$0-tremauxrcv;
#X obj 580 564 s \$0-fb1rcv;
#X obj 580 586 s \$0-verbmutercv;
#X obj 580 608 s \$0-tremmutercv;
#X obj 580 630 s \$0-fbmutercv;
#X obj 745 560 s \$0-trempwrcv;
#X obj 745 516 s \$0-tremspdrcv;
#X obj 745 538 s \$0-tremdepthrcv;
#X obj 745 582 s \$0-tremshapercv;
#X obj 914 511 s \$0-verbfiltrcv;
#X obj 914 533 s \$0-verbsizercv;
#X obj 914 555 s \$0-verbdrywetrcv;
#X obj 1064 513 s \$0-bypassrcv;
#X obj 1064 535 s \$0-voice1rcv;
#X obj 1064 557 s \$0-voice2rcv;
#X obj 1065 578 s \$0-voice1pitchrcv;
#X obj 1064 601 s \$0-voice2pitchrcv;
#X obj 1064 623 s \$0-arpdelayleftrcv;
#X obj 1064 645 s \$0-arpfbrcv;
#X obj 1064 667 s \$0-arpdelayrightrcv;
#X obj 1009 315 r \$0-limitsnd;
#X obj 1170 467 s \$0-limitrcv;
#X obj 414 313 pack \$1 \$2 \$3 \$4 \$5 \$6 \$7 \$8 \$9 \$10 \$11 \$12
\$13 \$14 \$15 \$16 \$17 \$18 \$19 \$20 \$21 \$22 \$23 \$24 \$25 \$26
\$27 \$28 \$29 \$30 \$31 \$32;
#X obj 1087 341 r \$0-tremphasesnd;
#X obj 423 437 unpack \$1 \$2 \$3 \$4 \$5 \$6 \$7 \$8 \$9 \$10 \$11
\$12 \$13 \$14 \$15 \$16 \$17 \$18 \$19 \$20 \$21 \$22 \$23 \$24 \$25
\$26 \$27 \$28 \$29 \$30 \$31 \$32;
#X obj 1166 502 s \$0-tremphasercv;
#X connect 41 0 111 0;
#X connect 42 0 45 0;
#X connect 43 0 44 0;
#X connect 43 0 46 1;
#X connect 45 1 109 0;
#X connect 45 2 43 0;
#X connect 46 0 41 0;
#X connect 47 0 109 0;
#X connect 48 0 41 1;
#X connect 49 0 109 1;
#X connect 50 0 109 2;
#X connect 51 0 109 3;
#X connect 52 0 109 4;
#X connect 53 0 109 5;
#X connect 54 0 109 6;
#X connect 55 0 109 7;
#X connect 56 0 109 8;
#X connect 57 0 109 9;
#X connect 58 0 109 10;
#X connect 59 0 109 11;
#X connect 60 0 109 12;
#X connect 61 0 109 13;
#X connect 62 0 109 14;
#X connect 63 0 109 15;
#X connect 64 0 109 16;
#X connect 65 0 109 17;
#X connect 66 0 109 18;
#X connect 67 0 109 19;
#X connect 68 0 109 20;
#X connect 69 0 109 21;
#X connect 70 0 109 22;
#X connect 71 0 109 23;
#X connect 72 0 109 24;
#X connect 73 0 109 25;
#X connect 74 0 109 26;
#X connect 75 0 109 27;
#X connect 76 0 109 28;
#X connect 77 0 109 29;
#X connect 107 0 109 30;
#X connect 109 0 46 0;
#X connect 110 0 109 31;
#X connect 111 1 78 0;
#X connect 111 2 79 0;
#X connect 111 3 80 0;
#X connect 111 4 81 0;
#X connect 111 5 82 0;
#X connect 111 6 83 0;
#X connect 111 7 84 0;
#X connect 111 8 85 0;
#X connect 111 9 86 0;
#X connect 111 10 87 0;
#X connect 111 11 88 0;
#X connect 111 12 89 0;
#X connect 111 13 90 0;
#X connect 111 14 91 0;
#X connect 111 15 93 0;
#X connect 111 16 94 0;
#X connect 111 17 92 0;
#X connect 111 18 95 0;
#X connect 111 19 96 0;
#X connect 111 20 97 0;
#X connect 111 21 98 0;
#X connect 111 22 99 0;
#X connect 111 23 100 0;
#X connect 111 24 101 0;
#X connect 111 25 102 0;
#X connect 111 26 103 0;
#X connect 111 27 104 0;
#X connect 111 28 105 0;
#X connect 111 29 106 0;
#X connect 111 30 108 0;
#X connect 111 31 112 0;
#X coords 0 -1 1 1 200 150 1 16 16;
#X restore 96 500 pd presets;
#X floatatom 414 440 5 0 0 0 - - -, f 5;
#X obj 646 189 vsl 20 200 100 15 0 0 \$0-limitsnd \$0-limitrcv lim
0 -9 0 10 -262144 -1 -1 13200 1;
#N canvas 116 190 600 382 limiter2 0;
#X obj 7 14 inlet~;
#X obj 115 56 env~ 1024;
#X obj 115 78 moses;
#X obj 382 18 inlet thresh;
#X obj 238 19 initbang;
#X obj 153 121 expr (($f1 - $f3) / $f2) - $f1 + $f3;
#X obj 153 143 expr 100 + $f1;
#X obj 153 165 dbtorms;
#X msg 116 124 1;
#X obj 115 100 bang;
#X obj 31 233 *~;
#X obj 92 222 line~;
#X obj 33 339 outlet~;
#X msg 317 76 10;
#X floatatom 74 79 5 0 0 0 - - -, f 5;
#X obj 379 86 dbtorms, f 15;
#X obj 379 108 expr 1/$f1;
#X obj 31 255 *~;
#X msg 243 52 6;
#X obj 33 165 z~ 1024;
#X obj 404 128 pow 0.85;
#X obj 379 152 smoother 10;
#X msg 112 195 \$1 5;
#X msg 103 169 \$1 25;
#X floatatom 153 187 5 0 0 0 - - -, f 5;
#X obj 521 16 inlet~;
#X obj 629 58 env~ 1024;
#X obj 629 80 moses;
#X obj 752 21 initbang;
#X obj 667 123 expr (($f1 - $f3) / $f2) - $f1 + $f3;
#X obj 667 145 expr 100 + $f1;
#X obj 667 167 dbtorms;
#X msg 630 126 1;
#X obj 629 102 bang;
#X obj 545 235 *~;
#X obj 606 224 line~;
#X obj 547 341 outlet~;
#X msg 831 78 10;
#X floatatom 588 81 5 0 0 0 - - -, f 5;
#X obj 893 88 dbtorms, f 15;
#X obj 893 110 expr 1/$f1;
#X obj 545 257 *~;
#X msg 757 54 6;
#X obj 547 167 z~ 1024;
#X obj 918 130 pow 0.85;
#X obj 893 154 smoother 10;
#X msg 626 197 \$1 5;
#X msg 617 171 \$1 25;
#X floatatom 667 189 5 0 0 0 - - -, f 5;
#X obj 288 237 s \$0-limdispL;
#X obj 802 239 s \$0-limdispR;
#X connect 0 0 1 0;
#X connect 0 0 19 0;
#X connect 1 0 2 0;
#X connect 1 0 14 0;
#X connect 2 0 9 0;
#X connect 2 1 5 0;
#X connect 3 0 5 2;
#X connect 3 0 2 1;
#X connect 3 0 15 0;
#X connect 3 0 39 0;
#X connect 3 0 29 2;
#X connect 3 0 27 1;
#X connect 4 0 18 0;
#X connect 5 0 6 0;
#X connect 6 0 7 0;
#X connect 7 0 22 0;
#X connect 7 0 24 0;
#X connect 7 0 49 0;
#X connect 8 0 23 0;
#X connect 8 0 49 0;
#X connect 9 0 8 0;
#X connect 10 0 17 0;
#X connect 11 0 10 1;
#X connect 13 0 5 2;
#X connect 13 0 2 1;
#X connect 15 0 16 0;
#X connect 16 0 20 0;
#X connect 17 0 12 0;
#X connect 18 0 5 1;
#X connect 19 0 10 0;
#X connect 20 0 21 0;
#X connect 21 0 17 1;
#X connect 22 0 11 0;
#X connect 23 0 11 0;
#X connect 25 0 26 0;
#X connect 25 0 43 0;
#X connect 26 0 27 0;
#X connect 26 0 38 0;
#X connect 27 0 33 0;
#X connect 27 1 29 0;
#X connect 28 0 42 0;
#X connect 29 0 30 0;
#X connect 30 0 31 0;
#X connect 31 0 46 0;
#X connect 31 0 48 0;
#X connect 31 0 50 0;
#X connect 32 0 47 0;
#X connect 32 0 50 0;
#X connect 33 0 32 0;
#X connect 34 0 41 0;
#X connect 35 0 34 1;
#X connect 37 0 29 2;
#X connect 37 0 27 1;
#X connect 39 0 40 0;
#X connect 40 0 44 0;
#X connect 41 0 36 0;
#X connect 42 0 29 1;
#X connect 43 0 34 0;
#X connect 44 0 45 0;
#X connect 45 0 41 1;
#X connect 46 0 35 0;
#X connect 47 0 35 0;
#X restore 1052 419 pd limiter2;
#X obj 668 189 vsl 8 200 0 1 0 0 \$0-foo \$0-limdispL empty 0 -9 0
10 -262144 -1 -1 19900 1;
#X obj 678 189 vsl 8 200 0 1 0 0 \$0-foo \$0-limdispR empty 0 -9 0
10 -262144 -1 -1 19900 1;
#X obj 1141 383 r \$0-limitsnd;
#X obj 640 143 cnv 15 48 23 empty empty ----> 1 10 0 15 -215008 -249749
0;
#X obj 609 403 cnv 15 61 22 empty empty -------> 1 10 0 15 -215008
-249749 0;
#X text 319 547 most presets will need to be activated by moving their
centricities;
#X obj 800 105 vsl 25 128 0 1 0 0 \$0-tremphasesnd \$0-tremphasercv
phase 0 -9 0 10 -262144 -1 -1 0 1;
#X connect 4 0 43 0;
#X connect 4 1 43 2;
#X connect 12 0 41 0;
#X connect 43 0 5 0;
#X connect 43 0 8 0;
#X connect 43 1 5 1;
#X connect 43 1 9 0;
#X connect 46 0 43 1;
