#N canvas 0 24 1600 826 10;
#X obj 698 45 cnv 15 111 653 empty empty empty 20 12 0 14 -241331 -66577
0;
#X obj 355 372 cnv 15 192 326 empty empty empty 20 12 0 14 -96576 -66577
0;
#X obj 547 372 cnv 15 150 326 empty empty empty 20 12 0 14 -186239
-66577 0;
#X obj 547 45 cnv 15 150 326 empty empty empty 20 12 0 14 -257246 -66577
0;
#X obj 355 45 cnv 15 191 326 empty empty empty 20 12 0 14 -240494 -66577
0;
#X obj 1225 678 output;
#X obj 1225 520 mixer4 0.01 0.304191 0.337357 0.0752323 0 0 0 0 0 0
0 0 1 0;
#N canvas 801 24 798 825 soundstuff 0;
#X obj 72 328 *~;
#X obj 284 336 *~;
#X obj 37 203 smoother 15;
#X obj 567 321 smoother 0;
#X obj 183 335 *~;
#X obj 94 379 cos~;
#X obj 94 406 *~;
#X obj 557 394 +~, f 2;
#X obj 630 421 osc~ 0.4;
#X obj 72 490 lop~;
#X obj 18 54 maxlib/scale 0 1 30 102;
#X obj 53 29 r \$0-xcoordsnd;
#X obj 786 79 r \$0-scrubquantizesnd;
#X obj 58 83 r \$0-del1snd;
#X obj 58 105 - 0.1;
#X obj 163 108 - 0.1;
#X obj 163 86 r \$0-del2snd;
#X obj 132 354 r \$0-phasefbsnd;
#N canvas 279 315 450 323 fb1receives 0;
#X obj 82 198 * -1;
#X obj 185 111 t b f;
#X obj 186 81 +;
#X obj 216 50 t b f;
#X obj 225 125 r \$0-invert1snd;
#X obj 225 147 * 2;
#X obj 225 169 - 1;
#X obj 225 191 t b f;
#X obj 59 91 r \$0-fb1finesnd;
#X obj 126 39 r \$0-fb1snd;
#X obj 81 145 +;
#X obj 106 169 s \$0-fb1disp;
#X obj 220 24 r \$0-fb1kicksnd;
#X obj 81 273 outlet;
#X obj 336 50 r \$0-globalfbsnd;
#X obj 82 220 *;
#X obj 336 72 t b f;
#X connect 0 0 15 0;
#X connect 1 0 10 0;
#X connect 1 1 10 1;
#X connect 2 0 1 0;
#X connect 3 0 2 0;
#X connect 3 1 2 1;
#X connect 4 0 5 0;
#X connect 5 0 6 0;
#X connect 6 0 7 0;
#X connect 7 0 0 0;
#X connect 7 1 0 1;
#X connect 8 0 10 0;
#X connect 9 0 2 0;
#X connect 10 0 0 0;
#X connect 10 0 11 0;
#X connect 12 0 3 0;
#X connect 14 0 16 0;
#X connect 15 0 13 0;
#X connect 16 0 15 0;
#X connect 16 1 15 1;
#X restore 37 178 pd fb1receives;
#X obj 140 203 smoother 15;
#N canvas 278 291 450 323 fb2receives 0;
#X obj 82 198 * -1;
#X obj 185 111 t b f;
#X obj 186 81 +;
#X obj 216 50 t b f;
#X obj 225 147 * 2;
#X obj 225 169 - 1;
#X obj 225 191 t b f;
#X obj 81 145 +;
#X obj 83 252 outlet;
#X obj 126 39 r \$0-fb2snd;
#X obj 220 24 r \$0-fb2kicksnd;
#X obj 59 91 r \$0-fb2finesnd;
#X obj 107 170 s \$0-fb2disp;
#X obj 225 125 r \$0-invert2snd;
#X obj 333 50 r \$0-globalfbsnd;
#X obj 333 72 t b f;
#X obj 82 220 *;
#X connect 0 0 16 0;
#X connect 1 0 7 0;
#X connect 1 1 7 1;
#X connect 2 0 1 0;
#X connect 3 0 2 0;
#X connect 3 1 2 1;
#X connect 4 0 5 0;
#X connect 5 0 6 0;
#X connect 6 0 0 0;
#X connect 6 1 0 1;
#X connect 7 0 0 0;
#X connect 7 0 12 0;
#X connect 9 0 2 0;
#X connect 10 0 3 0;
#X connect 11 0 7 0;
#X connect 13 0 4 0;
#X connect 14 0 15 0;
#X connect 15 0 16 0;
#X connect 15 1 16 1;
#X connect 16 0 8 0;
#X restore 140 178 pd fb2receives;
#N canvas 780 230 752 506 crossfeeds 0;
#X obj 47 237 outlet~ L1;
#X obj 131 235 outlet~ L2;
#X obj 218 237 outlet~ R1;
#X obj 296 239 outlet~ R2;
#X obj 439 437 outlet~ aux1;
#X obj 604 451 outlet~ aux2;
#X obj 55 33 inlet~ fb1;
#X obj 120 32 inlet~ fb2;
#X obj 382 31 inlet~ fb3;
#X obj 450 32 inlet~ fb4;
#X obj 429 242 r \$0-f1a1snd;
#X obj 683 308 r \$0-f4a2snd;
#X obj 402 367 *~ 0;
#X obj 438 366 *~ 0;
#X obj 479 366 *~ 0;
#X obj 516 365 *~ 0;
#X obj 622 373 *~ 0;
#X obj 659 372 *~ 0;
#X obj 700 372 *~ 0;
#X obj 737 371 *~ 0;
#X obj 461 264 r \$0-f2a1snd;
#X obj 488 288 r \$0-f3a1snd;
#X obj 513 312 r \$0-f4a1snd;
#X obj 593 240 r \$0-f1a2snd;
#X obj 624 260 r \$0-f2a2snd;
#X obj 650 285 r \$0-f3a2snd;
#X connect 6 0 0 0;
#X connect 6 0 12 0;
#X connect 6 0 16 0;
#X connect 7 0 1 0;
#X connect 7 0 13 0;
#X connect 7 0 17 0;
#X connect 8 0 2 0;
#X connect 8 0 14 0;
#X connect 8 0 18 0;
#X connect 9 0 3 0;
#X connect 9 0 15 0;
#X connect 9 0 19 0;
#X connect 10 0 12 1;
#X connect 11 0 19 1;
#X connect 12 0 4 0;
#X connect 13 0 4 0;
#X connect 14 0 4 0;
#X connect 15 0 4 0;
#X connect 16 0 5 0;
#X connect 17 0 5 0;
#X connect 18 0 5 0;
#X connect 19 0 5 0;
#X connect 20 0 13 1;
#X connect 21 0 14 1;
#X connect 22 0 15 1;
#X connect 23 0 16 1;
#X connect 24 0 17 1;
#X connect 25 0 18 1;
#X restore 409 607 pd crossfeeds;
#X obj 51 138 smoother 2;
#X obj 153 140 smoother 2;
#X obj 75 286 delread4~ \$0-fb1;
#X obj 308 290 delread4~ \$0-fb3;
#X obj 189 289 delread4~ \$0-fb2;
#X obj 245 206 smoother 15;
#N canvas 278 291 450 323 fb3receives 0;
#X obj 82 198 * -1;
#X obj 185 111 t b f;
#X obj 186 81 +;
#X obj 216 50 t b f;
#X obj 225 147 * 2;
#X obj 225 169 - 1;
#X obj 225 191 t b f;
#X obj 81 145 +;
#X obj 82 252 outlet;
#X obj 130 37 r \$0-fb3snd;
#X obj 220 24 r \$0-fb3kicksnd;
#X obj 59 91 r \$0-fb3finesnd;
#X obj 225 125 r \$0-invert3snd;
#X obj 107 170 s \$0-fb3disp;
#X obj 317 46 r \$0-globalfbsnd;
#X obj 317 68 t b f;
#X obj 82 220 *;
#X connect 0 0 16 0;
#X connect 1 0 7 0;
#X connect 1 1 7 1;
#X connect 2 0 1 0;
#X connect 3 0 2 0;
#X connect 3 1 2 1;
#X connect 4 0 5 0;
#X connect 5 0 6 0;
#X connect 6 0 0 0;
#X connect 6 1 0 1;
#X connect 7 0 0 0;
#X connect 7 0 13 0;
#X connect 9 0 2 0;
#X connect 10 0 3 0;
#X connect 11 0 7 0;
#X connect 12 0 4 0;
#X connect 14 0 15 0;
#X connect 15 0 16 0;
#X connect 15 1 16 1;
#X connect 16 0 8 0;
#X restore 247 181 pd fb3receives;
#X obj 266 107 - 0.1;
#X obj 256 139 smoother 2;
#X obj 266 85 r \$0-del3snd;
#X obj 78 600 outlet~;
#X obj 130 600 outlet~;
#X obj 184 601 outlet~;
#X obj 236 601 outlet~;
#X obj 394 336 *~;
#X obj 355 206 smoother 15;
#X obj 376 107 - 0.1;
#X obj 366 139 smoother 2;
#X obj 418 290 delread4~ \$0-fb4;
#N canvas 279 315 450 323 fb4receives 0;
#X obj 82 198 * -1;
#X obj 185 111 t b f;
#X obj 186 81 +;
#X obj 216 50 t b f;
#X obj 225 147 * 2;
#X obj 225 169 - 1;
#X obj 225 191 t b f;
#X obj 81 145 +;
#X obj 80 258 outlet;
#X obj 130 37 r \$0-fb4snd;
#X obj 220 24 r \$0-fb4kicksnd;
#X obj 225 125 r \$0-invert4snd;
#X obj 59 91 r \$0-fb4finesnd;
#X obj 107 170 s \$0-fb4disp;
#X obj 341 56 r \$0-globalfbsnd;
#X obj 341 78 t b f;
#X obj 82 220 *;
#X connect 0 0 16 0;
#X connect 1 0 7 0;
#X connect 1 1 7 1;
#X connect 2 0 1 0;
#X connect 3 0 2 0;
#X connect 3 1 2 1;
#X connect 4 0 5 0;
#X connect 5 0 6 0;
#X connect 6 0 0 0;
#X connect 6 1 0 1;
#X connect 7 0 0 0;
#X connect 7 0 13 0;
#X connect 9 0 2 0;
#X connect 10 0 3 0;
#X connect 11 0 4 0;
#X connect 12 0 7 0;
#X connect 14 0 15 0;
#X connect 15 0 16 0;
#X connect 15 1 16 1;
#X connect 16 0 8 0;
#X restore 357 181 pd fb4receives;
#X obj 376 85 r \$0-del4snd;
#X obj 585 273 r \$0-yscrubprocessedsnd;
#X obj 634 292 r \$0-xscrubprocessedsnd;
#X obj 645 321 smoother 0;
#X obj 629 399 +~;
#X floatatom 546 301 5 0 0 0 - - -, f 5;
#N canvas 577 323 672 403 auxmatrix 0;
#X obj 103 292 outlet~ fb1;
#X obj 137 318 outlet~ fb2;
#X obj 191 293 outlet~ fb3;
#X obj 221 320 outlet~ fb4;
#X obj 149 229 *~;
#X obj 154 256 *~;
#X obj 187 228 *~;
#X obj 304 231 *~;
#X obj 309 258 *~;
#X obj 342 230 *~;
#X obj 360 257 *~;
#X obj 230 141 r \$0-a1f1snd;
#X obj 230 163 r \$0-a1f2snd;
#X obj 230 185 r \$0-a1f3snd;
#X obj 230 207 r \$0-a1f4snd;
#X obj 384 145 r \$0-a2f1snd;
#X obj 384 167 r \$0-a2f2snd;
#X obj 384 189 r \$0-a2f3snd;
#X obj 384 211 r \$0-a2f4snd;
#X floatatom 350 318 5 0 0 0 - - -, f 5;
#X obj 205 255 *~ 0;
#X obj 152 98 *~;
#X obj 363 96 *~;
#X obj 93 15 inlet~;
#X obj 354 22 inlet~;
#X obj 165 12 r \$0-aux1volsnd;
#X obj 453 35 r \$0-aux2volsnd;
#X obj 396 343 outlet~ fxloopL;
#X obj 509 344 outlet~ fxloopR;
#X obj 517 201 r \$0-a2fxlsnd;
#X obj 559 230 r \$0-a2fxrsnd;
#X obj 502 258 *~;
#X obj 539 261 *~;
#X obj 422 264 *~;
#X obj 459 267 *~;
#X obj 492 151 r \$0-a1fxlsnd;
#X obj 517 167 r \$0-a1fxrsnd;
#X obj 165 34 smoother 15;
#X obj 433 74 smoother 15;
#X connect 4 0 0 0;
#X connect 5 0 1 0;
#X connect 6 0 2 0;
#X connect 7 0 0 0;
#X connect 8 0 1 0;
#X connect 9 0 2 0;
#X connect 10 0 3 0;
#X connect 11 0 4 1;
#X connect 12 0 5 1;
#X connect 13 0 6 1;
#X connect 14 0 20 1;
#X connect 15 0 7 1;
#X connect 16 0 8 1;
#X connect 17 0 9 1;
#X connect 18 0 10 1;
#X connect 20 0 3 0;
#X connect 21 0 4 0;
#X connect 21 0 6 0;
#X connect 21 0 5 0;
#X connect 21 0 20 0;
#X connect 21 0 33 0;
#X connect 21 0 34 0;
#X connect 22 0 7 0;
#X connect 22 0 10 0;
#X connect 22 0 9 0;
#X connect 22 0 8 0;
#X connect 22 0 31 0;
#X connect 22 0 32 0;
#X connect 23 0 21 0;
#X connect 24 0 22 0;
#X connect 25 0 37 0;
#X connect 26 0 38 0;
#X connect 29 0 31 1;
#X connect 30 0 32 1;
#X connect 31 0 27 0;
#X connect 32 0 28 0;
#X connect 33 0 27 0;
#X connect 34 0 28 0;
#X connect 35 0 33 1;
#X connect 36 0 34 1;
#X connect 37 0 21 1;
#X connect 38 0 22 1;
#X restore 555 191 pd auxmatrix;
#X floatatom 468 239 5 0 0 0 - - -, f 5;
#X obj 532 135 delread4~ \$0-aux1;
#X obj 642 135 delread4~ \$0-aux2;
#X floatatom 445 131 5 0 0 0 - - -, f 5;
#X floatatom 529 102 5 0 3500 0 - - -, f 5;
#X obj 623 658 delwrite~ \$0-aux1 3500;
#X obj 623 680 delwrite~ \$0-aux2 3500;
#X obj 190 433 lop~;
#X obj 301 428 lop~;
#X obj 411 436 lop~;
#X floatatom 634 85 5 0 3500 0 - - -, f 5;
#X obj 244 730 delwrite~ \$0-fb1 1000;
#X obj 274 754 delwrite~ \$0-fb2 1000;
#X obj 388 728 delwrite~ \$0-fb3 1000;
#X obj 418 751 delwrite~ \$0-fb4 1000;
#X obj 562 361 lop~;
#X obj 636 367 lop~;
#X obj 679 352 r \$0-smoothnesssnd;
#X obj 129 377 smoother 10;
#X obj 157 401 r \$0-fb1cutoffsnd;
#X obj 222 373 r \$0-fb2cutoffsnd;
#X obj 283 398 r \$0-fb3cutoffsnd;
#X obj 380 379 r \$0-fb4cutoffsnd;
#X obj 832 285 switch~ 1 1 1;
#X obj 786 143 r \$0-onoff;
#X obj 593 236 outlet~ aux1;
#X obj 674 241 outlet~ aux2;
#X obj 485 24 inlet~;
#X obj 583 22 inlet~;
#N canvas 304 193 1052 553 eqsoundthings 0;
#X obj 210 -134 inlet~;
#X obj 51 93 lowshelf~ 85 0.5, f 9;
#X obj 121 98 eq~ 100 1;
#X obj 195 98 eq~ 200 1;
#X obj 268 99 eq~ 400 1;
#X obj 343 97 eq~ 800 1;
#X obj 419 96 eq~ 1600 1;
#X obj 502 96 eq~ 3200 1;
#X obj 579 97 eq~ 6400 1;
#X msg 93 -102 bw;
#X obj 83 -162 initbang;
#X obj 759 87 highshelf~ 15000 0.5, f 10;
#X obj 657 95 eq~ 12800 0.8;
#X obj 255 -72 r \$0-band1snd;
#X obj 294 -102 r \$0-band2snd;
#X obj 362 -71 r \$0-band3snd;
#X obj 412 -113 r \$0-band4snd;
#X obj 467 -67 r \$0-band5snd;
#X obj 514 -101 r \$0-band6snd;
#X obj 572 -73 r \$0-band7snd;
#X obj 630 -101 r \$0-band8snd;
#X obj 686 -72 r \$0-band9snd;
#X obj 736 -99 r \$0-band10snd;
#X floatatom 531 -35 5 0 0 0 - - -, f 5;
#X obj 210 210 outlet~;
#X obj 210 185 *~ 0.1;
#X obj 846 -49 r \$0-eqbwsnd;
#X connect 0 0 1 0;
#X connect 0 0 2 0;
#X connect 0 0 3 0;
#X connect 0 0 11 0;
#X connect 0 0 4 0;
#X connect 0 0 12 0;
#X connect 0 0 8 0;
#X connect 0 0 7 0;
#X connect 0 0 6 0;
#X connect 0 0 5 0;
#X connect 1 0 25 0;
#X connect 2 0 25 0;
#X connect 3 0 25 0;
#X connect 4 0 25 0;
#X connect 5 0 25 0;
#X connect 6 0 25 0;
#X connect 7 0 25 0;
#X connect 8 0 25 0;
#X connect 9 0 2 0;
#X connect 9 0 8 0;
#X connect 9 0 7 0;
#X connect 9 0 6 0;
#X connect 9 0 5 0;
#X connect 9 0 4 0;
#X connect 9 0 3 0;
#X connect 9 0 12 0;
#X connect 10 0 9 0;
#X connect 11 0 25 0;
#X connect 12 0 25 0;
#X connect 13 0 1 3;
#X connect 14 0 2 3;
#X connect 15 0 3 3;
#X connect 16 0 4 3;
#X connect 17 0 5 3;
#X connect 18 0 6 3;
#X connect 18 0 23 0;
#X connect 19 0 7 3;
#X connect 20 0 8 3;
#X connect 21 0 12 3;
#X connect 22 0 11 3;
#X connect 25 0 24 0;
#X connect 26 0 12 2;
#X connect 26 0 8 2;
#X connect 26 0 7 2;
#X connect 26 0 6 2;
#X connect 26 0 5 2;
#X connect 26 0 4 2;
#X connect 26 0 3 2;
#X connect 26 0 2 2;
#X restore 34 439 pd eqsoundthings;
#X connect 0 0 78 0;
#X connect 1 0 57 0;
#X connect 2 0 0 1;
#X connect 3 0 64 0;
#X connect 4 0 56 0;
#X connect 5 0 6 0;
#X connect 6 0 9 0;
#X connect 7 0 21 0;
#X connect 7 0 21 1;
#X connect 9 0 32 0;
#X connect 9 0 21 0;
#X connect 11 0 10 0;
#X connect 13 0 14 0;
#X connect 14 0 22 0;
#X connect 15 0 23 0;
#X connect 16 0 15 0;
#X connect 17 0 67 0;
#X connect 18 0 2 0;
#X connect 19 0 4 1;
#X connect 20 0 19 0;
#X connect 21 0 60 0;
#X connect 21 1 61 0;
#X connect 21 2 62 0;
#X connect 21 3 63 0;
#X connect 21 4 54 0;
#X connect 21 5 55 0;
#X connect 22 0 24 0;
#X connect 23 0 26 0;
#X connect 24 0 0 0;
#X connect 24 0 5 0;
#X connect 25 0 1 0;
#X connect 26 0 4 0;
#X connect 27 0 1 1;
#X connect 28 0 27 0;
#X connect 29 0 30 0;
#X connect 30 0 25 0;
#X connect 31 0 29 0;
#X connect 36 0 58 0;
#X connect 37 0 36 1;
#X connect 38 0 39 0;
#X connect 39 0 40 0;
#X connect 40 0 36 0;
#X connect 41 0 37 0;
#X connect 41 0 49 0;
#X connect 42 0 38 0;
#X connect 42 0 52 0;
#X connect 43 0 3 0;
#X connect 43 0 47 0;
#X connect 44 0 45 0;
#X connect 45 0 65 0;
#X connect 46 0 21 2;
#X connect 46 0 21 3;
#X connect 48 0 9 0;
#X connect 48 1 56 0;
#X connect 48 2 57 0;
#X connect 48 3 58 0;
#X connect 48 4 74 0;
#X connect 48 5 75 0;
#X connect 50 0 48 0;
#X connect 51 0 48 1;
#X connect 53 0 50 0;
#X connect 56 0 33 0;
#X connect 56 0 21 1;
#X connect 57 0 34 0;
#X connect 57 0 21 2;
#X connect 58 0 35 0;
#X connect 58 0 21 3;
#X connect 59 0 51 0;
#X connect 64 0 7 0;
#X connect 65 0 46 0;
#X connect 66 0 65 1;
#X connect 66 0 64 1;
#X connect 67 0 6 1;
#X connect 68 0 9 1;
#X connect 69 0 56 1;
#X connect 70 0 57 1;
#X connect 71 0 58 1;
#X connect 73 0 72 0;
#X connect 76 0 9 0;
#X connect 76 0 56 0;
#X connect 77 0 57 0;
#X connect 77 0 58 0;
#X connect 78 0 9 0;
#X restore 1231 256 pd soundstuff, f 14;
#X obj 1254 495 bus 1;
#X obj 47 590 vsl 20 100 100 15 0 0 \$0-limitsnd \$0-limitrcv lim 0
-9 0 10 -262144 -1 -1 5300 1;
#N canvas 118 238 600 382 limiter2 0;
#X obj 7 14 inlet~;
#X obj 115 56 env~ 1024;
#X obj 115 78 moses;
#X obj 382 18 inlet thresh;
#X obj 238 19 initbang;
#X obj 153 121 expr (($f1 - $f3) / $f2) - $f1 + $f3;
#X obj 153 143 expr 100 + $f1;
#X obj 153 165 dbtorms;
#X msg 116 124 1;
#X obj 115 100 bang;
#X obj 31 233 *~;
#X obj 92 222 line~;
#X obj 33 339 outlet~;
#X msg 317 76 10;
#X obj 379 86 dbtorms, f 15;
#X obj 379 108 expr 1/$f1;
#X obj 31 255 *~;
#X msg 243 52 6;
#X obj 33 165 z~ 1024;
#X obj 404 128 pow 0.85;
#X obj 379 152 smoother 10;
#X msg 112 195 \$1 5;
#X floatatom 153 187 5 0 0 0 - - -, f 5;
#X obj 521 16 inlet~;
#X obj 629 58 env~ 1024;
#X obj 629 80 moses;
#X obj 752 21 initbang;
#X obj 667 123 expr (($f1 - $f3) / $f2) - $f1 + $f3;
#X obj 667 145 expr 100 + $f1;
#X obj 667 167 dbtorms;
#X msg 630 126 1;
#X obj 629 102 bang;
#X obj 545 235 *~;
#X obj 606 224 line~;
#X obj 547 341 outlet~;
#X msg 831 78 10;
#X obj 893 88 dbtorms, f 15;
#X obj 893 110 expr 1/$f1;
#X obj 545 257 *~;
#X msg 757 54 6;
#X obj 547 167 z~ 1024;
#X obj 918 130 pow 0.85;
#X obj 893 154 smoother 10;
#X msg 626 197 \$1 5;
#X floatatom 667 189 5 0 0 0 - - -, f 5;
#X obj 288 237 s \$0-limdispL;
#X obj 802 239 s \$0-limdispR;
#X msg 103 167 \$1 27;
#X msg 617 171 \$1 27;
#X connect 0 0 18 0;
#X connect 0 0 1 0;
#X connect 1 0 2 0;
#X connect 2 0 9 0;
#X connect 2 1 5 0;
#X connect 3 0 5 2;
#X connect 3 0 2 1;
#X connect 3 0 14 0;
#X connect 3 0 36 0;
#X connect 3 0 27 2;
#X connect 3 0 25 1;
#X connect 4 0 17 0;
#X connect 5 0 6 0;
#X connect 6 0 7 0;
#X connect 7 0 21 0;
#X connect 7 0 22 0;
#X connect 7 0 45 0;
#X connect 8 0 47 0;
#X connect 8 0 45 0;
#X connect 9 0 8 0;
#X connect 10 0 16 0;
#X connect 11 0 10 1;
#X connect 13 0 5 2;
#X connect 13 0 2 1;
#X connect 14 0 15 0;
#X connect 15 0 19 0;
#X connect 16 0 12 0;
#X connect 17 0 5 1;
#X connect 18 0 10 0;
#X connect 19 0 20 0;
#X connect 20 0 16 1;
#X connect 21 0 11 0;
#X connect 23 0 40 0;
#X connect 23 0 24 0;
#X connect 24 0 25 0;
#X connect 25 0 31 0;
#X connect 25 1 27 0;
#X connect 26 0 39 0;
#X connect 27 0 28 0;
#X connect 28 0 29 0;
#X connect 29 0 43 0;
#X connect 29 0 44 0;
#X connect 29 0 46 0;
#X connect 30 0 48 0;
#X connect 30 0 46 0;
#X connect 31 0 30 0;
#X connect 32 0 38 0;
#X connect 33 0 32 1;
#X connect 35 0 27 2;
#X connect 35 0 25 1;
#X connect 36 0 37 0;
#X connect 37 0 41 0;
#X connect 38 0 34 0;
#X connect 39 0 27 1;
#X connect 40 0 32 0;
#X connect 41 0 42 0;
#X connect 42 0 38 1;
#X connect 43 0 33 0;
#X connect 47 0 11 0;
#X connect 48 0 33 0;
#X restore 1250 447 pd limiter2;
#X obj 71 589 vsl 8 100 0 1 0 0 \$0-foo \$0-limdispL empty 0 -9 0 10
-262144 -1 -1 816 1;
#X obj 81 589 vsl 8 100 0 1 0 0 \$0-foo \$0-limdispR empty 0 -9 0 10
-262144 -1 -1 787 1;
#X obj 1311 461 r \$0-limitsnd;
#X obj 407 301 tgl 25 0 \$0-invert1snd \$0-invert1rcv inv1 -2 31 0
10 -262144 -1 -1 1 1;
#X obj 591 301 tgl 25 0 \$0-invert2snd \$0-invert2rcv inv2 1 32 0 10
-262144 -1 -1 0 1;
#X obj 30 470 hsl 300 15 0 1 0 0 empty \$0-xcoorddisplay empty -2 -8
0 10 -262144 -1 -1 4805 1;
#X obj 44 552 nbx 6 15 1 10000 0 0 \$0-yscrubquantsnd \$0-yscrubquantrcv
yscrubquant 0 -8 0 12 -262144 -1 -1 35 256 0;
#X obj 367 70 vsl 20 200 0 0.99 0 0 \$0-fb1snd \$0-fb1rcv fb1 0 -9
0 10 -262144 -1 -1 13849 1;
#X obj 388 70 vsl 16 200 0 0.0105 0 0 \$0-fb1finesnd \$0-fb1finercv
fb1f 0 -9 0 10 -262144 -1 -1 12876 1;
#X obj 368 280 nbx 6 14 -1e+37 1e+37 0 0 empty \$0-fb1disp empty 0
-8 0 11 -262144 -1 -1 1.09576 256 0;
#X obj 708 145 vsl 20 200 0.1 1000 1 0 \$0-del1snd \$0-del1rcv del1
0 -9 0 10 -262144 -1 -1 5500 1;
#X obj 733 145 vsl 20 200 0.1 1000 1 0 \$0-del2snd \$0-del2rcv del2
0 -9 0 10 -262144 -1 -1 6600 1;
#X obj 466 70 vsl 20 200 0 0.3 0 0 \$0-phasefbsnd \$0-phasefbrcv phzfb
0 -9 0 10 -262144 -1 -1 9200 1;
#X obj 439 301 tgl 25 0 \$0-fb1kicksnd \$0-fb1kickrcv kick -2 31 0
10 -262144 -1 -1 0.4 0.4;
#X obj 493 69 vsl 20 200 35 16000 1 0 \$0-fb1cutoffsnd \$0-fb1cutoffrcv
cutoff 0 -9 0 10 -262144 -1 -1 19900 1;
#X obj 556 71 vsl 20 200 0 0.99 0 0 \$0-fb2snd \$0-fb2rcv fb2 0 -9
0 10 -262144 -1 -1 11900 1;
#X obj 577 71 vsl 16 200 0 0.0105 0 0 \$0-fb2finesnd \$0-fb2finercv
fb2f 0 -9 0 10 -262144 -1 -1 8400 1;
#X obj 553 280 nbx 6 14 -1e+37 1e+37 0 0 empty \$0-fb2disp empty 0
-8 0 11 -262144 -1 -1 0.996442 256 0;
#X obj 419 70 vsl 20 200 0 0.991 0 0 \$0-f1a1snd \$0-f1a1rcv f1a1 0
-9 0 10 -262144 -1 -1 11900 1;
#X obj 442 70 vsl 20 200 0 1 0 0 \$0-f1a2snd \$0-f1a2rcv f1a2 0 -9
0 10 -262144 -1 -1 0 1;
#X obj 603 71 vsl 20 200 0 1 0 0 \$0-f2a1snd \$0-f2a1rcv f2a1 0 -9
0 10 -262144 -1 -1 7600 1;
#X obj 627 71 vsl 20 200 0 1 0 0 \$0-f2a2snd \$0-f2a2rcv f2a2 0 -9
0 10 -262144 -1 -1 0 1;
#X obj 43 521 nbx 6 15 1 10000 0 0 \$0-xscrubquantsnd \$0-xscrubquantrcv
xscrubquant 0 -8 0 12 -262144 -1 -1 56 256 0;
#X obj 625 302 tgl 25 0 \$0-fb2kicksnd \$0-fb2kickrcv kick -2 31 0
10 -262144 -1 -1 0.4 0.4;
#X obj 408 620 tgl 25 0 \$0-invert3snd \$0-invert3rcv inv3 1 32 0 10
-262144 -1 -1 0 1;
#X obj 386 391 vsl 20 200 0 0.99 0 0 \$0-fb3snd \$0-fb3rcv fb3 0 -9
0 10 -262144 -1 -1 15384 1;
#X obj 407 391 vsl 16 200 0 0.0109 0 0 \$0-fb3finesnd \$0-fb3finercv
fb3f 0 -9 0 10 -262144 -1 -1 0 1;
#X obj 383 600 nbx 6 14 -1e+37 1e+37 0 0 empty \$0-fb3disp empty 0
-8 0 11 -262144 -1 -1 0.765335 256 0;
#X obj 433 391 vsl 20 200 0 1 0 0 \$0-f3a1snd \$0-f3a1rcv f3a1 0 -9
0 10 -262144 -1 -1 0 1;
#X obj 459 390 vsl 20 200 0 1 0 0 \$0-f3a2snd \$0-f3a2rcv f3a2 0 -9
0 10 -262144 -1 -1 0 1;
#X obj 447 620 tgl 25 0 \$0-fb3kicksnd \$0-fb3kickrcv kick -2 31 0
10 -262144 -1 -1 0 0.3;
#N canvas 576 299 531 381 pans 0;
#X obj 110 13 inlet~;
#X obj 160 13 inlet~;
#X obj 210 13 inlet~;
#X obj 260 13 inlet~;
#X obj 101 336 outlet~;
#X obj 182 340 outlet~;
#X obj 87 251 adamonopan;
#X obj 160 251 adamonopan;
#X obj 235 252 adamonopan;
#X obj 340 252 adamonopan;
#X obj 117 194 r \$0-fb1pansnd;
#X obj 147 215 r \$0-fb2pansnd;
#X obj 235 192 r \$0-fb3pansnd;
#X obj 324 196 r \$0-fb4pansnd;
#X obj 230 48 r \$0-fb1volsnd;
#X obj 324 46 r \$0-fb2volsnd;
#X obj 418 46 r \$0-fb3volsnd;
#X obj 419 104 r \$0-fb4volsnd;
#X obj 92 102 *~;
#X obj 147 106 *~;
#X obj 203 110 *~;
#X obj 251 109 *~;
#X obj 230 70 smoother 15;
#X obj 324 68 smoother 15;
#X obj 418 68 smoother 15;
#X obj 419 129 smoother 15;
#X connect 0 0 18 0;
#X connect 1 0 19 0;
#X connect 2 0 20 0;
#X connect 3 0 21 0;
#X connect 6 0 4 0;
#X connect 6 1 5 0;
#X connect 7 0 4 0;
#X connect 7 1 5 0;
#X connect 8 0 4 0;
#X connect 8 1 5 0;
#X connect 9 0 4 0;
#X connect 9 1 5 0;
#X connect 10 0 6 1;
#X connect 11 0 7 1;
#X connect 12 0 8 1;
#X connect 13 0 9 1;
#X connect 14 0 22 0;
#X connect 15 0 23 0;
#X connect 16 0 24 0;
#X connect 17 0 25 0;
#X connect 18 0 6 0;
#X connect 19 0 7 0;
#X connect 20 0 8 0;
#X connect 21 0 9 0;
#X connect 22 0 18 1;
#X connect 23 0 19 1;
#X connect 24 0 20 1;
#X connect 25 0 21 1;
#X restore 1249 336 pd pans;
#X obj 585 623 tgl 25 0 \$0-invert4snd \$0-invert4rcv inv4 1 32 0 10
-262144 -1 -1 0 1;
#X obj 557 393 vsl 20 200 0 0.99 0 0 \$0-fb4snd \$0-fb4rcv fb4 0 -9
0 10 -262144 -1 -1 16484 1;
#X obj 578 392 vsl 16 200 0 0.0105 0 0 \$0-fb4finesnd \$0-fb4finercv
fb4f 0 -9 0 10 -262144 -1 -1 0 1;
#X obj 553 601 nbx 6 14 -1e+37 1e+37 0 0 empty \$0-fb4disp empty 0
-8 0 11 -262144 -1 -1 0.82005 256 0;
#X obj 605 392 vsl 20 200 0 1 0 0 \$0-f4a1snd \$0-f4a1rcv f4a1 0 -9
0 10 -262144 -1 -1 0 1;
#X obj 631 392 vsl 20 200 0 1 0 0 \$0-f4a2snd \$0-f4a2rcv f4a2 0 -9
0 10 -262144 -1 -1 0 1;
#X obj 624 623 tgl 25 0 \$0-fb4kicksnd \$0-fb4kickrcv kick -2 31 0
10 -262144 -1 -1 0 0.3;
#X obj 757 145 vsl 20 200 0.1 1000 1 0 \$0-del3snd \$0-del3rcv del3
0 -9 0 10 -262144 -1 -1 0 1;
#X obj 781 145 vsl 20 200 0.1 1000 1 0 \$0-del4snd \$0-del4rcv del4
0 -9 0 10 -262144 -1 -1 0 1;
#X obj 389 347 hsl 100 15 1 -1 0 0 \$0-fb1pansnd \$0-fb1panrcv pan1
-2 -8 0 10 -262144 -1 -1 4800 1;
#X obj 555 348 hsl 100 15 1 -1 0 0 \$0-fb2pansnd \$0-fb2panrcv pan2
-2 -8 0 10 -262144 -1 -1 9900 1;
#X obj 389 671 hsl 100 15 1 -1 0 0 \$0-fb3pansnd \$0-fb3panrcv pan3
-2 -8 0 10 -262144 -1 -1 0 1;
#X obj 557 673 hsl 100 15 1 -1 0 0 \$0-fb4pansnd \$0-fb4panrcv pan4
-2 -8 0 10 -262144 -1 -1 9900 1;
#X obj 184 562 tgl 25 0 \$0-a1f1snd \$0-a1f1rcv empty 6 -16 0 10 -262144
-1 -1 0 -1;
#X obj 184 590 tgl 25 0 \$0-a1f2snd \$0-a1f2rcv empty 6 -16 0 10 -262144
-1 -1 0 -1;
#X text 188 542 a1;
#X text 216 542 a2;
#X text 159 566 f1;
#X text 159 595 f2;
#X obj 184 618 tgl 25 0 \$0-a1f3snd \$0-a1f3rcv empty 6 -16 0 10 -262144
-1 -1 0 -1;
#X obj 184 646 tgl 25 0 \$0-a1f4snd \$0-a1f4rcv empty 6 -16 0 10 -262144
-1 -1 0 -1;
#X text 159 623 f3;
#X text 159 651 f4;
#X obj 212 562 tgl 25 0 \$0-a2f1snd \$0-a2f1rcv empty 6 -16 0 10 -262144
-1 -1 0 -1;
#X obj 212 590 tgl 25 0 \$0-a2f2snd \$0-a2f2rcv empty 6 -16 0 10 -262144
-1 -1 0 -1;
#X obj 212 618 tgl 25 0 \$0-a2f3snd \$0-a2f3rcv empty 6 -16 0 10 -262144
-1 -1 0 -1;
#X obj 212 646 tgl 25 0 \$0-a2f4snd \$0-a2f4rcv empty 6 -16 0 10 -262144
-1 -1 0 -1;
#X obj 253 567 vsl 20 100 0 4 0 0 \$0-aux1volsnd \$0-aux1volrcv a1v
0 -9 0 10 -262144 -1 -1 1700 1;
#X obj 279 566 vsl 20 100 0 1 0 0 \$0-aux2volsnd \$0-aux2volrcv a2v
0 -9 0 10 -262144 -1 -1 0 1;
#N canvas 608 254 728 519 looooop 0;
#X obj 191 166 r \$0-xcoordraw;
#X obj 319 171 r \$0-ycoordraw;
#X obj 187 219 sig~;
#X obj 343 227 sig~;
#X obj 473 225 delread~ \$0-yloop 5000;
#X obj 418 196 delread~ \$0-xloop 5000;
#X obj 418 218 *~;
#X obj 473 247 *~;
#X obj 108 120 tgl 25 0 \$0-loopbutton \$0-loopbuttonrcv R 10 11 0
10 -261039 -1 -1 0 1;
#X obj 495 136 tgl 25 0 empty empty empty 17 7 0 10 -262144 -1 -1 0
1;
#X obj 489 372 snapshot~;
#X obj 561 372 snapshot~;
#X obj 511 405 pack f f;
#X msg 511 424 values \$1 \$2;
#X obj 678 259 tgl 15 0 empty empty empty 17 7 0 10 -262144 -1 -1 0
1;
#X obj 211 282 *~;
#X obj 349 282 *~;
#X obj 662 339 metro 10;
#X obj 634 149 sel 0;
#X msg 694 242 1;
#X msg 651 239 0;
#X obj 181 335 delwrite~ \$0-xloop 30000;
#X obj 341 338 delwrite~ \$0-yloop 30000;
#X obj 130 25 key;
#X obj 130 47 sel 32;
#X obj 599 181 sel 1 0;
#X obj 678 179 timer;
#X obj 138 120 bng 25 250 50 0 \$0-clearbutton \$0-clearbuttonrcv clear
-2 -6 0 10 -166441 -1 -262144;
#X msg 320 360 flashtime 50 \$1;
#X msg 207 433 0;
#X obj 567 50 r \$0-loopbutton;
#X msg 40 406 color 4;
#X msg 102 406 color 1;
#X obj 178 386 delay;
#X obj 95 355 r \$0-clearbutton;
#X obj 60 438 s \$0-clearbuttonrcv;
#X msg 240 435 1;
#X obj 512 441 s \$0-loopvalues;
#X floatatom 191 75 5 0 0 0 - - -, f 5;
#X connect 0 0 2 0;
#X connect 1 0 3 0;
#X connect 2 0 15 0;
#X connect 3 0 16 0;
#X connect 4 0 7 0;
#X connect 5 0 6 0;
#X connect 6 0 10 0;
#X connect 6 0 21 0;
#X connect 7 0 11 0;
#X connect 7 0 22 0;
#X connect 9 0 6 1;
#X connect 9 0 7 1;
#X connect 10 0 12 0;
#X connect 11 0 12 1;
#X connect 12 0 13 0;
#X connect 13 0 37 0;
#X connect 14 0 17 0;
#X connect 15 0 21 0;
#X connect 16 0 22 0;
#X connect 17 0 11 0;
#X connect 17 0 10 0;
#X connect 19 0 14 0;
#X connect 20 0 14 0;
#X connect 23 0 24 0;
#X connect 23 0 38 0;
#X connect 24 0 8 0;
#X connect 25 0 20 0;
#X connect 25 0 26 0;
#X connect 25 1 19 0;
#X connect 25 1 26 1;
#X connect 26 0 4 0;
#X connect 26 0 5 0;
#X connect 26 0 28 0;
#X connect 26 0 33 1;
#X connect 29 0 9 0;
#X connect 29 0 14 0;
#X connect 30 0 15 1;
#X connect 30 0 16 1;
#X connect 30 0 25 0;
#X connect 31 0 35 0;
#X connect 32 0 35 0;
#X connect 33 0 32 0;
#X connect 33 0 36 0;
#X connect 34 0 29 0;
#X connect 34 0 33 0;
#X connect 34 0 31 0;
#X connect 36 0 9 0;
#X coords 0 -1 1 1 75 40 2 99 109;
#X restore 252 499 pd looooop;
#X obj 116 593 vsl 20 100 15000 10 1 0 \$0-smoothnesssnd \$0-smoothnessrcv
smooth 0 -9 0 10 -262144 -1 -1 0 1;
#X obj 653 71 vsl 20 200 35 16000 1 0 \$0-fb2cutoffsnd \$0-fb2cutoffrcv
cutoff 0 -9 0 10 -262144 -1 -1 19900 1;
#X obj 486 389 vsl 20 200 35 16000 1 0 \$0-fb3cutoffsnd \$0-fb3cutoffrcv
cutoff 0 -9 0 10 -262144 -1 -1 0 1;
#X obj 657 391 vsl 20 200 35 16000 1 0 \$0-fb4cutoffsnd \$0-fb4cutoffrcv
cutoff 0 -9 0 10 -262144 -1 -1 0 1;
#X obj 723 18 tgl 25 0 \$0-onoff empty On/Off 17 7 0 10 -262144 -1
-1 1 1;
#N canvas 577 323 450 300 filter 0;
#X obj 147 49 inlet~;
#X obj 289 48 inlet~;
#X obj 156 107 bob~;
#X obj 294 106 bob~;
#X obj 131 333 outlet~;
#X obj 287 336 outlet~;
#X obj 199 48 r \$0-globalcutoffsnd;
#X obj 349 42 r \$0-globalqsnd;
#X obj 199 70 smoother 15;
#X obj 349 64 smoother 15;
#X obj 19 9 initbang;
#X obj 95 25 r \$0-globaldrivesnd;
#X msg 20 61 saturation \$1;
#X msg 19 31 2;
#X obj 149 173 *~;
#X obj 295 181 *~;
#X obj 36 147 expr 1.2/$f1;
#X obj 140 206 hip~;
#X obj 289 208 hip~;
#X obj 137 227 hip~;
#X obj 286 229 hip~;
#X obj 342 180 r \$0-globalhipsnd;
#X obj 135 250 hip~;
#X obj 284 252 hip~;
#X obj 131 275 hip~;
#X obj 280 277 hip~;
#X obj 156 137 bob~;
#X obj 294 136 bob~;
#X connect 0 0 2 0;
#X connect 1 0 3 0;
#X connect 2 0 26 0;
#X connect 3 0 27 0;
#X connect 6 0 8 0;
#X connect 7 0 9 0;
#X connect 8 0 2 1;
#X connect 8 0 3 1;
#X connect 8 0 26 1;
#X connect 8 0 27 1;
#X connect 9 0 3 2;
#X connect 9 0 2 2;
#X connect 9 0 27 2;
#X connect 9 0 26 2;
#X connect 10 0 13 0;
#X connect 11 0 12 0;
#X connect 11 0 16 0;
#X connect 12 0 3 0;
#X connect 12 0 2 0;
#X connect 12 0 26 0;
#X connect 12 0 27 0;
#X connect 13 0 12 0;
#X connect 14 0 17 0;
#X connect 15 0 18 0;
#X connect 16 0 14 1;
#X connect 16 0 15 1;
#X connect 17 0 19 0;
#X connect 18 0 20 0;
#X connect 19 0 22 0;
#X connect 20 0 23 0;
#X connect 21 0 18 1;
#X connect 21 0 20 1;
#X connect 21 0 17 1;
#X connect 21 0 19 1;
#X connect 21 0 23 1;
#X connect 21 0 25 1;
#X connect 21 0 22 1;
#X connect 21 0 24 1;
#X connect 22 0 24 0;
#X connect 23 0 25 0;
#X connect 24 0 4 0;
#X connect 25 0 5 0;
#X connect 26 0 14 0;
#X connect 27 0 15 0;
#X restore 1256 404 pd filter;
#X obj 707 398 vsl 20 200 35 19000 1 0 \$0-globalcutoffsnd \$0-globalcutoffrcv
gcut 0 -9 0 10 -262144 -1 -1 0 1;
#X obj 731 398 vsl 20 200 0.1 4.5 0 0 \$0-globalqsnd \$0-globalqrcv
q 0 -9 0 10 -262144 -1 -1 11700 1;
#X obj 755 398 vsl 20 200 3 0.2 0 0 \$0-globaldrivesnd \$0-globaldrivercv
drv 0 -9 0 10 -262144 -1 -1 9000 1;
#N canvas 576 299 450 300 sanitize 0;
#X obj 85 33 inlet~;
#X obj 137 35 inlet~;
#X obj 199 35 inlet~;
#X obj 251 37 inlet~;
#X obj 69 185 outlet~;
#X obj 125 185 outlet~;
#X obj 190 186 outlet~;
#X obj 246 186 outlet~;
#X obj 70 88 hip~ 25;
#X obj 123 89 hip~ 25;
#X obj 70 110 clip~ -1 1;
#X obj 137 110 clip~ -1 1;
#X obj 201 89 hip~ 25;
#X obj 254 90 hip~ 25;
#X obj 201 111 clip~ -1 1;
#X obj 268 111 clip~ -1 1;
#X connect 0 0 8 0;
#X connect 1 0 9 0;
#X connect 2 0 12 0;
#X connect 3 0 13 0;
#X connect 8 0 10 0;
#X connect 9 0 11 0;
#X connect 10 0 4 0;
#X connect 11 0 5 0;
#X connect 12 0 14 0;
#X connect 13 0 15 0;
#X connect 14 0 6 0;
#X connect 15 0 7 0;
#X restore 1235 290 pd sanitize;
#N canvas 610 302 728 519 looooop 0;
#X obj 187 219 sig~;
#X obj 343 227 sig~;
#X obj 418 218 *~;
#X obj 473 247 *~;
#X obj 108 120 tgl 25 0 \$0-loop2button \$0-loop2buttonrcv R 10 11
0 10 -261039 -1 -1 0 1;
#X obj 495 136 tgl 25 0 empty empty empty 17 7 0 10 -262144 -1 -1 0
1;
#X obj 489 372 snapshot~;
#X obj 561 372 snapshot~;
#X obj 511 405 pack f f;
#X msg 511 424 values \$1 \$2;
#X obj 678 259 tgl 15 0 empty empty empty 17 7 0 10 -262144 -1 -1 0
1;
#X obj 211 282 *~;
#X obj 349 282 *~;
#X obj 662 339 metro 10;
#X obj 634 149 sel 0;
#X msg 694 242 1;
#X msg 651 239 0;
#X obj 130 25 key;
#X obj 130 47 sel 32;
#X obj 599 181 sel 1 0;
#X obj 678 179 timer;
#X obj 143 120 bng 25 250 50 0 \$0-clear2button \$0-clear2buttonrcv
clear -2 -6 0 10 -166441 -1 -262144;
#X msg 320 360 flashtime 50 \$1;
#X msg 207 433 0;
#X msg 40 406 color 4;
#X msg 102 406 color 1;
#X obj 178 386 delay;
#X obj 60 438 s \$0-clearbuttonrcv;
#X msg 240 435 1;
#X obj 567 50 r \$0-loop2button;
#X obj 95 355 r \$0-clear2button;
#X obj 181 334 delwrite~ \$0-x2loop 30000;
#X obj 341 338 delwrite~ \$0-y2loop 30000;
#X obj 418 196 delread~ \$0-x2loop 5000;
#X obj 473 225 delread~ \$0-y2loop 5000;
#X obj 512 441 s \$0-loop2values;
#X floatatom 391 437 5 0 0 0 - - -, f 5;
#X floatatom 624 413 5 0 0 0 - - -, f 5;
#X obj 190 167 r \$0-x2coordraw;
#X obj 319 171 r \$0-y2coordraw;
#X connect 0 0 11 0;
#X connect 1 0 12 0;
#X connect 2 0 6 0;
#X connect 2 0 31 0;
#X connect 3 0 7 0;
#X connect 3 0 32 0;
#X connect 5 0 2 1;
#X connect 5 0 3 1;
#X connect 6 0 8 0;
#X connect 6 0 36 0;
#X connect 7 0 8 1;
#X connect 7 0 37 0;
#X connect 8 0 9 0;
#X connect 9 0 35 0;
#X connect 10 0 13 0;
#X connect 11 0 31 0;
#X connect 12 0 32 0;
#X connect 13 0 7 0;
#X connect 13 0 6 0;
#X connect 15 0 10 0;
#X connect 16 0 10 0;
#X connect 17 0 18 0;
#X connect 19 0 16 0;
#X connect 19 0 20 0;
#X connect 19 1 15 0;
#X connect 19 1 20 1;
#X connect 20 0 22 0;
#X connect 20 0 26 1;
#X connect 20 0 33 0;
#X connect 20 0 34 0;
#X connect 23 0 5 0;
#X connect 23 0 10 0;
#X connect 24 0 27 0;
#X connect 25 0 27 0;
#X connect 26 0 25 0;
#X connect 26 0 28 0;
#X connect 28 0 5 0;
#X connect 29 0 11 1;
#X connect 29 0 12 1;
#X connect 29 0 19 0;
#X connect 30 0 23 0;
#X connect 30 0 26 0;
#X connect 30 0 24 0;
#X connect 33 0 2 0;
#X connect 34 0 3 0;
#X connect 38 0 0 0;
#X connect 39 0 1 0;
#X coords 0 -1 1 1 75 40 2 99 109;
#X restore 1034 501 pd looooop;
#X obj 779 398 vsl 20 200 20 18000 1 0 \$0-globalhipsnd \$0-globalhiprcv
hip 0 -9 0 10 -262144 -1 -1 0 1;
#X obj 1389 349 pitchshifterarp 0 0 1 0 1 0 1 -1.72 2.26 1.08 3.89
-16.96 -7.31 0 484 75 74 0;
#X text 155 680 fxL;
#X text 154 707 fxR;
#X obj 184 674 tgl 25 0 \$0-a1fxlsnd \$0-a1fxlrcv empty 6 -16 0 10
-262144 -1 -1 -1 -1;
#X obj 212 674 tgl 25 0 \$0-a2fxlsnd \$0-a2fxlrcv empty 6 -16 0 10
-262144 -1 -1 0 -1;
#X obj 184 702 tgl 25 0 \$0-a1fxrsnd \$0-a1fxrrcv empty 6 -16 0 10
-262144 -1 -1 0 -1;
#X obj 212 702 tgl 25 0 \$0-a2fxrsnd \$0-a2fxrrcv empty 6 -16 0 10
-262144 -1 -1 0 -1;
#X obj 1385 446 throw~ \$0-fxloopL;
#X obj 1507 447 throw~ \$0-fxloopR;
#X obj 1312 157 catch~ \$0-fxloopL;
#X obj 1364 194 catch~ \$0-fxloopR;
#X obj 1187 14 cnv 15 218 38 empty empty reflector\ 10 20 12 0 24 -141688
-257993 0;
#N canvas 194 131 970 662 rightpad 0;
#X obj 241 42 cnv 15 320 410 empty empty empty 20 12 0 14 -107584 -66577
0;
#X obj 246 46 grid grid1 310 0 1.5 400 0 1.5 1 0.01 0.01 160 1 952
234;
#N canvas 0 0 450 300 bangonjump 0;
#X obj 132 79 metro 125;
#X obj 132 153 + 20;
#X obj 135 30 tgl 15 0 empty empty empty 17 7 0 10 -262144 -1 -1 0
1;
#X obj 160 29 r \$0-bangonjump;
#X obj 211 152 + 20;
#X obj 51 118 r \$0-xcoordsnd;
#X obj 51 140 * 5;
#X obj 141 129 pow 2;
#X obj 215 123 pow 2;
#X obj 132 101 random 8;
#X obj 211 100 random 8;
#X connect 0 0 9 0;
#X connect 0 0 10 0;
#X connect 2 0 0 0;
#X connect 3 0 9 0;
#X connect 3 0 10 0;
#X connect 5 0 6 0;
#X connect 6 0 7 1;
#X connect 6 0 8 1;
#X connect 7 0 1 0;
#X connect 8 0 4 0;
#X connect 9 0 7 0;
#X connect 10 0 8 0;
#X restore 273 10 pd bangonjump;
#N canvas 656 348 450 323 x2coordprocessing 0;
#N canvas 0 0 450 300 quantize 0;
#X obj 96 79 / 2000;
#X obj 96 101 int;
#X floatatom 195 44 5 1 10000 0 - - -, f 5;
#X obj 200 69 expr 10000/$f1;
#X obj 96 123 /;
#X obj 281 12 inlet numsteps;
#X obj 67 10 inlet value;
#X obj 96 145 outlet;
#X connect 0 0 1 0;
#X connect 1 0 4 0;
#X connect 2 0 3 0;
#X connect 2 0 4 1;
#X connect 3 0 0 1;
#X connect 4 0 7 0;
#X connect 5 0 2 0;
#X connect 6 0 0 0;
#X restore 98 102 pd quantize;
#X obj 58 52 inlet;
#X obj 196 43 r \$0-x2scrubquantsnd;
#X obj 202 81 s \$0-x2coordraw;
#X obj 98 124 s \$0-x2coorddisplay;
#X obj 123 168 s \$0-x2scrubprocessedsnd;
#X connect 0 0 4 0;
#X connect 0 0 5 0;
#X connect 1 0 0 0;
#X connect 1 0 3 0;
#X connect 2 0 0 1;
#X restore 254 588 pd x2coordprocessing;
#N canvas 0 0 450 300 y2coordprocessing 0;
#N canvas 832 316 450 323 bangonjump 0;
#X obj 159 112 f;
#X obj 129 71 t f f b;
#X obj 96 140 expr $f1 - $f2;
#X obj 120 175 abs;
#X obj 73 28 inlet;
#X obj 107 238 outlet;
#X obj 192 198 bang;
#X obj 159 175 moses 0.1;
#X obj 266 51 inlet bangthresh;
#X connect 0 0 2 1;
#X connect 1 0 2 0;
#X connect 1 1 0 1;
#X connect 1 2 0 0;
#X connect 2 0 3 0;
#X connect 3 0 7 0;
#X connect 4 0 1 0;
#X connect 6 0 5 0;
#X connect 7 1 6 0;
#X connect 8 0 7 1;
#X restore 256 171 pd bangonjump;
#X obj 256 193 bng 15 250 50 0 empty empty empty 17 7 0 10 -262144
-1 -1;
#X floatatom 351 133 5 1 200 0 - - -, f 5;
#X obj 351 154 / 100;
#N canvas 0 0 450 300 quantize 0;
#X obj 96 79 / 2000;
#X obj 96 101 int;
#X floatatom 195 44 5 1 10000 0 - - -, f 5;
#X obj 200 69 expr 10000/$f1;
#X obj 96 123 /;
#X obj 281 12 inlet numsteps;
#X obj 67 10 inlet value;
#X obj 96 145 outlet;
#X connect 0 0 1 0;
#X connect 1 0 4 0;
#X connect 2 0 3 0;
#X connect 2 0 4 1;
#X connect 3 0 0 1;
#X connect 4 0 7 0;
#X connect 5 0 2 0;
#X connect 6 0 0 0;
#X restore 51 130 pd quantize;
#X obj 36 28 inlet;
#X obj 57 61 s \$0-y2coordraw;
#X obj 116 98 r \$0-y2scrubquantsnd;
#X obj 83 212 s \$0-y2scrubprocessedsnd;
#X obj 265 219 s \$0-y2bangonjump;
#X connect 0 0 1 0;
#X connect 0 0 9 0;
#X connect 2 0 3 0;
#X connect 3 0 0 1;
#X connect 4 0 0 0;
#X connect 4 0 8 0;
#X connect 5 0 4 0;
#X connect 5 0 6 0;
#X connect 7 0 4 1;
#X restore 452 605 pd y2coordprocessing;
#X obj 263 504 s \$0-fb1rcv;
#X obj 280 526 s \$0-fb2rcv;
#X obj 447 517 s \$0-fb3rcv;
#X obj 476 535 s \$0-fb4rcv;
#X obj 403 3 r \$0-loop2values;
#X connect 1 0 5 0;
#X connect 1 0 6 0;
#X connect 1 0 3 0;
#X connect 1 1 7 0;
#X connect 1 1 8 0;
#X connect 1 1 4 0;
#X connect 9 0 1 0;
#X coords 0 -1 1 1 324 414 2 239 40;
#X restore 824 47 pd rightpad;
#N canvas 492 217 734 550 leftpad 0;
#X obj 181 42 cnv 15 320 410 empty empty empty 20 12 0 14 -97983 -66577
0;
#X obj 186 47 grid grid1 310 -10000 10000 400 -10000 10000 1 1 1 160
1 208 300;
#N canvas 0 0 450 300 ycoordprocessing 0;
#N canvas 832 316 450 323 bangonjump 0;
#X obj 159 112 f;
#X obj 129 71 t f f b;
#X obj 96 140 expr $f1 - $f2;
#X obj 120 175 abs;
#X obj 73 28 inlet;
#X obj 107 238 outlet;
#X obj 192 198 bang;
#X obj 159 175 moses 0.1;
#X obj 266 51 inlet bangthresh;
#X connect 0 0 2 1;
#X connect 1 0 2 0;
#X connect 1 1 0 1;
#X connect 1 2 0 0;
#X connect 2 0 3 0;
#X connect 3 0 7 0;
#X connect 4 0 1 0;
#X connect 6 0 5 0;
#X connect 7 1 6 0;
#X connect 8 0 7 1;
#X restore 256 171 pd bangonjump;
#X obj 256 193 bng 15 250 50 0 empty empty empty 17 7 0 10 -262144
-1 -1;
#X obj 265 219 s \$0-bangonjump;
#X floatatom 351 133 5 1 200 0 - - -, f 5;
#X obj 351 154 / 100;
#N canvas 0 0 450 300 quantize 0;
#X obj 96 79 / 2000;
#X obj 96 101 int;
#X floatatom 195 44 5 1 10000 0 - - -, f 5;
#X obj 200 69 expr 10000/$f1;
#X obj 96 123 /;
#X obj 281 12 inlet numsteps;
#X obj 67 10 inlet value;
#X obj 96 145 outlet;
#X connect 0 0 1 0;
#X connect 1 0 4 0;
#X connect 2 0 3 0;
#X connect 2 0 4 1;
#X connect 3 0 0 1;
#X connect 4 0 7 0;
#X connect 5 0 2 0;
#X connect 6 0 0 0;
#X restore 51 130 pd quantize;
#X obj 36 28 inlet;
#X obj 57 61 s \$0-ycoordraw;
#X obj 116 98 r \$0-yscrubquantsnd;
#X obj 112 197 s \$0-yscrubprocessedsnd;
#X connect 0 0 1 0;
#X connect 0 0 2 0;
#X connect 3 0 4 0;
#X connect 4 0 0 1;
#X connect 5 0 0 0;
#X connect 5 0 9 0;
#X connect 6 0 5 0;
#X connect 6 0 7 0;
#X connect 8 0 5 1;
#X restore 386 508 pd ycoordprocessing;
#N canvas 656 348 450 323 xcoordprocessing 0;
#N canvas 0 0 450 300 quantize 0;
#X obj 96 79 / 2000;
#X obj 96 101 int;
#X floatatom 195 44 5 1 10000 0 - - -, f 5;
#X obj 200 69 expr 10000/$f1;
#X obj 96 123 /;
#X obj 281 12 inlet numsteps;
#X obj 67 10 inlet value;
#X obj 96 145 outlet;
#X connect 0 0 1 0;
#X connect 1 0 4 0;
#X connect 2 0 3 0;
#X connect 2 0 4 1;
#X connect 3 0 0 1;
#X connect 4 0 7 0;
#X connect 5 0 2 0;
#X connect 6 0 0 0;
#X restore 98 102 pd quantize;
#X obj 58 52 inlet;
#X obj 98 124 s \$0-xcoorddisplay;
#X obj 202 81 s \$0-xcoordraw;
#X obj 123 168 s \$0-xscrubprocessedsnd;
#X obj 197 43 r \$0-xscrubquantsnd;
#X connect 0 0 2 0;
#X connect 0 0 4 0;
#X connect 1 0 0 0;
#X connect 1 0 3 0;
#X connect 5 0 0 1;
#X restore 198 503 pd xcoordprocessing;
#X obj 209 14 r \$0-loopvalues;
#X connect 1 0 3 0;
#X connect 1 1 2 0;
#X connect 4 0 1 0;
#X coords 0 -1 1 1 324 414 2 179 40;
#X restore 19 44 pd leftpad;
#X obj 1361 277 lop~ 8000;
#X obj 1187 122 noise~;
#X obj 1189 175 *~ 0.0003;
#X obj 1187 144 *~;
#X obj 1233 109 tgl 25 0 \$0-noisesnd \$0-noisercv noise 17 7 0 10
-262144 -1 -1 1 1;
#X obj 1361 255 *~ 1;
#X obj 514 285 vsl 20 75 0 1 0 0 \$0-fb1volsnd \$0-fb1volrcv vol 0
-9 0 10 -262144 -1 -1 6900 1;
#X obj 668 286 vsl 20 75 0 1 0 0 \$0-fb2volsnd \$0-fb2volrcv vol 0
-9 0 10 -262144 -1 -1 0 1;
#X obj 505 606 vsl 20 75 0 1 0 0 \$0-fb3volsnd \$0-fb3volrcv vol 0
-9 0 10 -262144 -1 -1 4400 1;
#X obj 672 610 vsl 20 75 0 1 0 0 \$0-fb4volsnd \$0-fb4volrcv vol 0
-9 0 10 -262144 -1 -1 4400 1;
#X floatatom 1403 232 5 0 0 0 - - -, f 5;
#X obj 1403 253 / 100;
#X obj 307 567 vsl 20 100 0 1 0 0 \$0-globalfbsnd \$0-globalfbrcv gfb
0 -9 0 10 -262144 -1 -1 9900 1;
#N canvas 260 289 450 300 graphiceq 0;
#X obj 30 50 vsl 15 128 -24 24 0 0 \$0-band1snd \$0-band1rcv <85 -4
-8 0 10 -228856 -1 -1 600 1;
#X obj 52 50 vsl 15 128 -24 24 0 0 \$0-band2snd \$0-band2rcv 100 -2
-18 0 10 -228856 -1 -1 3900 1;
#X obj 75 50 vsl 15 128 -24 24 0 0 \$0-band3snd \$0-band3rcv 200 0
-9 0 10 -228856 -1 -1 5450 1;
#X obj 97 50 vsl 15 128 -24 24 0 0 \$0-band4snd \$0-band4rcv 400 -3
-18 0 10 -228856 -1 -1 5300 1;
#X obj 120 50 vsl 15 128 -24 24 0 0 \$0-band5snd \$0-band5rcv 800 0
-9 0 10 -228856 -1 -1 8850 1;
#X obj 143 50 vsl 15 128 -24 24 0 0 \$0-band6snd \$0-band6rcv 1600
-6 -19 0 10 -228856 -1 -1 3050 1;
#X obj 166 50 vsl 15 128 -24 24 0 0 \$0-band7snd \$0-band7rcv 3200
0 -9 0 10 -228856 -1 -1 9850 1;
#X obj 189 50 vsl 15 128 -24 24 0 0 \$0-band8snd \$0-band8rcv 6400
-2 -20 0 10 -228856 -1 -1 3750 1;
#X obj 212 50 vsl 15 128 -24 48 0 0 \$0-band9snd \$0-band9rcv 12800
0 -9 0 10 -228856 -1 -1 0 1;
#X obj 235 50 vsl 15 128 -24 48 0 0 \$0-band10snd \$0-band10rcv >15000
-9 -22 0 10 -228856 -1 -1 0 1;
#X obj 258 49 vsl 15 128 0.05 1.2 0 0 \$0-eqbwsnd \$0-eqbwrcv bw 1
-10 0 10 -240104 -1 -1 500 1;
#X coords 0 -1 1 1 265 180 2 20 17;
#X restore 836 581 pd graphiceq;
#X obj 1361 299 hip~ 30;
#X connect 6 0 5 0;
#X connect 6 1 5 1;
#X connect 7 0 82 0;
#X connect 7 1 82 1;
#X connect 7 2 82 2;
#X connect 7 3 82 3;
#X connect 7 4 104 0;
#X connect 10 0 8 0;
#X connect 10 1 8 1;
#X connect 13 0 10 1;
#X connect 42 0 78 0;
#X connect 42 1 78 1;
#X connect 78 0 10 0;
#X connect 78 1 10 2;
#X connect 82 0 42 0;
#X connect 82 1 42 1;
#X connect 82 2 42 2;
#X connect 82 3 42 3;
#X connect 85 0 92 0;
#X connect 85 1 93 0;
#X connect 94 0 7 0;
#X connect 95 0 7 1;
#X connect 99 0 113 0;
#X connect 100 0 102 0;
#X connect 101 0 7 0;
#X connect 101 0 7 1;
#X connect 102 0 101 0;
#X connect 103 0 102 1;
#X connect 104 0 99 0;
#X connect 109 0 110 0;
#X connect 110 0 104 1;
#X connect 113 0 85 0;
