#N canvas 0 24 1360 692 10;
#X obj 531 19 cnv 15 232 647 empty empty madness 17 16 0 18 -207726
-66577 0;
#X obj 14 16 cnv 15 232 647 empty empty grief 167 17 0 18 -162215 -66577
0;
#N canvas 0 24 1360 692 soundstuff 0;
#X obj 136 -454 phasor~;
#X obj 144 -337 cos~;
#X obj 140 -398 +~;
#X obj 142 -366 wrap~;
#X obj 144 -86 hip~ 10;
#X obj 157 -581 r \$0-pitch1snd;
#X obj 157 -559 mtof;
#X floatatom 173 -543 5 0 0 0 - - -, f 5;
#X obj 513 -42 delwrite~ \$0-fb1 8000;
#X obj 511 -69 *~;
#X obj 603 -109 r \$0-fb1snd;
#X obj 603 -87 smoother 25;
#X obj 157 -497 smoother 30;
#X obj 179 40 outlet~;
#X obj 141 -198 +~;
#X obj 183 -310 >~ 0;
#X obj 183 -288 *~ 2;
#X obj 183 -266 -~ 1;
#X obj 142 -222 *~;
#X obj 208 -224 *~;
#X obj 380 -325 smoother 5;
#X obj 43 -488 r \$0-scrubsnd;
#X obj 136 -432 *~;
#X obj 286 -568 r \$0-osc1amtsnd;
#X obj 284 -525 smoother 15;
#X obj 42 -466 smoother 1;
#X obj 287 -546 - 0.1;
#X obj 292 -433 phasor~;
#X obj 310 -315 cos~;
#X obj 306 -376 +~;
#X obj 308 -344 wrap~;
#X obj 306 -87 hip~ 10;
#X obj 307 -176 +~;
#X obj 349 -288 >~ 0;
#X obj 349 -266 *~ 2;
#X obj 349 -244 -~ 1;
#X obj 308 -200 *~;
#X obj 374 -202 *~;
#X obj 292 -411 *~;
#N canvas 456 232 450 300 oscshape 0;
#X obj 79 233 outlet~;
#X obj 136 235 outlet~;
#X obj 213 234 outlet~;
#X obj 270 236 outlet~;
#X obj 99 101 smoother 25;
#X obj 175 70 expr 1 - $f1;
#X obj 175 101 smoother 25;
#X obj 113 44 r \$0-osc1shapesnd;
#X obj 294 47 r \$0-osc2shapesnd;
#X obj 263 120 smoother 25;
#X obj 339 89 expr 1 - $f1;
#X obj 339 120 smoother 25;
#X connect 4 0 0 0;
#X connect 5 0 6 0;
#X connect 6 0 1 0;
#X connect 7 0 5 0;
#X connect 7 0 4 0;
#X connect 8 0 10 0;
#X connect 8 0 9 0;
#X connect 9 0 2 0;
#X connect 10 0 11 0;
#X connect 11 0 3 0;
#X restore 231 -280 pd oscshape;
#X obj 380 -347 r \$0-pw1snd;
#X obj 487 -318 smoother 5;
#X obj 487 -340 r \$0-pw2snd;
#N canvas 0 24 1360 715 delrcvs 0;
#X obj 34 112 delread4~ \$0-fb1;
#X obj 66 75 smoother 25;
#X obj 69 48 - 0.1;
#X obj 258 18 r \$0-delmodsnd;
#X obj 258 40 - 0.1;
#X obj 258 62 smoother 25;
#X obj 199 135 *~;
#X obj 188 14 osc~ 3;
#X obj 181 87 +~ 1;
#X obj 187 59 clip~ -1 1;
#X obj 214 -13 r \$0-delmodspdsnd;
#X obj 598 102 r \$0-hipsnd;
#X obj 296 112 r \$0-lopsnd;
#X obj 598 124 - 0.1;
#X obj 47 212 lop~;
#X obj 47 234 hip~ 1.5;
#X obj 188 36 *~ 15;
#X obj 49 313 outlet~;
#X obj 353 295 outlet~;
#X obj 381 191 delread4~ \$0-fb2;
#X obj 387 53 r \$0-del2snd;
#X obj 387 75 - 0.1;
#X obj 387 97 smoother 25;
#X obj 381 213 lop~;
#X obj 380 235 hip~ 1.5;
#X obj 69 26 r \$0-del1snd;
#X obj 181 109 *~ 2;
#X connect 0 0 14 0;
#X connect 1 0 0 0;
#X connect 2 0 1 0;
#X connect 3 0 4 0;
#X connect 4 0 5 0;
#X connect 5 0 6 1;
#X connect 6 0 0 0;
#X connect 7 0 16 0;
#X connect 8 0 26 0;
#X connect 9 0 8 0;
#X connect 10 0 7 0;
#X connect 11 0 13 0;
#X connect 12 0 14 1;
#X connect 12 0 23 1;
#X connect 13 0 15 1;
#X connect 13 0 24 1;
#X connect 14 0 15 0;
#X connect 15 0 17 0;
#X connect 16 0 9 0;
#X connect 19 0 23 0;
#X connect 20 0 21 0;
#X connect 21 0 22 0;
#X connect 22 0 19 0;
#X connect 23 0 24 0;
#X connect 24 0 18 0;
#X connect 25 0 2 0;
#X connect 26 0 6 0;
#X restore 675 -493 pd delrcvs;
#X obj 504 -547 mtof;
#X floatatom 520 -531 5 0 0 0 - - -, f 5;
#X obj 504 -485 smoother 30;
#X obj 503 -569 r \$0-pitch2snd;
#X obj 708 -60 *~;
#X obj 800 -78 smoother 25;
#X obj 800 -100 r \$0-fb2snd;
#X obj 713 -33 delwrite~ \$0-fb2 8000;
#X obj 170 -24 adamonopan;
#X obj 304 -25 adamonopan;
#X obj 263 44 outlet~;
#X obj 229 -59 r \$0-pan1snd;
#X obj 392 -55 r \$0-pan2snd;
#X obj 390 -546 r \$0-osc2amtsnd;
#X obj 390 -524 - 0.1;
#X obj 390 -502 smoother 15;
#X obj 156 -139 *~;
#X obj 178 -194 r \$0-osc1to2snd;
#X obj 178 -172 smoother 10;
#X obj 367 -137 *~;
#X obj 446 -188 r \$0-osc2to1snd;
#X obj 446 -166 smoother 10;
#X obj 367 -115 delwrite~ \$0-crossmod 50;
#X obj 10 -405 delread~ \$0-crossmod;
#X obj 242 -385 wrap~;
#X obj 242 -407 +~ 0.05;
#X obj 69 -551 inlet~;
#X obj 374 -448 noise~;
#X obj 375 -397 samphold~;
#X obj 454 -448 noise~;
#X obj 455 -397 samphold~;
#X obj 374 -424 *~ 0.1;
#X obj 454 -424 *~ 0.1;
#X obj 849 -366 r \$0-upsampsnd;
#X msg 832 -317 1;
#X msg 867 -315 2;
#X msg 900 -315 4;
#X msg 931 -314 8;
#X msg 802 -280 set 1 1 \$1;
#X obj 849 -344 sel 0 1 2 3 4;
#X msg 961 -312 16;
#X obj 614 -323 s \$0-phase1;
#X obj 696 -323 s \$0-phase2;
#X obj 653 -383 snapshot~;
#X obj 698 -430 metro 15;
#X obj 771 -457 loadbang;
#X msg 771 -435 1;
#X obj 720 -384 snapshot~;
#X obj 897 -185 r \$0-onoff;
#X obj 144 -108 *~ 0.3;
#X obj 306 -109 *~ 0.3;
#X obj 306 -66 lop~ 17000;
#X obj 144 -65 lop~ 17000;
#X obj 734 -140 switch~ 1 1 1;
#X connect 0 0 22 0;
#X connect 0 0 72 1;
#X connect 0 0 87 0;
#X connect 1 0 15 0;
#X connect 1 0 18 0;
#X connect 2 0 3 0;
#X connect 3 0 1 0;
#X connect 4 0 96 0;
#X connect 5 0 6 0;
#X connect 6 0 7 0;
#X connect 6 0 12 0;
#X connect 9 0 8 0;
#X connect 10 0 11 0;
#X connect 11 0 9 1;
#X connect 12 0 0 0;
#X connect 14 0 9 0;
#X connect 14 0 60 0;
#X connect 14 0 93 0;
#X connect 15 0 16 0;
#X connect 16 0 17 0;
#X connect 17 0 19 0;
#X connect 18 0 14 0;
#X connect 19 0 14 1;
#X connect 20 0 15 1;
#X connect 21 0 25 0;
#X connect 22 0 2 0;
#X connect 23 0 26 0;
#X connect 24 0 22 1;
#X connect 25 0 2 0;
#X connect 25 0 69 0;
#X connect 26 0 24 0;
#X connect 27 0 38 0;
#X connect 27 0 74 1;
#X connect 27 0 91 0;
#X connect 28 0 33 0;
#X connect 28 0 36 0;
#X connect 29 0 30 0;
#X connect 30 0 28 0;
#X connect 31 0 95 0;
#X connect 32 0 48 0;
#X connect 32 0 63 0;
#X connect 32 0 94 0;
#X connect 33 0 34 0;
#X connect 34 0 35 0;
#X connect 35 0 37 0;
#X connect 36 0 32 0;
#X connect 37 0 32 1;
#X connect 38 0 29 0;
#X connect 39 0 18 1;
#X connect 39 1 19 1;
#X connect 39 2 36 1;
#X connect 39 3 37 1;
#X connect 40 0 20 0;
#X connect 41 0 33 1;
#X connect 42 0 41 0;
#X connect 43 0 2 1;
#X connect 43 1 29 1;
#X connect 44 0 45 0;
#X connect 44 0 46 0;
#X connect 46 0 27 0;
#X connect 47 0 44 0;
#X connect 48 0 51 0;
#X connect 49 0 48 1;
#X connect 50 0 49 0;
#X connect 52 0 13 0;
#X connect 52 1 54 0;
#X connect 53 0 13 0;
#X connect 53 1 54 0;
#X connect 55 0 52 1;
#X connect 56 0 53 1;
#X connect 57 0 58 0;
#X connect 58 0 59 0;
#X connect 59 0 38 1;
#X connect 60 0 29 1;
#X connect 61 0 62 0;
#X connect 62 0 60 1;
#X connect 63 0 66 0;
#X connect 64 0 65 0;
#X connect 65 0 63 1;
#X connect 67 0 2 1;
#X connect 68 0 29 1;
#X connect 69 0 68 0;
#X connect 70 0 2 1;
#X connect 70 0 29 1;
#X connect 71 0 75 0;
#X connect 72 0 2 1;
#X connect 73 0 76 0;
#X connect 74 0 29 1;
#X connect 75 0 72 0;
#X connect 76 0 74 0;
#X connect 77 0 83 0;
#X connect 78 0 82 0;
#X connect 79 0 82 0;
#X connect 80 0 82 0;
#X connect 81 0 82 0;
#X connect 82 0 97 0;
#X connect 83 0 78 0;
#X connect 83 1 79 0;
#X connect 83 2 80 0;
#X connect 83 3 81 0;
#X connect 83 4 84 0;
#X connect 84 0 82 0;
#X connect 87 0 85 0;
#X connect 88 0 87 0;
#X connect 88 0 91 0;
#X connect 89 0 90 0;
#X connect 90 0 88 0;
#X connect 91 0 86 0;
#X connect 92 0 97 0;
#X connect 93 0 4 0;
#X connect 94 0 31 0;
#X connect 95 0 53 0;
#X connect 96 0 52 0;
#X restore 1056 466 pd soundstuff, f 18;
#X obj 39 32 vsl 35 490 -100 48 0 0 \$0-pitch1snd \$0-pitch1rcv pitch1
0 -9 0 10 -262144 -1 -1 5061 1;
#X obj 130 99 vsl 35 380 0.1 1 1 0 \$0-fb1snd \$0-fb1rcv fb1 0 -9 0
10 -262144 -1 -1 17891 1;
#X obj 84 58 vsl 35 450 0.1 1 1 0 \$0-del1snd \$0-del1rcv del1 0 -9
0 10 -262144 -1 -1 0 1;
#X obj 858 38 vsl 15 128 0.1 1 1 0 \$0-delmodsnd \$0-delmodrcv delmod
0 -9 0 10 -262144 -1 -1 0 1;
#X obj 323 29 vsl 35 450 45 20000 1 0 \$0-lopsnd \$0-loprcv lop 0 -9
0 10 -262144 -1 -1 44900 1;
#X obj 816 32 vsl 15 128 0.01 30 1 0 \$0-delmodspdsnd \$0-delmodspdrcv
speed 0 -9 0 10 -262144 -1 -1 0 1;
#X obj 56 604 hsl 150 15 0 1 0 0 \$0-osc1shapesnd \$0-osc1shapercv
shape\ sq\ <->\ sn -2 -8 0 10 -262144 -1 -1 0 1;
#X obj 20 578 hsl 200 15 -0.999 -0.5 0 0 \$0-pw1snd \$0-pw1rcv pw1
-2 -8 0 10 -262144 -1 -1 0 1;
#X obj 283 29 vsl 35 450 -1 1 0 0 \$0-scrubsnd \$0-scrubrcv scrub 0
-9 0 10 -262144 -1 -1 15350 1;
#X obj 176 141 vsl 35 300 0.1 1 1 0 \$0-osc1amtsnd \$0-osc1amtrcv osc1Amt
0 -9 0 10 -262144 -1 -1 0 1;
#N canvas 0 24 1360 692 nanokontrol 0;
#X obj 50 42 ctlin 16;
#X obj 50 64 * 1.5;
#X obj 50 86 - 85;
#X text 51 14 knobs;
#X obj 160 44 ctlin 17;
#X obj 278 64 * 1.5;
#X obj 278 86 - 85;
#X obj 277 42 ctlin 18;
#X obj 277 107 s \$0-pitch3rcv;
#X obj 394 61 * 1.5;
#X obj 394 83 - 85;
#X obj 393 39 ctlin 19;
#X obj 392 104 s \$0-pitch4rcv;
#X obj 55 169 ctlin 0;
#X obj 55 191 / 127;
#X obj 155 191 / 127;
#X obj 155 168 ctlin 1;
#X obj 261 194 / 127;
#X obj 262 171 ctlin 2;
#X obj 360 193 / 127;
#X obj 361 170 ctlin 3;
#X obj 360 216 s \$0-fb4rcv;
#X obj 666 169 ctlin 7;
#X obj 666 191 / 150;
#X obj 666 213 s \$0-fbrcv;
#X obj 578 132 ctlin 6;
#X obj 580 209 * 9900;
#X obj 580 230 + 100;
#X obj 587 254 s \$0-modfiltrcv;
#X obj 581 183 pow 2;
#X obj 494 169 ctlin 5;
#X obj 497 300 s \$0-delrcv;
#X obj 494 191 / 127;
#X obj 578 154 / 127;
#X obj 497 254 * 2000;
#X obj 497 276 + 5;
#X obj 494 213 pow 2;
#X obj 57 252 s \$0-scrubrcv;
#X obj 50 108 s \$0-pitch1rcv;
#X obj 161 109 s \$0-osc1amtrcv;
#X obj 260 270 s \$0-delrcv;
#X obj 155 272 s \$0-fb1rcv;
#X obj 261 238 * 8000;
#X obj 155 213 pow 2;
#X obj 162 65 / 127;
#X obj 162 87 pow 2;
#X obj 155 235 + 0.1;
#X obj 261 216 pow 4;
#X obj 863 23 key;
#X obj 863 45 sel 32;
#X msg 863 67 0;
#X obj 864 93 s \$0-scrubrcv;
#X connect 0 0 1 0;
#X connect 1 0 2 0;
#X connect 2 0 38 0;
#X connect 4 0 44 0;
#X connect 5 0 6 0;
#X connect 6 0 8 0;
#X connect 7 0 5 0;
#X connect 9 0 10 0;
#X connect 10 0 12 0;
#X connect 11 0 9 0;
#X connect 13 0 14 0;
#X connect 14 0 37 0;
#X connect 15 0 43 0;
#X connect 16 0 15 0;
#X connect 17 0 47 0;
#X connect 18 0 17 0;
#X connect 19 0 21 0;
#X connect 20 0 19 0;
#X connect 22 0 23 0;
#X connect 23 0 24 0;
#X connect 25 0 33 0;
#X connect 26 0 27 0;
#X connect 27 0 28 0;
#X connect 29 0 26 0;
#X connect 30 0 32 0;
#X connect 32 0 36 0;
#X connect 33 0 29 0;
#X connect 34 0 35 0;
#X connect 35 0 31 0;
#X connect 36 0 34 0;
#X connect 42 0 40 0;
#X connect 43 0 46 0;
#X connect 44 0 45 0;
#X connect 45 0 39 0;
#X connect 46 0 41 0;
#X connect 47 0 42 0;
#X connect 48 0 49 0;
#X connect 49 0 50 0;
#X connect 50 0 51 0;
#X restore 1157 352 pd nanokontrol;
#X obj 363 29 vsl 35 450 0.01 8000 1 0 \$0-hipsnd \$0-hiprcv hip 0
-9 0 10 -262144 -1 -1 15800 1;
#X obj 1029 542 output;
#X obj 537 582 hsl 200 15 -0.999 -0.5 0 0 \$0-pw2snd \$0-pw2rcv pw2
-2 -8 0 10 -262144 -1 -1 0 1;
#X obj 696 36 vsl 35 490 -100 48 0 0 \$0-pitch2snd \$0-pitch2rcv pitch2
0 -9 0 10 -262144 -1 -1 4628 1;
#X obj 605 98 vsl 35 380 0.1 1 1 0 \$0-fb2snd \$0-fb2rcv fb2 0 -9 0
10 -262144 -1 -1 19778 1;
#X obj 650 55 vsl 35 450 0.1 1 1 0 \$0-del2snd \$0-del2rcv del2 0 -9
0 10 -262144 -1 -1 0 1;
#X obj 560 141 vsl 35 300 0.1 1 1 0 \$0-osc2amtsnd \$0-osc2amtrcv osc2Amt
0 -9 0 10 -262144 -1 -1 0 1;
#X obj 573 608 hsl 150 15 0 1 0 0 \$0-osc2shapesnd \$0-osc2shapercv
shape\ sq\ <->\ sn -2 -8 0 10 -262144 -1 -1 0 1;
#X obj 81 631 hsl 110 15 1 -1 0 0 \$0-pan1snd \$0-pan1rcv pan1 -2 -8
0 10 -262144 -1 -1 0 1;
#X obj 597 635 hsl 110 15 1 -1 0 0 \$0-pan2snd \$0-pan2rcv pan2 -2
-8 0 10 -262144 -1 -1 10900 1;
#X obj 403 29 vsl 35 450 0.01 3 1 0 \$0-osc1to2snd \$0-osc1to2rcv 1->2
0 -9 0 10 -262144 -1 -1 38957 1;
#X obj 443 29 vsl 35 450 0.01 3 1 0 \$0-osc2to1snd \$0-osc2to1rcv 2->1
0 -9 0 10 -262144 -1 -1 34270 1;
#N canvas 0 24 1360 692 presets 0;
#X obj 18 18 cnv 15 196 146 empty empty closed\ timelike 66 130 0 14
-145379 -66577 0;
#X obj 28 28 bng 20 250 50 0 \$0-preset1snd \$0-preset1rcv empty 17
7 0 10 -99865 -1 -262144;
#X obj 50 28 bng 20 250 50 0 \$0-preset2snd \$0-preset2rcv empty 17
7 0 10 -262144 -1 -262144;
#X obj 72 28 bng 20 250 50 0 \$0-preset3snd \$0-preset3rcv empty 17
7 0 10 -262144 -1 -262144;
#X obj 94 28 bng 20 250 50 0 \$0-preset4snd \$0-preset4rcv empty 17
7 0 10 -262144 -1 -262144;
#X obj 116 28 bng 20 250 50 0 \$0-preset5snd \$0-preset5rcv empty 17
7 0 10 -262144 -1 -262144;
#X obj 138 28 bng 20 250 50 0 \$0-preset6snd \$0-preset6rcv empty 17
7 0 10 -262144 -1 -262144;
#X obj 160 28 bng 20 250 50 0 \$0-preset7snd \$0-preset7rcv empty 17
7 0 10 -262144 -1 -262144;
#X obj 182 28 bng 20 250 50 0 \$0-preset8snd \$0-preset8rcv empty 17
7 0 10 -262144 -1 -262144;
#X obj 28 50 bng 20 250 50 0 \$0-preset9snd \$0-preset9rcv empty 17
7 0 10 -99865 -1 -262144;
#X obj 50 50 bng 20 250 50 0 \$0-preset10snd \$0-preset10rcv empty
17 7 0 10 -262144 -1 -262144;
#X obj 72 50 bng 20 250 50 0 \$0-preset11snd \$0-preset11rcv empty
17 7 0 10 -262144 -1 -262144;
#X obj 94 50 bng 20 250 50 0 \$0-preset12snd \$0-preset12rcv empty
17 7 0 10 -262144 -1 -262144;
#X obj 116 50 bng 20 250 50 0 \$0-preset13snd \$0-preset13rcv empty
17 7 0 10 -262144 -1 -262144;
#X obj 138 50 bng 20 250 50 0 \$0-preset14snd \$0-preset14rcv empty
17 7 0 10 -262144 -1 -262144;
#X obj 160 50 bng 20 250 50 0 \$0-preset15snd \$0-preset15rcv empty
17 7 0 10 -262144 -1 -262144;
#X obj 182 50 bng 20 250 50 0 \$0-preset16snd \$0-preset16rcv empty
17 7 0 10 -262144 -1 -262144;
#X obj 28 72 bng 20 250 50 0 \$0-preset17snd \$0-preset17rcv empty
17 7 0 10 -262144 -1 -262144;
#X obj 50 72 bng 20 250 50 0 \$0-preset18snd \$0-preset18rcv empty
17 7 0 10 -262144 -1 -262144;
#X obj 72 72 bng 20 250 50 0 \$0-preset19snd \$0-preset19rcv empty
17 7 0 10 -262144 -1 -262144;
#X obj 94 72 bng 20 250 50 0 \$0-preset20snd \$0-preset20rcv empty
17 7 0 10 -262144 -1 -262144;
#X obj 116 72 bng 20 250 50 0 \$0-preset21snd \$0-preset21rcv empty
17 7 0 10 -262144 -1 -262144;
#X obj 138 72 bng 20 250 50 0 \$0-preset22snd \$0-preset22rcv empty
17 7 0 10 -262144 -1 -262144;
#X obj 160 72 bng 20 250 50 0 \$0-preset23snd \$0-preset23rcv empty
17 7 0 10 -262144 -1 -262144;
#X obj 182 72 bng 20 250 50 0 \$0-preset24snd \$0-preset24rcv empty
17 7 0 10 -262144 -1 -262144;
#X obj 28 94 bng 20 250 50 0 empty empty empty 17 7 0 10 -262144 -1
-1;
#X obj 50 94 bng 20 250 50 0 empty empty empty 17 7 0 10 -262144 -1
-1;
#X obj 72 94 bng 20 250 50 0 empty empty empty 17 7 0 10 -262144 -1
-1;
#X obj 94 94 bng 20 250 50 0 empty empty empty 17 7 0 10 -262144 -1
-1;
#X obj 116 94 bng 20 250 50 0 empty empty empty 17 7 0 10 -262144 -1
-1;
#X obj 138 94 bng 20 250 50 0 empty empty empty 17 7 0 10 -262144 -1
-1;
#X obj 160 94 bng 20 250 50 0 empty empty empty 17 7 0 10 -262144 -1
-1;
#X obj 182 94 bng 20 250 50 0 empty empty empty 17 7 0 10 -262144 -1
-1;
#X obj 28 116 bng 20 250 50 0 empty empty empty 17 7 0 10 -262144 -1
-1;
#X obj 50 116 bng 20 250 50 0 empty empty empty 17 7 0 10 -262144 -1
-1;
#X obj 72 116 bng 20 250 50 0 empty empty empty 17 7 0 10 -262144 -1
-1;
#X obj 94 116 bng 20 250 50 0 empty empty empty 17 7 0 10 -262144 -1
-1;
#X obj 116 116 bng 20 250 50 0 empty empty empty 17 7 0 10 -262144
-1 -1;
#X obj 138 116 bng 20 250 50 0 empty empty empty 17 7 0 10 -262144
-1 -1;
#X obj 160 116 bng 20 250 50 0 empty empty empty 17 7 0 10 -262144
-1 -1;
#X obj 182 116 bng 20 250 50 0 empty empty empty 17 7 0 10 -262144
-1 -1;
#N canvas 0 24 1360 692 presets 0;
#X obj 108 23 inlet data;
#X msg 116 390;
#X msg 181 390;
#X msg 290 492 0 -74.9749 -61.9497 -79.8593 -58.6935 0.622047 0.661417
0.732283 0.708661 0 0 0 0 0.324324 -0.243243 0.513514 0.486486 0.513386
349.387 1.49291 118.128 0 0 0 0 0.0295854 237.467 0.985827 0.688976
0.015748 0.551181 0.173228 0.692913 0 -114.422 1 1.25622 1.5386 1.25622
1.50009 1 1 1 1 -9 -5 18 45 64;
#X msg 596 494;
#X msg 629 494;
#X msg 663 494;
#X msg 696 494;
#X msg 728 494;
#X msg 761 494;
#X msg 795 494;
#X msg 828 494;
#X msg 596 524;
#X msg 629 524;
#X msg 663 524;
#X msg 696 524;
#X msg 728 524;
#X msg 761 524;
#X msg 795 524;
#X msg 828 524;
#X obj 107 113 list prepend set;
#X obj 104 52 route 1 2 3 4 5 6 7 8 9 10 11 12 13 14 15 16 17 18 19
20 21 22 23 24 25 26 27 28 29 30 31 32 33 34 35 36 37 38 39 40;
#X obj 107 135 list trim;
#X msg 39 298 0 -84.6813 0.523677 0.296523 0.1 -0.999 0.033557 1 -85.9941
0.481143 0.332542 0.1 -0.999 0.0536913 -1 0.00552339 13000 0.324443
1.41009 0.77744 0.01 0.1;
#X obj 215 112 list prepend set;
#X obj 215 134 list trim;
#X obj 323 112 list prepend set;
#X obj 323 134 list trim;
#X obj 431 111 list prepend set;
#X obj 431 133 list trim;
#X obj 540 111 list prepend set;
#X obj 540 133 list trim;
#X obj 648 110 list prepend set;
#X obj 648 132 list trim;
#X obj 760 111 list prepend set;
#X obj 760 133 list trim;
#X obj 868 110 list prepend set;
#X obj 868 132 list trim;
#X obj 728 17 inlet loadnumber;
#X obj 728 55 sel 1 2 3 4 5 6 7 8 9 10 11 12 13 14 15 16 17 18 19 20
21 22 23 24 25 26 27 28 29 30 31 32 33 34 35 36 37 38 39 40;
#X obj 421 612 outlet loaddata;
#X obj 116 169 list prepend set;
#X obj 116 191 list trim;
#X obj 224 168 list prepend set;
#X obj 224 190 list trim;
#X obj 332 168 list prepend set;
#X obj 332 190 list trim;
#X obj 440 167 list prepend set;
#X obj 440 189 list trim;
#X obj 549 167 list prepend set;
#X obj 549 189 list trim;
#X obj 657 166 list prepend set;
#X obj 657 188 list trim;
#X obj 769 167 list prepend set;
#X obj 769 189 list trim;
#X obj 877 166 list prepend set;
#X obj 877 188 list trim;
#X obj 143 219 list prepend set;
#X obj 143 241 list trim;
#X obj 251 218 list prepend set;
#X obj 251 240 list trim;
#X obj 359 218 list prepend set;
#X obj 359 240 list trim;
#X obj 467 217 list prepend set;
#X obj 467 239 list trim;
#X obj 576 217 list prepend set;
#X obj 576 239 list trim;
#X obj 684 216 list prepend set;
#X obj 684 238 list trim;
#X obj 796 217 list prepend set;
#X obj 796 239 list trim;
#X obj 904 216 list prepend set;
#X obj 904 238 list trim;
#X msg 261 289 0 -63.9877 0.645108 0.366536 0.109165 -0.999 0.244094
1 -75.4539 0.768751 0.402901 0.116985 -0.848397 0.252953 -1 0.0200401
10657.3 0.236483 0.0317235 0.0554474 0.0194836 0.119878;
#X msg 412 277 0 -63.3117 0.536247 0.517934 0.1 -0.67302 0.0167785
1 -68.8988 0.393383 0.287668 0.1 -0.923698 0.0381879 -1 0 12909.4 0.031393
0.0524965 0.207576 0.0194836 0.119878;
#X msg 637 303 0 -65.5 0.645108 0.366536 0.109165 -0.999 0.244094 -0.0458716
12.9219 1 0.402901 0.116985 -0.848397 0.252953 0.0642202 0.0200401
10656.8 0.236456 0.0317236 0.0554509 0.0194836 0.119878;
#X msg 811 287 0 -29.4546 1 0.614725 0.1 -0.999 0 0.816514 -50.9318
1 0.633185 0.103125 -0.999 0 -0.816514 -0.218813 5945.03 11.8849 0.756686
0.989668 0.0194836 0.119878;
#X msg 879 300 0 -88.6503 1 0.147444 0.1 -0.572291 0.600671 0.816514
-62.1041 1 0.171494 0.103125 -0.572291 0.42953 -0.816514 0.368018 13000
0.067749 0.049921 0.120136 0.0194836 0.119878;
#X msg 1004 301 0 -80.7812 1 0.241184 0.1 -0.572291 0.600671 0.816514
-58.7749 1 0.262388 0.1 -0.572291 0.42953 -0.816514 0.368018 13000
5.8015 0.049921 0.120136 0.0194836 0.119878;
#X msg 1151 295;
#X msg 48 389 0 -84.6813 0.523677 0.296523 0.508175 -0.999 0.033557
1 -69.9941 0.481143 0.332542 0.568868 -0.999 0.0536913 -1 0.121336
13000.9 0.0354985 1.41009 0.77744 0.01 0.1;
#X msg 82 390;
#X msg 149 390;
#X msg 214 390;
#X msg 247 390;
#X msg 281 390;
#X msg 58 492;
#X msg 91 492;
#X msg 125 492;
#X msg 158 492;
#X msg 190 492;
#X msg 223 492;
#X msg 257 492;
#X connect 0 0 21 0;
#X connect 1 0 40 0;
#X connect 2 0 40 0;
#X connect 3 0 40 0;
#X connect 4 0 40 0;
#X connect 5 0 40 0;
#X connect 6 0 40 0;
#X connect 7 0 40 0;
#X connect 8 0 40 0;
#X connect 9 0 40 0;
#X connect 10 0 40 0;
#X connect 11 0 40 0;
#X connect 12 0 40 0;
#X connect 13 0 40 0;
#X connect 14 0 40 0;
#X connect 15 0 40 0;
#X connect 16 0 40 0;
#X connect 17 0 40 0;
#X connect 18 0 40 0;
#X connect 19 0 40 0;
#X connect 20 0 22 0;
#X connect 21 0 20 0;
#X connect 21 1 24 0;
#X connect 21 2 26 0;
#X connect 21 3 28 0;
#X connect 21 4 30 0;
#X connect 21 5 32 0;
#X connect 21 6 34 0;
#X connect 21 7 36 0;
#X connect 21 8 41 0;
#X connect 21 9 43 0;
#X connect 21 10 45 0;
#X connect 21 11 47 0;
#X connect 21 12 49 0;
#X connect 21 13 51 0;
#X connect 21 14 53 0;
#X connect 21 15 55 0;
#X connect 21 16 57 0;
#X connect 21 17 59 0;
#X connect 21 18 61 0;
#X connect 21 19 63 0;
#X connect 21 20 65 0;
#X connect 21 21 67 0;
#X connect 21 22 69 0;
#X connect 21 23 71 0;
#X connect 22 0 23 0;
#X connect 23 0 40 0;
#X connect 24 0 25 0;
#X connect 25 0 73 0;
#X connect 26 0 27 0;
#X connect 27 0 74 0;
#X connect 28 0 29 0;
#X connect 29 0 75 0;
#X connect 30 0 31 0;
#X connect 31 0 76 0;
#X connect 32 0 33 0;
#X connect 33 0 77 0;
#X connect 34 0 35 0;
#X connect 35 0 78 0;
#X connect 36 0 37 0;
#X connect 37 0 79 0;
#X connect 38 0 39 0;
#X connect 39 0 23 0;
#X connect 39 1 73 0;
#X connect 39 2 74 0;
#X connect 39 3 75 0;
#X connect 39 4 76 0;
#X connect 39 5 77 0;
#X connect 39 6 78 0;
#X connect 39 7 79 0;
#X connect 39 8 80 0;
#X connect 39 9 81 0;
#X connect 39 10 1 0;
#X connect 39 11 82 0;
#X connect 39 12 2 0;
#X connect 39 13 83 0;
#X connect 39 14 84 0;
#X connect 39 15 85 0;
#X connect 39 16 86 0;
#X connect 39 17 87 0;
#X connect 39 18 88 0;
#X connect 39 19 89 0;
#X connect 39 20 90 0;
#X connect 39 21 91 0;
#X connect 39 22 92 0;
#X connect 39 23 3 0;
#X connect 41 0 42 0;
#X connect 42 0 80 0;
#X connect 43 0 44 0;
#X connect 44 0 81 0;
#X connect 45 0 46 0;
#X connect 46 0 1 0;
#X connect 47 0 48 0;
#X connect 48 0 82 0;
#X connect 49 0 50 0;
#X connect 50 0 2 0;
#X connect 51 0 52 0;
#X connect 52 0 83 0;
#X connect 53 0 54 0;
#X connect 54 0 84 0;
#X connect 55 0 56 0;
#X connect 56 0 85 0;
#X connect 57 0 58 0;
#X connect 58 0 86 0;
#X connect 59 0 60 0;
#X connect 60 0 87 0;
#X connect 61 0 62 0;
#X connect 62 0 88 0;
#X connect 63 0 64 0;
#X connect 64 0 89 0;
#X connect 65 0 66 0;
#X connect 66 0 90 0;
#X connect 67 0 68 0;
#X connect 68 0 91 0;
#X connect 69 0 70 0;
#X connect 70 0 92 0;
#X connect 71 0 72 0;
#X connect 72 0 3 0;
#X connect 73 0 40 0;
#X connect 74 0 40 0;
#X connect 75 0 40 0;
#X connect 76 0 40 0;
#X connect 77 0 40 0;
#X connect 78 0 40 0;
#X connect 79 0 40 0;
#X connect 80 0 40 0;
#X connect 81 0 40 0;
#X connect 82 0 40 0;
#X connect 83 0 40 0;
#X connect 84 0 40 0;
#X connect 85 0 40 0;
#X connect 86 0 40 0;
#X connect 87 0 40 0;
#X connect 88 0 40 0;
#X connect 89 0 40 0;
#X connect 90 0 40 0;
#X connect 91 0 40 0;
#X connect 92 0 40 0;
#X restore 417 399 pd presets;
#X obj 26 140 bng 20 250 50 0 empty empty save 25 7 0 10 -169710 -1
-1;
#X obj 278 230 v \$0-currentpreset;
#X floatatom 328 266 5 0 0 0 - - -, f 5;
#X obj 237 203 t b b b;
#X obj 417 375 list prepend;
#X obj 255 288 bng 15 250 50 0 empty empty empty 17 7 0 10 -262144
-1 -1;
#N canvas 0 24 1360 692 bangreceivesandcolors 0;
#X obj 59 25 r \$0-preset1snd;
#X obj 183 26 r \$0-preset2snd;
#X obj 296 27 r \$0-preset3snd;
#X obj 441 29 r \$0-preset4snd;
#X obj 559 28 r \$0-preset5snd;
#X obj 666 28 r \$0-preset6snd;
#X obj 777 28 r \$0-preset7snd;
#X obj 898 26 r \$0-preset8snd;
#X obj 267 418 t b b b;
#X msg 280 480 1;
#X obj 470 512 v \$0-currentpreset;
#X obj 478 544 makefilename \$0-preset%drcv;
#X obj 412 619 s;
#X obj 433 481 t b b, f 6;
#X msg 423 559 color 0;
#X obj 263 523 v \$0-currentpreset;
#X obj 184 559 v \$0-currentpreset;
#X obj 192 591 makefilename \$0-preset%drcv;
#X obj 126 666 s;
#X obj 147 528 t b b, f 6;
#X msg 308 251 set 1;
#X obj 284 217 t b b;
#X obj 350 216 t b b;
#X msg 374 250 set 2;
#X obj 428 216 t b b;
#X obj 494 215 t b b;
#X obj 570 210 t b b;
#X obj 636 209 t b b;
#X obj 713 209 t b b;
#X obj 779 208 t b b;
#X msg 452 250 set 3;
#X msg 518 250 set 4;
#X msg 594 244 set 5;
#X msg 659 243 set 6;
#X msg 737 243 set 7;
#X msg 803 242 set 8;
#X msg 136 606 color 21;
#X obj 149 115 r \$0-preset1snd;
#X obj 273 116 r \$0-preset2snd;
#X obj 386 117 r \$0-preset3snd;
#X obj 531 119 r \$0-preset4snd;
#X obj 649 118 r \$0-preset5snd;
#X obj 756 118 r \$0-preset6snd;
#X obj 867 118 r \$0-preset7snd;
#X obj 988 116 r \$0-preset8snd;
#X obj 189 145 r \$0-preset1snd;
#X obj 313 146 r \$0-preset2snd;
#X obj 426 147 r \$0-preset3snd;
#X obj 571 149 r \$0-preset4snd;
#X obj 689 148 r \$0-preset5snd;
#X obj 796 148 r \$0-preset6snd;
#X obj 907 148 r \$0-preset7snd;
#X obj 1028 146 r \$0-preset8snd;
#X obj 89 55 r \$0-preset9snd;
#X obj 212 56 r \$0-preset10snd;
#X obj 326 57 r \$0-preset11snd;
#X obj 469 59 r \$0-preset12snd;
#X obj 589 58 r \$0-preset13snd;
#X obj 696 58 r \$0-preset14snd;
#X obj 808 58 r \$0-preset15snd;
#X obj 928 56 r \$0-preset16snd;
#X obj 316 286 t b b;
#X obj 382 285 t b b;
#X obj 460 285 t b b;
#X obj 526 284 t b b;
#X obj 602 279 t b b;
#X obj 668 278 t b b;
#X obj 745 278 t b b;
#X obj 811 277 t b b;
#X msg 340 320 set 9;
#X msg 406 319 set 10;
#X msg 484 319 set 11;
#X msg 550 319 set 12;
#X msg 626 313 set 13;
#X msg 691 312 set 14;
#X msg 769 312 set 15;
#X msg 835 311 set 16;
#X obj 321 643 outlet currentpreset;
#X obj 433 351 t b b;
#X obj 499 350 t b b;
#X obj 577 350 t b b;
#X obj 643 349 t b b;
#X obj 719 344 t b b;
#X msg 457 385 set 17;
#X msg 523 384 set 18;
#X msg 601 384 set 19;
#X msg 667 384 set 20;
#X msg 743 378 set 21;
#X msg 821 382 set 22;
#X msg 886 377 set 23;
#X msg 952 376 set 24;
#X obj 796 345 t b b;
#X obj 862 344 t b b;
#X obj 938 339 t b b;
#X obj 119 85 r \$0-preset17snd;
#X obj 243 86 r \$0-preset18snd;
#X obj 356 87 r \$0-preset19snd;
#X obj 501 89 r \$0-preset20snd;
#X obj 619 88 r \$0-preset21snd;
#X obj 726 88 r \$0-preset22snd;
#X obj 837 88 r \$0-preset23snd;
#X obj 958 86 r \$0-preset24snd;
#X connect 0 0 21 0;
#X connect 1 0 22 0;
#X connect 2 0 24 0;
#X connect 3 0 25 0;
#X connect 4 0 26 0;
#X connect 5 0 27 0;
#X connect 6 0 28 0;
#X connect 7 0 29 0;
#X connect 8 0 19 0;
#X connect 8 1 9 0;
#X connect 8 2 13 0;
#X connect 9 0 15 0;
#X connect 9 0 77 0;
#X connect 10 0 11 0;
#X connect 11 0 12 1;
#X connect 13 0 14 0;
#X connect 13 1 10 0;
#X connect 14 0 12 0;
#X connect 16 0 17 0;
#X connect 17 0 18 1;
#X connect 19 0 36 0;
#X connect 19 1 16 0;
#X connect 20 0 9 0;
#X connect 21 0 8 0;
#X connect 21 1 20 0;
#X connect 22 0 8 0;
#X connect 22 1 23 0;
#X connect 23 0 9 0;
#X connect 24 0 8 0;
#X connect 24 1 30 0;
#X connect 25 0 8 0;
#X connect 25 1 31 0;
#X connect 26 0 8 0;
#X connect 26 1 32 0;
#X connect 27 0 8 0;
#X connect 27 1 33 0;
#X connect 28 0 8 0;
#X connect 28 1 34 0;
#X connect 29 0 8 0;
#X connect 29 1 35 0;
#X connect 30 0 9 0;
#X connect 31 0 9 0;
#X connect 32 0 9 0;
#X connect 33 0 9 0;
#X connect 34 0 9 0;
#X connect 35 0 9 0;
#X connect 36 0 18 0;
#X connect 53 0 61 0;
#X connect 54 0 62 0;
#X connect 55 0 63 0;
#X connect 56 0 64 0;
#X connect 57 0 65 0;
#X connect 58 0 66 0;
#X connect 59 0 67 0;
#X connect 60 0 68 0;
#X connect 61 0 8 0;
#X connect 61 1 69 0;
#X connect 62 0 8 0;
#X connect 62 1 70 0;
#X connect 63 0 8 0;
#X connect 63 1 71 0;
#X connect 64 0 8 0;
#X connect 64 1 72 0;
#X connect 65 0 8 0;
#X connect 65 1 73 0;
#X connect 66 0 8 0;
#X connect 66 1 74 0;
#X connect 67 0 8 0;
#X connect 67 1 75 0;
#X connect 68 0 8 0;
#X connect 68 1 76 0;
#X connect 69 0 9 0;
#X connect 70 0 9 0;
#X connect 71 0 9 0;
#X connect 72 0 9 0;
#X connect 73 0 9 0;
#X connect 74 0 9 0;
#X connect 75 0 9 0;
#X connect 76 0 9 0;
#X connect 78 0 8 0;
#X connect 78 1 83 0;
#X connect 79 0 8 0;
#X connect 79 1 84 0;
#X connect 80 0 8 0;
#X connect 80 1 85 0;
#X connect 81 0 8 0;
#X connect 81 1 86 0;
#X connect 82 0 8 0;
#X connect 82 1 87 0;
#X connect 83 0 9 0;
#X connect 84 0 9 0;
#X connect 85 0 9 0;
#X connect 86 0 9 0;
#X connect 87 0 9 0;
#X connect 88 0 9 0;
#X connect 89 0 9 0;
#X connect 90 0 9 0;
#X connect 91 0 8 0;
#X connect 91 1 88 0;
#X connect 92 0 8 0;
#X connect 92 1 89 0;
#X connect 93 0 8 0;
#X connect 93 1 90 0;
#X connect 94 0 78 0;
#X connect 95 0 79 0;
#X connect 96 0 80 0;
#X connect 97 0 81 0;
#X connect 98 0 82 0;
#X connect 99 0 91 0;
#X connect 100 0 92 0;
#X connect 101 0 93 0;
#X restore 144 322 pd bangreceivesandcolors;
#X obj 421 314 pack \$1 \$2 \$3 \$4 \$5 \$6 \$7 \$8 \$9 \$10 \$11 \$12
\$13 \$14 \$15 \$16 \$17 \$18 \$19 \$20 \$21 \$22;
#X obj 423 436 unpack \$1 \$2 \$3 \$4 \$5 \$6 \$7 \$8 \$9 \$10 \$11
\$12 \$13 \$14 \$15 \$16 \$17 \$18 \$19 \$20 \$21 \$22;
#X obj 379 109 r \$0-pitch1snd;
#X obj 395 132 r \$0-osc1amtsnd;
#X obj 414 153 r \$0-fb1snd;
#X obj 423 173 r \$0-del1snd;
#X obj 539 103 r \$0-pitch2snd;
#X obj 557 122 r \$0-osc2amtsnd;
#X obj 578 142 r \$0-fb2snd;
#X obj 595 165 r \$0-del2snd;
#X obj 721 106 r \$0-scrubsnd;
#X obj 746 133 r \$0-lopsnd;
#X obj 767 152 r \$0-hipsnd;
#X obj 777 173 r \$0-osc1to2snd;
#X obj 810 197 r \$0-osc2to1snd;
#X obj 447 196 r \$0-pw1snd;
#X obj 468 217 r \$0-osc1shapesnd;
#X obj 488 242 r \$0-pan1snd;
#X obj 616 185 r \$0-pw2snd;
#X obj 629 205 r \$0-osc2shapesnd;
#X obj 642 227 r \$0-pan2snd;
#X obj 897 111 r \$0-delmodspdsnd;
#X obj 913 152 r \$0-delmodsnd;
#X obj 327 532 s \$0-pitch1rcv;
#X obj 327 554 s \$0-osc1amtrcv;
#X obj 327 576 s \$0-fb1rcv;
#X obj 327 598 s \$0-del1rcv;
#X obj 327 620 s \$0-pw1rcv;
#X obj 327 642 s \$0-osc1shapercv;
#X obj 327 664 s \$0-pan1rcv;
#X obj 471 529 s \$0-pitch2rcv;
#X obj 471 573 s \$0-fb2rcv;
#X obj 471 551 s \$0-osc2amtrcv;
#X obj 471 595 s \$0-del2rcv;
#X obj 471 617 s \$0-pw2rcv;
#X obj 471 639 s \$0-osc2shapercv;
#X obj 471 661 s \$0-pan2rcv;
#X obj 625 527 s \$0-scrubrcv;
#X obj 625 549 s \$0-loprcv;
#X obj 625 571 s \$0-hiprcv;
#X obj 625 593 s \$0-osc1to2rcv;
#X obj 625 615 s \$0-osc2to1rcv;
#X obj 741 528 s \$0-delmodspdrcv;
#X obj 741 550 s \$0-delmodrcv;
#X connect 41 0 50 0;
#X connect 42 0 45 0;
#X connect 43 0 44 0;
#X connect 43 0 46 1;
#X connect 45 1 49 0;
#X connect 45 2 43 0;
#X connect 46 0 41 0;
#X connect 47 0 49 0;
#X connect 48 0 41 1;
#X connect 49 0 46 0;
#X connect 50 1 72 0;
#X connect 50 2 73 0;
#X connect 50 3 74 0;
#X connect 50 4 75 0;
#X connect 50 5 76 0;
#X connect 50 6 77 0;
#X connect 50 7 78 0;
#X connect 50 8 79 0;
#X connect 50 9 81 0;
#X connect 50 10 80 0;
#X connect 50 11 82 0;
#X connect 50 12 83 0;
#X connect 50 13 84 0;
#X connect 50 14 85 0;
#X connect 50 15 86 0;
#X connect 50 16 87 0;
#X connect 50 17 88 0;
#X connect 50 18 89 0;
#X connect 50 19 90 0;
#X connect 50 20 91 0;
#X connect 50 21 92 0;
#X connect 51 0 49 1;
#X connect 52 0 49 2;
#X connect 53 0 49 3;
#X connect 54 0 49 4;
#X connect 55 0 49 8;
#X connect 56 0 49 9;
#X connect 57 0 49 10;
#X connect 58 0 49 11;
#X connect 59 0 49 15;
#X connect 60 0 49 16;
#X connect 61 0 49 17;
#X connect 62 0 49 18;
#X connect 63 0 49 19;
#X connect 64 0 49 5;
#X connect 65 0 49 6;
#X connect 66 0 49 7;
#X connect 67 0 49 12;
#X connect 68 0 49 13;
#X connect 69 0 49 14;
#X connect 70 0 49 20;
#X connect 71 0 49 21;
#X coords 0 -1 1 1 200 150 1 16 16;
#X restore 783 507 pd presets;
#N canvas 456 232 703 315 scope 0;
#X obj 79 61 cnv 15 221 121 empty empty empty 20 12 0 14 -208051 -66577
0;
#X obj 87 71 adascope 0 15 1;
#X obj 192 72 adascope 0 15 1;
#X obj 383 29 loadbang;
#X msg 383 51 15;
#X msg 416 49 1;
#X obj 78 23 r~ \$0-toscopeL;
#X obj 196 25 r~ \$0-toscopeR;
#X connect 3 0 4 0;
#X connect 3 0 5 0;
#X connect 4 0 2 1;
#X connect 4 0 1 1;
#X connect 5 0 2 2;
#X connect 5 0 1 2;
#X connect 6 0 1 0;
#X connect 7 0 2 0;
#X coords 0 -1 1 1 225 125 1 77 59;
#X restore 270 542 pd scope;
#X obj 1252 472 s~ \$0-toscopeL;
#X obj 1262 510 s~ \$0-toscopeR;
#N canvas 418 191 919 527 randomwalks 0;
#N canvas 456 232 450 323 vals 0;
#X obj 83 -216 r \$0-pitch1snd;
#X obj 99 -193 r \$0-osc1amtsnd;
#X obj 118 -172 r \$0-fb1snd;
#X obj 127 -152 r \$0-del1snd;
#X obj 243 -222 r \$0-pitch2snd;
#X obj 261 -203 r \$0-osc2amtsnd;
#X obj 282 -183 r \$0-fb2snd;
#X obj 299 -160 r \$0-del2snd;
#X obj 425 -219 r \$0-scrubsnd;
#X obj 450 -192 r \$0-lopsnd;
#X obj 471 -173 r \$0-hipsnd;
#X obj 481 -152 r \$0-osc1to2snd;
#X obj 514 -128 r \$0-osc2to1snd;
#X obj 151 -129 r \$0-pw1snd;
#X obj 172 -108 r \$0-osc1shapesnd;
#X obj 192 -83 r \$0-pan1snd;
#X obj 320 -140 r \$0-pw2snd;
#X obj 333 -120 r \$0-osc2shapesnd;
#X obj 346 -97 r \$0-pan2snd;
#X obj 601 -214 r \$0-delmodspdsnd;
#X obj 651 -167 r \$0-delmodsnd;
#X obj 90 -63 v \$0-pitch1;
#X obj 110 -36 v \$0-osc1amt;
#X obj 130 -6 v \$0-fb1;
#X obj 149 16 v \$0-del1;
#X obj 163 49 v \$0-pw1;
#X obj 180 70 v \$0-osc1shape;
#X obj 194 97 v \$0-pan1;
#X obj 259 -28 v \$0-pitch2;
#X obj 280 4 v \$0-osc2amt;
#X obj 297 33 v \$0-fb2;
#X obj 312 62 v \$0-del2;
#X obj 324 89 v \$0-pw2;
#X obj 337 114 v \$0-osc2shape;
#X obj 345 136 v \$0-pan2;
#X obj 441 -25 v \$0-scrub;
#X obj 456 10 v \$0-lop;
#X obj 476 42 v \$0-hip;
#X obj 489 78 v \$0-osc1to2;
#X obj 509 110 v \$0-osc2to1;
#X obj 608 -23 v \$0-delmodspd;
#X obj 629 14 v \$0-delmod;
#X connect 0 0 21 0;
#X connect 1 0 22 0;
#X connect 2 0 23 0;
#X connect 3 0 24 0;
#X connect 4 0 28 0;
#X connect 5 0 29 0;
#X connect 6 0 30 0;
#X connect 7 0 31 0;
#X connect 8 0 35 0;
#X connect 9 0 36 0;
#X connect 10 0 37 0;
#X connect 11 0 38 0;
#X connect 12 0 39 0;
#X connect 13 0 25 0;
#X connect 14 0 26 0;
#X connect 15 0 27 0;
#X connect 16 0 32 0;
#X connect 17 0 33 0;
#X connect 18 0 34 0;
#X connect 19 0 40 0;
#X connect 20 0 41 0;
#X restore 342 68 pd vals;
#X obj 536 8 bng 15 250 50 0 empty empty empty 17 7 0 10 -262144 -1
-1;
#N canvas 322 209 890 467 osc1walks 0;
#X obj 90 4 v \$0-pitch1;
#X obj 34 -22 t b b;
#X obj 34 50 +;
#X obj 34 94 s \$0-pitch1rcv;
#X obj 34 -45 spigot;
#X obj 93 -78 r \$0-pitch1walksnd;
#X obj 209 -19 t b b;
#X obj 208 73 +;
#X obj 209 -42 spigot;
#X obj 268 -75 r \$0-del1walksnd;
#X obj 283 8 v \$0-del1;
#X obj 208 7 random 1000;
#X obj 209 29 - 500;
#X obj 207 116 s \$0-del1rcv;
#X obj 374 -20 t b b;
#X obj 374 72 +;
#X obj 374 -43 spigot;
#X obj 373 6 random 1000;
#X obj 374 28 - 500;
#X obj 374 50 / 10000;
#X obj 433 -76 r \$0-fb1walksnd;
#X obj 448 7 v \$0-fb1;
#X obj 375 116 s \$0-fb1rcv;
#X obj 529 -18 t b b;
#X obj 528 81 +;
#X obj 529 -41 spigot;
#X obj 528 8 random 1000;
#X obj 529 30 - 500;
#X obj 529 52 / 10000;
#X obj 588 -74 r \$0-osc1amtwalksnd;
#X obj 603 9 v \$0-osc1amt;
#X obj 528 104 s \$0-osc1amtrcv;
#X obj 701 -10 t b b;
#X obj 700 89 +;
#X obj 701 -33 spigot;
#X obj 700 16 random 1000;
#X obj 701 60 / 10000;
#X obj 760 -66 r \$0-pw1walksnd;
#X obj 775 17 v \$0-pw1;
#X obj 700 135 s \$0-pw1rcv;
#X obj 26 165 t b b;
#X obj 25 264 +;
#X obj 26 142 spigot;
#X obj 25 191 random 1000;
#X obj 26 213 - 500;
#X obj 26 235 / 10000;
#X obj 66 116 r \$0-osc1shapewalksnd;
#X obj 100 192 v \$0-osc1shape;
#X obj 27 310 s \$0-osc1shapercv;
#X obj 233 184 t b b;
#X obj 232 283 +;
#X obj 233 161 spigot;
#X obj 232 210 random 1000;
#X obj 233 232 - 500;
#X obj 233 254 / 10000;
#X obj 232 305 clip -1 1;
#X obj 25 286 clip 0 1;
#X obj 374 94 clip 0.1 1;
#X obj 208 95 clip 0 8000;
#X obj 34 72 clip -128 48;
#X obj 560 215 r \$0-randomwalkbang;
#X obj 273 135 r \$0-pan1walksnd;
#X obj 307 211 v \$0-pan1;
#X obj 234 329 s \$0-pan1rcv;
#X obj 209 51 / 30000;
#X obj 33 4 random 5;
#X obj 34 26 - 2;
#X obj 701 38 - 800;
#X obj 700 111 clip -0.999 1;
#X connect 0 0 2 1;
#X connect 1 0 65 0;
#X connect 1 1 0 0;
#X connect 2 0 59 0;
#X connect 4 0 1 0;
#X connect 5 0 4 1;
#X connect 6 0 11 0;
#X connect 6 1 10 0;
#X connect 7 0 58 0;
#X connect 8 0 6 0;
#X connect 9 0 8 1;
#X connect 10 0 7 1;
#X connect 11 0 12 0;
#X connect 12 0 64 0;
#X connect 14 0 17 0;
#X connect 14 1 21 0;
#X connect 15 0 57 0;
#X connect 16 0 14 0;
#X connect 17 0 18 0;
#X connect 18 0 19 0;
#X connect 19 0 15 0;
#X connect 20 0 16 1;
#X connect 21 0 15 1;
#X connect 23 0 26 0;
#X connect 23 1 30 0;
#X connect 24 0 31 0;
#X connect 25 0 23 0;
#X connect 26 0 27 0;
#X connect 27 0 28 0;
#X connect 28 0 24 0;
#X connect 29 0 25 1;
#X connect 30 0 24 1;
#X connect 32 0 35 0;
#X connect 32 1 38 0;
#X connect 33 0 68 0;
#X connect 34 0 32 0;
#X connect 35 0 67 0;
#X connect 36 0 33 0;
#X connect 37 0 34 1;
#X connect 38 0 33 1;
#X connect 40 0 43 0;
#X connect 40 1 47 0;
#X connect 41 0 56 0;
#X connect 42 0 40 0;
#X connect 43 0 44 0;
#X connect 44 0 45 0;
#X connect 45 0 41 0;
#X connect 46 0 42 1;
#X connect 47 0 41 1;
#X connect 49 0 52 0;
#X connect 49 1 62 0;
#X connect 50 0 55 0;
#X connect 51 0 49 0;
#X connect 52 0 53 0;
#X connect 53 0 54 0;
#X connect 54 0 50 0;
#X connect 55 0 63 0;
#X connect 56 0 48 0;
#X connect 57 0 22 0;
#X connect 58 0 13 0;
#X connect 59 0 3 0;
#X connect 60 0 51 0;
#X connect 60 0 34 0;
#X connect 60 0 25 0;
#X connect 60 0 16 0;
#X connect 60 0 8 0;
#X connect 60 0 4 0;
#X connect 60 0 42 0;
#X connect 61 0 51 1;
#X connect 62 0 50 1;
#X connect 64 0 7 0;
#X connect 65 0 66 0;
#X connect 66 0 2 0;
#X connect 67 0 36 0;
#X connect 68 0 39 0;
#X restore 142 163 pd osc1walks;
#N canvas 0 24 1360 692 osc2walks 0;
#X obj 29 -291 t b b;
#X obj 29 -219 +;
#X obj 29 -314 spigot;
#X obj 204 -288 t b b;
#X obj 203 -196 +;
#X obj 204 -311 spigot;
#X obj 203 -262 random 1000;
#X obj 204 -240 - 500;
#X obj 369 -289 t b b;
#X obj 369 -197 +;
#X obj 369 -312 spigot;
#X obj 368 -263 random 1000;
#X obj 369 -241 - 500;
#X obj 369 -219 / 10000;
#X obj 524 -287 t b b;
#X obj 523 -188 +;
#X obj 524 -310 spigot;
#X obj 523 -261 random 1000;
#X obj 524 -239 - 500;
#X obj 524 -217 / 10000;
#X obj 696 -279 t b b;
#X obj 695 -180 +;
#X obj 696 -302 spigot;
#X obj 695 -253 random 1000;
#X obj 696 -209 / 10000;
#X obj 21 -104 t b b;
#X obj 20 -5 +;
#X obj 21 -127 spigot;
#X obj 20 -78 random 1000;
#X obj 21 -56 - 500;
#X obj 21 -34 / 10000;
#X obj 228 -85 t b b;
#X obj 227 14 +;
#X obj 228 -108 spigot;
#X obj 227 -59 random 1000;
#X obj 228 -37 - 500;
#X obj 228 -15 / 10000;
#X obj 227 36 clip -1 1;
#X obj 20 17 clip 0 1;
#X obj 369 -175 clip 0.1 1;
#X obj 203 -174 clip 0 8000;
#X obj 29 -197 clip -128 48;
#X obj 555 -54 r \$0-randomwalkbang;
#X obj 88 -347 r \$0-pitch2walksnd;
#X obj 85 -265 v \$0-pitch2;
#X obj 29 -175 s \$0-pitch2rcv;
#X obj 263 -344 r \$0-del2walksnd;
#X obj 278 -261 v \$0-del2;
#X obj 202 -153 s \$0-del2rcv;
#X obj 428 -345 r \$0-fb2walksnd;
#X obj 443 -262 v \$0-fb2;
#X obj 370 -153 s \$0-fb2rcv;
#X obj 582 -343 r \$0-osc2amtwalksnd;
#X obj 598 -260 v \$0-osc2amt;
#X obj 518 -164 s \$0-osc2amtrcv;
#X obj 754 -335 r \$0-pw2walksnd;
#X obj 770 -252 v \$0-pw2;
#X obj 695 -134 s \$0-pw2rcv;
#X obj 95 -78 v \$0-osc2shape;
#X obj 61 -153 r \$0-osc2shapewalksnd;
#X obj 18 41 s \$0-osc2shapercv;
#X obj 268 -134 r \$0-pan2walksnd;
#X obj 302 -58 v \$0-pan2;
#X obj 228 60 s \$0-pan2rcv;
#X obj 204 -218 / 30000;
#X obj 28 -265 random 5;
#X obj 29 -243 - 2;
#X obj 696 -231 - 800;
#X obj 695 -158 clip -0.999 1;
#X connect 0 0 65 0;
#X connect 0 1 44 0;
#X connect 1 0 41 0;
#X connect 2 0 0 0;
#X connect 3 0 6 0;
#X connect 3 1 47 0;
#X connect 4 0 40 0;
#X connect 5 0 3 0;
#X connect 6 0 7 0;
#X connect 7 0 64 0;
#X connect 8 0 11 0;
#X connect 8 1 50 0;
#X connect 9 0 39 0;
#X connect 10 0 8 0;
#X connect 11 0 12 0;
#X connect 12 0 13 0;
#X connect 13 0 9 0;
#X connect 14 0 17 0;
#X connect 14 1 53 0;
#X connect 15 0 54 0;
#X connect 16 0 14 0;
#X connect 17 0 18 0;
#X connect 18 0 19 0;
#X connect 19 0 15 0;
#X connect 20 0 23 0;
#X connect 20 1 56 0;
#X connect 21 0 68 0;
#X connect 22 0 20 0;
#X connect 23 0 67 0;
#X connect 24 0 21 0;
#X connect 25 0 28 0;
#X connect 25 1 58 0;
#X connect 26 0 38 0;
#X connect 27 0 25 0;
#X connect 28 0 29 0;
#X connect 29 0 30 0;
#X connect 30 0 26 0;
#X connect 31 0 34 0;
#X connect 31 1 62 0;
#X connect 32 0 37 0;
#X connect 33 0 31 0;
#X connect 34 0 35 0;
#X connect 35 0 36 0;
#X connect 36 0 32 0;
#X connect 37 0 63 0;
#X connect 38 0 60 0;
#X connect 39 0 51 0;
#X connect 40 0 48 0;
#X connect 41 0 45 0;
#X connect 42 0 33 0;
#X connect 42 0 22 0;
#X connect 42 0 16 0;
#X connect 42 0 10 0;
#X connect 42 0 5 0;
#X connect 42 0 2 0;
#X connect 42 0 27 0;
#X connect 43 0 2 1;
#X connect 44 0 1 1;
#X connect 46 0 5 1;
#X connect 47 0 4 1;
#X connect 49 0 10 1;
#X connect 50 0 9 1;
#X connect 52 0 16 1;
#X connect 53 0 15 1;
#X connect 55 0 22 1;
#X connect 56 0 21 1;
#X connect 58 0 26 1;
#X connect 59 0 27 1;
#X connect 61 0 33 1;
#X connect 62 0 32 1;
#X connect 64 0 4 0;
#X connect 65 0 66 0;
#X connect 66 0 1 0;
#X connect 67 0 24 0;
#X connect 68 0 57 0;
#X restore 231 166 pd osc2walks;
#X obj 525 128 metro 1500;
#X obj 526 223 s \$0-randomwalkbang;
#X obj 560 160 random 2500;
#X obj 560 182 + 150;
#X obj 529 70 tgl 15 0 empty empty empty 17 7 0 10 -262144 -1 -1 0
1;
#N canvas 306 185 940 530 globalwalks 0;
#X obj 29 -22 t b b;
#X obj 29 80 +;
#X obj 29 -45 spigot;
#X obj 107 5 v \$0-scrub;
#X obj 29 124 s \$0-scrubrcv;
#X obj 29 102 clip -1 1;
#X obj 28 4 random 1000;
#X obj 29 26 - 500;
#X obj 153 -38 bng 15 250 50 0 empty empty empty 17 7 0 10 -262144
-1 -1;
#X obj 218 -17 t b b;
#X obj 217 77 +;
#X obj 218 -40 spigot;
#X obj 217 9 random 1000;
#X obj 218 31 - 500;
#X obj 342 -33 bng 15 250 50 0 empty empty empty 17 7 0 10 -262144
-1 -1;
#X obj 277 -73 r \$0-lopwalksnd;
#X obj 296 10 v \$0-lop;
#X obj 216 121 s \$0-loprcv;
#X obj 218 53 / 50;
#X floatatom 296 32 5 0 0 0 - - -, f 5;
#X obj 216 100 clip 45 15000;
#X obj 399 -9 t b b;
#X obj 398 85 +;
#X obj 399 -32 spigot;
#X obj 398 17 random 1000;
#X obj 523 -25 bng 15 250 50 0 empty empty empty 17 7 0 10 -262144
-1 -1;
#X floatatom 477 40 5 0 0 0 - - -, f 5;
#X obj 458 -65 r \$0-hipwalksnd;
#X obj 477 18 v \$0-hip;
#X obj 397 129 s \$0-hiprcv;
#X obj 28 217 t b b;
#X obj 28 319 +;
#X obj 28 194 spigot;
#X obj 27 243 random 1000;
#X obj 28 265 - 500;
#X obj 28 287 / 10000;
#X obj 152 201 bng 15 250 50 0 empty empty empty 17 7 0 10 -262144
-1 -1;
#X obj 87 161 r \$0-osc1to2walksnd;
#X obj 106 244 v \$0-osc1to2;
#X obj 28 363 s \$0-osc1to2rcv;
#X obj 28 341 clip 0 1;
#X obj 218 217 t b b;
#X obj 218 319 +;
#X obj 218 194 spigot;
#X obj 217 243 random 1000;
#X obj 218 265 - 500;
#X obj 218 287 / 10000;
#X obj 218 341 clip 0 1;
#X obj 277 161 r \$0-osc2to1walksnd;
#X obj 296 244 v \$0-osc2to1;
#X obj 218 363 s \$0-osc2to1rcv;
#X obj 596 140 r \$0-randomwalkbang;
#X floatatom 359 109 5 0 0 0 - - -, f 5;
#X obj 88 -78 r \$0-scrubwalksnd;
#X obj 398 108 clip 0.01 8000;
#X obj 29 48 / 7000;
#X obj 399 60 / 4000;
#X obj 399 39 - 600;
#X connect 0 0 6 0;
#X connect 0 1 3 0;
#X connect 1 0 5 0;
#X connect 2 0 0 0;
#X connect 3 0 1 1;
#X connect 5 0 4 0;
#X connect 6 0 7 0;
#X connect 7 0 55 0;
#X connect 8 0 0 0;
#X connect 9 0 12 0;
#X connect 9 1 16 0;
#X connect 10 0 20 0;
#X connect 11 0 9 0;
#X connect 12 0 13 0;
#X connect 13 0 18 0;
#X connect 14 0 9 0;
#X connect 15 0 11 1;
#X connect 16 0 10 1;
#X connect 16 0 19 0;
#X connect 18 0 10 0;
#X connect 20 0 17 0;
#X connect 21 0 24 0;
#X connect 21 1 28 0;
#X connect 22 0 52 0;
#X connect 22 0 54 0;
#X connect 23 0 21 0;
#X connect 24 0 57 0;
#X connect 25 0 21 0;
#X connect 27 0 23 1;
#X connect 28 0 22 1;
#X connect 28 0 26 0;
#X connect 30 0 33 0;
#X connect 30 1 38 0;
#X connect 31 0 40 0;
#X connect 32 0 30 0;
#X connect 33 0 34 0;
#X connect 34 0 35 0;
#X connect 35 0 31 0;
#X connect 36 0 30 0;
#X connect 37 0 32 1;
#X connect 38 0 31 1;
#X connect 40 0 39 0;
#X connect 41 0 44 0;
#X connect 41 1 49 0;
#X connect 42 0 47 0;
#X connect 43 0 41 0;
#X connect 44 0 45 0;
#X connect 45 0 46 0;
#X connect 46 0 42 0;
#X connect 47 0 50 0;
#X connect 48 0 43 1;
#X connect 49 0 42 1;
#X connect 51 0 23 0;
#X connect 51 0 11 0;
#X connect 51 0 2 0;
#X connect 51 0 32 0;
#X connect 51 0 43 0;
#X connect 53 0 2 1;
#X connect 54 0 29 0;
#X connect 55 0 1 0;
#X connect 56 0 22 0;
#X connect 57 0 56 0;
#X restore 187 233 pd globalwalks;
#X obj 613 60 r \$0-walkonsnd;
#X obj 644 94 r \$0-walkspeedsnd;
#X connect 4 0 5 0;
#X connect 4 0 6 0;
#X connect 6 0 7 0;
#X connect 7 0 4 1;
#X connect 8 0 4 0;
#X connect 10 0 4 0;
#X connect 11 0 6 1;
#X restore 956 326 pd randomwalks;
#X obj 283 490 tgl 35 0 \$0-scrubwalksnd \$0-scrubwalkrcv empty 17
7 0 10 -262144 -1 -1 0 1;
#X obj 322 490 tgl 35 0 \$0-lopwalksnd \$0-lopwalkrcv empty 17 7 0
10 -262144 -1 -1 0 1;
#X obj 363 490 tgl 35 0 \$0-hipwalksnd \$0-hipwalkrcv empty 17 7 0
10 -262144 -1 -1 0 1;
#X obj 403 490 tgl 35 0 \$0-osc1to2walksnd \$0-osc1to2walkrcv empty
17 7 0 10 -262144 -1 -1 0 1;
#X obj 443 490 tgl 35 0 \$0-osc2to1walksnd \$0-osc2to1walkrcv empty
17 7 0 10 -262144 -1 -1 0 1;
#X obj 808 289 tgl 35 0 \$0-walkonsnd \$0-walkonrcv walk 17 7 0 10
-262144 -1 -1 0 1;
#X obj 865 297 nbx 8 20 100 10000 0 0 \$0-walkspeedsnd \$0-walkspeedrcv
walkspeed 0 -8 0 10 -262144 -1 -1 100 256 0;
#X obj 39 529 tgl 35 0 \$0-pitch1walksnd \$0-pitch1walkrcv empty 17
7 0 10 -262144 -1 -1 0 1;
#X obj 84 515 tgl 35 0 \$0-del1walksnd \$0-del1walkrcv empty 17 7 0
10 -262144 -1 -1 0 1;
#X obj 130 486 tgl 35 0 \$0-fb1walksnd \$0-fb1walkrcv empty 17 7 0
10 -262144 -1 -1 0 1;
#X obj 176 448 tgl 35 0 \$0-osc1amtwalksnd \$0-osc1amtwalkrcv empty
17 7 0 10 -262144 -1 -1 0 1;
#X obj 650 512 tgl 35 0 \$0-del2walksnd \$0-del2walkrcv empty 17 7
0 10 -262144 -1 -1 0 1;
#X obj 696 533 tgl 35 0 \$0-pitch2walksnd \$0-pitch2walkrcv empty 17
7 0 10 -262144 -1 -1 0 1;
#X obj 605 485 tgl 35 0 \$0-fb2walksnd \$0-fb2walkrcv empty 17 7 0
10 -262144 -1 -1 0 1;
#X obj 560 448 tgl 35 0 \$0-osc2amtwalksnd \$0-osc2amtwalkrcv empty
17 7 0 10 -262144 -1 -1 0 1;
#X obj 227 578 tgl 15 0 \$0-pw1walksnd \$0-pw1walkrcv empty 17 7 0
10 -262144 -1 -1 0 1;
#X obj 213 604 tgl 15 0 \$0-osc1shapewalksnd \$0-osc1shapewalkrcv empty
17 7 0 10 -262144 -1 -1 0 1;
#X obj 198 631 tgl 15 0 \$0-pan1walksnd \$0-pan1walkrcv empty 17 7
0 10 -262144 -1 -1 0 1;
#X obj 744 582 tgl 15 0 \$0-pw2walksnd \$0-pw2walkrcv empty 17 7 0
10 -262144 -1 -1 0 1;
#X obj 730 608 tgl 15 0 \$0-osc2shapewalksnd \$0-osc2shapewalkrcv empty
17 7 0 10 -262144 -1 -1 0 1;
#X obj 715 635 tgl 15 0 \$0-pan2walksnd \$0-pan2walkrcv empty 17 7
0 10 -262144 -1 -1 0 1;
#X obj 925 380 sampler3 0 171 0 150 0 0 /home/ada/Documents/soundlibrary/click/selectClix1.wav
;
#X obj 486 223 vradio 35 0 0 5 \$0-upsampsnd \$0-upsamprcv upsamp 0
-8 0 10 -262144 -1 -1 0;
#X obj 735 37 vsl 10 490 0 1 0 0 empty \$0-phase2 empty 0 -9 0 10 -262144
-1 -1 41538 1;
#X obj 25 30 vsl 10 490 0 1 0 0 empty \$0-phase1 empty 0 -9 0 10 -262144
-1 -1 26738 1;
#X obj 1257 67 tgl 35 0 \$0-onoff empty on/off 17 7 0 10 -262144 -1
-1 1 1;
#X connect 2 0 15 0;
#X connect 2 0 28 0;
#X connect 2 1 15 1;
#X connect 2 1 29 0;
#X connect 52 0 2 0;
