#N canvas 0 24 1600 826 10;
#X obj 698 45 cnv 15 111 653 empty empty empty 20 12 0 14 -241331 -66577
0;
#X obj 539 45 cnv 15 150 326 empty empty empty 20 12 0 14 -257246 -66577
0;
#X obj 347 45 cnv 15 191 326 empty empty empty 20 12 0 14 -240494 -66577
0;
#X obj 1225 678 output;
#X obj 1225 520 mixer4 0.126219 0.304191 0.337357 0.0752323 0 0 0 0
1 0 0 0 1 0;
#N canvas 801 24 798 825 soundstuff 1;
#X obj 59 353 *~;
#X obj 71 207 smoother 15;
#X obj 359 330 *~;
#X obj 162 375 cos~;
#X obj 162 402 *~;
#X obj 59 503 lop~;
#X obj 18 54 maxlib/scale 0 1 30 102;
#X obj 53 29 r \$0-xcoordsnd;
#X obj 58 83 r \$0-del1snd;
#X obj 58 105 - 0.1;
#X obj 331 102 - 0.1;
#X obj 331 80 r \$0-del2snd;
#X obj 206 345 r \$0-phasefbsnd;
#N canvas 279 315 450 323 fb1receives 0;
#X obj 82 198 * -1;
#X obj 185 111 t b f;
#X obj 186 81 +;
#X obj 216 50 t b f;
#X obj 225 125 r \$0-invert1snd;
#X obj 225 147 * 2;
#X obj 225 169 - 1;
#X obj 225 191 t b f;
#X obj 59 91 r \$0-fb1finesnd;
#X obj 126 39 r \$0-fb1snd;
#X obj 81 145 +;
#X obj 106 169 s \$0-fb1disp;
#X obj 220 24 r \$0-fb1kicksnd;
#X obj 81 273 outlet;
#X obj 336 50 r \$0-globalfbsnd;
#X obj 82 220 *;
#X obj 336 72 t b f;
#X connect 0 0 15 0;
#X connect 1 0 10 0;
#X connect 1 1 10 1;
#X connect 2 0 1 0;
#X connect 3 0 2 0;
#X connect 3 1 2 1;
#X connect 4 0 5 0;
#X connect 5 0 6 0;
#X connect 6 0 7 0;
#X connect 7 0 0 0;
#X connect 7 1 0 1;
#X connect 8 0 10 0;
#X connect 9 0 2 0;
#X connect 10 0 0 0;
#X connect 10 0 11 0;
#X connect 12 0 3 0;
#X connect 14 0 16 0;
#X connect 15 0 13 0;
#X connect 16 0 15 0;
#X connect 16 1 15 1;
#X restore 71 182 pd fb1receives;
#X obj 382 206 smoother 15;
#N canvas 278 291 450 323 fb2receives 0;
#X obj 82 198 * -1;
#X obj 185 111 t b f;
#X obj 186 81 +;
#X obj 216 50 t b f;
#X obj 225 147 * 2;
#X obj 225 169 - 1;
#X obj 225 191 t b f;
#X obj 81 145 +;
#X obj 83 252 outlet;
#X obj 126 39 r \$0-fb2snd;
#X obj 220 24 r \$0-fb2kicksnd;
#X obj 59 91 r \$0-fb2finesnd;
#X obj 107 170 s \$0-fb2disp;
#X obj 225 125 r \$0-invert2snd;
#X obj 333 50 r \$0-globalfbsnd;
#X obj 333 72 t b f;
#X obj 82 220 *;
#X connect 0 0 16 0;
#X connect 1 0 7 0;
#X connect 1 1 7 1;
#X connect 2 0 1 0;
#X connect 3 0 2 0;
#X connect 3 1 2 1;
#X connect 4 0 5 0;
#X connect 5 0 6 0;
#X connect 6 0 0 0;
#X connect 6 1 0 1;
#X connect 7 0 0 0;
#X connect 7 0 12 0;
#X connect 9 0 2 0;
#X connect 10 0 3 0;
#X connect 11 0 7 0;
#X connect 13 0 4 0;
#X connect 14 0 15 0;
#X connect 15 0 16 0;
#X connect 15 1 16 1;
#X connect 16 0 8 0;
#X restore 382 181 pd fb2receives;
#N canvas 450 178 752 529 crossfeeds 0;
#X obj 47 237 outlet~ L1;
#X obj 131 235 outlet~ L2;
#X obj 307 422 outlet~ aux1;
#X obj 433 422 outlet~ aux2;
#X obj 55 33 inlet~ fb1;
#X obj 120 32 inlet~ fb2;
#X obj 297 227 r \$0-f1a1snd;
#X obj 270 352 *~ 0;
#X obj 306 351 *~ 0;
#X obj 451 344 *~ 0;
#X obj 488 343 *~ 0;
#X obj 329 249 r \$0-f2a1snd;
#X obj 422 211 r \$0-f1a2snd;
#X obj 453 231 r \$0-f2a2snd;
#X connect 4 0 0 0;
#X connect 4 0 7 0;
#X connect 4 0 9 0;
#X connect 5 0 1 0;
#X connect 5 0 8 0;
#X connect 5 0 10 0;
#X connect 6 0 7 1;
#X connect 7 0 2 0;
#X connect 8 0 2 0;
#X connect 9 0 3 0;
#X connect 10 0 3 0;
#X connect 11 0 8 1;
#X connect 12 0 9 1;
#X connect 13 0 10 1;
#X restore 338 626 pd crossfeeds;
#X obj 51 138 smoother 2;
#X obj 321 134 smoother 2;
#X obj 33 228 delread4~ \$0-fb1;
#X obj 328 227 delread4~ \$0-fb2;
#X obj 74 678 outlet~;
#X obj 126 678 outlet~;
#X obj 585 273 r \$0-yscrubprocessedsnd;
#X obj 634 292 r \$0-xscrubprocessedsnd;
#N canvas 577 323 672 403 auxmatrix 0;
#X obj 103 292 outlet~ fb1;
#X obj 137 318 outlet~ fb2;
#X obj 149 229 *~;
#X obj 154 256 *~;
#X obj 304 231 *~;
#X obj 309 258 *~;
#X obj 230 141 r \$0-a1f1snd;
#X obj 230 163 r \$0-a1f2snd;
#X obj 332 145 r \$0-a2f1snd;
#X obj 332 167 r \$0-a2f2snd;
#X floatatom 350 318 5 0 0 0 - - -, f 5;
#X obj 152 98 *~;
#X obj 363 96 *~;
#X obj 93 15 inlet~;
#X obj 354 22 inlet~;
#X obj 165 12 r \$0-aux1volsnd;
#X obj 453 35 r \$0-aux2volsnd;
#X obj 396 343 outlet~ fxloopL;
#X obj 509 344 outlet~ fxloopR;
#X obj 517 201 r \$0-a2fxlsnd;
#X obj 559 230 r \$0-a2fxrsnd;
#X obj 502 258 *~;
#X obj 539 261 *~;
#X obj 422 264 *~;
#X obj 459 267 *~;
#X obj 492 151 r \$0-a1fxlsnd;
#X obj 516 176 r \$0-a1fxrsnd;
#X obj 165 34 smoother 15;
#X obj 433 74 smoother 15;
#X connect 2 0 0 0;
#X connect 3 0 1 0;
#X connect 4 0 0 0;
#X connect 5 0 1 0;
#X connect 6 0 2 1;
#X connect 7 0 3 1;
#X connect 8 0 4 1;
#X connect 9 0 5 1;
#X connect 11 0 2 0;
#X connect 11 0 3 0;
#X connect 11 0 23 0;
#X connect 11 0 24 0;
#X connect 12 0 4 0;
#X connect 12 0 5 0;
#X connect 12 0 21 0;
#X connect 12 0 22 0;
#X connect 13 0 11 0;
#X connect 14 0 12 0;
#X connect 15 0 27 0;
#X connect 16 0 28 0;
#X connect 19 0 21 1;
#X connect 20 0 22 1;
#X connect 21 0 17 0;
#X connect 22 0 18 0;
#X connect 23 0 17 0;
#X connect 24 0 18 0;
#X connect 25 0 23 1;
#X connect 26 0 24 1;
#X connect 27 0 11 1;
#X connect 28 0 12 1;
#X restore 555 191 pd auxmatrix;
#X obj 532 135 delread4~ \$0-aux1;
#X obj 642 135 delread4~ \$0-aux2;
#X floatatom 529 102 5 0 3500 0 - - -, f 5;
#X obj 443 715 delwrite~ \$0-aux1 3500;
#X obj 477 691 delwrite~ \$0-aux2 3500;
#X obj 350 495 lop~;
#X floatatom 634 85 5 0 3500 0 - - -, f 5;
#X obj 203 368 smoother 10;
#X obj 85 464 r \$0-fb1cutoffsnd;
#X obj 397 446 r \$0-fb2cutoffsnd;
#X obj 557 433 switch~ 1 1 1;
#X obj 564 386 r \$0-onoff;
#X obj 593 236 outlet~ aux1;
#X obj 674 241 outlet~ aux2;
#X obj 485 24 inlet~;
#X obj 583 22 inlet~;
#N canvas 357 213 1052 553 eqsoundthings 0;
#X obj 210 -134 inlet~;
#X msg 93 -102 bw;
#X obj 83 -162 initbang;
#X obj 255 -72 r \$0-band1snd;
#X obj 294 -102 r \$0-band2snd;
#X obj 362 -71 r \$0-band3snd;
#X obj 412 -113 r \$0-band4snd;
#X obj 467 -67 r \$0-band5snd;
#X obj 514 -101 r \$0-band6snd;
#X obj 210 210 outlet~;
#X obj 666 -39 r \$0-eqbwsnd;
#X obj 51 93 lowshelf~ 150 0.5, f 9;
#X obj 121 98 eq~ 300 1;
#X obj 195 98 eq~ 900 1;
#X obj 268 99 eq~ 2700 1;
#X obj 343 97 eq~ 8100 1;
#X obj 420 98 highshelf~ 12000 0.5, f 10;
#X obj 210 185 *~ 0.2;
#X connect 0 0 11 0;
#X connect 0 0 12 0;
#X connect 0 0 13 0;
#X connect 0 0 14 0;
#X connect 0 0 15 0;
#X connect 0 0 16 0;
#X connect 1 0 12 0;
#X connect 1 0 13 0;
#X connect 1 0 14 0;
#X connect 1 0 15 0;
#X connect 2 0 1 0;
#X connect 3 0 11 3;
#X connect 4 0 12 3;
#X connect 5 0 13 3;
#X connect 6 0 14 3;
#X connect 7 0 15 3;
#X connect 8 0 16 3;
#X connect 10 0 12 2;
#X connect 10 0 13 2;
#X connect 10 0 14 2;
#X connect 10 0 15 2;
#X connect 11 0 17 0;
#X connect 12 0 17 0;
#X connect 13 0 17 0;
#X connect 14 0 17 0;
#X connect 15 0 17 0;
#X connect 16 0 17 0;
#X connect 17 0 9 0;
#X restore 60 420 pd eqsoundthings;
#X obj 305 750 delwrite~ \$0-fb2bypass 10;
#X obj 166 223 delread4~ \$0-fb1bypass;
#X obj 108 309 adapan;
#X obj 172 259 r \$0-fb1drywetsnd;
#X obj 172 281 smoother 10;
#X obj 59 525 *~;
#X obj 135 511 r \$0-fb1mutesnd;
#X obj 96 635 *~;
#X obj 136 597 r \$0-fb1delmutesnd;
#X obj 244 730 delwrite~ \$0-fb1 3000;
#X obj 331 784 delwrite~ \$0-fb2 3000;
#X obj 171 704 delwrite~ \$0-fb1bypass 100;
#X obj 158 88 r \$0-del1bsnd;
#X obj 158 110 - 0.1;
#X obj 158 132 smoother 4;
#X obj 351 522 *~;
#X obj 416 592 *~;
#X obj 474 503 r \$0-fb2mutesnd;
#X obj 499 576 r \$0-fb2delmutesnd;
#X floatatom 103 112 5 0 0 0 - - -, f 5;
#X floatatom 381 106 5 0 0 0 - - -, f 5;
#X floatatom 468 214 5 0 0 0 - - -, f 5;
#X floatatom 184 198 5 0 0 0 - - -, f 5;
#X floatatom 100 487 5 0 0 0 - - -, f 5;
#X floatatom 397 468 5 0 0 0 - - -, f 5;
#X obj 59 547 hip~;
#X obj 137 539 r \$0-fb1hipsnd;
#X obj 137 561 - 0.1;
#X obj 351 547 hip~;
#X obj 457 552 - 0.1;
#X obj 447 524 r \$0-fb2hipsnd;
#X connect 0 0 42 0;
#X connect 1 0 0 1;
#X connect 2 0 31 0;
#X connect 3 0 4 0;
#X connect 5 0 48 0;
#X connect 7 0 6 0;
#X connect 8 0 9 0;
#X connect 8 0 62 0;
#X connect 9 0 17 0;
#X connect 10 0 18 0;
#X connect 11 0 10 0;
#X connect 11 0 63 0;
#X connect 12 0 33 0;
#X connect 13 0 1 0;
#X connect 13 0 65 0;
#X connect 14 0 2 1;
#X connect 15 0 14 0;
#X connect 15 0 64 0;
#X connect 16 0 52 0;
#X connect 16 0 54 0;
#X connect 16 1 43 0;
#X connect 16 1 53 0;
#X connect 16 2 29 0;
#X connect 16 3 30 0;
#X connect 17 0 19 0;
#X connect 18 0 20 0;
#X connect 19 0 3 0;
#X connect 19 0 45 0;
#X connect 20 0 2 0;
#X connect 25 0 5 0;
#X connect 25 1 31 0;
#X connect 25 2 38 0;
#X connect 25 3 39 0;
#X connect 26 0 25 0;
#X connect 27 0 25 1;
#X connect 28 0 26 0;
#X connect 31 0 58 0;
#X connect 32 0 27 0;
#X connect 33 0 4 1;
#X connect 34 0 5 1;
#X connect 34 0 66 0;
#X connect 35 0 31 1;
#X connect 35 0 67 0;
#X connect 37 0 36 0;
#X connect 40 0 5 0;
#X connect 41 0 31 0;
#X connect 42 0 5 0;
#X connect 44 0 45 2;
#X connect 45 0 0 0;
#X connect 45 1 0 0;
#X connect 46 0 47 0;
#X connect 47 0 45 1;
#X connect 48 0 68 0;
#X connect 49 0 48 1;
#X connect 50 0 16 0;
#X connect 51 0 50 1;
#X connect 55 0 56 0;
#X connect 56 0 57 0;
#X connect 57 0 44 0;
#X connect 58 0 71 0;
#X connect 59 0 16 1;
#X connect 60 0 58 1;
#X connect 61 0 59 1;
#X connect 68 0 50 0;
#X connect 68 0 21 0;
#X connect 69 0 70 0;
#X connect 70 0 68 1;
#X connect 71 0 59 0;
#X connect 71 0 22 0;
#X connect 72 0 71 1;
#X connect 73 0 72 0;
#X restore 1231 256 pd soundstuff, f 14;
#X obj 1254 495 bus 1;
#X obj 47 590 vsl 20 100 100 15 0 0 \$0-limitsnd \$0-limitrcv lim 0
-9 0 10 -262144 -1 -1 9900 1;
#N canvas 118 238 600 382 limiter2 0;
#X obj 7 14 inlet~;
#X obj 115 56 env~ 1024;
#X obj 115 78 moses;
#X obj 382 18 inlet thresh;
#X obj 238 19 initbang;
#X obj 153 121 expr (($f1 - $f3) / $f2) - $f1 + $f3;
#X obj 153 143 expr 100 + $f1;
#X obj 153 165 dbtorms;
#X msg 116 124 1;
#X obj 115 100 bang;
#X obj 31 233 *~;
#X obj 92 222 line~;
#X obj 33 339 outlet~;
#X msg 317 76 10;
#X obj 379 86 dbtorms, f 15;
#X obj 379 108 expr 1/$f1;
#X obj 31 255 *~;
#X msg 243 52 6;
#X obj 33 165 z~ 1024;
#X obj 404 128 pow 0.85;
#X obj 379 152 smoother 10;
#X msg 112 195 \$1 5;
#X floatatom 153 187 5 0 0 0 - - -, f 5;
#X obj 521 16 inlet~;
#X obj 629 58 env~ 1024;
#X obj 629 80 moses;
#X obj 752 21 initbang;
#X obj 667 123 expr (($f1 - $f3) / $f2) - $f1 + $f3;
#X obj 667 145 expr 100 + $f1;
#X obj 667 167 dbtorms;
#X msg 630 126 1;
#X obj 629 102 bang;
#X obj 545 235 *~;
#X obj 606 224 line~;
#X obj 547 341 outlet~;
#X msg 831 78 10;
#X obj 893 88 dbtorms, f 15;
#X obj 893 110 expr 1/$f1;
#X obj 545 257 *~;
#X msg 757 54 6;
#X obj 547 167 z~ 1024;
#X obj 918 130 pow 0.85;
#X obj 893 154 smoother 10;
#X msg 626 197 \$1 5;
#X floatatom 667 189 5 0 0 0 - - -, f 5;
#X obj 288 237 s \$0-limdispL;
#X obj 802 239 s \$0-limdispR;
#X msg 103 167 \$1 27;
#X msg 617 171 \$1 27;
#X connect 0 0 18 0;
#X connect 0 0 1 0;
#X connect 1 0 2 0;
#X connect 2 0 9 0;
#X connect 2 1 5 0;
#X connect 3 0 5 2;
#X connect 3 0 2 1;
#X connect 3 0 14 0;
#X connect 3 0 36 0;
#X connect 3 0 27 2;
#X connect 3 0 25 1;
#X connect 4 0 17 0;
#X connect 5 0 6 0;
#X connect 6 0 7 0;
#X connect 7 0 21 0;
#X connect 7 0 22 0;
#X connect 7 0 45 0;
#X connect 8 0 47 0;
#X connect 8 0 45 0;
#X connect 9 0 8 0;
#X connect 10 0 16 0;
#X connect 11 0 10 1;
#X connect 13 0 5 2;
#X connect 13 0 2 1;
#X connect 14 0 15 0;
#X connect 15 0 19 0;
#X connect 16 0 12 0;
#X connect 17 0 5 1;
#X connect 18 0 10 0;
#X connect 19 0 20 0;
#X connect 20 0 16 1;
#X connect 21 0 11 0;
#X connect 23 0 40 0;
#X connect 23 0 24 0;
#X connect 24 0 25 0;
#X connect 25 0 31 0;
#X connect 25 1 27 0;
#X connect 26 0 39 0;
#X connect 27 0 28 0;
#X connect 28 0 29 0;
#X connect 29 0 43 0;
#X connect 29 0 44 0;
#X connect 29 0 46 0;
#X connect 30 0 48 0;
#X connect 30 0 46 0;
#X connect 31 0 30 0;
#X connect 32 0 38 0;
#X connect 33 0 32 1;
#X connect 35 0 27 2;
#X connect 35 0 25 1;
#X connect 36 0 37 0;
#X connect 37 0 41 0;
#X connect 38 0 34 0;
#X connect 39 0 27 1;
#X connect 40 0 32 0;
#X connect 41 0 42 0;
#X connect 42 0 38 1;
#X connect 43 0 33 0;
#X connect 47 0 11 0;
#X connect 48 0 33 0;
#X restore 1236 412 pd limiter2;
#X obj 71 589 vsl 8 100 0 1 0 0 \$0-foo \$0-limdispL empty 0 -9 0 10
-262144 -1 -1 9900 1;
#X obj 81 589 vsl 8 100 0 1 0 0 \$0-foo \$0-limdispR empty 0 -9 0 10
-262144 -1 -1 9900 1;
#X obj 1325 370 r \$0-limitsnd;
#X obj 358 301 tgl 25 0 \$0-invert1snd \$0-invert1rcv inv1 -2 31 0
10 -262144 -1 -1 0 1;
#X obj 543 301 tgl 25 0 \$0-invert2snd \$0-invert2rcv inv2 1 32 0 10
-262144 -1 -1 0 1;
#X obj 44 552 nbx 6 15 1 10000 0 0 \$0-yscrubquantsnd \$0-yscrubquantrcv
yscrubquant 0 -8 0 12 -262144 -1 -1 149 256 0;
#X obj 359 70 vsl 20 200 0 4 0 0 \$0-fb1snd \$0-fb1rcv fb1 0 -9 0 10
-262144 -1 -1 5150 1;
#X obj 380 70 vsl 16 200 0 0.0105 0 0 \$0-fb1finesnd \$0-fb1finercv
fb1f 0 -9 0 10 -262144 -1 -1 0 1;
#X obj 360 280 nbx 6 14 -1e+37 1e+37 0 0 empty \$0-fb1disp empty 0
-8 0 11 -262144 -1 -1 1.03518 256 0;
#X obj 704 145 vsl 20 200 0.1 2500 1 0 \$0-del1snd \$0-del1rcv del1
0 -9 0 10 -262144 -1 -1 0 1;
#X obj 776 146 vsl 20 200 0.1 1000 1 0 \$0-del2snd \$0-del2rcv del2
0 -9 0 10 -262144 -1 -1 100 1;
#X obj 458 70 vsl 20 200 0 0.3 0 0 \$0-phasefbsnd \$0-phasefbrcv phzfb
0 -9 0 10 -262144 -1 -1 1600 1;
#X obj 390 301 tgl 25 0 \$0-fb1kicksnd \$0-fb1kickrcv kick -2 31 0
10 -262144 -1 -1 0 0.4;
#X obj 485 69 vsl 20 200 5 16000 1 0 \$0-fb1cutoffsnd \$0-fb1cutoffrcv
cutoff 0 -9 0 10 -262144 -1 -1 19900 1;
#X obj 544 71 vsl 20 200 0 4 0 0 \$0-fb2snd \$0-fb2rcv fb2 0 -9 0 10
-262144 -1 -1 12900 1;
#X obj 565 71 vsl 16 200 0 0.0105 0 0 \$0-fb2finesnd \$0-fb2finercv
fb2f 0 -9 0 10 -262144 -1 -1 0 1;
#X obj 545 280 nbx 6 14 -1e+37 1e+37 0 0 empty \$0-fb2disp empty 0
-8 0 11 -262144 -1 -1 2.59296 256 0;
#X obj 411 70 vsl 20 200 0 0.991 0 0 \$0-f1a1snd \$0-f1a1rcv f1a1 0
-9 0 10 -262144 -1 -1 13200 1;
#X obj 434 70 vsl 20 200 0 1 0 0 \$0-f1a2snd \$0-f1a2rcv f1a2 0 -9
0 10 -262144 -1 -1 0 1;
#X obj 591 71 vsl 20 200 0 1 0 0 \$0-f2a1snd \$0-f2a1rcv f2a1 0 -9
0 10 -262144 -1 -1 0 1;
#X obj 615 71 vsl 20 200 0 1 0 0 \$0-f2a2snd \$0-f2a2rcv f2a2 0 -9
0 10 -262144 -1 -1 0 1;
#X obj 43 521 nbx 6 15 1 10000 0 0 \$0-xscrubquantsnd \$0-xscrubquantrcv
xscrubquant 0 -8 0 12 -262144 -1 -1 108 256 0;
#X obj 575 302 tgl 25 0 \$0-fb2kicksnd \$0-fb2kickrcv kick -2 31 0
10 -262144 -1 -1 0 0.4;
#N canvas 576 299 531 381 pans 0;
#X obj 110 13 inlet~;
#X obj 160 13 inlet~;
#X obj 210 13 inlet~;
#X obj 260 13 inlet~;
#X obj 101 336 outlet~;
#X obj 182 340 outlet~;
#X obj 87 251 adamonopan;
#X obj 160 251 adamonopan;
#X obj 235 252 adamonopan;
#X obj 340 252 adamonopan;
#X obj 117 194 r \$0-fb1pansnd;
#X obj 147 215 r \$0-fb2pansnd;
#X obj 235 192 r \$0-fb3pansnd;
#X obj 324 196 r \$0-fb4pansnd;
#X obj 230 48 r \$0-fb1volsnd;
#X obj 324 46 r \$0-fb2volsnd;
#X obj 418 46 r \$0-fb3volsnd;
#X obj 419 104 r \$0-fb4volsnd;
#X obj 92 102 *~;
#X obj 147 106 *~;
#X obj 203 110 *~;
#X obj 251 109 *~;
#X obj 230 70 smoother 15;
#X obj 324 68 smoother 15;
#X obj 418 68 smoother 15;
#X obj 419 129 smoother 15;
#X connect 0 0 18 0;
#X connect 1 0 19 0;
#X connect 2 0 20 0;
#X connect 3 0 21 0;
#X connect 6 0 4 0;
#X connect 6 1 5 0;
#X connect 7 0 4 0;
#X connect 7 1 5 0;
#X connect 8 0 4 0;
#X connect 8 1 5 0;
#X connect 9 0 4 0;
#X connect 9 1 5 0;
#X connect 10 0 6 1;
#X connect 11 0 7 1;
#X connect 12 0 8 1;
#X connect 13 0 9 1;
#X connect 14 0 22 0;
#X connect 15 0 23 0;
#X connect 16 0 24 0;
#X connect 17 0 25 0;
#X connect 18 0 6 0;
#X connect 19 0 7 0;
#X connect 20 0 8 0;
#X connect 21 0 9 0;
#X connect 22 0 18 1;
#X connect 23 0 19 1;
#X connect 24 0 20 1;
#X connect 25 0 21 1;
#X restore 1249 336 pd pans;
#X obj 381 347 hsl 100 15 1 -1 0 0 \$0-fb1pansnd \$0-fb1panrcv pan1
-2 -8 0 10 -262144 -1 -1 3600 1;
#X obj 547 348 hsl 100 15 1 -1 0 0 \$0-fb2pansnd \$0-fb2panrcv pan2
-2 -8 0 10 -262144 -1 -1 9900 1;
#X obj 184 562 tgl 25 0 \$0-a1f1snd \$0-a1f1rcv empty 6 -16 0 10 -262144
-1 -1 0 -1;
#X obj 184 590 tgl 25 0 \$0-a1f2snd \$0-a1f2rcv empty 6 -16 0 10 -262144
-1 -1 0 -1;
#X text 188 542 a1;
#X text 216 542 a2;
#X text 159 566 f1;
#X text 159 595 f2;
#X obj 212 562 tgl 25 0 \$0-a2f1snd \$0-a2f1rcv empty 6 -16 0 10 -262144
-1 -1 0 -1;
#X obj 212 590 tgl 25 0 \$0-a2f2snd \$0-a2f2rcv empty 6 -16 0 10 -262144
-1 -1 0 -1;
#X obj 253 567 vsl 20 100 0 4 0 0 \$0-aux1volsnd \$0-aux1volrcv a1v
0 -9 0 10 -262144 -1 -1 9700 1;
#X obj 279 566 vsl 20 100 0 1 0 0 \$0-aux2volsnd \$0-aux2volrcv a2v
0 -9 0 10 -262144 -1 -1 9900 1;
#N canvas 608 254 728 519 looooop 0;
#X obj 191 166 r \$0-xcoordraw;
#X obj 319 171 r \$0-ycoordraw;
#X obj 187 219 sig~;
#X obj 343 227 sig~;
#X obj 473 225 delread~ \$0-yloop 5000;
#X obj 418 196 delread~ \$0-xloop 5000;
#X obj 418 218 *~;
#X obj 473 247 *~;
#X obj 108 120 tgl 25 0 \$0-loopbutton \$0-loopbuttonrcv R 10 11 0
10 -261039 -1 -1 0 1;
#X obj 495 136 tgl 25 0 empty empty empty 17 7 0 10 -262144 -1 -1 1
1;
#X obj 489 372 snapshot~;
#X obj 561 372 snapshot~;
#X obj 511 405 pack f f;
#X msg 511 424 values \$1 \$2;
#X obj 678 259 tgl 15 0 empty empty empty 17 7 0 10 -262144 -1 -1 0
1;
#X obj 211 282 *~;
#X obj 349 282 *~;
#X obj 662 339 metro 10;
#X obj 634 149 sel 0;
#X msg 694 242 1;
#X msg 651 239 0;
#X obj 181 335 delwrite~ \$0-xloop 30000;
#X obj 341 338 delwrite~ \$0-yloop 30000;
#X obj 130 25 key;
#X obj 130 47 sel 32;
#X obj 599 181 sel 1 0;
#X obj 678 179 timer;
#X obj 138 120 bng 25 250 50 0 \$0-clearbutton \$0-clearbuttonrcv clear
-2 -6 0 10 -166441 -1 -262144;
#X msg 320 360 flashtime 50 \$1;
#X msg 207 433 0;
#X obj 567 50 r \$0-loopbutton;
#X msg 40 406 color 4;
#X msg 102 406 color 1;
#X obj 178 386 delay;
#X obj 95 355 r \$0-clearbutton;
#X obj 60 438 s \$0-clearbuttonrcv;
#X msg 240 435 1;
#X obj 512 441 s \$0-loopvalues;
#X floatatom 191 75 5 0 0 0 - - -, f 5;
#X obj 393 54 initbang;
#X msg 393 76 1;
#X connect 0 0 2 0;
#X connect 1 0 3 0;
#X connect 2 0 15 0;
#X connect 3 0 16 0;
#X connect 4 0 7 0;
#X connect 5 0 6 0;
#X connect 6 0 10 0;
#X connect 6 0 21 0;
#X connect 7 0 11 0;
#X connect 7 0 22 0;
#X connect 9 0 6 1;
#X connect 9 0 7 1;
#X connect 10 0 12 0;
#X connect 11 0 12 1;
#X connect 12 0 13 0;
#X connect 13 0 37 0;
#X connect 14 0 17 0;
#X connect 15 0 21 0;
#X connect 16 0 22 0;
#X connect 17 0 11 0;
#X connect 17 0 10 0;
#X connect 19 0 14 0;
#X connect 20 0 14 0;
#X connect 23 0 24 0;
#X connect 23 0 38 0;
#X connect 24 0 8 0;
#X connect 25 0 20 0;
#X connect 25 0 26 0;
#X connect 25 1 19 0;
#X connect 25 1 26 1;
#X connect 26 0 4 0;
#X connect 26 0 5 0;
#X connect 26 0 28 0;
#X connect 26 0 33 1;
#X connect 29 0 9 0;
#X connect 29 0 14 0;
#X connect 30 0 15 1;
#X connect 30 0 16 1;
#X connect 30 0 25 0;
#X connect 31 0 35 0;
#X connect 32 0 35 0;
#X connect 33 0 32 0;
#X connect 33 0 36 0;
#X connect 34 0 29 0;
#X connect 34 0 33 0;
#X connect 34 0 31 0;
#X connect 36 0 9 0;
#X connect 39 0 40 0;
#X connect 40 0 9 0;
#X coords 0 -1 1 1 75 40 2 99 109;
#X restore 252 499 pd looooop;
#X obj 116 593 vsl 20 100 15000 10 1 0 \$0-smoothnesssnd \$0-smoothnessrcv
smooth 0 -9 0 10 -262144 -1 -1 0 1;
#X obj 640 71 vsl 20 200 5 16000 1 0 \$0-fb2cutoffsnd \$0-fb2cutoffrcv
cutoff 0 -9 0 10 -262144 -1 -1 19900 1;
#X obj 723 18 tgl 25 0 \$0-onoff empty On/Off 17 7 0 10 -262144 -1
-1 0 1;
#N canvas 577 323 450 300 filter 0;
#X obj 147 49 inlet~;
#X obj 289 48 inlet~;
#X obj 156 107 bob~;
#X obj 294 106 bob~;
#X obj 131 333 outlet~;
#X obj 287 336 outlet~;
#X obj 199 48 r \$0-globalcutoffsnd;
#X obj 349 42 r \$0-globalqsnd;
#X obj 199 70 smoother 15;
#X obj 349 64 smoother 15;
#X obj 19 9 initbang;
#X obj 95 25 r \$0-globaldrivesnd;
#X msg 20 61 saturation \$1;
#X msg 19 31 2;
#X obj 149 173 *~;
#X obj 295 181 *~;
#X obj 36 147 expr 1.2/$f1;
#X obj 140 206 hip~;
#X obj 289 208 hip~;
#X obj 137 227 hip~;
#X obj 286 229 hip~;
#X obj 342 180 r \$0-globalhipsnd;
#X obj 135 250 hip~;
#X obj 284 252 hip~;
#X obj 131 275 hip~;
#X obj 280 277 hip~;
#X obj 156 137 bob~;
#X obj 294 136 bob~;
#X connect 0 0 2 0;
#X connect 1 0 3 0;
#X connect 2 0 26 0;
#X connect 3 0 27 0;
#X connect 6 0 8 0;
#X connect 7 0 9 0;
#X connect 8 0 2 1;
#X connect 8 0 3 1;
#X connect 8 0 26 1;
#X connect 8 0 27 1;
#X connect 9 0 3 2;
#X connect 9 0 2 2;
#X connect 9 0 27 2;
#X connect 9 0 26 2;
#X connect 10 0 13 0;
#X connect 11 0 12 0;
#X connect 11 0 16 0;
#X connect 12 0 3 0;
#X connect 12 0 2 0;
#X connect 12 0 26 0;
#X connect 12 0 27 0;
#X connect 13 0 12 0;
#X connect 14 0 17 0;
#X connect 15 0 18 0;
#X connect 16 0 14 1;
#X connect 16 0 15 1;
#X connect 17 0 19 0;
#X connect 18 0 20 0;
#X connect 19 0 22 0;
#X connect 20 0 23 0;
#X connect 21 0 18 1;
#X connect 21 0 20 1;
#X connect 21 0 17 1;
#X connect 21 0 19 1;
#X connect 21 0 23 1;
#X connect 21 0 25 1;
#X connect 21 0 22 1;
#X connect 21 0 24 1;
#X connect 22 0 24 0;
#X connect 23 0 25 0;
#X connect 24 0 4 0;
#X connect 25 0 5 0;
#X connect 26 0 14 0;
#X connect 27 0 15 0;
#X restore 1241 383 pd filter;
#X obj 707 398 vsl 20 200 35 19000 1 0 \$0-globalcutoffsnd \$0-globalcutoffrcv
gcut 0 -9 0 10 -262144 -1 -1 19900 1;
#X obj 731 398 vsl 20 200 0.1 4.5 0 0 \$0-globalqsnd \$0-globalqrcv
q 0 -9 0 10 -262144 -1 -1 5700 1;
#X obj 755 398 vsl 20 200 3 0.2 0 0 \$0-globaldrivesnd \$0-globaldrivercv
drv 0 -9 0 10 -262144 -1 -1 12500 1;
#N canvas 576 299 450 300 sanitize 0;
#X obj 85 33 inlet~;
#X obj 137 35 inlet~;
#X obj 199 35 inlet~;
#X obj 251 37 inlet~;
#X obj 69 185 outlet~;
#X obj 125 185 outlet~;
#X obj 190 186 outlet~;
#X obj 246 186 outlet~;
#X obj 70 88 hip~ 25;
#X obj 123 89 hip~ 25;
#X obj 70 110 clip~ -1 1;
#X obj 137 110 clip~ -1 1;
#X obj 201 89 hip~ 25;
#X obj 254 90 hip~ 25;
#X obj 201 111 clip~ -1 1;
#X obj 268 111 clip~ -1 1;
#X connect 0 0 8 0;
#X connect 1 0 9 0;
#X connect 2 0 12 0;
#X connect 3 0 13 0;
#X connect 8 0 10 0;
#X connect 9 0 11 0;
#X connect 10 0 4 0;
#X connect 11 0 5 0;
#X connect 12 0 14 0;
#X connect 13 0 15 0;
#X connect 14 0 6 0;
#X connect 15 0 7 0;
#X restore 1235 290 pd sanitize;
#N canvas 610 302 728 519 looooop 0;
#X obj 187 219 sig~;
#X obj 343 227 sig~;
#X obj 418 218 *~;
#X obj 473 247 *~;
#X obj 108 120 tgl 25 0 \$0-loop2button \$0-loop2buttonrcv R 10 11
0 10 -261039 -1 -1 0 1;
#X obj 495 136 tgl 25 0 empty empty empty 17 7 0 10 -262144 -1 -1 0
1;
#X obj 489 372 snapshot~;
#X obj 561 372 snapshot~;
#X obj 511 405 pack f f;
#X msg 511 424 values \$1 \$2;
#X obj 678 259 tgl 15 0 empty empty empty 17 7 0 10 -262144 -1 -1 0
1;
#X obj 211 282 *~;
#X obj 349 282 *~;
#X obj 662 339 metro 10;
#X obj 634 149 sel 0;
#X msg 694 242 1;
#X msg 651 239 0;
#X obj 130 25 key;
#X obj 130 47 sel 32;
#X obj 599 181 sel 1 0;
#X obj 678 179 timer;
#X obj 143 120 bng 25 250 50 0 \$0-clear2button \$0-clear2buttonrcv
clear -2 -6 0 10 -166441 -1 -262144;
#X msg 320 360 flashtime 50 \$1;
#X msg 207 433 0;
#X msg 40 406 color 4;
#X msg 102 406 color 1;
#X obj 178 386 delay;
#X obj 60 438 s \$0-clearbuttonrcv;
#X msg 240 435 1;
#X obj 567 50 r \$0-loop2button;
#X obj 95 355 r \$0-clear2button;
#X obj 181 334 delwrite~ \$0-x2loop 30000;
#X obj 341 338 delwrite~ \$0-y2loop 30000;
#X obj 418 196 delread~ \$0-x2loop 5000;
#X obj 473 225 delread~ \$0-y2loop 5000;
#X obj 512 441 s \$0-loop2values;
#X floatatom 391 437 5 0 0 0 - - -, f 5;
#X floatatom 624 413 5 0 0 0 - - -, f 5;
#X obj 190 167 r \$0-x2coordraw;
#X obj 319 171 r \$0-y2coordraw;
#X connect 0 0 11 0;
#X connect 1 0 12 0;
#X connect 2 0 6 0;
#X connect 2 0 31 0;
#X connect 3 0 7 0;
#X connect 3 0 32 0;
#X connect 5 0 2 1;
#X connect 5 0 3 1;
#X connect 6 0 8 0;
#X connect 6 0 36 0;
#X connect 7 0 8 1;
#X connect 7 0 37 0;
#X connect 8 0 9 0;
#X connect 9 0 35 0;
#X connect 10 0 13 0;
#X connect 11 0 31 0;
#X connect 12 0 32 0;
#X connect 13 0 7 0;
#X connect 13 0 6 0;
#X connect 15 0 10 0;
#X connect 16 0 10 0;
#X connect 17 0 18 0;
#X connect 19 0 16 0;
#X connect 19 0 20 0;
#X connect 19 1 15 0;
#X connect 19 1 20 1;
#X connect 20 0 22 0;
#X connect 20 0 26 1;
#X connect 20 0 33 0;
#X connect 20 0 34 0;
#X connect 23 0 5 0;
#X connect 23 0 10 0;
#X connect 24 0 27 0;
#X connect 25 0 27 0;
#X connect 26 0 25 0;
#X connect 26 0 28 0;
#X connect 28 0 5 0;
#X connect 29 0 11 1;
#X connect 29 0 12 1;
#X connect 29 0 19 0;
#X connect 30 0 23 0;
#X connect 30 0 26 0;
#X connect 30 0 24 0;
#X connect 33 0 2 0;
#X connect 34 0 3 0;
#X connect 38 0 0 0;
#X connect 39 0 1 0;
#X coords 0 -1 1 1 75 40 2 99 109;
#X restore 1034 501 pd looooop;
#X obj 779 398 vsl 20 200 20 18000 1 0 \$0-globalhipsnd \$0-globalhiprcv
hip 0 -9 0 10 -262144 -1 -1 0 1;
#X obj 1389 349 pitchshifterarp 0 0 1 0 1 0 0 -1.72 -9.74 1.08 -3.11
-16.96 -7.31 0 25 75 387 0;
#X text 155 626 fxL;
#X text 154 653 fxR;
#X obj 184 620 tgl 25 0 \$0-a1fxlsnd \$0-a1fxlrcv empty 6 -16 0 10
-262144 -1 -1 1 1;
#X obj 212 620 tgl 25 0 \$0-a2fxlsnd \$0-a2fxlrcv empty 6 -16 0 10
-262144 -1 -1 0 -1;
#X obj 184 648 tgl 25 0 \$0-a1fxrsnd \$0-a1fxrrcv empty 6 -16 0 10
-262144 -1 -1 0 -1;
#X obj 212 648 tgl 25 0 \$0-a2fxrsnd \$0-a2fxrrcv empty 6 -16 0 10
-262144 -1 -1 0 -1;
#X obj 1385 446 throw~ \$0-fxloopL;
#X obj 1507 447 throw~ \$0-fxloopR;
#X obj 1312 157 catch~ \$0-fxloopL;
#X obj 1364 194 catch~ \$0-fxloopR;
#X obj 1187 14 cnv 15 218 38 empty empty reflector\ 10 20 12 0 24 -141688
-257993 0;
#N canvas 194 131 970 662 rightpad 0;
#X obj 241 42 cnv 15 320 410 empty empty empty 20 12 0 14 -107584 -66577
0;
#X obj 246 46 grid grid1 310 0 1.5 400 0 1.5 1 0.01 0.01 160 1 969
258;
#N canvas 0 0 450 300 bangonjump 0;
#X obj 132 79 metro 125;
#X obj 132 153 + 20;
#X obj 135 30 tgl 15 0 empty empty empty 17 7 0 10 -262144 -1 -1 0
1;
#X obj 160 29 r \$0-bangonjump;
#X obj 211 152 + 20;
#X obj 51 118 r \$0-xcoordsnd;
#X obj 51 140 * 5;
#X obj 141 129 pow 2;
#X obj 215 123 pow 2;
#X obj 132 101 random 8;
#X obj 211 100 random 8;
#X connect 0 0 9 0;
#X connect 0 0 10 0;
#X connect 2 0 0 0;
#X connect 3 0 9 0;
#X connect 3 0 10 0;
#X connect 5 0 6 0;
#X connect 6 0 7 1;
#X connect 6 0 8 1;
#X connect 7 0 1 0;
#X connect 8 0 4 0;
#X connect 9 0 7 0;
#X connect 10 0 8 0;
#X restore 273 10 pd bangonjump;
#N canvas 656 348 450 323 x2coordprocessing 0;
#N canvas 0 0 450 300 quantize 0;
#X obj 96 79 / 2000;
#X obj 96 101 int;
#X floatatom 195 44 5 1 10000 0 - - -, f 5;
#X obj 200 69 expr 10000/$f1;
#X obj 96 123 /;
#X obj 281 12 inlet numsteps;
#X obj 67 10 inlet value;
#X obj 96 145 outlet;
#X connect 0 0 1 0;
#X connect 1 0 4 0;
#X connect 2 0 3 0;
#X connect 2 0 4 1;
#X connect 3 0 0 1;
#X connect 4 0 7 0;
#X connect 5 0 2 0;
#X connect 6 0 0 0;
#X restore 98 102 pd quantize;
#X obj 58 52 inlet;
#X obj 196 43 r \$0-x2scrubquantsnd;
#X obj 202 81 s \$0-x2coordraw;
#X obj 98 124 s \$0-x2coorddisplay;
#X obj 123 168 s \$0-x2scrubprocessedsnd;
#X connect 0 0 4 0;
#X connect 0 0 5 0;
#X connect 1 0 0 0;
#X connect 1 0 3 0;
#X connect 2 0 0 1;
#X restore 254 588 pd x2coordprocessing;
#N canvas 0 0 450 300 y2coordprocessing 0;
#N canvas 832 316 450 323 bangonjump 0;
#X obj 159 112 f;
#X obj 129 71 t f f b;
#X obj 96 140 expr $f1 - $f2;
#X obj 120 175 abs;
#X obj 73 28 inlet;
#X obj 107 238 outlet;
#X obj 192 198 bang;
#X obj 159 175 moses 0.1;
#X obj 266 51 inlet bangthresh;
#X connect 0 0 2 1;
#X connect 1 0 2 0;
#X connect 1 1 0 1;
#X connect 1 2 0 0;
#X connect 2 0 3 0;
#X connect 3 0 7 0;
#X connect 4 0 1 0;
#X connect 6 0 5 0;
#X connect 7 1 6 0;
#X connect 8 0 7 1;
#X restore 256 171 pd bangonjump;
#X obj 256 193 bng 15 250 50 0 empty empty empty 17 7 0 10 -262144
-1 -1;
#X floatatom 351 133 5 1 200 0 - - -, f 5;
#X obj 351 154 / 100;
#N canvas 0 0 450 300 quantize 0;
#X obj 96 79 / 2000;
#X obj 96 101 int;
#X floatatom 195 44 5 1 10000 0 - - -, f 5;
#X obj 200 69 expr 10000/$f1;
#X obj 96 123 /;
#X obj 281 12 inlet numsteps;
#X obj 67 10 inlet value;
#X obj 96 145 outlet;
#X connect 0 0 1 0;
#X connect 1 0 4 0;
#X connect 2 0 3 0;
#X connect 2 0 4 1;
#X connect 3 0 0 1;
#X connect 4 0 7 0;
#X connect 5 0 2 0;
#X connect 6 0 0 0;
#X restore 51 130 pd quantize;
#X obj 36 28 inlet;
#X obj 57 61 s \$0-y2coordraw;
#X obj 116 98 r \$0-y2scrubquantsnd;
#X obj 83 212 s \$0-y2scrubprocessedsnd;
#X obj 265 219 s \$0-y2bangonjump;
#X connect 0 0 1 0;
#X connect 0 0 9 0;
#X connect 2 0 3 0;
#X connect 3 0 0 1;
#X connect 4 0 0 0;
#X connect 4 0 8 0;
#X connect 5 0 4 0;
#X connect 5 0 6 0;
#X connect 7 0 4 1;
#X restore 452 605 pd y2coordprocessing;
#X obj 263 504 s \$0-fb1rcv;
#X obj 280 526 s \$0-fb2rcv;
#X obj 447 517 s \$0-fb3rcv;
#X obj 476 535 s \$0-fb4rcv;
#X obj 403 3 r \$0-loop2values;
#X connect 1 0 5 0;
#X connect 1 0 6 0;
#X connect 1 0 3 0;
#X connect 1 1 7 0;
#X connect 1 1 8 0;
#X connect 1 1 4 0;
#X connect 9 0 1 0;
#X coords 0 -1 1 1 324 414 2 239 40;
#X restore 824 47 pd rightpad;
#N canvas 492 217 734 550 leftpad 0;
#X obj 181 42 cnv 15 320 410 empty empty empty 20 12 0 14 -97983 -66577
0;
#X obj 186 47 grid grid1 310 -10000 10000 400 -10000 10000 1 1 1 160
1 266 327;
#N canvas 0 0 450 300 ycoordprocessing 0;
#N canvas 832 316 450 323 bangonjump 0;
#X obj 159 112 f;
#X obj 129 71 t f f b;
#X obj 96 140 expr $f1 - $f2;
#X obj 120 175 abs;
#X obj 73 28 inlet;
#X obj 107 238 outlet;
#X obj 192 198 bang;
#X obj 159 175 moses 0.1;
#X obj 266 51 inlet bangthresh;
#X connect 0 0 2 1;
#X connect 1 0 2 0;
#X connect 1 1 0 1;
#X connect 1 2 0 0;
#X connect 2 0 3 0;
#X connect 3 0 7 0;
#X connect 4 0 1 0;
#X connect 6 0 5 0;
#X connect 7 1 6 0;
#X connect 8 0 7 1;
#X restore 256 171 pd bangonjump;
#X obj 256 193 bng 15 250 50 0 empty empty empty 17 7 0 10 -262144
-1 -1;
#X obj 265 219 s \$0-bangonjump;
#X floatatom 351 133 5 1 200 0 - - -, f 5;
#X obj 351 154 / 100;
#N canvas 0 0 450 300 quantize 0;
#X obj 96 79 / 2000;
#X obj 96 101 int;
#X floatatom 195 44 5 1 10000 0 - - -, f 5;
#X obj 200 69 expr 10000/$f1;
#X obj 96 123 /;
#X obj 281 12 inlet numsteps;
#X obj 67 10 inlet value;
#X obj 96 145 outlet;
#X connect 0 0 1 0;
#X connect 1 0 4 0;
#X connect 2 0 3 0;
#X connect 2 0 4 1;
#X connect 3 0 0 1;
#X connect 4 0 7 0;
#X connect 5 0 2 0;
#X connect 6 0 0 0;
#X restore 51 130 pd quantize;
#X obj 36 28 inlet;
#X obj 57 61 s \$0-ycoordraw;
#X obj 116 98 r \$0-yscrubquantsnd;
#X obj 112 197 s \$0-yscrubprocessedsnd;
#X connect 0 0 1 0;
#X connect 0 0 2 0;
#X connect 3 0 4 0;
#X connect 4 0 0 1;
#X connect 5 0 0 0;
#X connect 5 0 9 0;
#X connect 6 0 5 0;
#X connect 6 0 7 0;
#X connect 8 0 5 1;
#X restore 386 508 pd ycoordprocessing;
#N canvas 656 348 450 323 xcoordprocessing 0;
#N canvas 0 0 450 300 quantize 0;
#X obj 96 79 / 2000;
#X obj 96 101 int;
#X floatatom 195 44 5 1 10000 0 - - -, f 5;
#X obj 200 69 expr 10000/$f1;
#X obj 96 123 /;
#X obj 281 12 inlet numsteps;
#X obj 67 10 inlet value;
#X obj 96 145 outlet;
#X connect 0 0 1 0;
#X connect 1 0 4 0;
#X connect 2 0 3 0;
#X connect 2 0 4 1;
#X connect 3 0 0 1;
#X connect 4 0 7 0;
#X connect 5 0 2 0;
#X connect 6 0 0 0;
#X restore 98 102 pd quantize;
#X obj 58 52 inlet;
#X obj 98 124 s \$0-xcoorddisplay;
#X obj 202 81 s \$0-xcoordraw;
#X obj 123 168 s \$0-xscrubprocessedsnd;
#X obj 197 43 r \$0-xscrubquantsnd;
#X connect 0 0 2 0;
#X connect 0 0 4 0;
#X connect 1 0 0 0;
#X connect 1 0 3 0;
#X connect 5 0 0 1;
#X restore 198 503 pd xcoordprocessing;
#X obj 209 14 r \$0-loopvalues;
#X connect 1 0 3 0;
#X connect 1 1 2 0;
#X connect 4 0 1 0;
#X coords 0 -1 1 1 324 414 2 179 40;
#X restore 19 44 pd leftpad;
#X obj 1361 277 lop~ 8000;
#X obj 1187 122 noise~;
#X obj 1189 175 *~ 0.0003;
#X obj 1187 144 *~;
#X obj 1233 109 tgl 25 0 \$0-noisesnd \$0-noisercv noise 17 7 0 10
-262144 -1 -1 1 1;
#X obj 1361 255 *~ 1;
#X obj 506 285 vsl 20 75 0 1 0 0 \$0-fb1volsnd \$0-fb1volrcv vol 0
-9 0 10 -262144 -1 -1 7400 1;
#X obj 660 286 vsl 20 75 0 1 0 0 \$0-fb2volsnd \$0-fb2volrcv vol 0
-9 0 10 -262144 -1 -1 0 1;
#X floatatom 1403 232 5 0 0 0 - - -, f 5;
#X obj 1403 253 / 100;
#X obj 307 567 vsl 20 100 0 1 0 0 \$0-globalfbsnd \$0-globalfbrcv gfb
0 -9 0 10 -262144 -1 -1 9900 1;
#N canvas 261 313 450 300 graphiceq 0;
#X obj 30 50 vsl 15 128 -24 24 0 0 \$0-band1snd \$0-band1rcv <150 -4
-8 0 10 -228856 -1 -1 0 1;
#X obj 52 50 vsl 15 128 -24 24 0 0 \$0-band2snd \$0-band2rcv 300 -2
-18 0 10 -228856 -1 -1 0 1;
#X obj 75 50 vsl 15 128 -24 24 0 0 \$0-band3snd \$0-band3rcv 900 0
-9 0 10 -228856 -1 -1 1000 1;
#X obj 97 50 vsl 15 128 -24 24 0 0 \$0-band4snd \$0-band4rcv 2700 -3
-18 0 10 -228856 -1 -1 8700 1;
#X obj 120 50 vsl 15 128 -24 24 0 0 \$0-band5snd \$0-band5rcv 8100
0 -9 0 10 -228856 -1 -1 1300 1;
#X obj 174 50 vsl 15 128 0.2 3 0 0 \$0-eqbwsnd \$0-eqbwrcv bw 1 -10
0 10 -240104 -1 -1 8900 1;
#X obj 144 51 vsl 15 128 -24 24 0 0 \$0-band6nd \$0-band6rcv >12000
-12 -20 0 10 -228856 -1 -1 1300 1;
#X coords 0 -1 1 1 185 180 2 20 17;
#X restore 334 478 pd graphiceq;
#X obj 1361 299 hip~ 30;
#X obj 752 145 vsl 20 200 0 1 0 0 \$0-fb1drywetsnd \$0-fb1drywetrcv
dw 0 -9 0 10 -262144 -1 -1 0 1;
#X obj 1133 459 adascope;
#X obj 425 302 tgl 25 0 \$0-fb1mutesnd \$0-fb1mutercv mute -2 31 0
10 -262144 -1 -1 1 1;
#X obj 455 302 tgl 25 0 \$0-fb1delmutesnd \$0-fb1delmutercv dmut -2
31 0 10 -262144 -1 -1 1 1;
#X obj 727 145 vsl 20 200 0.1 500 1 0 \$0-del1bsnd \$0-del1brcv del1b
0 -9 0 10 -262144 -1 -1 0 1;
#X obj 361 387 r \$0-yscrubprocessedsnd;
#X obj 514 385 r \$0-xscrubprocessedsnd;
#X obj 361 409 maxlib/scale 0 1 0 2;
#X obj 361 431 s \$0-fb1rcv;
#X obj 514 407 maxlib/scale 0 1 5 10000;
#X obj 514 429 s \$0-fb1cutoffrcv;
#X obj 605 302 tgl 25 0 \$0-fb2mutesnd \$0-fb2mutercv mute -2 31 0
10 -262144 -1 -1 1 1;
#X obj 635 302 tgl 25 0 \$0-fb2delmutesnd \$0-fb2delmutercv dmut -2
31 0 10 -262144 -1 -1 1 1;
#X obj 510 70 vsl 20 200 0.1 10000 1 0 \$0-fb1hipsnd \$0-fb1hiprcv
hip 0 -9 0 10 -262144 -1 -1 0 1;
#X obj 665 71 vsl 20 200 0.1 10000 1 0 \$0-fb2hipsnd \$0-fb2hiprcv
hip 0 -9 0 10 -262144 -1 -1 1900 1;
#X obj 932 533 key;
#X obj 906 572 keysupress 39;
#X obj 1010 577 keysupress 44;
#X obj 976 536 keyup;
#X obj 852 762 hsl 128 15 0 1 0 0 \$0-volcontrolsnd \$0-volcontrolrcv
volcontrol -2 -8 0 10 -262144 -1 -1 7747 1;
#X msg 907 619 1;
#X msg 947 618 0;
#X obj 860 490 r \$0-volcontrolsnd;
#X obj 860 512 v \$0-vol;
#X obj 917 669 v \$0-vol;
#X obj 917 713 s \$0-volcontrolrcv;
#X obj 845 606 bng 15 250 50 0 empty empty empty 17 7 0 10 -262144
-1 -1;
#X floatatom 822 474 5 0 0 0 - - -, f 5;
#X msg 1044 624 1;
#X msg 1084 623 0;
#X obj 1054 674 v \$0-vol;
#X obj 1054 718 s \$0-volcontrolrcv;
#N canvas 576 299 450 300 volcontrol 0;
#X obj 171 60 inlet~;
#X obj 247 55 inlet~;
#X obj 138 250 outlet~;
#X obj 258 253 outlet~;
#X obj 177 159 lop~;
#X obj 258 158 lop~;
#X obj 350 89 r \$0-volcontrolsnd;
#X obj 181 214 *~;
#X obj 246 214 *~;
#X obj 302 186 smoother 15;
#X obj 350 111 maxlib/scale 0 1 4000 17000 1;
#X connect 0 0 4 0;
#X connect 1 0 5 0;
#X connect 4 0 7 0;
#X connect 5 0 8 0;
#X connect 6 0 9 0;
#X connect 6 0 10 0;
#X connect 7 0 2 0;
#X connect 8 0 3 0;
#X connect 9 0 7 1;
#X connect 9 0 8 1;
#X connect 10 0 5 1;
#X connect 10 0 4 1;
#X restore 1236 434 pd volcontrol;
#X obj 917 691 - 0.015;
#X obj 1054 696 + 0.015;
#X obj 917 647 metro 20;
#X obj 1054 652 metro 20;
#N canvas 576 299 450 300 reson 1;
#N canvas 578 347 869 247 resonatorbank 0;
#X obj 14 142 bp~ 100 3;
#X obj 222 212 outlet~;
#X obj 227 58 *~ 1;
#X obj 120 11 inlet~;
#X obj 120 33 adamonopan;
#X obj 201 5 r \$0-resondrywetsnd;
#X obj 290 46 r \$0-reson1snd;
#X obj 330 70 r \$0-reson2snd;
#X obj 385 48 r \$0-reson3snd;
#X obj 427 72 r \$0-reson4snd;
#X obj 483 46 r \$0-reson5snd;
#X obj 90 142 bp~ 430 3;
#X obj 157 142 bp~ 1790 3;
#X obj 229 141 bp~ 8850 3;
#X obj 297 142 bp~ 14720 3;
#X connect 0 0 1 0;
#X connect 2 0 0 0;
#X connect 2 0 11 0;
#X connect 2 0 12 0;
#X connect 2 0 13 0;
#X connect 2 0 14 0;
#X connect 3 0 4 0;
#X connect 4 0 1 0;
#X connect 4 1 2 0;
#X connect 5 0 4 1;
#X connect 6 0 0 2;
#X connect 7 0 11 2;
#X connect 8 0 12 2;
#X connect 9 0 13 2;
#X connect 10 0 14 2;
#X connect 11 0 1 0;
#X connect 12 0 1 0;
#X connect 13 0 1 0;
#X connect 14 0 1 0;
#X restore 73 105 pd resonatorbank;
#X obj 99 23 inlet~;
#X obj 227 26 inlet~;
#X obj 73 127 outlet~;
#X obj 221 130 outlet~;
#N canvas 578 347 869 247 resonatorbank 0;
#X obj 14 142 bp~ 100 3;
#X obj 222 212 outlet~;
#X obj 227 58 *~ 1;
#X obj 120 11 inlet~;
#X obj 120 33 adamonopan;
#X obj 201 5 r \$0-resondrywetsnd;
#X obj 290 46 r \$0-reson1snd;
#X obj 330 70 r \$0-reson2snd;
#X obj 385 48 r \$0-reson3snd;
#X obj 427 72 r \$0-reson4snd;
#X obj 483 46 r \$0-reson5snd;
#X obj 90 142 bp~ 430 3;
#X obj 157 142 bp~ 1790 3;
#X obj 229 141 bp~ 8850 3;
#X obj 297 142 bp~ 14720 3;
#X connect 0 0 1 0;
#X connect 2 0 0 0;
#X connect 2 0 11 0;
#X connect 2 0 12 0;
#X connect 2 0 13 0;
#X connect 2 0 14 0;
#X connect 3 0 4 0;
#X connect 4 0 1 0;
#X connect 4 1 2 0;
#X connect 5 0 4 1;
#X connect 6 0 0 2;
#X connect 7 0 11 2;
#X connect 8 0 12 2;
#X connect 9 0 13 2;
#X connect 10 0 14 2;
#X connect 11 0 1 0;
#X connect 12 0 1 0;
#X connect 13 0 1 0;
#X connect 14 0 1 0;
#X restore 215 98 pd resonatorbank;
#X connect 0 0 3 0;
#X connect 1 0 0 0;
#X connect 2 0 5 0;
#X connect 5 0 4 0;
#X restore 1247 358 pd reson;
#N canvas 261 313 450 300 graphiceq 0;
#X obj 27 50 vsl 15 128 0 15 0 0 \$0-band1snd \$0-band1rcv <150 -4
-8 0 10 -228856 -1 -1 6500 1;
#X obj 48 51 vsl 15 128 0 15 0 0 \$0-reson2snd \$0-reson2rcv 400 -2
-18 0 10 -228856 -1 -1 4700 1;
#X obj 70 50 vsl 15 128 0 15 0 0 \$0-reson3snd \$0-reson3rcv 1600 0
-9 0 10 -228856 -1 -1 5300 1;
#X obj 93 50 vsl 15 128 0 15 0 0 \$0-reson4snd \$0-reson4rcv 8000 -3
-18 0 10 -228856 -1 -1 3700 1;
#X obj 115 50 vsl 15 128 0 15 0 0 \$0-reson5snd \$0-reson5rcv 16000
0 -9 0 10 -228856 -1 -1 5100 1;
#X obj 135 50 vsl 15 128 -1 1 0 0 \$0-resondrywetsnd \$0-resondrywetrcv
dw 0 -9 0 10 -228856 -1 -1 12100 1;
#X coords 0 -1 1 1 135 180 2 20 17;
#X restore 514 628 pd graphiceq;
#X connect 4 0 3 0;
#X connect 4 1 3 1;
#X connect 5 0 53 0;
#X connect 5 1 53 1;
#X connect 5 2 75 0;
#X connect 8 0 115 0;
#X connect 8 1 115 1;
#X connect 11 0 8 1;
#X connect 32 0 84 0;
#X connect 32 0 120 0;
#X connect 32 1 120 1;
#X connect 49 0 8 0;
#X connect 49 1 8 2;
#X connect 53 0 32 0;
#X connect 53 1 32 1;
#X connect 53 2 32 2;
#X connect 53 3 32 3;
#X connect 56 0 63 0;
#X connect 56 1 64 0;
#X connect 65 0 5 0;
#X connect 66 0 5 1;
#X connect 70 0 82 0;
#X connect 71 0 73 0;
#X connect 72 0 5 0;
#X connect 72 0 5 1;
#X connect 73 0 72 0;
#X connect 74 0 73 1;
#X connect 75 0 70 0;
#X connect 78 0 79 0;
#X connect 79 0 75 1;
#X connect 82 0 56 0;
#X connect 88 0 90 0;
#X connect 89 0 92 0;
#X connect 90 0 91 0;
#X connect 92 0 93 0;
#X connect 98 0 99 0;
#X connect 98 0 100 0;
#X connect 99 0 103 0;
#X connect 99 0 109 0;
#X connect 99 1 104 0;
#X connect 100 0 111 0;
#X connect 100 1 112 0;
#X connect 101 0 99 1;
#X connect 101 0 100 1;
#X connect 103 0 118 0;
#X connect 104 0 118 0;
#X connect 105 0 106 0;
#X connect 107 0 116 0;
#X connect 110 0 106 0;
#X connect 111 0 119 0;
#X connect 112 0 119 0;
#X connect 113 0 117 0;
#X connect 115 0 6 0;
#X connect 115 1 6 1;
#X connect 116 0 108 0;
#X connect 117 0 114 0;
#X connect 118 0 107 0;
#X connect 119 0 113 0;
#X connect 120 0 49 0;
#X connect 120 1 49 1;
