#N canvas 0 32 1920 1048 10;
#X obj 615 350 cnv 15 213 315 empty empty empty 20 12 0 14 -182519
-66577 0;
#X obj 940 55 cnv 15 148 288 empty empty empty 20 12 0 14 -175153 -66577
0;
#X obj 803 54 cnv 15 130 289 empty empty empty 20 12 0 14 -196412 -66577
0;
#X obj 113 55 cnv 15 208 500 empty empty empty 20 12 0 14 -101690 -66577
0;
#X obj 615 55 cnv 15 182 289 empty empty empty 20 12 0 14 -106235 -66577
0;
#N canvas 1444 36 472 1008 soundstuff 0;
#X obj 517 3 r \$0-scrubsnd;
#X obj 1139 312 r \$0-onoff;
#X obj 434 166 cos~;
#X obj 430 105 +~;
#X obj 726 623 delwrite~ \$0-fb1 8000;
#X obj 724 596 *~;
#X obj 816 578 smoother 25;
#X obj 438 298 +~;
#X obj 473 215 *~ 2;
#X obj 473 237 -~ 1;
#X obj 600 188 cos~;
#X obj 596 127 +~;
#X obj 598 159 wrap~;
#X obj 599 299 +~;
#X obj 644 220 *~ 2;
#X obj 644 242 -~ 1;
#N canvas 0 24 1360 692 delrcvs 0;
#X obj 58 234 delread4~ \$0-fb1;
#X obj 49 313 outlet~;
#X obj 440 344 outlet~;
#X obj 464 233 delread4~ \$0-fb2;
#X obj 474 102 r \$0-del2snd;
#X obj 69 26 r \$0-del1snd;
#X obj 197 79 delread~ \$0-fb1;
#X obj 319 84 delread~ \$0-fb2;
#X obj 301 29 r \$0-delmodsnd;
#X obj 197 101 *~;
#X obj 319 106 *~;
#X obj 319 128 *~ 5;
#X obj 197 123 *~ 5;
#X obj 301 51 smoother 150;
#X obj 70 48 - 0.1;
#X obj 475 124 - 0.1;
#X obj 474 146 smoother 50;
#X obj 67 75 smoother 50;
#X obj 197 145 lop~ 40;
#X obj 319 150 lop~ 40;
#X connect 0 0 1 0;
#X connect 3 0 2 0;
#X connect 4 0 15 0;
#X connect 5 0 14 0;
#X connect 6 0 9 0;
#X connect 7 0 10 0;
#X connect 8 0 13 0;
#X connect 9 0 12 0;
#X connect 10 0 11 0;
#X connect 11 0 19 0;
#X connect 12 0 18 0;
#X connect 13 0 10 1;
#X connect 13 0 9 1;
#X connect 14 0 17 0;
#X connect 15 0 16 0;
#X connect 16 0 3 0;
#X connect 17 0 0 0;
#X connect 18 0 0 0;
#X connect 19 0 3 0;
#X restore 774 -10 pd delrcvs;
#X obj 856 600 *~;
#X obj 948 582 smoother 25;
#X obj 861 627 delwrite~ \$0-fb2 8000;
#X obj 603 572 lop~ 17000;
#X obj 441 573 lop~ 17000;
#X obj 443 616 outlet~;
#X obj 609 622 outlet~;
#X obj 815 556 r \$0-fbLsnd;
#X obj 948 560 r \$0-fbRsnd;
#X obj 751 160 smoother 5;
#X obj 749 135 r \$0-pw1snd;
#X obj 441 502 *~;
#X obj 603 506 *~;
#X obj 489 408 *~;
#X obj 553 423 *~;
#X obj 709 377 r \$0-crossmodsnd;
#X obj 707 400 smoother 15;
#X obj 489 430 *~ 0.5;
#X obj 489 452 +~ 1;
#X obj 555 449 *~ 0.5;
#X obj 555 471 +~ 1;
#X obj 407 220 *~;
#X obj 585 231 *~;
#X obj 287 247 r \$0-feedthrusnd;
#X obj 289 278 smoother 15;
#X obj 421 266 *~;
#X obj 588 265 *~;
#X obj 1065 494 *~;
#X obj 1141 492 *~;
#X obj 1182 441 smoother 25;
#X obj 1184 419 r \$0-tremauxsnd;
#X obj 1141 566 hip~ 30;
#N canvas 0 24 1360 692 trem 0;
#X obj 135 141 inlet~;
#X obj 968 254 block~ 1;
#X obj 146 363 outlet~;
#X obj 148 291 *~;
#X obj 264 201 +~ 1;
#X obj 264 245 *~;
#X obj 318 272 *~;
#X obj 404 197 r \$0-tremshapesnd;
#X obj 404 219 sel 0 1;
#X msg 404 241 0 1;
#X msg 442 240 1 0;
#X obj 404 263 unpack f f;
#X obj 266 168 *~;
#X obj 411 95 r \$0-tremdepthsnd;
#X obj 411 119 smoother 15;
#X obj 316 -2 r \$0-tremspdsnd;
#X obj 314 23 smoother 15;
#X obj 317 169 >~ 0;
#X obj 317 191 -~ 0.5;
#X obj 319 212 *~;
#X obj 319 234 +~ 1;
#X obj 460 140 r \$0-trempwsnd;
#X obj 712 165 inlet~;
#X obj 707 288 *~;
#X obj 698 372 outlet~;
#X obj 377 55 phasor~;
#X obj 251 126 cos~;
#X obj 568 264 +~ 1;
#X obj 568 308 *~;
#X obj 622 325 *~;
#X obj 570 231 *~;
#X obj 621 232 >~ 0;
#X obj 621 254 -~ 0.5;
#X obj 623 275 *~;
#X obj 623 297 +~ 1;
#X obj 555 189 cos~;
#X obj 609 18 r \$0-tremphasesnd;
#X obj 608 122 +~ 0;
#X obj 608 144 wrap~;
#X connect 0 0 3 0;
#X connect 3 0 2 0;
#X connect 4 0 5 0;
#X connect 5 0 3 1;
#X connect 6 0 3 1;
#X connect 7 0 8 0;
#X connect 8 0 9 0;
#X connect 8 1 10 0;
#X connect 9 0 11 0;
#X connect 10 0 11 0;
#X connect 11 0 5 1;
#X connect 11 0 28 1;
#X connect 11 1 6 1;
#X connect 11 1 29 1;
#X connect 12 0 4 0;
#X connect 13 0 14 0;
#X connect 14 0 12 1;
#X connect 14 0 19 1;
#X connect 14 0 30 1;
#X connect 14 0 33 1;
#X connect 15 0 16 0;
#X connect 16 0 25 0;
#X connect 17 0 18 0;
#X connect 18 0 19 0;
#X connect 19 0 20 0;
#X connect 20 0 6 0;
#X connect 21 0 17 1;
#X connect 21 0 31 1;
#X connect 22 0 23 0;
#X connect 23 0 24 0;
#X connect 25 0 26 0;
#X connect 25 0 37 0;
#X connect 26 0 12 0;
#X connect 26 0 17 0;
#X connect 27 0 28 0;
#X connect 28 0 23 1;
#X connect 29 0 23 1;
#X connect 30 0 27 0;
#X connect 31 0 32 0;
#X connect 32 0 33 0;
#X connect 33 0 34 0;
#X connect 34 0 29 0;
#X connect 35 0 30 0;
#X connect 35 0 31 0;
#X connect 36 0 37 1;
#X connect 37 0 38 0;
#X connect 38 0 35 0;
#X restore 1179 537 pd trem;
#X obj 1193 568 hip~ 30;
#X obj 1191 57 loadbang;
#X msg 1191 79 1;
#X obj 1191 101 s \$0-tremdepthsnd;
#X obj 1065 516 *~;
#X obj 1141 514 *~;
#X obj 1219 483 r \$0-tremmutesnd;
#X obj 441 530 *~ 0.5;
#X obj 603 529 *~ 0.5;
#X obj 439 554 hip~ 40;
#X obj 603 551 hip~ 40;
#X obj 629 10 noise~;
#X obj 427 8 noise~;
#X obj 427 29 lop~ 25;
#X obj 629 32 lop~ 25;
#X obj 644 198 >~;
#X obj 473 193 >~;
#X obj 441 595 clip~ -1 1;
#X obj 603 594 clip~ -1 1;
#X obj 901 222 r \$0-lfosnd;
#X obj 901 244 smoother 10;
#X obj 901 266 phasor~;
#X obj 901 327 *~ 2;
#X obj 1009 205 r \$0-lfoamtsnd;
#X obj 901 305 *~ 0.5;
#X obj 520 33 smoother 1;
#X msg 1261 301 set 4096 1 2;
#X obj 1264 213 sel 0 1;
#X obj 1264 191 r \$0-blocksizesnd;
#X obj 520 55 lop~ 200;
#X obj 424 55 *~ 0.001;
#X obj 627 57 *~ 0.001;
#X obj 1118 343 switch~ 1 1 2;
#X msg 1241 246 set 2 1 4;
#X connect 0 0 75 0;
#X connect 1 0 82 0;
#X connect 2 0 38 0;
#X connect 2 0 66 0;
#X connect 3 0 2 0;
#X connect 5 0 4 0;
#X connect 6 0 5 1;
#X connect 7 0 28 0;
#X connect 7 0 30 0;
#X connect 8 0 9 0;
#X connect 9 0 7 1;
#X connect 9 0 42 1;
#X connect 10 0 39 0;
#X connect 10 0 65 0;
#X connect 11 0 12 0;
#X connect 12 0 10 0;
#X connect 13 0 29 0;
#X connect 13 0 31 0;
#X connect 14 0 15 0;
#X connect 15 0 13 1;
#X connect 15 0 43 1;
#X connect 16 0 3 1;
#X connect 16 1 11 1;
#X connect 17 0 19 0;
#X connect 18 0 17 1;
#X connect 20 0 68 0;
#X connect 21 0 67 0;
#X connect 24 0 6 0;
#X connect 25 0 18 0;
#X connect 26 0 65 1;
#X connect 26 0 66 1;
#X connect 27 0 26 0;
#X connect 28 0 5 0;
#X connect 28 0 44 0;
#X connect 28 0 57 0;
#X connect 29 0 17 0;
#X connect 29 0 45 0;
#X connect 29 0 58 0;
#X connect 30 0 34 0;
#X connect 31 0 36 0;
#X connect 32 0 33 0;
#X connect 33 0 31 1;
#X connect 33 0 30 1;
#X connect 34 0 35 0;
#X connect 35 0 29 1;
#X connect 36 0 37 0;
#X connect 37 0 28 1;
#X connect 38 0 42 0;
#X connect 39 0 43 0;
#X connect 40 0 41 0;
#X connect 41 0 38 1;
#X connect 41 0 39 1;
#X connect 42 0 7 0;
#X connect 43 0 13 0;
#X connect 44 0 54 0;
#X connect 45 0 55 0;
#X connect 46 0 44 1;
#X connect 46 0 45 1;
#X connect 47 0 46 0;
#X connect 48 0 4 0;
#X connect 49 0 48 0;
#X connect 49 1 50 0;
#X connect 50 0 19 0;
#X connect 51 0 52 0;
#X connect 52 0 53 0;
#X connect 54 0 49 0;
#X connect 55 0 49 1;
#X connect 56 0 55 1;
#X connect 56 0 54 1;
#X connect 57 0 59 0;
#X connect 58 0 60 0;
#X connect 59 0 21 0;
#X connect 60 0 20 0;
#X connect 61 0 64 0;
#X connect 62 0 63 0;
#X connect 63 0 80 0;
#X connect 64 0 81 0;
#X connect 65 0 14 0;
#X connect 66 0 8 0;
#X connect 67 0 22 0;
#X connect 68 0 23 0;
#X connect 69 0 70 0;
#X connect 70 0 71 0;
#X connect 71 0 74 0;
#X connect 72 0 11 0;
#X connect 72 0 3 0;
#X connect 73 0 74 1;
#X connect 74 0 72 0;
#X connect 75 0 79 0;
#X connect 76 0 82 0;
#X connect 77 0 83 0;
#X connect 77 1 76 0;
#X connect 78 0 77 0;
#X connect 79 0 3 0;
#X connect 79 0 11 0;
#X connect 80 0 3 0;
#X connect 81 0 11 0;
#X connect 83 0 82 0;
#X restore 1144 239 pd soundstuff;
#X obj 839 581 output;
#X obj 167 83 vsl 30 450 0 1 0 0 \$0-fbLsnd \$0-fbLrcv fbL 0 -9 0 10
-262144 -1 -1 19300 1;
#X obj 200 83 vsl 30 450 0 1 0 0 \$0-fbRsnd \$0-fbRrcv fbR 0 -9 0 10
-262144 -1 -1 25100 1;
#X obj 998 590 adascope 0 18 1;
#X obj 1102 591 adascope 0 18 1;
#X obj 1007 460 tgl 35 1 \$0-onoff empty on/off 17 7 0 10 -262144 -1
-1 1 1;
#X obj 127 82 vsl 25 450 -0.999 -0.95 0 0 \$0-pw1snd \$0-pw1rcv pw
0 -9 0 10 -262144 -1 -1 21500 1;
#X obj 243 84 vsl 30 450 0.1 80 1 0 \$0-del1snd \$0-del1rcv del1 0
-9 0 10 -262144 -1 -1 44900 1;
#X obj 276 84 vsl 30 450 0.1 80 1 0 \$0-del2snd \$0-del2rcv del2 0
-9 0 10 -262144 -1 -1 44900 1;
#X obj 632 365 vsl 25 250 0 1 0 0 \$0-delmodsnd \$0-delmodrcv delmod
0 -9 0 10 -262144 -1 -1 13469 1;
#X obj 663 379 vsl 25 250 0 1 0 0 \$0-crossmodsnd \$0-crossmodrcv crossmod
0 -9 0 10 -262144 -1 -1 4000 1;
#X obj 696 394 vsl 25 250 0 1 0 0 \$0-feedthrusnd \$0-feedthrurcv feedthru
0 -9 0 10 -262144 -1 -1 5000 1;
#X obj 662 67 vsl 25 200 0.2 100 1 0 \$0-tremspdsnd \$0-tremspdrcv
speed 0 -9 0 10 -262144 -1 -1 0 0;
#X obj 699 82 vsl 25 200 0 0.999 0 0 \$0-trempwsnd \$0-trempwrcv trempw
0 -9 0 10 -262144 -1 -1 16300 1;
#X obj 735 103 vsl 25 200 0 1 0 0 \$0-tremphasesnd \$0-tremphasercv
phase 0 -9 0 10 -262144 -1 -1 10750 1;
#X obj 629 71 vsl 25 200 0 1 0 0 \$0-tremauxsnd \$0-tremauxrcv trem
0 -9 0 10 -262144 -1 -1 16700 1;
#X obj 675 297 hradio 25 0 0 2 \$0-tremshapesnd \$0-tremshapercv shape
0 -8 0 10 -262144 -1 -1 0;
#X obj 627 292 tgl 35 0 \$0-tremmutesnd \$0-tremmutercv empty 17 7
0 10 -262144 -1 -1 0 1;
#N canvas 964 36 472 1008 ringmod 0;
#X obj 147 25 inlet~;
#X obj 258 22 inlet~;
#X obj 124 448 outlet~;
#X obj 265 460 outlet~;
#X obj 111 357 *~;
#X obj 264 364 *~;
#X obj 454 220 r \$0-ringmodonoffsnd;
#X obj 454 242 sel 0 1;
#X msg 446 273 0 1;
#X msg 481 272 1 0;
#X obj 409 308 unpack f f;
#X obj 164 356 *~;
#X obj 331 367 *~;
#X obj 74 184 *~;
#X obj 233 186 *~;
#X obj 313 118 osc~ 440;
#X obj 332 9 r \$0-ringmodpitchsnd;
#X obj 326 37 smoother 15;
#X obj 609 71 r \$0-ringmodblendsnd;
#X obj 655 124 expr 1-$f1;
#X obj 512 137 smoother 15;
#X obj 647 160 smoother 15;
#X obj 124 237 *~;
#X obj 274 251 *~;
#X obj 87 235 *~;
#X obj 240 248 *~;
#X obj 378 121 osc~ 440;
#X obj 419 33 r \$0-ringmoddetunesnd;
#X obj 419 55 smoother 15;
#X obj 381 74 *~ -1;
#X obj 313 140 *~ 1;
#X obj 378 143 *~ 1.2;
#X obj 378 165 clip~ -1 1;
#X obj 313 162 clip~ -1 1;
#X connect 0 0 11 0;
#X connect 0 0 13 0;
#X connect 0 0 22 0;
#X connect 1 0 12 0;
#X connect 1 0 14 0;
#X connect 1 0 23 0;
#X connect 4 0 2 0;
#X connect 5 0 3 0;
#X connect 6 0 7 0;
#X connect 7 0 8 0;
#X connect 7 1 9 0;
#X connect 8 0 10 0;
#X connect 9 0 10 0;
#X connect 10 0 4 1;
#X connect 10 0 5 1;
#X connect 10 1 12 1;
#X connect 10 1 11 1;
#X connect 11 0 2 0;
#X connect 12 0 3 0;
#X connect 13 0 24 0;
#X connect 14 0 25 0;
#X connect 15 0 30 0;
#X connect 16 0 17 0;
#X connect 17 0 15 0;
#X connect 17 0 26 0;
#X connect 18 0 19 0;
#X connect 18 0 20 0;
#X connect 19 0 21 0;
#X connect 20 0 24 1;
#X connect 20 0 25 1;
#X connect 21 0 23 1;
#X connect 21 0 22 1;
#X connect 22 0 4 0;
#X connect 23 0 5 0;
#X connect 24 0 4 0;
#X connect 25 0 5 0;
#X connect 26 0 31 0;
#X connect 27 0 28 0;
#X connect 28 0 26 0;
#X connect 28 0 29 0;
#X connect 29 0 15 0;
#X connect 30 0 33 0;
#X connect 31 0 32 0;
#X connect 32 0 14 1;
#X connect 33 0 13 1;
#X restore 1148 267 pd ringmod;
#X obj 813 70 vsl 25 200 1 15000 1 0 \$0-ringmodpitchsnd \$0-ringmodpitchrcv
rmpitch 0 -9 0 10 -262144 -1 -1 19900 1;
#X obj 811 286 tgl 35 0 \$0-ringmodonoffsnd \$0-ringmodonoffrcv empty
17 7 0 10 -262144 -1 -1 0 1;
#X obj 849 80 vsl 25 200 0 1 0 0 \$0-ringmodblendsnd \$0-ringmodblendrcv
rmblend 0 -9 0 10 -262144 -1 -1 11900 1;
#X obj 884 92 vsl 25 200 0 15 0 0 \$0-ringmoddetunesnd \$0-ringmoddetunercv
rmdetune 0 -9 0 10 -262144 -1 -1 11150 1;
#X obj 731 408 vsl 20 200 100 15 0 0 \$0-limitsnd \$0-limitrcv lim
0 -9 0 10 -262144 -1 -1 1600 1;
#N canvas 116 190 600 382 limiter2 0;
#X obj 7 14 inlet~;
#X obj 115 56 env~ 1024;
#X obj 115 78 moses;
#X obj 382 18 inlet thresh;
#X obj 153 121 expr (($f1 - $f3) / $f2) - $f1 + $f3;
#X obj 153 143 expr 100 + $f1;
#X obj 153 165 dbtorms;
#X msg 116 124 1;
#X obj 115 100 bang;
#X obj 31 233 *~;
#X obj 92 222 line~;
#X obj 33 339 outlet~;
#X msg 317 76 10;
#X floatatom 74 79 5 0 0 0 - - -;
#X obj 379 86 dbtorms, f 15;
#X obj 379 108 expr 1/$f1;
#X obj 31 255 *~;
#X msg 243 52 6;
#X obj 33 165 z~ 1024;
#X obj 404 128 pow 0.85;
#X obj 379 152 smoother 10;
#X msg 112 195 \$1 5;
#X floatatom 153 187 5 0 0 0 - - -;
#X obj 521 16 inlet~;
#X obj 629 58 env~ 1024;
#X obj 629 80 moses;
#X obj 667 123 expr (($f1 - $f3) / $f2) - $f1 + $f3;
#X obj 667 145 expr 100 + $f1;
#X obj 667 167 dbtorms;
#X msg 630 126 1;
#X obj 629 102 bang;
#X obj 545 235 *~;
#X obj 606 224 line~;
#X obj 547 341 outlet~;
#X msg 831 78 10;
#X floatatom 588 81 5 0 0 0 - - -;
#X obj 893 88 dbtorms, f 15;
#X obj 893 110 expr 1/$f1;
#X obj 545 257 *~;
#X msg 757 54 6;
#X obj 547 167 z~ 1024;
#X obj 918 130 pow 0.85;
#X obj 893 154 smoother 10;
#X msg 626 197 \$1 5;
#X floatatom 667 189 5 0 0 0 - - -;
#X obj 288 237 s \$0-limdispL;
#X obj 802 239 s \$0-limdispR;
#X msg 103 167 \$1 27;
#X msg 617 171 \$1 27;
#X obj 238 19 loadbang;
#X obj 752 21 loadbang;
#X connect 0 0 1 0;
#X connect 0 0 18 0;
#X connect 1 0 2 0;
#X connect 1 0 13 0;
#X connect 2 0 8 0;
#X connect 2 1 4 0;
#X connect 3 0 4 2;
#X connect 3 0 2 1;
#X connect 3 0 14 0;
#X connect 3 0 36 0;
#X connect 3 0 26 2;
#X connect 3 0 25 1;
#X connect 4 0 5 0;
#X connect 5 0 6 0;
#X connect 6 0 21 0;
#X connect 6 0 22 0;
#X connect 6 0 45 0;
#X connect 7 0 47 0;
#X connect 7 0 45 0;
#X connect 8 0 7 0;
#X connect 9 0 16 0;
#X connect 10 0 9 1;
#X connect 12 0 4 2;
#X connect 12 0 2 1;
#X connect 14 0 15 0;
#X connect 15 0 19 0;
#X connect 16 0 11 0;
#X connect 17 0 4 1;
#X connect 18 0 9 0;
#X connect 19 0 20 0;
#X connect 20 0 16 1;
#X connect 21 0 10 0;
#X connect 23 0 24 0;
#X connect 23 0 40 0;
#X connect 24 0 25 0;
#X connect 24 0 35 0;
#X connect 25 0 30 0;
#X connect 25 1 26 0;
#X connect 26 0 27 0;
#X connect 27 0 28 0;
#X connect 28 0 43 0;
#X connect 28 0 44 0;
#X connect 28 0 46 0;
#X connect 29 0 48 0;
#X connect 29 0 46 0;
#X connect 30 0 29 0;
#X connect 31 0 38 0;
#X connect 32 0 31 1;
#X connect 34 0 26 2;
#X connect 34 0 25 1;
#X connect 36 0 37 0;
#X connect 37 0 41 0;
#X connect 38 0 33 0;
#X connect 39 0 26 1;
#X connect 40 0 31 0;
#X connect 41 0 42 0;
#X connect 42 0 38 1;
#X connect 43 0 32 0;
#X connect 47 0 10 0;
#X connect 48 0 32 0;
#X connect 49 0 17 0;
#X connect 50 0 39 0;
#X restore 843 521 pd limiter2;
#X obj 753 408 vsl 8 200 0 1 0 0 \$0-foo \$0-limdispL empty 0 -9 0
10 -262144 -1 -1 19900 1;
#X obj 763 408 vsl 8 200 0 1 0 0 \$0-foo \$0-limdispR empty 0 -9 0
10 -262144 -1 -1 19900 1;
#X obj 1017 531 r \$0-limitsnd;
#N canvas 413 224 779 491 autowah 0;
#X obj 149 48 inlet~;
#X obj 261 50 inlet~;
#X obj 125 431 outlet~;
#X obj 268 439 outlet~;
#X obj 117 312 *~;
#X obj 146 311 *~;
#X obj 287 316 *~;
#X obj 316 315 *~;
#X obj 452 193 r \$0-autowahonoffsnd;
#X obj 452 215 sel 0 1;
#X obj 452 259 unpack f f;
#X obj 158 215 bob~;
#X obj 313 213 bob~;
#X obj 503 83 loadbang;
#X obj 503 130 sig~;
#X obj 349 52 osc~ 1;
#X msg 452 237 1 0;
#X msg 486 236 0 1;
#X obj 163 74 hip~ 30;
#X obj 268 77 hip~ 30;
#X obj 459 32 r \$0-autowahspdsnd;
#X obj 350 123 *~ 16;
#X obj 350 145 midiratio~;
#X obj 468 51 r \$0-autowahcentersnd;
#X obj 350 167 *~;
#X obj 468 73 smoother 35;
#X obj 600 27 r \$0-autowahdepthsnd;
#X obj 313 235 *~ 1.3;
#X obj 158 237 *~ 1.3;
#X obj 349 74 *~;
#X obj 349 96 clip~ -1 1;
#X obj 401 1 r \$0-autowahshapesnd;
#X msg 499 111 2.5, f 5;
#X connect 0 0 18 0;
#X connect 0 0 4 0;
#X connect 1 0 19 0;
#X connect 1 0 6 0;
#X connect 4 0 2 0;
#X connect 5 0 2 0;
#X connect 6 0 3 0;
#X connect 7 0 3 0;
#X connect 8 0 9 0;
#X connect 9 0 16 0;
#X connect 9 1 17 0;
#X connect 10 0 4 1;
#X connect 10 0 6 1;
#X connect 10 1 5 1;
#X connect 10 1 7 1;
#X connect 11 0 28 0;
#X connect 12 0 27 0;
#X connect 13 0 32 0;
#X connect 14 0 12 2;
#X connect 14 0 11 2;
#X connect 15 0 29 0;
#X connect 16 0 10 0;
#X connect 17 0 10 0;
#X connect 18 0 11 0;
#X connect 19 0 12 0;
#X connect 20 0 15 0;
#X connect 21 0 22 0;
#X connect 22 0 24 0;
#X connect 23 0 25 0;
#X connect 24 0 12 1;
#X connect 24 0 11 1;
#X connect 25 0 24 1;
#X connect 26 0 21 1;
#X connect 27 0 7 0;
#X connect 28 0 5 0;
#X connect 29 0 30 0;
#X connect 30 0 21 0;
#X connect 31 0 29 1;
#X connect 32 0 14 0;
#X restore 1161 296 pd autowah;
#X obj 952 289 tgl 35 0 \$0-autowahonoffsnd \$0-autowahonoffrcv empty
17 7 0 10 -262144 -1 -1 0 1;
#X obj 951 69 vsl 25 200 0.2 45 1 0 \$0-autowahspdsnd \$0-autowahspdrcv
awspd 0 -9 0 10 -262144 -1 -1 19900 1;
#N canvas 121 91 1360 716 presets 0;
#X obj 18 18 cnv 15 196 146 empty empty scars 66 130 0 14 -232252 -241604
0;
#X obj 28 28 bng 20 250 50 0 \$0-preset1snd \$0-preset1rcv empty 17
7 0 10 -261681 -1 -262144;
#X obj 50 28 bng 20 250 50 0 \$0-preset2snd \$0-preset2rcv empty 17
7 0 10 -261681 -1 -262144;
#X obj 72 28 bng 20 250 50 0 \$0-preset3snd \$0-preset3rcv empty 17
7 0 10 -261681 -1 -262144;
#X obj 94 28 bng 20 250 50 0 \$0-preset4snd \$0-preset4rcv empty 17
7 0 10 -261681 -1 -262144;
#X obj 116 28 bng 20 250 50 0 \$0-preset5snd \$0-preset5rcv empty 17
7 0 10 -261681 -1 -262144;
#X obj 138 28 bng 20 250 50 0 \$0-preset6snd \$0-preset6rcv empty 17
7 0 10 -262144 -1 -262144;
#X obj 160 28 bng 20 250 50 0 \$0-preset7snd \$0-preset7rcv empty 17
7 0 10 -261681 -1 -262144;
#X obj 182 28 bng 20 250 50 0 \$0-preset8snd \$0-preset8rcv empty 17
7 0 10 -261681 -1 -262144;
#X obj 28 50 bng 20 250 50 0 \$0-preset9snd \$0-preset9rcv empty 17
7 0 10 -261681 -1 -262144;
#X obj 50 50 bng 20 250 50 0 \$0-preset10snd \$0-preset10rcv empty
17 7 0 10 -261681 -1 -262144;
#X obj 72 50 bng 20 250 50 0 \$0-preset11snd \$0-preset11rcv empty
17 7 0 10 -261681 -1 -262144;
#X obj 94 50 bng 20 250 50 0 \$0-preset12snd \$0-preset12rcv empty
17 7 0 10 -261681 -1 -262144;
#X obj 116 50 bng 20 250 50 0 \$0-preset13snd \$0-preset13rcv empty
17 7 0 10 -261681 -1 -262144;
#X obj 138 50 bng 20 250 50 0 \$0-preset14snd \$0-preset14rcv empty
17 7 0 10 -261681 -1 -262144;
#X obj 160 50 bng 20 250 50 0 \$0-preset15snd \$0-preset15rcv empty
17 7 0 10 -262144 -1 -262144;
#X obj 182 50 bng 20 250 50 0 \$0-preset16snd \$0-preset16rcv empty
17 7 0 10 -143491 -1 -262144;
#X obj 28 72 bng 20 250 50 0 \$0-preset17snd \$0-preset17rcv empty
17 7 0 10 -261681 -1 -262144;
#X obj 50 72 bng 20 250 50 0 \$0-preset18snd \$0-preset18rcv empty
17 7 0 10 -261681 -1 -262144;
#X obj 72 72 bng 20 250 50 0 \$0-preset19snd \$0-preset19rcv empty
17 7 0 10 -261681 -1 -262144;
#X obj 94 72 bng 20 250 50 0 \$0-preset20snd \$0-preset20rcv empty
17 7 0 10 -262144 -1 -262144;
#X obj 116 72 bng 20 250 50 0 \$0-preset21snd \$0-preset21rcv empty
17 7 0 10 -262144 -1 -262144;
#X obj 138 72 bng 20 250 50 0 \$0-preset22snd \$0-preset22rcv empty
17 7 0 10 -262144 -1 -262144;
#X obj 160 72 bng 20 250 50 0 \$0-preset23snd \$0-preset23rcv empty
17 7 0 10 -262144 -1 -262144;
#X obj 182 72 bng 20 250 50 0 \$0-preset24snd \$0-preset24rcv empty
17 7 0 10 -261681 -1 -262144;
#X obj 28 94 bng 20 250 50 0 \$0-preset25snd \$0-preset25rcv empty
17 7 0 10 -262144 -1 -262144;
#X obj 50 94 bng 20 250 50 0 \$0-preset26snd \$0-preset26rcv empty
17 7 0 10 -262144 -1 -262144;
#X obj 72 94 bng 20 250 50 0 \$0-preset27snd \$0-preset27rcv empty
17 7 0 10 -262144 -1 -262144;
#X obj 94 94 bng 20 250 50 0 \$0-preset28snd \$0-preset28rcv empty
17 7 0 10 -262144 -1 -262144;
#X obj 116 94 bng 20 250 50 0 \$0-preset29snd \$0-preset29rcv empty
17 7 0 10 -262144 -1 -262144;
#X obj 138 94 bng 20 250 50 0 \$0-preset30snd \$0-preset30rcv empty
17 7 0 10 -262144 -1 -262144;
#X obj 160 94 bng 20 250 50 0 \$0-preset31snd \$0-preset31rcv empty
17 7 0 10 -262144 -1 -262144;
#X obj 182 94 bng 20 250 50 0 \$0-preset32snd \$0-preset32rcv empty
17 7 0 10 -262144 -1 -262144;
#X obj 28 116 bng 20 250 50 0 \$0-preset33snd \$0-preset33rcv empty
17 7 0 10 -262144 -1 -262144;
#X obj 50 116 bng 20 250 50 0 \$0-preset34snd \$0-preset34rcv empty
17 7 0 10 -261681 -1 -262144;
#X obj 72 116 bng 20 250 50 0 \$0-preset35snd \$0-preset35rcv empty
17 7 0 10 -262144 -1 -262144;
#X obj 94 116 bng 20 250 50 0 \$0-preset36snd \$0-preset36rcv empty
17 7 0 10 -262144 -1 -262144;
#X obj 116 116 bng 20 250 50 0 \$0-preset37snd \$0-preset37rcv empty
17 7 0 10 -262144 -1 -262144;
#X obj 138 116 bng 20 250 50 0 \$0-preset38snd \$0-preset38rcv empty
17 7 0 10 -262144 -1 -262144;
#X obj 160 116 bng 20 250 50 0 \$0-preset39snd \$0-preset39rcv empty
17 7 0 10 -262144 -1 -262144;
#X obj 182 116 bng 20 250 50 0 \$0-preset40snd \$0-preset40rcv empty
17 7 0 10 -262144 -1 -262144;
#N canvas 0 24 1360 692 presets 0;
#X obj 108 23 inlet data;
#X msg 174 416 0 -0.999 0.501114 0.500624 0.447677 0.173731 0.237968
0.545663 0.404217 0.429719 0 11.5275 0.98394 0.555276 0 0 2265.39 0.369347
1.65829 1 3.34504 1394.65 28.2613 1.33797 0 89.108;
#X msg 66 530;
#X msg 99 530;
#X msg 133 530;
#X msg 166 530;
#X msg 198 530;
#X msg 231 530;
#X msg 265 530;
#X msg 298 530 0 -0.988469 0.581292 0.699332 0.537801 0.51431 -0.0561497
0.096 0.0321285 0.0388755 0.788945 1.69006 0.858437 0.515075 0 0 397.804
0.753769 1.65829 0 2.31649 3348.33 23.8643 25 0 48.103;
#X msg 585 597;
#X msg 618 597 0 -0.990488 0.587973 0.587973 1.66854 1.66854 -0.4191
0 0.0381526 0.0361446 0.241206 100 0.916168 0.5201 0 0 2819.73 0.743719
7.65075 1 13.0437 3176.25 34.2412 25 0 73.9447;
#X msg 652 597;
#X msg 685 597;
#X msg 717 597;
#X msg 750 597;
#X msg 784 597;
#X msg 817 597;
#X obj 107 103 list prepend set;
#X obj 104 52 route 1 2 3 4 5 6 7 8 9 10 11 12 13 14 15 16 17 18 19
20 21 22 23 24 25 26 27 28 29 30 31 32 33 34 35 36 37 38 39 40;
#X obj 107 125 list trim;
#X obj 215 102 list prepend set;
#X obj 215 124 list trim;
#X obj 323 102 list prepend set;
#X obj 323 124 list trim;
#X obj 433 101 list prepend set;
#X obj 433 123 list trim;
#X obj 540 101 list prepend set;
#X obj 540 123 list trim;
#X obj 648 100 list prepend set;
#X obj 648 122 list trim;
#X obj 760 101 list prepend set;
#X obj 760 123 list trim;
#X obj 868 100 list prepend set;
#X obj 868 122 list trim;
#X obj 728 17 inlet loadnumber;
#X obj 728 55 sel 1 2 3 4 5 6 7 8 9 10 11 12 13 14 15 16 17 18 19 20
21 22 23 24 25 26 27 28 29 30 31 32 33 34 35 36 37 38 39 40;
#X obj 444 674 outlet loaddata;
#X obj 116 149 list prepend set;
#X obj 116 171 list trim;
#X obj 224 148 list prepend set;
#X obj 224 170 list trim;
#X obj 332 148 list prepend set;
#X obj 332 170 list trim;
#X obj 440 147 list prepend set;
#X obj 440 169 list trim;
#X obj 549 147 list prepend set;
#X obj 549 169 list trim;
#X obj 657 146 list prepend set;
#X obj 657 168 list trim;
#X obj 769 147 list prepend set;
#X obj 769 169 list trim;
#X obj 877 146 list prepend set;
#X obj 877 168 list trim;
#X obj 137 193 list prepend set;
#X obj 137 215 list trim;
#X obj 245 192 list prepend set;
#X obj 245 214 list trim;
#X obj 353 192 list prepend set;
#X obj 353 214 list trim;
#X obj 461 191 list prepend set;
#X obj 461 213 list trim;
#X obj 570 191 list prepend set;
#X obj 570 213 list trim;
#X obj 678 190 list prepend set;
#X obj 678 212 list trim;
#X obj 790 191 list prepend set;
#X obj 790 213 list trim;
#X obj 898 190 list prepend set;
#X obj 898 212 list trim;
#X msg 41 415 0 -0.998 0.518931 0.518931 6.75752 6.18007 0.157754 0.148594
0 0.935743 0.0703518 12.1484 0.999 0.786432 0 1 5059.76 0.640703 2.22362
0 14.1534 101.85 1 25 1 53.6558;
#X msg 142 416 0 -0.998 0.501114 0.500624 0.118992 0.121535 0.0219251
0.0115261 0.00662651 0.0321285 0.00246231 11.5275 0.98394 0.555276
0 1 2265.39 0.213568 1.65829 0 0.554984 1394.65 28.2613 1.33797 0 89.108
;
#X msg 207 416 0 -0.999 0.501114 0.500624 0.447677 0.173731 0.371658
0.545663 0.404217 0.429719 0.0301508 11.5275 0.98394 0.555276 1 1 3.17052
0.701005 1.65829 1 3.34504 1394.65 28.2613 1.33797 0 89.108;
#X msg 240 416;
#X msg 274 416;
#X msg 91 492 0 -0.999 0.521158 0.567929 1.17369 1.17369 0.0151 0.649468
0 0 0.527638 7.9247 0.999 0.5201 0 1 24.8615 0.527638 7.65075 1 18.4748
1281.75 34.2412 25 1 73.9447;
#X msg 125 492;
#X msg 158 492;
#X msg 190 492;
#X msg 223 492;
#X msg 257 492;
#X msg 290 492 0 -0.998 0.518931 0.523385 6.75752 4.65742 -0.5751 0
0 0 0.582915 12.1484 0.999 0.786432 0 0 1539.08 0.753769 1.65829 0
14.1534 120.582 1 25 0 53.6558;
#X obj 147 241 list prepend set;
#X obj 147 263 list trim;
#X obj 255 240 list prepend set;
#X obj 255 262 list trim;
#X obj 363 240 list prepend set;
#X obj 363 262 list trim;
#X obj 471 239 list prepend set;
#X obj 471 261 list trim;
#X obj 580 239 list prepend set;
#X obj 580 261 list trim;
#X obj 688 238 list prepend set;
#X obj 688 260 list trim;
#X obj 800 239 list prepend set;
#X obj 800 261 list trim;
#X obj 908 238 list prepend set;
#X obj 908 260 list trim;
#X obj 167 291 list prepend set;
#X obj 167 313 list trim;
#X obj 275 290 list prepend set;
#X obj 275 312 list trim;
#X obj 383 290 list prepend set;
#X obj 383 312 list trim;
#X obj 491 289 list prepend set;
#X obj 491 311 list trim;
#X obj 600 289 list prepend set;
#X obj 600 311 list trim;
#X obj 708 288 list prepend set;
#X obj 708 310 list trim;
#X obj 820 289 list prepend set;
#X obj 820 311 list trim;
#X obj 928 288 list prepend set;
#X obj 928 310 list trim;
#X msg 32 344 0 -0.999 0.521158 0.567929 0.1 0.1 -0.0191 0 0 0 0.527638
11.8339 0.999 0.5201 0 0 24.8615 0.527638 7.65075 0 1.78871 1281.75
34.2412 25 0 73.9447;
#X msg 254 335 0 -0.998 0.244989 0.278396 0.1 0.1 0.0989305 0 0 0 0.527638
14.425 0.999 0.5201 0 0 1504.49 0.507538 7.65075 0 1.78871 427.764
31.4271 2.28174 1 41.4824;
#X msg 394 342 0 -0.998 0.0957684 0.0868597 0.1 0.1 0.403743 0.13253
0.485944 0.0180723 0.457286 11.062 0.870987 0.5201 0 1 2929.44 0.746231
4.5603 1 13.4036 2981.39 33.2739 25 1 70.7412;
#X msg 652 391 0 -0.998 0.0957684 0.0868597 0.1 0.1 0.403743 0.441767
0.104418 0.329317 0.467337 0.854464 0.848397 0.650754 0 1 3250.15 0.5
4.5603 1 13.4036 2981.39 33.2739 25 0 76.7211;
#X msg 804 333 0 -0.998 0.465479 0.494432 0.703079 0.399308 -0.0111
0 0 0.0060241 0.417085 0.802728 0.99398 0.91206 0 1 1072.23 0.71608
13.6055 0 1.83807 2465.64 31.691 2.03747 0 76.7211;
#X msg 872 346 0 -0.998 0.518931 0.505568 4.9432 4.19648 -0.013369
0.15261 0 0 0.276382 12.1484 0.818276 0.5201 0 0 379.405 0.404523 5.84171
1 8.67165 286.459 29.1407 25 1 96.3693;
#X msg 998 346 0 -0.998 0.518931 0.518931 0.825598 0.825598 -0.024
0.706827 0.164659 0.0441767 0.346734 12.1484 0.47691 0.5201 0 0 292.41
0.866834 3.80653 1 14.1534 286.459 34.505 25 0 86.5452;
#X msg 1144 341 0 -0.998 0.518931 0.518931 1.71769 1.71769 0.072 0.148594
0 0.935743 0.0703518 0.260803 0.160643 0.5201 0 1 497.544 0.404523
3.80653 1 14.1534 286.459 34.505 25 0 90.8166;
#X msg 75 416 0 -0.998 0.518931 0.518931 6.75752 6.75752 -0.013369
0.148594 0 0 0.0150754 12.1484 0.999 0.786432 0 0 497.575 0.404523
1.65829 1 14.1534 120.582 1 25 1 53.6558;
#X msg 109 416 0 -0.998 0.518931 0.523385 6.75752 6.75752 -0.013369
0 0 0 0.0201005 12.1484 0.999 0.786432 0 1 1539.08 0.753769 1.65829
1 14.1534 120.582 1 25 1 53.6558;
#X msg 58 492 0 -0.998 0.487751 0.445434 0.1 0.1 0.318182 0 0.212851
0.751004 0.276382 12.1484 0.818276 0.5201 0 1 520.562 0.962312 4.5603
0 7.99175 2981.39 31.5151 25 0 96.3693;
#X connect 0 0 19 0;
#X connect 1 0 37 0;
#X connect 2 0 37 0;
#X connect 3 0 37 0;
#X connect 4 0 37 0;
#X connect 5 0 37 0;
#X connect 6 0 37 0;
#X connect 7 0 37 0;
#X connect 8 0 37 0;
#X connect 9 0 37 0;
#X connect 10 0 37 0;
#X connect 11 0 37 0;
#X connect 12 0 37 0;
#X connect 13 0 37 0;
#X connect 14 0 37 0;
#X connect 15 0 37 0;
#X connect 16 0 37 0;
#X connect 17 0 37 0;
#X connect 18 0 20 0;
#X connect 19 0 18 0;
#X connect 19 1 21 0;
#X connect 19 2 23 0;
#X connect 19 3 25 0;
#X connect 19 4 27 0;
#X connect 19 5 29 0;
#X connect 19 6 31 0;
#X connect 19 7 33 0;
#X connect 19 8 38 0;
#X connect 19 9 40 0;
#X connect 19 10 42 0;
#X connect 19 11 44 0;
#X connect 19 12 46 0;
#X connect 19 13 48 0;
#X connect 19 14 50 0;
#X connect 19 15 52 0;
#X connect 19 16 54 0;
#X connect 19 17 56 0;
#X connect 19 18 58 0;
#X connect 19 19 60 0;
#X connect 19 20 62 0;
#X connect 19 21 64 0;
#X connect 19 22 66 0;
#X connect 19 23 68 0;
#X connect 19 24 82 0;
#X connect 19 25 84 0;
#X connect 19 26 86 0;
#X connect 19 27 88 0;
#X connect 19 28 90 0;
#X connect 19 29 92 0;
#X connect 19 30 94 0;
#X connect 19 31 96 0;
#X connect 19 32 98 0;
#X connect 19 33 100 0;
#X connect 19 34 102 0;
#X connect 19 35 104 0;
#X connect 19 36 106 0;
#X connect 19 37 108 0;
#X connect 19 38 110 0;
#X connect 19 39 112 0;
#X connect 20 0 114 0;
#X connect 21 0 22 0;
#X connect 22 0 115 0;
#X connect 23 0 24 0;
#X connect 24 0 116 0;
#X connect 25 0 26 0;
#X connect 26 0 117 0;
#X connect 27 0 28 0;
#X connect 28 0 118 0;
#X connect 29 0 30 0;
#X connect 30 0 119 0;
#X connect 31 0 32 0;
#X connect 32 0 120 0;
#X connect 33 0 34 0;
#X connect 34 0 121 0;
#X connect 35 0 36 0;
#X connect 36 0 114 0;
#X connect 36 1 115 0;
#X connect 36 2 116 0;
#X connect 36 3 117 0;
#X connect 36 4 118 0;
#X connect 36 5 119 0;
#X connect 36 6 120 0;
#X connect 36 7 121 0;
#X connect 36 8 70 0;
#X connect 36 9 122 0;
#X connect 36 10 123 0;
#X connect 36 11 71 0;
#X connect 36 12 1 0;
#X connect 36 13 72 0;
#X connect 36 14 73 0;
#X connect 36 15 74 0;
#X connect 36 16 124 0;
#X connect 36 17 75 0;
#X connect 36 18 76 0;
#X connect 36 19 77 0;
#X connect 36 20 78 0;
#X connect 36 21 79 0;
#X connect 36 22 80 0;
#X connect 36 23 81 0;
#X connect 36 24 2 0;
#X connect 36 25 3 0;
#X connect 36 26 4 0;
#X connect 36 27 5 0;
#X connect 36 28 6 0;
#X connect 36 29 7 0;
#X connect 36 30 8 0;
#X connect 36 31 9 0;
#X connect 36 32 10 0;
#X connect 36 33 11 0;
#X connect 36 34 12 0;
#X connect 36 35 13 0;
#X connect 36 36 14 0;
#X connect 36 37 15 0;
#X connect 36 38 16 0;
#X connect 36 39 17 0;
#X connect 38 0 39 0;
#X connect 39 0 70 0;
#X connect 40 0 41 0;
#X connect 41 0 122 0;
#X connect 42 0 43 0;
#X connect 43 0 123 0;
#X connect 44 0 45 0;
#X connect 45 0 71 0;
#X connect 46 0 47 0;
#X connect 47 0 1 0;
#X connect 48 0 49 0;
#X connect 49 0 72 0;
#X connect 50 0 51 0;
#X connect 51 0 73 0;
#X connect 52 0 53 0;
#X connect 53 0 74 0;
#X connect 54 0 55 0;
#X connect 55 0 124 0;
#X connect 56 0 57 0;
#X connect 57 0 75 0;
#X connect 58 0 59 0;
#X connect 59 0 76 0;
#X connect 60 0 61 0;
#X connect 61 0 77 0;
#X connect 62 0 63 0;
#X connect 63 0 78 0;
#X connect 64 0 65 0;
#X connect 65 0 79 0;
#X connect 66 0 67 0;
#X connect 67 0 80 0;
#X connect 68 0 69 0;
#X connect 69 0 81 0;
#X connect 70 0 37 0;
#X connect 71 0 37 0;
#X connect 72 0 37 0;
#X connect 73 0 37 0;
#X connect 74 0 37 0;
#X connect 75 0 37 0;
#X connect 76 0 37 0;
#X connect 77 0 37 0;
#X connect 78 0 37 0;
#X connect 79 0 37 0;
#X connect 80 0 37 0;
#X connect 81 0 37 0;
#X connect 82 0 83 0;
#X connect 83 0 2 0;
#X connect 84 0 85 0;
#X connect 85 0 3 0;
#X connect 86 0 87 0;
#X connect 87 0 4 0;
#X connect 88 0 89 0;
#X connect 89 0 5 0;
#X connect 90 0 91 0;
#X connect 91 0 6 0;
#X connect 92 0 93 0;
#X connect 93 0 7 0;
#X connect 94 0 95 0;
#X connect 95 0 8 0;
#X connect 96 0 97 0;
#X connect 97 0 9 0;
#X connect 98 0 99 0;
#X connect 99 0 10 0;
#X connect 100 0 101 0;
#X connect 101 0 11 0;
#X connect 102 0 103 0;
#X connect 103 0 12 0;
#X connect 104 0 105 0;
#X connect 105 0 13 0;
#X connect 106 0 107 0;
#X connect 107 0 14 0;
#X connect 108 0 109 0;
#X connect 109 0 15 0;
#X connect 110 0 111 0;
#X connect 111 0 16 0;
#X connect 112 0 113 0;
#X connect 113 0 17 0;
#X connect 114 0 37 0;
#X connect 115 0 37 0;
#X connect 116 0 37 0;
#X connect 117 0 37 0;
#X connect 118 0 37 0;
#X connect 119 0 37 0;
#X connect 120 0 37 0;
#X connect 121 0 37 0;
#X connect 122 0 37 0;
#X connect 123 0 37 0;
#X connect 124 0 37 0;
#X restore 424 400 pd presets;
#X obj 26 140 bng 20 250 50 0 empty empty save 25 7 0 10 -169710 -1
-1;
#X obj 278 230 v \$0-currentpreset;
#X floatatom 328 266 5 0 0 0 - - -;
#X obj 237 203 t b b b;
#X obj 417 375 list prepend;
#X obj 255 288 bng 15 250 50 0 empty empty empty 17 7 0 10 -262144
-1 -1;
#N canvas 1284 36 632 1008 bangreceivesandcolors 0;
#X obj 59 25 r \$0-preset1snd;
#X obj 183 26 r \$0-preset2snd;
#X obj 296 27 r \$0-preset3snd;
#X obj 441 29 r \$0-preset4snd;
#X obj 559 28 r \$0-preset5snd;
#X obj 666 28 r \$0-preset6snd;
#X obj 777 28 r \$0-preset7snd;
#X obj 898 26 r \$0-preset8snd;
#X obj 284 485 t b b b;
#X msg 297 547 16;
#X obj 556 586 v \$0-currentpreset;
#X obj 564 618 makefilename \$0-preset%drcv;
#X obj 505 664 s;
#X obj 519 555 t b b, f 6;
#X obj 263 568 v \$0-currentpreset;
#X obj 184 604 v \$0-currentpreset;
#X obj 198 626 makefilename \$0-preset%drcv;
#X obj 137 659 s;
#X obj 147 573 t b b, f 6;
#X msg 286 222 set 1;
#X obj 262 188 t b b;
#X obj 328 187 t b b;
#X msg 352 221 set 2;
#X obj 406 187 t b b;
#X obj 471 187 t b b;
#X obj 548 181 t b b;
#X obj 614 180 t b b;
#X obj 691 180 t b b;
#X obj 757 179 t b b;
#X msg 430 221 set 3;
#X msg 496 221 set 4;
#X msg 572 215 set 5;
#X msg 637 214 set 6;
#X msg 715 214 set 7;
#X msg 781 213 set 8;
#X obj 89 55 r \$0-preset9snd;
#X obj 212 56 r \$0-preset10snd;
#X obj 326 57 r \$0-preset11snd;
#X obj 469 59 r \$0-preset12snd;
#X obj 589 58 r \$0-preset13snd;
#X obj 696 58 r \$0-preset14snd;
#X obj 808 58 r \$0-preset15snd;
#X obj 928 56 r \$0-preset16snd;
#X obj 294 257 t b b;
#X obj 360 256 t b b;
#X obj 438 256 t b b;
#X obj 504 255 t b b;
#X obj 580 250 t b b;
#X obj 646 249 t b b;
#X obj 723 249 t b b;
#X obj 789 248 t b b;
#X msg 318 291 set 9;
#X msg 384 290 set 10;
#X msg 462 290 set 11;
#X msg 528 290 set 12;
#X msg 604 284 set 13;
#X msg 669 283 set 14;
#X msg 747 283 set 15;
#X msg 813 282 set 16;
#X obj 318 666 outlet currentpreset;
#X obj 411 322 t b b;
#X obj 477 321 t b b;
#X obj 555 321 t b b;
#X obj 621 320 t b b;
#X obj 697 315 t b b;
#X msg 435 356 set 17;
#X msg 501 355 set 18;
#X msg 579 355 set 19;
#X msg 645 355 set 20;
#X msg 721 349 set 21;
#X msg 799 353 set 22;
#X msg 864 348 set 23;
#X msg 930 347 set 24;
#X obj 774 316 t b b;
#X obj 840 315 t b b;
#X obj 916 310 t b b;
#X obj 119 85 r \$0-preset17snd;
#X obj 243 86 r \$0-preset18snd;
#X obj 356 87 r \$0-preset19snd;
#X obj 501 89 r \$0-preset20snd;
#X obj 619 88 r \$0-preset21snd;
#X obj 726 88 r \$0-preset22snd;
#X obj 837 88 r \$0-preset23snd;
#X obj 958 86 r \$0-preset24snd;
#X obj 154 115 r \$0-preset25snd;
#X obj 273 116 r \$0-preset26snd;
#X obj 386 117 r \$0-preset27snd;
#X obj 531 119 r \$0-preset28snd;
#X obj 650 119 r \$0-preset29snd;
#X obj 756 118 r \$0-preset30snd;
#X obj 867 118 r \$0-preset31snd;
#X obj 988 116 r \$0-preset32snd;
#X obj 569 393 t b b;
#X obj 635 392 t b b;
#X obj 713 392 t b b;
#X obj 779 391 t b b;
#X obj 855 386 t b b;
#X obj 932 387 t b b;
#X obj 998 386 t b b;
#X obj 1074 381 t b b;
#X msg 593 427 set 25;
#X msg 659 427 set 26;
#X msg 734 426 set 27;
#X msg 802 426 set 28;
#X msg 879 420 set 29;
#X msg 956 424 set 30;
#X msg 1022 419 set 31;
#X msg 1088 418 set 32;
#X obj 650 473 t b b;
#X obj 716 472 t b b;
#X obj 794 472 t b b;
#X obj 860 471 t b b;
#X obj 936 466 t b b;
#X obj 1013 467 t b b;
#X obj 1079 466 t b b;
#X msg 674 507 set 33;
#X msg 740 507 set 34;
#X msg 815 506 set 35;
#X msg 883 506 set 36;
#X msg 960 500 set 37;
#X msg 1037 504 set 38;
#X msg 1103 499 set 39;
#X msg 1169 498 set 40;
#X obj 189 145 r \$0-preset33snd;
#X obj 309 145 r \$0-preset34snd;
#X obj 426 147 r \$0-preset35snd;
#X obj 571 149 r \$0-preset36snd;
#X obj 689 148 r \$0-preset37snd;
#X obj 798 146 r \$0-preset38snd;
#X obj 907 148 r \$0-preset39snd;
#X obj 1028 146 r \$0-preset40snd;
#X obj 1164 455 t b b;
#X msg 133 632 color 23;
#N canvas 822 449 450 327 initcolours 0;
#X obj 213 20 loadbang;
#X obj 278 157 + 1;
#X obj 217 158 f 1;
#X obj 250 225 bang;
#X msg 190 113 1;
#X obj 142 283 outlet number;
#X obj 250 247 delay 1;
#X obj 217 189 sel 40;
#X obj 115 34 inlet;
#X connect 0 0 4 0;
#X connect 1 0 2 1;
#X connect 2 0 1 0;
#X connect 2 0 5 0;
#X connect 2 0 7 0;
#X connect 3 0 6 0;
#X connect 4 0 2 0;
#X connect 6 0 2 0;
#X connect 7 1 3 0;
#X connect 8 0 4 0;
#X restore 645 544 pd initcolours;
#X obj 644 566 t b f f;
#X obj 758 568 bng 15 250 50 0 empty empty reset\\\ colours 27 4 0
10 -262144 -1 -1;
#N canvas 576 299 450 300 getsavecolors 0;
#X obj 151 20 inlet presetnumber;
#X obj 29 30 inlet bang;
#X obj 151 42 tabread \$0-saved;
#X obj 151 64 sel 0 1;
#X msg 148 104 0;
#X msg 180 118 4;
#X obj 100 228 outlet;
#X msg 141 149 set color \$1;
#X msg 141 171 color 0;
#X connect 0 0 2 0;
#X connect 1 0 8 0;
#X connect 2 0 3 0;
#X connect 3 0 4 0;
#X connect 3 1 5 0;
#X connect 4 0 7 0;
#X connect 5 0 7 0;
#X connect 7 0 8 0;
#X connect 8 0 6 0;
#X restore 438 614 pd getsavecolors;
#X connect 0 0 20 0;
#X connect 1 0 21 0;
#X connect 2 0 23 0;
#X connect 3 0 24 0;
#X connect 4 0 25 0;
#X connect 5 0 26 0;
#X connect 6 0 27 0;
#X connect 7 0 28 0;
#X connect 8 0 18 0;
#X connect 8 1 9 0;
#X connect 8 2 13 0;
#X connect 9 0 14 0;
#X connect 9 0 59 0;
#X connect 10 0 11 0;
#X connect 10 0 136 1;
#X connect 11 0 12 1;
#X connect 13 0 136 0;
#X connect 13 1 10 0;
#X connect 15 0 16 0;
#X connect 16 0 17 1;
#X connect 18 0 132 0;
#X connect 18 1 15 0;
#X connect 19 0 9 0;
#X connect 20 0 8 0;
#X connect 20 1 19 0;
#X connect 21 0 8 0;
#X connect 21 1 22 0;
#X connect 22 0 9 0;
#X connect 23 0 8 0;
#X connect 23 1 29 0;
#X connect 24 0 8 0;
#X connect 24 1 30 0;
#X connect 25 0 8 0;
#X connect 25 1 31 0;
#X connect 26 0 8 0;
#X connect 26 1 32 0;
#X connect 27 0 8 0;
#X connect 27 1 33 0;
#X connect 28 0 8 0;
#X connect 28 1 34 0;
#X connect 29 0 9 0;
#X connect 30 0 9 0;
#X connect 31 0 9 0;
#X connect 32 0 9 0;
#X connect 33 0 9 0;
#X connect 34 0 9 0;
#X connect 35 0 43 0;
#X connect 36 0 44 0;
#X connect 37 0 45 0;
#X connect 38 0 46 0;
#X connect 39 0 47 0;
#X connect 40 0 48 0;
#X connect 41 0 49 0;
#X connect 42 0 50 0;
#X connect 43 0 8 0;
#X connect 43 1 51 0;
#X connect 44 0 8 0;
#X connect 44 1 52 0;
#X connect 45 0 8 0;
#X connect 45 1 53 0;
#X connect 46 0 8 0;
#X connect 46 1 54 0;
#X connect 47 0 8 0;
#X connect 47 1 55 0;
#X connect 48 0 8 0;
#X connect 48 1 56 0;
#X connect 49 0 8 0;
#X connect 49 1 57 0;
#X connect 50 0 8 0;
#X connect 50 1 58 0;
#X connect 51 0 9 0;
#X connect 52 0 9 0;
#X connect 53 0 9 0;
#X connect 54 0 9 0;
#X connect 55 0 9 0;
#X connect 56 0 9 0;
#X connect 57 0 9 0;
#X connect 58 0 9 0;
#X connect 60 0 8 0;
#X connect 60 1 65 0;
#X connect 61 0 8 0;
#X connect 61 1 66 0;
#X connect 62 0 8 0;
#X connect 62 1 67 0;
#X connect 63 0 8 0;
#X connect 63 1 68 0;
#X connect 64 0 8 0;
#X connect 64 1 69 0;
#X connect 65 0 9 0;
#X connect 66 0 9 0;
#X connect 67 0 9 0;
#X connect 68 0 9 0;
#X connect 69 0 9 0;
#X connect 70 0 9 0;
#X connect 71 0 9 0;
#X connect 72 0 9 0;
#X connect 73 0 8 0;
#X connect 73 1 70 0;
#X connect 74 0 8 0;
#X connect 74 1 71 0;
#X connect 75 0 8 0;
#X connect 75 1 72 0;
#X connect 76 0 60 0;
#X connect 77 0 61 0;
#X connect 78 0 62 0;
#X connect 79 0 63 0;
#X connect 80 0 64 0;
#X connect 81 0 73 0;
#X connect 82 0 74 0;
#X connect 83 0 75 0;
#X connect 84 0 92 0;
#X connect 85 0 93 0;
#X connect 86 0 94 0;
#X connect 87 0 95 0;
#X connect 88 0 96 0;
#X connect 89 0 97 0;
#X connect 90 0 98 0;
#X connect 91 0 99 0;
#X connect 92 0 8 0;
#X connect 92 1 100 0;
#X connect 93 0 8 0;
#X connect 93 1 101 0;
#X connect 94 0 8 0;
#X connect 94 1 102 0;
#X connect 95 0 8 0;
#X connect 95 1 103 0;
#X connect 96 0 8 0;
#X connect 96 1 104 0;
#X connect 97 0 8 0;
#X connect 97 1 105 0;
#X connect 98 0 8 0;
#X connect 98 1 106 0;
#X connect 99 0 8 0;
#X connect 99 1 107 0;
#X connect 100 0 9 0;
#X connect 101 0 9 0;
#X connect 102 0 9 0;
#X connect 103 0 9 0;
#X connect 104 0 9 0;
#X connect 105 0 9 0;
#X connect 106 0 9 0;
#X connect 107 0 9 0;
#X connect 108 0 8 0;
#X connect 108 1 115 0;
#X connect 109 0 8 0;
#X connect 109 1 116 0;
#X connect 110 0 8 0;
#X connect 110 1 117 0;
#X connect 111 0 8 0;
#X connect 111 1 118 0;
#X connect 112 0 8 0;
#X connect 112 1 119 0;
#X connect 113 0 8 0;
#X connect 113 1 120 0;
#X connect 114 0 8 0;
#X connect 114 1 121 0;
#X connect 115 0 9 0;
#X connect 116 0 9 0;
#X connect 117 0 9 0;
#X connect 118 0 9 0;
#X connect 119 0 9 0;
#X connect 120 0 9 0;
#X connect 121 0 9 0;
#X connect 122 0 9 0;
#X connect 123 0 108 0;
#X connect 124 0 109 0;
#X connect 125 0 110 0;
#X connect 126 0 111 0;
#X connect 127 0 112 0;
#X connect 128 0 113 0;
#X connect 129 0 114 0;
#X connect 130 0 131 0;
#X connect 131 0 122 0;
#X connect 131 0 8 0;
#X connect 132 0 17 0;
#X connect 133 0 134 0;
#X connect 134 0 136 0;
#X connect 134 1 136 1;
#X connect 134 2 11 0;
#X connect 135 0 133 0;
#X connect 136 0 12 0;
#X restore 144 322 pd bangreceivesandcolors;
#X obj 414 313 pack \$1 \$2 \$3 \$4 \$5 \$6 \$7 \$8 \$9 \$10 \$11 \$12
\$13 \$14 \$15 \$16 \$17 \$18 \$19 \$20 \$21 \$22 \$23 \$24 \$25 \$26
;
#X obj 372 134 r \$0-pw1snd;
#X obj 387 155 r \$0-fbLsnd;
#X obj 408 176 r \$0-fbRsnd;
#X obj 422 197 r \$0-del1snd;
#X obj 441 220 r \$0-del2snd;
#X obj 454 243 r \$0-scrubsnd;
#X obj 519 133 r \$0-delmodsnd;
#X obj 519 155 r \$0-crossmodsnd;
#X obj 519 177 r \$0-feedthrusnd;
#X obj 636 134 r \$0-tremauxsnd;
#X obj 636 156 r \$0-tremspdsnd;
#X obj 636 178 r \$0-trempwsnd;
#X obj 636 200 r \$0-tremphasesnd;
#X obj 765 130 r \$0-ringmodpitchsnd;
#X obj 765 152 r \$0-ringmodblendsnd;
#X obj 636 222 r \$0-tremshapesnd;
#X obj 636 244 r \$0-tremmutesnd;
#X obj 765 174 r \$0-ringmoddetunesnd;
#X obj 765 196 r \$0-ringmodonoffsnd;
#X obj 919 135 r \$0-autowahspdsnd;
#X obj 919 157 r \$0-autowahcentersnd;
#X obj 919 179 r \$0-autowahdepthsnd;
#X obj 919 201 r \$0-autowahshapesnd;
#X obj 919 223 r \$0-autowahonoffsnd;
#X obj 991 274 r \$0-limitsnd;
#X obj 375 537 s \$0-pw1rcv;
#X obj 375 559 s \$0-fbLrcv;
#X obj 375 581 s \$0-fbRrcv;
#X obj 375 603 s \$0-del1rcv;
#X obj 375 625 s \$0-del2rcv;
#X obj 375 647 s \$0-scrubrcv;
#X obj 516 538 s \$0-delmodrcv;
#X obj 516 560 s \$0-crossmodrcv;
#X obj 516 582 s \$0-feedthrurcv;
#X obj 647 530 s \$0-tremauxrcv;
#X obj 647 552 s \$0-tremspdrcv;
#X obj 647 574 s \$0-trempwrcv;
#X obj 647 596 s \$0-tremphasercv;
#X obj 647 618 s \$0-tremshapercv;
#X obj 647 640 s \$0-tremmutercv;
#X obj 803 529 s \$0-ringmodpitchrcv;
#X obj 803 551 s \$0-ringmodblendrcv;
#X obj 803 573 s \$0-ringmoddetunercv;
#X obj 803 595 s \$0-ringmodonoffrcv;
#X obj 975 520 s \$0-autowahspdrcv;
#X obj 975 542 s \$0-autowahcenterrcv;
#X obj 975 564 s \$0-autowahdepthrcv;
#X obj 975 586 s \$0-autowahshapercv;
#X obj 975 608 s \$0-autowahonoffrcv;
#X obj 975 630 s \$0-limitrcv;
#X obj 421 436 unpack \$1 \$2 \$3 \$4 \$5 \$6 \$7 \$8 \$9 \$10 \$11
\$12 \$13 \$14 \$15 \$16 \$17 \$18 \$19 \$20 \$21 \$22 \$23 \$24 \$25
\$26;
#N canvas 626 303 676 257 savecolors 0;
#N canvas 0 0 450 300 (subpatch) 0;
#X array \$0-saved 41 float 3;
#A 0 0 1 1 1 1 1 0 1 1 1 1 1 1 1 1 0 0 1 1 1 0 0 0 0 1 0 0 0 0 0 0
0 0 0 1 0 0 0 0 0 0;
#X coords 0 1 41 0 200 140 1;
#X restore 30 30 graph;
#X obj 382 44 inlet savenumber;
#X obj 382 66 t b f;
#X msg 355 105 1;
#X msg 566 101 \; \$0-saved const 0;
#X obj 348 156 tabwrite \$0-saved;
#X obj 503 45 inlet clearnumber;
#X obj 503 67 t b f;
#X msg 478 97 0;
#X connect 1 0 2 0;
#X connect 2 0 3 0;
#X connect 2 1 5 1;
#X connect 3 0 5 0;
#X connect 6 0 7 0;
#X connect 7 0 8 0;
#X connect 7 1 5 1;
#X connect 8 0 5 0;
#X restore 280 398 pd savecolors;
#X obj 146 141 bng 20 250 50 0 empty empty clear 25 7 0 10 -215290
-1 -1;
#X obj 154 232 v \$0-currentpreset;
#X connect 41 0 100 0;
#X connect 42 0 45 0;
#X connect 43 0 44 0;
#X connect 43 0 46 1;
#X connect 43 0 101 0;
#X connect 45 1 49 0;
#X connect 45 2 43 0;
#X connect 46 0 41 0;
#X connect 47 0 49 0;
#X connect 48 0 41 1;
#X connect 49 0 46 0;
#X connect 50 0 49 1;
#X connect 51 0 49 2;
#X connect 52 0 49 3;
#X connect 53 0 49 4;
#X connect 54 0 49 5;
#X connect 55 0 49 6;
#X connect 56 0 49 7;
#X connect 57 0 49 8;
#X connect 58 0 49 9;
#X connect 59 0 49 10;
#X connect 60 0 49 11;
#X connect 61 0 49 12;
#X connect 62 0 49 13;
#X connect 63 0 49 16;
#X connect 64 0 49 17;
#X connect 65 0 49 14;
#X connect 66 0 49 15;
#X connect 67 0 49 18;
#X connect 68 0 49 19;
#X connect 69 0 49 20;
#X connect 70 0 49 21;
#X connect 71 0 49 22;
#X connect 72 0 49 23;
#X connect 73 0 49 24;
#X connect 74 0 49 25;
#X connect 100 1 75 0;
#X connect 100 2 76 0;
#X connect 100 3 77 0;
#X connect 100 4 78 0;
#X connect 100 5 79 0;
#X connect 100 6 80 0;
#X connect 100 7 81 0;
#X connect 100 8 82 0;
#X connect 100 9 83 0;
#X connect 100 10 84 0;
#X connect 100 11 85 0;
#X connect 100 12 86 0;
#X connect 100 13 87 0;
#X connect 100 14 88 0;
#X connect 100 15 89 0;
#X connect 100 16 90 0;
#X connect 100 17 91 0;
#X connect 100 18 92 0;
#X connect 100 19 93 0;
#X connect 100 20 94 0;
#X connect 100 21 95 0;
#X connect 100 22 96 0;
#X connect 100 23 97 0;
#X connect 100 24 98 0;
#X connect 100 25 99 0;
#X connect 102 0 103 0;
#X connect 103 0 101 1;
#X coords 0 -1 1 1 200 150 1 16 16;
#X restore 116 590 pd presets;
#X obj 982 79 vsl 25 200 75 5000 1 0 \$0-autowahcentersnd \$0-autowahcenterrcv
awcent 0 -9 0 10 -262144 -1 -1 15450 1;
#X obj 1012 90 vsl 25 200 1 36 0 0 \$0-autowahdepthsnd \$0-autowahdepthrcv
awdepth 0 -9 0 10 -262144 -1 -1 18900 1;
#X obj 1041 102 vsl 25 200 1 25 1 0 \$0-autowahshapesnd \$0-autowahshapercv
awshape 0 -9 0 10 -262144 -1 -1 19900 1;
#X obj 843 451 simplehip 0 257.621 4.5597;
#X obj 24 54 vsl 20 100 0.2 100 1 0 \$0-trempreset1snd \$0-trempreset1rcv
TSP1 0 -9 0 10 -262144 -1 -1 1700 1;
#X obj 51 54 vsl 20 100 0.2 100 1 0 \$0-trempreset2snd \$0-trempreset2rcv
TSP2 0 -9 0 10 -262144 -1 -1 0 1;
#X obj 80 55 vsl 20 100 0.2 100 1 0 \$0-trempreset3snd \$0-trempreset3rcv
TSP3 0 -9 0 10 -262144 -1 -1 0 1;
#N canvas 670 312 579 438 keyboard 0;
#X obj 34 16 key;
#X obj 50 115 s \$0-ringmodonoffrcv;
#X obj 34 60 tgl 15 0 empty empty empty 17 7 0 10 -262144 -1 -1 0 1
;
#X obj 66 62 tgl 15 0 empty empty empty 17 7 0 10 -262144 -1 -1 0 1
;
#X obj 76 137 s \$0-autowahonoffrcv;
#X floatatom 174 -2 5 0 0 0 - - -;
#X obj 104 61 tgl 15 0 empty empty empty 17 7 0 10 -262144 -1 -1 0
1;
#X obj 34 95 s \$0-tremmutercv;
#X obj 422 221 r \$0-trempreset1snd;
#X obj 439 243 r \$0-trempreset2snd;
#X obj 450 267 r \$0-trempreset3snd;
#X obj 460 315 s \$0-tremspdrcv;
#X obj 222 90 s \$0-trempreset1rcv;
#X obj 232 110 s \$0-trempreset2rcv;
#X obj 242 130 s \$0-trempreset3rcv;
#X floatatom 314 293 5 0 0 0 - - -;
#X obj 239 40 sel 97 111 101;
#X obj 366 44 sel 32;
#X obj 408 70 random 100;
#X obj 408 92 / 100;
#X obj 408 114 *;
#X obj 457 140 s \$0-delmodrcv;
#X floatatom 459 113 5 0 0 0 - - -;
#X obj 34 38 sel 39 44 46 112;
#X obj 144 70 tgl 15 0 empty empty empty 17 7 0 10 -262144 -1 -1 0
1;
#X obj 89 161 s \$0-envelatorbypassrcv;
#X obj 291 -14 loadbang;
#X msg 291 8 0;
#X connect 0 0 5 0;
#X connect 0 0 16 0;
#X connect 0 0 17 0;
#X connect 0 0 23 0;
#X connect 2 0 7 0;
#X connect 3 0 1 0;
#X connect 6 0 4 0;
#X connect 8 0 11 0;
#X connect 8 0 15 0;
#X connect 9 0 11 0;
#X connect 10 0 11 0;
#X connect 16 0 12 0;
#X connect 16 1 13 0;
#X connect 16 2 14 0;
#X connect 17 0 18 0;
#X connect 18 0 19 0;
#X connect 19 0 20 0;
#X connect 19 0 20 1;
#X connect 20 0 21 0;
#X connect 20 0 22 0;
#X connect 23 0 2 0;
#X connect 23 1 3 0;
#X connect 23 2 6 0;
#X connect 23 3 24 0;
#X connect 24 0 25 0;
#X connect 26 0 27 0;
#X connect 27 0 24 0;
#X connect 27 0 6 0;
#X connect 27 0 3 0;
#X connect 27 0 2 0;
#X restore 1099 162 pd keyboard shortcuts;
#X obj 25 185 vsl 40 375 0.1 10 1 0 \$0-lfosnd \$0-lforcv lfo 0 -9
0 10 -262144 -1 -1 200 1;
#X obj 72 189 vsl 20 375 0 0.5 0 0 \$0-lfoamtsnd \$0-lfoamtrcv amt
0 -9 0 10 -262144 -1 -1 11400 1;
#X obj 1097 114 hradio 30 0 0 2 \$0-blocksizesnd \$0-blocksizercv blocksize
0 -8 0 10 -262144 -1 -1 0;
#X obj 843 491 width;
#N canvas 1284 36 632 1008 scrubber 0;
#X obj 253 -45 s \$0-scrubsnd;
#N canvas 582 443 707 371 xposroutings 0;
#X obj 85 31 inlet xpos;
#X obj 34 259 s \$0-tremspdrcv;
#X obj 34 232 maxlib/scale 0 1 0.2 100 1;
#X obj 200 266 s \$0-del1rcv;
#X obj 278 266 s \$0-del2rcv;
#X obj 298 44 tgl 25 0 empty empty tremspd -9 -9 0 10 -262144 -1 -1
1 1;
#X obj 340 44 tgl 25 0 empty empty delay -1 -8 0 10 -262144 -1 -1 1
1;
#X obj 381 44 tgl 25 0 empty empty delmod -4 -8 0 10 -262144 -1 -1
0 1;
#X obj 421 44 tgl 25 0 empty empty awspd 1 -9 0 10 -262144 -1 -1 1
1;
#X obj 297 85 tgl 25 0 empty empty empty 17 7 0 10 -262144 -1 -1 0
1;
#X obj 340 85 tgl 25 0 empty empty empty 17 7 0 10 -262144 -1 -1 1
1;
#X obj 382 85 tgl 25 0 empty empty empty 17 7 0 10 -262144 -1 -1 1
1;
#X obj 421 85 tgl 25 0 empty empty empty 17 7 0 10 -262144 -1 -1 1
1;
#X text 467 92 invert;
#X text 464 44 x routing;
#N canvas 147 358 450 300 routelogic 0;
#X obj 100 76 spigot;
#X obj 101 109 expr 1 - $f1;
#X obj 101 131 spigot;
#X obj 155 131 spigot;
#X obj 218 87 == 0;
#X obj 156 23 inlet route;
#X obj 240 22 inlet invert;
#X obj 66 25 inlet data;
#X obj 113 205 outlet;
#X obj 368 118 r \$0-initbang;
#X obj 224 50 f;
#X msg 368 140 0;
#X connect 0 0 1 0;
#X connect 0 0 3 0;
#X connect 1 0 2 0;
#X connect 2 0 8 0;
#X connect 3 0 8 0;
#X connect 4 0 3 1;
#X connect 5 0 0 1;
#X connect 6 0 10 0;
#X connect 7 0 0 0;
#X connect 9 0 11 0;
#X connect 10 0 4 0;
#X connect 10 0 2 1;
#X connect 11 0 10 0;
#X restore 59 143 pd routelogic;
#N canvas 146 334 450 300 routelogic 0;
#X obj 100 76 spigot;
#X obj 101 109 expr 1 - $f1;
#X obj 101 131 spigot;
#X obj 155 131 spigot;
#X obj 218 87 == 0;
#X obj 156 23 inlet route;
#X obj 240 22 inlet invert;
#X obj 66 25 inlet data;
#X obj 113 205 outlet;
#X obj 369 102 r \$0-initbang;
#X obj 237 47 f;
#X msg 369 124 0;
#X connect 0 0 1 0;
#X connect 0 0 3 0;
#X connect 1 0 2 0;
#X connect 2 0 8 0;
#X connect 3 0 8 0;
#X connect 4 0 3 1;
#X connect 5 0 0 1;
#X connect 6 0 10 0;
#X connect 7 0 0 0;
#X connect 9 0 11 0;
#X connect 10 0 4 0;
#X connect 10 0 2 1;
#X connect 11 0 10 0;
#X restore 188 144 pd routelogic;
#N canvas 146 334 450 300 routelogic 0;
#X obj 100 76 spigot;
#X obj 101 109 expr 1 - $f1;
#X obj 101 131 spigot;
#X obj 155 131 spigot;
#X obj 218 87 == 0;
#X obj 156 23 inlet route;
#X obj 240 22 inlet invert;
#X obj 66 25 inlet data;
#X obj 113 205 outlet;
#X obj 343 55 r \$0-initbang;
#X obj 251 57 f;
#X msg 343 77 0;
#X connect 0 0 1 0;
#X connect 0 0 3 0;
#X connect 1 0 2 0;
#X connect 2 0 8 0;
#X connect 3 0 8 0;
#X connect 4 0 3 1;
#X connect 5 0 0 1;
#X connect 6 0 10 0;
#X connect 7 0 0 0;
#X connect 9 0 11 0;
#X connect 10 0 4 0;
#X connect 10 0 2 1;
#X connect 11 0 10 0;
#X restore 395 248 pd routelogic;
#X obj 394 271 s \$0-delmodrcv;
#X obj 382 215 pow 2;
#X obj 192 188 int;
#X obj 192 166 * 19;
#X obj 206 230 maxlib/scale 0 19 0.1 80 1;
#N canvas 147 358 450 300 routelogic 0;
#X obj 100 76 spigot;
#X obj 101 109 expr 1 - $f1;
#X obj 101 131 spigot;
#X obj 155 131 spigot;
#X obj 232 94 == 0;
#X obj 156 23 inlet route;
#X obj 240 22 inlet invert;
#X obj 66 25 inlet data;
#X obj 113 205 outlet;
#X obj 322 52 r \$0-initbang;
#X obj 230 54 f;
#X msg 322 74 0;
#X connect 0 0 1 0;
#X connect 0 0 3 0;
#X connect 1 0 2 0;
#X connect 2 0 8 0;
#X connect 3 0 8 0;
#X connect 4 0 3 1;
#X connect 5 0 0 1;
#X connect 6 0 10 0;
#X connect 7 0 0 0;
#X connect 9 0 11 0;
#X connect 10 0 4 0;
#X connect 10 0 2 1;
#X connect 11 0 10 0;
#X restore 536 180 pd routelogic;
#X obj 536 209 maxlib/scale 0 1 0.2 45;
#X obj 535 231 s \$0-autowahspdrcv;
#X obj 577 93 s \$0-initbang;
#X obj 191 44 s \$0-xpos;
#X obj 577 71 loadbang;
#X connect 0 0 15 0;
#X connect 0 0 16 0;
#X connect 0 0 19 0;
#X connect 0 0 23 0;
#X connect 0 0 27 0;
#X connect 2 0 1 0;
#X connect 5 0 15 1;
#X connect 6 0 16 1;
#X connect 7 0 17 1;
#X connect 8 0 23 1;
#X connect 9 0 15 2;
#X connect 10 0 16 2;
#X connect 11 0 17 2;
#X connect 12 0 23 2;
#X connect 15 0 2 0;
#X connect 16 0 21 0;
#X connect 17 0 18 0;
#X connect 19 0 17 0;
#X connect 20 0 22 0;
#X connect 21 0 20 0;
#X connect 22 0 3 0;
#X connect 22 0 4 0;
#X connect 23 0 24 0;
#X connect 24 0 25 0;
#X connect 28 0 26 0;
#X coords 0 -1 1 1 250 100 2 281 27;
#X restore 75 -153 pd xposroutings;
#X obj 538 -568 r \$0-scrubrcv;
#X obj 411 -457 loadbang;
#X obj 522 -504 f;
#X msg 561 -406 values \$1 \$2;
#X obj 523 -468 pack f f;
#X floatatom 436 -123 5 0 0 0 - - -;
#X obj 561 -384 print;
#X floatatom 599 -474 5 0 0 0 - - -;
#X obj 539 -546 t b f;
#X msg 411 -435 color 190 195 255;
#X obj 92 -565 unauthorized/grid grid1 200 -1 1 200 0.01 1 0 0.01 0.01
10 10 441 394;
#X floatatom 130 -302 5 0 0 0 - - -;
#X connect 2 0 10 0;
#X connect 3 0 11 0;
#X connect 4 0 9 0;
#X connect 4 0 6 0;
#X connect 5 0 8 0;
#X connect 5 0 12 0;
#X connect 6 0 5 0;
#X connect 10 0 4 0;
#X connect 10 1 6 1;
#X connect 11 0 12 0;
#X connect 12 0 1 0;
#X connect 12 0 4 1;
#X connect 12 0 7 0;
#X connect 12 0 13 0;
#X connect 12 1 0 0;
#X coords 0 -1 1 1 284 650 1 60 -663;
#X restore 325 56 pd scrubber;
#X text 685 21 keyboard Q-W-E controls trem \, ringmod and autowah
bypass switches;
#X connect 5 0 24 0;
#X connect 5 1 24 1;
#X connect 24 0 34 0;
#X connect 24 1 34 1;
#X connect 30 0 9 0;
#X connect 30 0 6 0;
#X connect 30 1 10 0;
#X connect 30 1 6 1;
#X connect 33 0 30 1;
#X connect 34 0 41 0;
#X connect 34 1 41 1;
#X connect 41 0 49 0;
#X connect 41 1 49 2;
#X connect 49 0 30 0;
#X connect 49 1 30 2;
