#N canvas 5 24 1910 997 10;
#X obj 829 103 cnv 15 272 202 empty empty empty 20 12 0 14 -174755
-66577 0;
#X obj 938 282 cnv 15 272 202 empty empty empty 20 12 0 14 -257964
-66577 0;
#X obj 560 294 cnv 15 136 187 empty empty empty 20 12 0 14 -257268
-66577 0;
#X obj 1102 352 cnv 15 123 203 empty empty empty 20 12 0 14 -229339
-66577 0;
#X obj 809 519 cnv 15 395 182 empty empty empty 20 12 0 14 -80873 -66577
0;
#X obj 660 462 cnv 15 170 203 empty empty empty 20 12 0 14 -84305 -66577
0;
#X obj 639 191 cnv 15 239 202 empty empty empty 20 12 0 14 -257268
-66577 0;
#X obj 481 117 cnv 15 159 185 empty empty empty 20 12 0 14 -233017
-66577 0;
#N canvas 5 24 1910 997 soundstuff 1;
#X obj 36 42 block~ 1;
#X obj 405 318 cos~;
#X obj 411 918 delwrite~ \$0-delayL;
#X obj 261 251 delread4~ \$0-delayL;
#X obj 533 311 noise~;
#X obj 311 526 outlet~;
#X obj 429 460 hip~ 5;
#X obj 415 822 /~;
#X obj 449 650 lop~ 0.1;
#X obj 284 153 /~ 10;
#X obj 415 847 bob~;
#X obj 1182 302 cos~;
#X obj 1066 678 outlet~;
#X obj 1208 448 hip~ 5;
#X obj 1195 739 /~;
#X obj 1232 594 lop~ 0.1;
#X obj 1061 137 /~ 10;
#X obj 1195 764 bob~;
#X obj 1038 235 delread4~ \$0-delayR;
#X obj 1191 835 delwrite~ \$0-delayR;
#X obj 460 738 *~;
#X obj 1295 720 *~;
#X obj 405 422 *~;
#X obj 1185 417 *~;
#X floatatom 832 304 5 0 0 0 - - -, f 5;
#X obj 470 763 clip~ 0 10000;
#X obj 1300 753 clip~ 0 10000;
#X obj 713 782 *~;
#X obj 808 786 *~;
#X obj 642 252 hip~ 3;
#X obj 1543 565 key;
#X obj 1492 608 sel 39 44;
#X obj 456 27 r \$0-pitchmodsnd;
#X obj 861 679 r \$0-crossmodsnd;
#X obj 1431 487 r \$0-smoothRsnd;
#X obj 647 527 r \$0-smoothLsnd;
#X obj 731 248 r \$0-scalesnd;
#X obj 918 241 r \$0-offsetsnd;
#X obj 717 176 r \$0-scrubsnd;
#X obj 613 355 r \$0-spdLsnd;
#X obj 1321 342 r \$0-spdRsnd;
#X obj 520 196 r \$0-fbsnd;
#X obj 730 489 r \$0-lpLsnd;
#X obj 904 493 r \$0-lpRsnd;
#X obj 1391 396 loadbang;
#X msg 1391 421 1;
#N canvas 0 0 450 300 smoother 0;
#X obj 58 20 inlet;
#X obj 99 105 line~;
#X obj 109 186 outlet~;
#X obj 85 66 pack 0 \$1;
#X obj 208 21 inlet;
#X connect 0 0 3 0;
#X connect 1 0 2 0;
#X connect 3 0 1 0;
#X connect 4 0 3 1;
#X restore 648 213 pd smoother 50;
#N canvas 0 0 450 300 smoother 0;
#X obj 58 20 inlet;
#X obj 99 105 line~;
#X obj 109 186 outlet~;
#X obj 85 66 pack 0 \$1;
#X obj 208 21 inlet;
#X connect 0 0 3 0;
#X connect 1 0 2 0;
#X connect 3 0 1 0;
#X connect 4 0 3 1;
#X restore 718 586 pd smoother 15;
#N canvas 0 0 450 300 smoother 0;
#X obj 58 20 inlet;
#X obj 99 105 line~;
#X obj 109 186 outlet~;
#X obj 85 66 pack 0 \$1;
#X obj 208 21 inlet;
#X connect 0 0 3 0;
#X connect 1 0 2 0;
#X connect 3 0 1 0;
#X connect 4 0 3 1;
#X restore 796 611 pd smoother 15;
#N canvas 0 0 450 300 smoother 0;
#X obj 58 20 inlet;
#X obj 99 105 line~;
#X obj 109 186 outlet~;
#X obj 85 66 pack 0 \$1;
#X obj 208 21 inlet;
#X connect 0 0 3 0;
#X connect 1 0 2 0;
#X connect 3 0 1 0;
#X connect 4 0 3 1;
#X restore 916 588 pd smoother 15;
#N canvas 0 0 450 300 smoother 0;
#X obj 58 20 inlet;
#X obj 99 105 line~;
#X obj 109 186 outlet~;
#X obj 85 66 pack 0 \$1;
#X obj 208 21 inlet;
#X connect 0 0 3 0;
#X connect 1 0 2 0;
#X connect 3 0 1 0;
#X connect 4 0 3 1;
#X restore 755 732 pd smoother 15;
#N canvas 0 0 450 300 smoother 0;
#X obj 58 20 inlet;
#X obj 99 105 line~;
#X obj 109 186 outlet~;
#X obj 85 66 pack 0 \$1;
#X obj 208 21 inlet;
#X connect 0 0 3 0;
#X connect 1 0 2 0;
#X connect 3 0 1 0;
#X connect 4 0 3 1;
#X restore 502 246 pd smoother 25;
#N canvas 0 0 450 300 smoother 0;
#X obj 58 20 inlet;
#X obj 99 105 line~;
#X obj 109 186 outlet~;
#X obj 85 66 pack 0 \$1;
#X obj 208 21 inlet;
#X connect 0 0 3 0;
#X connect 1 0 2 0;
#X connect 3 0 1 0;
#X connect 4 0 3 1;
#X restore 725 319 pd smoother 15;
#X obj 946 311 noise~;
#X obj 1221 476 abs~;
#X obj 1222 539 /~ 2;
#X obj 1222 565 -~;
#N canvas 0 0 450 300 smoother 0;
#X obj 58 20 inlet;
#X obj 99 105 line~;
#X obj 109 186 outlet~;
#X obj 85 66 pack 0 \$1;
#X obj 208 21 inlet;
#X connect 0 0 3 0;
#X connect 1 0 2 0;
#X connect 3 0 1 0;
#X connect 4 0 3 1;
#X restore 911 263 pd smoother 50;
#X obj 430 499 abs~;
#X obj 433 572 /~ 2;
#X obj 433 598 -~;
#X obj 1221 501 rmstodb~;
#X obj 430 524 rmstodb~;
#X obj 1416 722 delwrite~ \$0-envdelayR 100;
#X obj 324 786 delwrite~ \$0-envdelayL 100;
#X obj 347 693 samphold~;
#X obj 339 604 phasor~;
#X obj 1253 634 samphold~;
#X obj 1300 599 phasor~;
#X obj 533 336 *~ 0.0007;
#X obj 946 336 *~ 0.0007;
#X obj 197 551 == 0;
#X obj 424 695 *~ 0;
#X obj 485 703 *~ 1;
#X obj 1338 517 == 0;
#X obj 1269 671 *~ 0;
#X obj 1303 672 *~ 1;
#X obj 1330 470 r \$0-shRsnd;
#X obj 274 423 r \$0-shLsnd;
#X obj 1386 659 numscope;
#X obj 211 125 delread~ \$0-envdelayL 10;
#X obj 1148 96 delread~ \$0-envdelayL 10;
#X obj 508 802 numscope;
#X obj 821 505 r \$0-ressnd;
#X connect 1 0 22 0;
#X connect 3 0 1 0;
#X connect 4 0 69 0;
#X connect 6 0 58 0;
#X connect 7 0 10 0;
#X connect 8 0 65 0;
#X connect 8 0 73 0;
#X connect 9 0 3 0;
#X connect 10 0 2 0;
#X connect 10 0 27 0;
#X connect 11 0 23 0;
#X connect 13 0 54 0;
#X connect 14 0 17 0;
#X connect 15 0 67 0;
#X connect 15 0 76 0;
#X connect 16 0 18 0;
#X connect 17 0 19 0;
#X connect 17 0 28 0;
#X connect 18 0 11 0;
#X connect 20 0 25 0;
#X connect 20 0 64 0;
#X connect 21 0 26 0;
#X connect 21 0 63 0;
#X connect 22 0 6 0;
#X connect 22 0 7 0;
#X connect 22 0 5 0;
#X connect 23 0 13 0;
#X connect 23 0 14 0;
#X connect 23 0 12 0;
#X connect 25 0 7 1;
#X connect 26 0 14 1;
#X connect 27 0 19 0;
#X connect 28 0 2 0;
#X connect 29 0 1 0;
#X connect 29 0 11 0;
#X connect 30 0 31 0;
#X connect 32 0 9 1;
#X connect 32 0 16 1;
#X connect 33 0 50 0;
#X connect 34 0 15 1;
#X connect 35 0 8 1;
#X connect 36 0 52 0;
#X connect 37 0 57 0;
#X connect 38 0 46 0;
#X connect 39 0 66 0;
#X connect 40 0 68 0;
#X connect 41 0 51 0;
#X connect 42 0 47 0;
#X connect 43 0 49 0;
#X connect 44 0 45 0;
#X connect 46 0 29 0;
#X connect 47 0 10 1;
#X connect 48 0 10 2;
#X connect 48 0 17 2;
#X connect 49 0 17 1;
#X connect 50 0 27 1;
#X connect 50 0 28 1;
#X connect 51 0 22 1;
#X connect 51 0 23 1;
#X connect 52 0 20 1;
#X connect 52 0 21 1;
#X connect 53 0 70 0;
#X connect 54 0 61 0;
#X connect 55 0 56 0;
#X connect 56 0 15 0;
#X connect 57 0 56 1;
#X connect 57 0 60 1;
#X connect 58 0 62 0;
#X connect 59 0 60 0;
#X connect 60 0 8 0;
#X connect 61 0 55 0;
#X connect 62 0 59 0;
#X connect 65 0 72 0;
#X connect 66 0 65 1;
#X connect 67 0 75 0;
#X connect 68 0 67 1;
#X connect 69 0 22 1;
#X connect 70 0 23 1;
#X connect 71 0 73 1;
#X connect 72 0 20 0;
#X connect 73 0 20 0;
#X connect 73 0 82 0;
#X connect 74 0 76 1;
#X connect 75 0 21 0;
#X connect 76 0 21 0;
#X connect 77 0 74 0;
#X connect 77 0 75 1;
#X connect 78 0 71 0;
#X connect 78 0 72 1;
#X connect 80 0 9 0;
#X connect 81 0 16 0;
#X connect 83 0 48 0;
#X restore 158 479 pd soundstuff;
#X obj 65 696 output;
#X obj 156 509 hip~ 5;
#X obj 214 512 hip~ 5;
#X obj 586 327 vsl 35 128 300 5 0 1 \$0-pitchmodsnd \$0-pitchmodrcv
pitchmod 0 -9 0 10 -188482 -261827 -1 10350 0;
#X obj 639 326 vsl 35 128 0 1 0 1 \$0-crossmodsnd \$0-crossmodrcv crossmod
0 -9 0 10 -247906 -262144 -1 4750 1;
#X obj 958 142 vsl 35 128 15 25000 1 1 \$0-lpLsnd \$0-lpLrcv lpL 0
-9 0 10 -258114 -3072 -1 7900 0;
#X obj 985 302 vsl 35 128 2 5 0 1 \$0-ressnd \$0-resrcv res 0 -9 0
10 -112283 -261121 -1 4850 1;
#X obj 704 499 vsl 35 128 0.1 10 1 1 \$0-smoothLsnd \$0-smoothLrcv
smL 0 -9 0 10 -99150 -259504 -1 1150 1;
#X obj 756 500 vsl 35 128 0.1 10 1 1 \$0-smoothRsnd \$0-smoothRrcv
smR 0 -9 0 10 -253419 -184841 -1 3050 1;
#X obj 531 153 vsl 35 128 4 0 0 1 \$0-scalesnd \$0-scalercv scale 0
-9 0 10 -198169 -212212 -1 3250 1;
#X obj 579 152 vsl 35 128 0 40 0 1 \$0-offsetsnd \$0-offsetrcv offset
0 -9 0 10 -142976 -213058 -1 7400 0;
#X obj 1131 397 vsl 35 128 -1 1 0 1 \$0-scrubsnd \$0-scrubrcv scrub
0 -9 0 10 -261263 -258049 -1 9600 0;
#X obj 788 239 vsl 35 128 0 3.2 0 1 \$0-fbsnd \$0-fbrcv fb 0 -9 0 10
-261965 -2828 -1 10700 0;
#X obj 918 547 vsl 35 128 0.5 1500 1 1 \$0-spdLsnd \$0-spdLrcv spdL
0 -9 0 10 -94014 -38114 -1 3100 0;
#X obj 1039 550 vsl 35 128 0.5 1500 1 1 \$0-spdRsnd \$0-spdRrcv spdR
0 -9 0 10 -46247 -4092 -1 3400 0;
#X obj 234 695 adascope 0 50 1;
#X obj 349 692 adascope 0 50 1;
#X obj 1004 143 vsl 35 128 15 25000 1 1 \$0-lpRsnd \$0-lpRrcv lpR 0
-9 0 10 -163493 -1 -1 11500 0;
#X obj 311 340 cnv 15 100 60 empty empty REFLECTOR\ 13b 269 422 0 78
-233017 -66577 0;
#X obj 359 433 tgl 50 0 \$0-togglesnd \$0-togglercv empty 17 7 0 10
-49738 -228271 -1 1 1;
#X obj 214 537 *~;
#X obj 156 534 *~;
#X obj 177 246 key;
#N canvas 0 0 450 300 smoother 0;
#X obj 58 20 inlet;
#X obj 99 105 line~;
#X obj 109 186 outlet~;
#X obj 85 66 pack 0 \$1;
#X obj 208 21 inlet;
#X connect 0 0 3 0;
#X connect 1 0 2 0;
#X connect 3 0 1 0;
#X connect 4 0 3 1;
#X restore 317 514 pd smoother 1;
#X obj 1262 145 tgl 30 0 \$0-restglsnd \$0-restglrcv empty 17 7 0 10
-49738 -228271 -1 0 1;
#X obj 1339 157 r \$0-ressnd;
#X obj 1305 232 f;
#X obj 1262 183 sel 1 0;
#X msg 1251 219 4.4;
#X obj 1339 182 moses 4.4;
#X floatatom 1389 239 5 0 0 0 - - -, f 5;
#X obj 1266 315 s \$0-resrcv;
#X obj 177 271 sel 39 44;
#X obj 217 312 s \$0-restglrcv;
#X obj 152 580 *~;
#X obj 213 584 *~;
#X obj 500 480 vsl 35 128 0.3 4 0 1 \$0-gainsnd \$0-gainrcv gain 0
-9 0 10 -82810 -212212 -1 4200 1;
#N canvas 0 0 450 300 smoother 0;
#X obj 58 20 inlet;
#X obj 99 105 line~;
#X obj 109 186 outlet~;
#X obj 85 66 pack 0 \$1;
#X obj 208 21 inlet;
#X connect 0 0 3 0;
#X connect 1 0 2 0;
#X connect 3 0 1 0;
#X connect 4 0 3 1;
#X restore 496 629 pd smoother 25;
#X obj 219 633 clip~ -1 1;
#X obj 136 619 clip~ -1 1;
#X obj 866 593 tgl 35 1 \$0-shLsnd \$0-shLrcv empty 17 7 0 10 -96303
-1 -1 1 1;
#X obj 997 594 tgl 35 1 \$0-shRsnd \$0-shRrcv empty 17 7 0 10 -96303
-1 -1 1 1;
#X floatatom 910 715 5 0 0 0 - - -, f 5;
#X connect 8 0 10 0;
#X connect 8 1 11 0;
#X connect 10 0 30 0;
#X connect 11 0 29 0;
#X connect 22 0 51 0;
#X connect 28 0 32 0;
#X connect 29 0 44 0;
#X connect 30 0 43 0;
#X connect 31 0 41 0;
#X connect 32 0 29 1;
#X connect 32 0 30 1;
#X connect 33 0 36 0;
#X connect 34 0 38 0;
#X connect 35 0 40 0;
#X connect 36 0 37 0;
#X connect 36 1 35 0;
#X connect 37 0 40 0;
#X connect 38 0 39 0;
#X connect 38 0 35 1;
#X connect 41 0 28 0;
#X connect 41 1 42 0;
#X connect 43 0 48 0;
#X connect 44 0 47 0;
#X connect 45 0 46 0;
#X connect 46 0 44 1;
#X connect 46 0 43 1;
#X connect 47 0 9 1;
#X connect 47 0 25 0;
#X connect 48 0 9 0;
#X connect 48 0 24 0;
