#N canvas 5 24 1910 997 10;
#X obj 21 21 cnv 15 296 246 empty empty reflector\ synth 74 223 0 14
-178924 -66577 0;
#X obj 29 51 vsl 20 128 0.1 200 1 0 \$0-osc1pitchsnd \$0-osc1pitchrcv
1 0 -9 0 10 -262144 -1 -1 3400 1;
#X obj 57 52 vsl 20 128 0.1 18000 1 0 \$0-osc2pitchsnd \$0-osc2pitchrcv
2 0 -9 0 10 -262144 -1 -1 3033 1;
#X obj 86 52 vsl 20 128 0.1 14000 1 0 \$0-osc3pitchsnd \$0-osc3pitchrcv
3 0 -9 0 10 -262144 -1 -1 1962 1;
#X obj 228 225 tgl 15 0 \$0-onoffsnd \$0-onoffrcv ON/OFF 17 7 0 10
-250182 -241476 -1 1 1;
#X obj 202 52 vsl 20 128 40 18000 1 0 \$0-vcfcutoffsnd \$0-vcfcutoffrcv
cut 0 -9 0 10 -262144 -1 -1 7600 1;
#X obj 227 52 vsl 20 128 2 30 0 0 \$0-vcfqsnd \$0-vcfqrcv res 0 -9
0 10 -262144 -1 -1 1850 1;
#X obj 253 52 vsl 20 128 0 1.8 0 0 \$0-volsnd \$0-volrcv vol 0 -9 0
10 -262144 -1 -1 7150 1;
#X obj 214 200 hradio 20 0 0 4 \$0-overlapsnd \$0-overlaprcv overlap
0 -8 0 10 -207294 -237178 -1 0;
#X obj 29 190 tgl 20 0 \$0-osc1snsnd \$0-osc1snrcv empty 17 7 0 10
-262144 -1 -1 0 0.916168;
#X obj 57 190 tgl 20 0 \$0-osc2snsnd \$0-osc2snrcv empty 17 7 0 10
-262144 -1 -1 0 1;
#X obj 86 190 tgl 20 0 \$0-osc3snsnd \$0-osc3snrcv empty 17 7 0 10
-262144 -1 -1 1504.52 1504.52;
#X obj 130 52 vsl 20 128 0 150 0 0 \$0-fb1snd \$0-fb1rcv fb1 0 -9 0
10 -262144 -1 -1 5250 1;
#X obj 158 52 vsl 20 128 0 150 0 0 \$0-fb2snd \$0-fb2rcv fb2 0 -9 0
10 -262144 -1 -1 4800 1;
#X obj 279 52 vsl 20 128 100 15 0 0 \$0-limitsnd \$0-limitrcv lim 0
-9 0 10 -262144 -1 -1 5400 1;
#X obj 29 217 tgl 20 0 \$0-osc1sqsnd \$0-osc1sqrcv empty 17 7 0 10
-262144 -1 -1 0.2 0.2;
#X obj 57 217 tgl 20 0 \$0-osc2sqsnd \$0-osc2sqrcv empty 17 7 0 10
-262144 -1 -1 0.5201 0.5201;
#X obj 86 217 tgl 20 0 \$0-osc3sqsnd \$0-osc3sqrcv empty 17 7 0 10
-262144 -1 -1 0 1;
#X obj 158 190 tgl 20 0 \$0-noisesnd \$0-noisercv noise -6 24 0 10
-262144 -1 -1 0.1 0.1;
#X text 110 218 <-square;
#X text 110 192 <-sine;
#X obj 301 52 vsl 8 128 0 1 0 0 \$0-foo \$0-limdisp empty 0 -9 0 10
-262144 -1 -1 7004 1;
#N canvas 76 254 450 323 soundstuff 1;
#X obj 33 -137 inlet~ osc1pitch;
#X obj 152 -137 inlet~ osc2pitch;
#X obj 298 -137 inlet~ osc3pitch;
#X obj 443 -141 inlet~ cutoff;
#N canvas 0 24 1360 692 upsampled 1;
#X obj 340 125 fold~;
#X obj 519 38 *~;
#X obj 487 -51 / 100;
#X obj 210 -76 *~;
#X obj 253 -134 / 100;
#X obj 190 83 fold~;
#X obj 389 -135 r \$0-osc1pitchsnd;
#X obj 358 -61 smoother 50;
#X obj 89 -12 smoother 50;
#X obj 94 -125 r \$0-osc2pitchsnd;
#X obj 582 -114 r \$0-osc3pitchsnd;
#X obj 389 -114 - 0.1;
#X obj 574 -89 - 0.1;
#X obj 87 -87 - 0.1;
#X obj 512 54 *~ 1.5;
#X obj 187 65 *~ 0.69;
#X obj 298 116 vcf~;
#X obj 414 79 r \$0-vcfcutoffsnd;
#X obj 437 103 - 0.1;
#X obj 339 156 vcf~, f 5;
#X obj 396 50 r \$0-vcfqsnd;
#X obj 701 110 r \$0-overlapsnd;
#N canvas 859 329 450 323 osc1 0;
#X obj 134 75 inlet~;
#X obj 134 209 outlet~;
#X obj 176 129 >~ 0;
#X obj 134 97 osc~ \$1;
#X obj 199 164 *~ 1;
#X obj 137 171 *~ 0;
#X obj 296 89 inlet sq;
#X obj 238 88 inlet sn;
#X connect 0 0 3 0;
#X connect 2 0 4 0;
#X connect 3 0 2 0;
#X connect 3 0 5 0;
#X connect 4 0 1 0;
#X connect 5 0 1 0;
#X connect 6 0 4 1;
#X connect 7 0 5 1;
#X restore 336 50 pd osc1;
#X obj 487 -29 smoother 5;
#X obj 254 -71 smoother 10;
#N canvas 858 305 450 323 osc2 0;
#X obj 134 75 inlet~;
#X obj 134 209 outlet~;
#X obj 176 129 >~ 0;
#X obj 134 97 osc~ \$1;
#X obj 199 164 *~ 1;
#X obj 137 171 *~ 0;
#X obj 267 62 inlet sq;
#X obj 200 69 inlet sn;
#X connect 0 0 3 0;
#X connect 2 0 4 0;
#X connect 3 0 2 0;
#X connect 3 0 5 0;
#X connect 4 0 1 0;
#X connect 5 0 1 0;
#X connect 6 0 4 1;
#X connect 7 0 5 1;
#X restore 153 37 pd osc2;
#X obj 374 -42 r \$0-osc1typesnd;
#X obj 277 5 *~;
#X obj 166 -54 *~ 24;
#X obj 166 -32 midiratio~;
#X obj 226 -175 r \$0-fb1snd;
#X obj 505 -129 r \$0-fb2snd;
#N canvas 860 353 450 323 osc3 0;
#X obj 134 75 inlet~;
#X obj 149 286 outlet~;
#X obj 199 164 *~ 1;
#X obj 137 171 *~ 0;
#X obj 267 62 inlet sn;
#X obj 346 72 inlet sq;
#X obj 176 129 >~ 0.5;
#X obj 134 97 phasor~ \$1;
#X obj 134 119 *~ 2;
#X obj 134 141 -~ 1;
#X obj 121 202 lop~ 200;
#X obj 158 242 clip~ -1 1;
#X connect 0 0 7 0;
#X connect 2 0 11 0;
#X connect 3 0 10 0;
#X connect 4 0 3 1;
#X connect 5 0 2 1;
#X connect 6 0 2 0;
#X connect 7 0 6 0;
#X connect 7 0 8 0;
#X connect 8 0 9 0;
#X connect 9 0 3 0;
#X connect 10 0 11 0;
#X connect 11 0 1 0;
#X restore 511 9 pd osc3;
#X obj 445 162 r \$0-onoffsnd;
#X obj 255 -26 r \$0-osc2sqsnd;
#X obj 248 -49 r \$0-osc2snsnd;
#X obj 334 307 outlet~;
#X obj 353 -19 r \$0-osc1snsnd;
#X obj 353 7 r \$0-osc1sqsnd;
#X obj 579 -15 r \$0-osc3snsnd;
#X obj 637 13 r \$0-osc3sqsnd;
#X obj 314 -176 noise~;
#X obj 664 163 sel 0 1 2 3;
#X msg 537 211 set 64 1 1;
#X msg 691 211 set 1024 1 4;
#X msg 612 216 set 128 1 2;
#X obj 455 200 switch~;
#X obj 359 221 lop~ 15000;
#X obj 359 243 lop~ 20000;
#X msg 802 218 set 1024 1 16;
#X obj 689 -195 inlet;
#X obj 443 123 *;
#X obj 567 -65 * 1;
#X obj 471 -195 inlet;
#X obj 439 144 smoother 20;
#X obj 257 -213 inlet;
#X obj 137 -217 inlet;
#X obj 375 -89 *;
#X obj 90 -40 *;
#X obj 450 290 s~ \$0-fb1;
#X obj 207 -124 r~ \$0-fb1;
#X obj 570 -40 smoother 15;
#X obj 367 -158 lop~ 800;
#X obj 288 -130 hip~ 13500;
#X obj 317 20 r \$0-noisesnd;
#X obj 282 56 *~;
#X obj 282 78 *~;
#X obj 316 -91 *~ 0.18;
#X obj 556 315 outlet~ osc1;
#X obj 685 309 outlet~ osc2;
#X obj 822 309 outlet~ osc3;
#X connect 0 0 19 0;
#X connect 1 0 14 0;
#X connect 2 0 23 0;
#X connect 3 0 0 1;
#X connect 3 0 5 1;
#X connect 3 0 28 0;
#X connect 4 0 24 0;
#X connect 5 0 16 0;
#X connect 6 0 11 0;
#X connect 7 0 27 0;
#X connect 8 0 25 0;
#X connect 9 0 13 0;
#X connect 10 0 12 0;
#X connect 11 0 57 1;
#X connect 12 0 52 1;
#X connect 13 0 58 1;
#X connect 14 0 0 1;
#X connect 15 0 5 0;
#X connect 16 0 0 0;
#X connect 17 0 18 0;
#X connect 18 0 51 1;
#X connect 19 0 59 0;
#X connect 19 1 47 0;
#X connect 20 0 19 2;
#X connect 20 0 16 2;
#X connect 21 0 42 0;
#X connect 22 0 0 0;
#X connect 22 0 66 1;
#X connect 22 0 68 0;
#X connect 23 0 1 1;
#X connect 24 0 3 1;
#X connect 25 0 15 0;
#X connect 25 0 69 0;
#X connect 27 0 22 0;
#X connect 28 0 29 0;
#X connect 29 0 27 1;
#X connect 29 0 25 0;
#X connect 30 0 4 0;
#X connect 31 0 2 0;
#X connect 32 0 1 0;
#X connect 32 0 70 0;
#X connect 33 0 46 0;
#X connect 34 0 25 2;
#X connect 35 0 25 1;
#X connect 37 0 22 1;
#X connect 38 0 22 2;
#X connect 39 0 32 1;
#X connect 40 0 32 2;
#X connect 41 0 62 0;
#X connect 41 0 63 0;
#X connect 42 0 43 0;
#X connect 42 1 45 0;
#X connect 42 2 44 0;
#X connect 42 3 49 0;
#X connect 43 0 46 0;
#X connect 44 0 46 0;
#X connect 45 0 46 0;
#X connect 47 0 48 0;
#X connect 48 0 36 0;
#X connect 49 0 46 0;
#X connect 50 0 51 0;
#X connect 51 0 54 0;
#X connect 52 0 61 0;
#X connect 53 0 52 0;
#X connect 54 0 19 1;
#X connect 54 0 16 1;
#X connect 55 0 58 0;
#X connect 56 0 57 0;
#X connect 57 0 7 0;
#X connect 58 0 8 0;
#X connect 60 0 3 0;
#X connect 61 0 32 0;
#X connect 62 0 67 0;
#X connect 63 0 67 0;
#X connect 64 0 65 0;
#X connect 65 0 66 0;
#X connect 66 0 16 0;
#X connect 67 0 65 1;
#X restore 211 30 pd upsampled;
#X obj 509 79 r \$0-volsnd;
#X obj 237 162 *~;
#X obj 509 101 smoother 10;
#X obj 237 239 outlet~;
#X obj 215 85 hip~ 25;
#X obj 293 -63 snapshot~;
#X obj 382 -94 bang~;
#X obj 431 -50 snapshot~;
#X obj 431 -28 * 48;
#X obj 431 -6 midiratio;
#X obj 293 -41 * 48;
#X obj 293 -19 midiratio;
#X obj 188 -75 snapshot~;
#X obj 188 -53 * 48;
#X obj 188 -31 midiratio;
#X obj 78 -74 snapshot~;
#X obj 78 -52 * 48;
#X obj 78 -30 midiratio;
#N canvas 1 296 600 359 limiter2 0;
#X obj 7 14 inlet~;
#X obj 116 63 env~ 1024;
#X obj 116 85 moses;
#X obj 320 46 inlet thresh;
#X obj 226 32 initbang;
#X obj 154 128 expr (($f1 - $f3) / $f2) - $f1 + $f3;
#X obj 154 150 expr 100 + $f1;
#X obj 154 172 dbtorms;
#X msg 117 131 1;
#X obj 116 107 bang;
#X obj 31 233 *~;
#X obj 93 229 line~;
#X obj 36 302 outlet~;
#X msg 318 83 10;
#X floatatom 75 86 5 0 0 0 - - -, f 5;
#X obj 423 87 dbtorms, f 15;
#X obj 423 109 expr 1/$f1;
#X floatatom 427 178 5 0 0 0 - - -, f 5;
#X obj 31 255 *~;
#X msg 244 59 6;
#X obj 2 117 z~ 1024;
#X obj 448 129 pow 0.85;
#X obj 423 153 smoother 10;
#X msg 113 202 \$1 5;
#X msg 104 176 \$1 25;
#X floatatom 154 194 5 0 0 0 - - -, f 5;
#X obj 289 244 s \$0-limdisp;
#X connect 0 0 1 0;
#X connect 0 0 20 0;
#X connect 1 0 2 0;
#X connect 1 0 14 0;
#X connect 2 0 9 0;
#X connect 2 1 5 0;
#X connect 3 0 5 2;
#X connect 3 0 2 1;
#X connect 3 0 15 0;
#X connect 4 0 19 0;
#X connect 5 0 6 0;
#X connect 6 0 7 0;
#X connect 7 0 23 0;
#X connect 7 0 25 0;
#X connect 7 0 26 0;
#X connect 8 0 24 0;
#X connect 8 0 26 0;
#X connect 9 0 8 0;
#X connect 10 0 18 0;
#X connect 11 0 10 1;
#X connect 13 0 5 2;
#X connect 13 0 2 1;
#X connect 15 0 16 0;
#X connect 16 0 21 0;
#X connect 18 0 12 0;
#X connect 19 0 5 1;
#X connect 20 0 10 0;
#X connect 21 0 17 0;
#X connect 21 0 22 0;
#X connect 22 0 18 1;
#X connect 23 0 11 0;
#X connect 24 0 11 0;
#X restore 214 137 pd limiter2;
#X obj 298 79 r \$0-limitsnd;
#X obj 364 193 outlet~ osc1;
#X obj 473 191 outlet~ osc2;
#X obj 565 203 outlet~ osc3;
#X obj 237 184 clip~ -1 1;
#X obj 216 113 *~ 3;
#X connect 0 0 20 0;
#X connect 1 0 17 0;
#X connect 2 0 10 0;
#X connect 3 0 12 0;
#X connect 4 0 9 0;
#X connect 4 1 25 0;
#X connect 4 2 26 0;
#X connect 4 3 27 0;
#X connect 5 0 7 0;
#X connect 6 0 28 0;
#X connect 7 0 6 1;
#X connect 9 0 29 0;
#X connect 10 0 15 0;
#X connect 11 0 10 0;
#X connect 11 0 12 0;
#X connect 11 0 17 0;
#X connect 11 0 20 0;
#X connect 12 0 13 0;
#X connect 13 0 14 0;
#X connect 14 0 4 3;
#X connect 15 0 16 0;
#X connect 16 0 4 2;
#X connect 17 0 18 0;
#X connect 18 0 19 0;
#X connect 19 0 4 1;
#X connect 20 0 21 0;
#X connect 21 0 22 0;
#X connect 22 0 4 0;
#X connect 23 0 6 0;
#X connect 24 0 23 1;
#X connect 28 0 8 0;
#X connect 29 0 23 0;
#X restore 402 217 pd soundstuff;
#X obj 399 317 output;
#N canvas 1 24 798 825 presets 0;
#X obj 18 18 cnv 15 196 146 empty empty presets 66 130 0 14 -124704
-241604 0;
#X obj 28 28 bng 20 250 50 0 \$0-preset1snd \$0-preset1rcv empty 17
7 0 10 -261681 -1 -262144;
#X obj 50 28 bng 20 250 50 0 \$0-preset2snd \$0-preset2rcv empty 17
7 0 10 -261681 -1 -262144;
#X obj 72 28 bng 20 250 50 0 \$0-preset3snd \$0-preset3rcv empty 17
7 0 10 -261681 -1 -262144;
#X obj 94 28 bng 20 250 50 0 \$0-preset4snd \$0-preset4rcv empty 17
7 0 10 -143491 -1 -262144;
#X obj 116 28 bng 20 250 50 0 \$0-preset5snd \$0-preset5rcv empty 17
7 0 10 -261681 -1 -262144;
#X obj 138 28 bng 20 250 50 0 \$0-preset6snd \$0-preset6rcv empty 17
7 0 10 -261681 -1 -262144;
#X obj 160 28 bng 20 250 50 0 \$0-preset7snd \$0-preset7rcv empty 17
7 0 10 -261681 -1 -262144;
#X obj 182 28 bng 20 250 50 0 \$0-preset8snd \$0-preset8rcv empty 17
7 0 10 -261681 -1 -262144;
#X obj 28 50 bng 20 250 50 0 \$0-preset9snd \$0-preset9rcv empty 17
7 0 10 -261681 -1 -262144;
#X obj 50 50 bng 20 250 50 0 \$0-preset10snd \$0-preset10rcv empty
17 7 0 10 -261681 -1 -262144;
#X obj 72 50 bng 20 250 50 0 \$0-preset11snd \$0-preset11rcv empty
17 7 0 10 -261681 -1 -262144;
#X obj 94 50 bng 20 250 50 0 \$0-preset12snd \$0-preset12rcv empty
17 7 0 10 -261681 -1 -262144;
#X obj 116 50 bng 20 250 50 0 \$0-preset13snd \$0-preset13rcv empty
17 7 0 10 -261681 -1 -262144;
#X obj 138 50 bng 20 250 50 0 \$0-preset14snd \$0-preset14rcv empty
17 7 0 10 -262144 -1 -262144;
#X obj 160 50 bng 20 250 50 0 \$0-preset15snd \$0-preset15rcv empty
17 7 0 10 -262144 -1 -262144;
#X obj 182 50 bng 20 250 50 0 \$0-preset16snd \$0-preset16rcv empty
17 7 0 10 -262144 -1 -262144;
#X obj 28 72 bng 20 250 50 0 \$0-preset17snd \$0-preset17rcv empty
17 7 0 10 -262144 -1 -262144;
#X obj 50 72 bng 20 250 50 0 \$0-preset18snd \$0-preset18rcv empty
17 7 0 10 -262144 -1 -262144;
#X obj 72 72 bng 20 250 50 0 \$0-preset19snd \$0-preset19rcv empty
17 7 0 10 -262144 -1 -262144;
#X obj 94 72 bng 20 250 50 0 \$0-preset20snd \$0-preset20rcv empty
17 7 0 10 -262144 -1 -262144;
#X obj 116 72 bng 20 250 50 0 \$0-preset21snd \$0-preset21rcv empty
17 7 0 10 -262144 -1 -262144;
#X obj 138 72 bng 20 250 50 0 \$0-preset22snd \$0-preset22rcv empty
17 7 0 10 -262144 -1 -262144;
#X obj 160 72 bng 20 250 50 0 \$0-preset23snd \$0-preset23rcv empty
17 7 0 10 -262144 -1 -262144;
#X obj 182 72 bng 20 250 50 0 \$0-preset24snd \$0-preset24rcv empty
17 7 0 10 -262144 -1 -262144;
#X obj 28 94 bng 20 250 50 0 \$0-preset25snd \$0-preset25rcv empty
17 7 0 10 -262144 -1 -262144;
#X obj 50 94 bng 20 250 50 0 \$0-preset26snd \$0-preset26rcv empty
17 7 0 10 -262144 -1 -262144;
#X obj 72 94 bng 20 250 50 0 \$0-preset27snd \$0-preset27rcv empty
17 7 0 10 -262144 -1 -262144;
#X obj 94 94 bng 20 250 50 0 \$0-preset28snd \$0-preset28rcv empty
17 7 0 10 -262144 -1 -262144;
#X obj 116 94 bng 20 250 50 0 \$0-preset29snd \$0-preset29rcv empty
17 7 0 10 -262144 -1 -262144;
#X obj 138 94 bng 20 250 50 0 \$0-preset30snd \$0-preset30rcv empty
17 7 0 10 -262144 -1 -262144;
#X obj 160 94 bng 20 250 50 0 \$0-preset31snd \$0-preset31rcv empty
17 7 0 10 -262144 -1 -262144;
#X obj 182 94 bng 20 250 50 0 \$0-preset32snd \$0-preset32rcv empty
17 7 0 10 -262144 -1 -262144;
#X obj 28 116 bng 20 250 50 0 \$0-preset33snd \$0-preset33rcv empty
17 7 0 10 -262144 -1 -262144;
#X obj 50 116 bng 20 250 50 0 \$0-preset34snd \$0-preset34rcv empty
17 7 0 10 -262144 -1 -262144;
#X obj 72 116 bng 20 250 50 0 \$0-preset35snd \$0-preset35rcv empty
17 7 0 10 -262144 -1 -262144;
#X obj 94 116 bng 20 250 50 0 \$0-preset36snd \$0-preset36rcv empty
17 7 0 10 -262144 -1 -262144;
#X obj 116 116 bng 20 250 50 0 \$0-preset37snd \$0-preset37rcv empty
17 7 0 10 -262144 -1 -262144;
#X obj 138 116 bng 20 250 50 0 \$0-preset38snd \$0-preset38rcv empty
17 7 0 10 -262144 -1 -262144;
#X obj 160 116 bng 20 250 50 0 \$0-preset39snd \$0-preset39rcv empty
17 7 0 10 -262144 -1 -262144;
#X obj 182 116 bng 20 250 50 0 \$0-preset40snd \$0-preset40rcv empty
17 7 0 10 -262144 -1 -262144;
#N canvas 121 103 1360 692 presets 0;
#X obj 108 23 inlet data;
#X msg 66 530;
#X msg 99 530;
#X msg 133 530;
#X msg 166 530;
#X msg 198 530;
#X msg 231 530;
#X msg 265 530;
#X msg 585 597;
#X msg 652 597;
#X msg 685 597;
#X msg 717 597;
#X msg 750 597;
#X msg 784 597;
#X msg 817 597;
#X obj 107 103 list prepend set;
#X obj 104 52 route 1 2 3 4 5 6 7 8 9 10 11 12 13 14 15 16 17 18 19
20 21 22 23 24 25 26 27 28 29 30 31 32 33 34 35 36 37 38 39 40;
#X obj 107 125 list trim;
#X obj 215 102 list prepend set;
#X obj 215 124 list trim;
#X obj 323 102 list prepend set;
#X obj 323 124 list trim;
#X obj 433 101 list prepend set;
#X obj 433 123 list trim;
#X obj 540 101 list prepend set;
#X obj 540 123 list trim;
#X obj 648 100 list prepend set;
#X obj 648 122 list trim;
#X obj 760 101 list prepend set;
#X obj 760 123 list trim;
#X obj 868 100 list prepend set;
#X obj 868 122 list trim;
#X obj 728 17 inlet loadnumber;
#X obj 728 55 sel 1 2 3 4 5 6 7 8 9 10 11 12 13 14 15 16 17 18 19 20
21 22 23 24 25 26 27 28 29 30 31 32 33 34 35 36 37 38 39 40;
#X obj 444 674 outlet loaddata;
#X obj 116 149 list prepend set;
#X obj 116 171 list trim;
#X obj 224 148 list prepend set;
#X obj 224 170 list trim;
#X obj 332 148 list prepend set;
#X obj 332 170 list trim;
#X obj 440 147 list prepend set;
#X obj 440 169 list trim;
#X obj 549 147 list prepend set;
#X obj 549 169 list trim;
#X obj 657 146 list prepend set;
#X obj 657 168 list trim;
#X obj 769 147 list prepend set;
#X obj 769 169 list trim;
#X obj 877 146 list prepend set;
#X obj 877 168 list trim;
#X obj 137 193 list prepend set;
#X obj 137 215 list trim;
#X obj 245 192 list prepend set;
#X obj 245 214 list trim;
#X obj 353 192 list prepend set;
#X obj 353 214 list trim;
#X obj 461 191 list prepend set;
#X obj 461 213 list trim;
#X obj 570 191 list prepend set;
#X obj 570 213 list trim;
#X obj 678 190 list prepend set;
#X obj 678 212 list trim;
#X obj 790 191 list prepend set;
#X obj 790 213 list trim;
#X obj 898 190 list prepend set;
#X obj 898 212 list trim;
#X msg 240 416;
#X msg 274 416;
#X msg 91 492;
#X msg 125 492;
#X msg 158 492;
#X msg 190 492;
#X msg 223 492;
#X msg 257 492;
#X obj 147 241 list prepend set;
#X obj 147 263 list trim;
#X obj 255 240 list prepend set;
#X obj 255 262 list trim;
#X obj 363 240 list prepend set;
#X obj 363 262 list trim;
#X obj 471 239 list prepend set;
#X obj 471 261 list trim;
#X obj 580 239 list prepend set;
#X obj 580 261 list trim;
#X obj 688 238 list prepend set;
#X obj 688 260 list trim;
#X obj 800 239 list prepend set;
#X obj 800 261 list trim;
#X obj 908 238 list prepend set;
#X obj 908 260 list trim;
#X obj 167 291 list prepend set;
#X obj 167 313 list trim;
#X obj 275 290 list prepend set;
#X obj 275 312 list trim;
#X obj 383 290 list prepend set;
#X obj 383 312 list trim;
#X obj 491 289 list prepend set;
#X obj 491 311 list trim;
#X obj 600 289 list prepend set;
#X obj 600 311 list trim;
#X obj 708 288 list prepend set;
#X obj 708 310 list trim;
#X obj 820 289 list prepend set;
#X obj 820 311 list trim;
#X obj 928 288 list prepend set;
#X obj 928 310 list trim;
#X msg 32 344 0 0.420549 2.1768 0.825236 0.1 36.7087 33.6024 7945.44
3.54331 0.793701 1 0 0.916168 0.5201 0 0 1504.52 75.2362;
#X msg 254 335 0 0.446487 0.521335 2.52829 0.1 14.2677 21.7913 4911.38
11.811 0.843307 0 0 0.916168 0.5201 0 0 1504.52 72.5591;
#X msg 394 342 0 0.260542 1.01573 0.42947 0.1 135.921 120.472 828.363
2.55118 0.50315 0 0 0.916168 0.5201 0 0 1504.52 73.563;
#X msg 652 391 0 0.765139 1.79911 0.623758 0.1 62.0079 56.6929 1548.14
6.07874 1.01339 0 0.2 0 0.5201 0 0 1504.52 63.8583;
#X msg 804 333 0 0.488425 1.35182 0.295699 0.1 43.7953 76.122 4911.38
5.85827 0.885827 2 0 0.916168 0.5201 0 0 1504.52 55.8268;
#X msg 872 346 0 0.176574 3.18668 0.42947 0.1 27.7559 76.122 6877.71
4.09449 1.01339 2 0 0.916168 0.5201 0 0 1504.52 69.8819;
#X msg 998 346 0 0.181938 0.473955 1181.22 0.1 53.2441 21.7913 16746.9
10.4882 0.843307 2 0 0.916168 0.5201 0 0 1504.52 84.2717;
#X msg 1144 341 0 0.11614 0.521335 0.292407 0.1 42.6142 63.1299 49.6674
14.8976 1.02756 0 0.2 0 0.5201 0 0 1504.52 72.5591;
#X msg 41 415 0 0.260542 2.1768 0.295699 0.1 130.512 116.28 10351.9
8.28346 0.177165 3 0 0.916168 0.5201 1 0 1504.52 68.5433;
#X msg 75 416 0 0.152036 0.923417 0.245363 0.1 7.08661 18.8976 7756.62
6.29921 0.644882 3 0 0.916168 0.5201 0 0 1504.52 81.9291;
#X msg 109 416 0 0.311785 1.79911 0.42947 0.1 39.5669 60.2362 18000
17.3228 1.09843 0 0 0.916168 0.5201 0 0 1504.52 69.2126;
#X msg 143 416 0 0.260542 1.24903 4410.44 0.1 100.984 82.6772 2017.03
12.5827 1.09843 0 0 0.916168 0 1 1 1504.52 76.5748;
#X msg 174 416 0 91.8606 1.51124 3.01304 0.1 126.969 125.197 2565.48
12.5827 1.09843 0 0 0.916168 0 1 1 1504.52 76.5748;
#X msg 207 416;
#X msg 57 492;
#X msg 290 492;
#X msg 298 530;
#X msg 618 597;
#X connect 0 0 16 0;
#X connect 1 0 34 0;
#X connect 2 0 34 0;
#X connect 3 0 34 0;
#X connect 4 0 34 0;
#X connect 5 0 34 0;
#X connect 6 0 34 0;
#X connect 7 0 34 0;
#X connect 8 0 34 0;
#X connect 9 0 34 0;
#X connect 10 0 34 0;
#X connect 11 0 34 0;
#X connect 12 0 34 0;
#X connect 13 0 34 0;
#X connect 14 0 34 0;
#X connect 15 0 17 0;
#X connect 16 0 15 0;
#X connect 16 1 18 0;
#X connect 16 2 20 0;
#X connect 16 3 22 0;
#X connect 16 4 24 0;
#X connect 16 5 26 0;
#X connect 16 6 28 0;
#X connect 16 7 30 0;
#X connect 16 8 35 0;
#X connect 16 9 37 0;
#X connect 16 10 39 0;
#X connect 16 11 41 0;
#X connect 16 12 43 0;
#X connect 16 13 45 0;
#X connect 16 14 47 0;
#X connect 16 15 49 0;
#X connect 16 16 51 0;
#X connect 16 17 53 0;
#X connect 16 18 55 0;
#X connect 16 19 57 0;
#X connect 16 20 59 0;
#X connect 16 21 61 0;
#X connect 16 22 63 0;
#X connect 16 23 65 0;
#X connect 16 24 75 0;
#X connect 16 25 77 0;
#X connect 16 26 79 0;
#X connect 16 27 81 0;
#X connect 16 28 83 0;
#X connect 16 29 85 0;
#X connect 16 30 87 0;
#X connect 16 31 89 0;
#X connect 16 32 91 0;
#X connect 16 33 93 0;
#X connect 16 34 95 0;
#X connect 16 35 97 0;
#X connect 16 36 99 0;
#X connect 16 37 101 0;
#X connect 16 38 103 0;
#X connect 16 39 105 0;
#X connect 17 0 107 0;
#X connect 18 0 19 0;
#X connect 19 0 108 0;
#X connect 20 0 21 0;
#X connect 21 0 109 0;
#X connect 22 0 23 0;
#X connect 23 0 110 0;
#X connect 24 0 25 0;
#X connect 25 0 111 0;
#X connect 26 0 27 0;
#X connect 27 0 112 0;
#X connect 28 0 29 0;
#X connect 29 0 113 0;
#X connect 30 0 31 0;
#X connect 31 0 114 0;
#X connect 32 0 33 0;
#X connect 33 0 107 0;
#X connect 33 1 108 0;
#X connect 33 2 109 0;
#X connect 33 3 110 0;
#X connect 33 4 111 0;
#X connect 33 5 112 0;
#X connect 33 6 113 0;
#X connect 33 7 114 0;
#X connect 33 8 115 0;
#X connect 33 9 116 0;
#X connect 33 10 117 0;
#X connect 33 11 118 0;
#X connect 33 12 119 0;
#X connect 33 13 120 0;
#X connect 33 14 67 0;
#X connect 33 15 68 0;
#X connect 33 16 121 0;
#X connect 33 17 69 0;
#X connect 33 18 70 0;
#X connect 33 19 71 0;
#X connect 33 20 72 0;
#X connect 33 21 73 0;
#X connect 33 22 74 0;
#X connect 33 23 122 0;
#X connect 33 24 1 0;
#X connect 33 25 2 0;
#X connect 33 26 3 0;
#X connect 33 27 4 0;
#X connect 33 28 5 0;
#X connect 33 29 6 0;
#X connect 33 30 7 0;
#X connect 33 31 123 0;
#X connect 33 32 8 0;
#X connect 33 33 124 0;
#X connect 33 34 9 0;
#X connect 33 35 10 0;
#X connect 33 36 11 0;
#X connect 33 37 12 0;
#X connect 33 38 13 0;
#X connect 33 39 14 0;
#X connect 35 0 36 0;
#X connect 36 0 115 0;
#X connect 37 0 38 0;
#X connect 38 0 116 0;
#X connect 39 0 40 0;
#X connect 40 0 117 0;
#X connect 41 0 42 0;
#X connect 42 0 118 0;
#X connect 43 0 44 0;
#X connect 44 0 119 0;
#X connect 45 0 46 0;
#X connect 46 0 120 0;
#X connect 47 0 48 0;
#X connect 48 0 67 0;
#X connect 49 0 50 0;
#X connect 50 0 68 0;
#X connect 51 0 52 0;
#X connect 52 0 121 0;
#X connect 53 0 54 0;
#X connect 54 0 69 0;
#X connect 55 0 56 0;
#X connect 56 0 70 0;
#X connect 57 0 58 0;
#X connect 58 0 71 0;
#X connect 59 0 60 0;
#X connect 60 0 72 0;
#X connect 61 0 62 0;
#X connect 62 0 73 0;
#X connect 63 0 64 0;
#X connect 64 0 74 0;
#X connect 65 0 66 0;
#X connect 66 0 122 0;
#X connect 67 0 34 0;
#X connect 68 0 34 0;
#X connect 69 0 34 0;
#X connect 70 0 34 0;
#X connect 71 0 34 0;
#X connect 72 0 34 0;
#X connect 73 0 34 0;
#X connect 74 0 34 0;
#X connect 75 0 76 0;
#X connect 76 0 1 0;
#X connect 77 0 78 0;
#X connect 78 0 2 0;
#X connect 79 0 80 0;
#X connect 80 0 3 0;
#X connect 81 0 82 0;
#X connect 82 0 4 0;
#X connect 83 0 84 0;
#X connect 84 0 5 0;
#X connect 85 0 86 0;
#X connect 86 0 6 0;
#X connect 87 0 88 0;
#X connect 88 0 7 0;
#X connect 89 0 90 0;
#X connect 90 0 123 0;
#X connect 91 0 92 0;
#X connect 92 0 8 0;
#X connect 93 0 94 0;
#X connect 94 0 124 0;
#X connect 95 0 96 0;
#X connect 96 0 9 0;
#X connect 97 0 98 0;
#X connect 98 0 10 0;
#X connect 99 0 100 0;
#X connect 100 0 11 0;
#X connect 101 0 102 0;
#X connect 102 0 12 0;
#X connect 103 0 104 0;
#X connect 104 0 13 0;
#X connect 105 0 106 0;
#X connect 106 0 14 0;
#X connect 107 0 34 0;
#X connect 108 0 34 0;
#X connect 109 0 34 0;
#X connect 110 0 34 0;
#X connect 111 0 34 0;
#X connect 112 0 34 0;
#X connect 113 0 34 0;
#X connect 114 0 34 0;
#X connect 115 0 34 0;
#X connect 116 0 34 0;
#X connect 117 0 34 0;
#X connect 118 0 34 0;
#X connect 119 0 34 0;
#X connect 120 0 34 0;
#X connect 121 0 34 0;
#X connect 122 0 34 0;
#X connect 123 0 34 0;
#X connect 124 0 34 0;
#X restore 424 400 pd presets;
#X obj 26 140 bng 20 250 50 0 empty empty save 25 7 0 10 -169710 -1
-1;
#X obj 278 230 v \$0-currentpreset;
#X floatatom 328 266 5 0 0 0 - - -, f 5;
#X obj 237 203 t b b b;
#X obj 417 375 list prepend;
#X obj 255 288 bng 15 250 50 0 empty empty empty 17 7 0 10 -262144
-1 -1;
#N canvas 511 98 1360 692 bangreceivesandcolors 0;
#X obj 59 25 r \$0-preset1snd;
#X obj 183 26 r \$0-preset2snd;
#X obj 296 27 r \$0-preset3snd;
#X obj 441 29 r \$0-preset4snd;
#X obj 559 28 r \$0-preset5snd;
#X obj 666 28 r \$0-preset6snd;
#X obj 777 28 r \$0-preset7snd;
#X obj 898 26 r \$0-preset8snd;
#X obj 284 485 t b b b;
#X msg 297 547 4;
#X obj 556 586 v \$0-currentpreset;
#X obj 564 618 makefilename \$0-preset%drcv;
#X obj 505 664 s;
#X obj 519 555 t b b, f 6;
#X obj 263 568 v \$0-currentpreset;
#X obj 184 604 v \$0-currentpreset;
#X obj 198 626 makefilename \$0-preset%drcv;
#X obj 137 659 s;
#X obj 147 573 t b b, f 6;
#X msg 286 222 set 1;
#X obj 262 188 t b b;
#X obj 328 187 t b b;
#X msg 352 221 set 2;
#X obj 406 187 t b b;
#X obj 471 187 t b b;
#X obj 548 181 t b b;
#X obj 614 180 t b b;
#X obj 691 180 t b b;
#X obj 757 179 t b b;
#X msg 430 221 set 3;
#X msg 496 221 set 4;
#X msg 572 215 set 5;
#X msg 637 214 set 6;
#X msg 715 214 set 7;
#X msg 781 213 set 8;
#X obj 89 55 r \$0-preset9snd;
#X obj 212 56 r \$0-preset10snd;
#X obj 326 57 r \$0-preset11snd;
#X obj 469 59 r \$0-preset12snd;
#X obj 589 58 r \$0-preset13snd;
#X obj 696 58 r \$0-preset14snd;
#X obj 808 58 r \$0-preset15snd;
#X obj 928 56 r \$0-preset16snd;
#X obj 294 257 t b b;
#X obj 360 256 t b b;
#X obj 438 256 t b b;
#X obj 504 255 t b b;
#X obj 580 250 t b b;
#X obj 646 249 t b b;
#X obj 723 249 t b b;
#X obj 789 248 t b b;
#X msg 318 291 set 9;
#X msg 384 290 set 10;
#X msg 462 290 set 11;
#X msg 528 290 set 12;
#X msg 604 284 set 13;
#X msg 669 283 set 14;
#X msg 747 283 set 15;
#X msg 813 282 set 16;
#X obj 318 666 outlet currentpreset;
#X obj 411 322 t b b;
#X obj 477 321 t b b;
#X obj 555 321 t b b;
#X obj 621 320 t b b;
#X obj 697 315 t b b;
#X msg 435 356 set 17;
#X msg 501 355 set 18;
#X msg 579 355 set 19;
#X msg 645 355 set 20;
#X msg 721 349 set 21;
#X msg 799 353 set 22;
#X msg 864 348 set 23;
#X msg 930 347 set 24;
#X obj 774 316 t b b;
#X obj 840 315 t b b;
#X obj 916 310 t b b;
#X obj 119 85 r \$0-preset17snd;
#X obj 243 86 r \$0-preset18snd;
#X obj 356 87 r \$0-preset19snd;
#X obj 501 89 r \$0-preset20snd;
#X obj 619 88 r \$0-preset21snd;
#X obj 726 88 r \$0-preset22snd;
#X obj 837 88 r \$0-preset23snd;
#X obj 958 86 r \$0-preset24snd;
#X obj 154 115 r \$0-preset25snd;
#X obj 273 116 r \$0-preset26snd;
#X obj 386 117 r \$0-preset27snd;
#X obj 531 119 r \$0-preset28snd;
#X obj 650 119 r \$0-preset29snd;
#X obj 756 118 r \$0-preset30snd;
#X obj 867 118 r \$0-preset31snd;
#X obj 988 116 r \$0-preset32snd;
#X obj 569 393 t b b;
#X obj 635 392 t b b;
#X obj 713 392 t b b;
#X obj 779 391 t b b;
#X obj 855 386 t b b;
#X obj 932 387 t b b;
#X obj 998 386 t b b;
#X obj 1074 381 t b b;
#X msg 593 427 set 25;
#X msg 659 427 set 26;
#X msg 734 426 set 27;
#X msg 802 426 set 28;
#X msg 879 420 set 29;
#X msg 956 424 set 30;
#X msg 1022 419 set 31;
#X msg 1088 418 set 32;
#X obj 650 473 t b b;
#X obj 716 472 t b b;
#X obj 794 472 t b b;
#X obj 860 471 t b b;
#X obj 936 466 t b b;
#X obj 1013 467 t b b;
#X obj 1079 466 t b b;
#X msg 674 507 set 33;
#X msg 740 507 set 34;
#X msg 815 506 set 35;
#X msg 883 506 set 36;
#X msg 960 500 set 37;
#X msg 1037 504 set 38;
#X msg 1103 499 set 39;
#X msg 1169 498 set 40;
#X obj 189 145 r \$0-preset33snd;
#X obj 309 145 r \$0-preset34snd;
#X obj 426 147 r \$0-preset35snd;
#X obj 571 149 r \$0-preset36snd;
#X obj 689 148 r \$0-preset37snd;
#X obj 798 146 r \$0-preset38snd;
#X obj 907 148 r \$0-preset39snd;
#X obj 1028 146 r \$0-preset40snd;
#X obj 1164 455 t b b;
#X msg 133 632 color 23;
#N canvas 822 449 450 327 initcolours 0;
#X obj 213 20 loadbang;
#X obj 278 157 + 1;
#X obj 217 158 f 1;
#X obj 250 225 bang;
#X msg 190 113 1;
#X obj 142 283 outlet number;
#X obj 250 247 delay 1;
#X obj 217 189 sel 40;
#X obj 115 34 inlet;
#X connect 0 0 4 0;
#X connect 1 0 2 1;
#X connect 2 0 1 0;
#X connect 2 0 5 0;
#X connect 2 0 7 0;
#X connect 3 0 6 0;
#X connect 4 0 2 0;
#X connect 6 0 2 0;
#X connect 7 1 3 0;
#X connect 8 0 4 0;
#X restore 645 544 pd initcolours;
#X obj 644 566 t b f f;
#X obj 758 568 bng 15 250 50 0 empty empty reset\ colours 27 4 0 10
-262144 -1 -1;
#N canvas 576 299 450 300 getsavecolors 0;
#X obj 151 20 inlet presetnumber;
#X obj 29 30 inlet bang;
#X obj 151 42 tabread \$0-saved;
#X obj 151 64 sel 0 1;
#X msg 148 104 0;
#X msg 180 118 4;
#X obj 100 228 outlet;
#X msg 141 149 set color \$1;
#X msg 141 171 color 4;
#X connect 0 0 2 0;
#X connect 1 0 8 0;
#X connect 2 0 3 0;
#X connect 3 0 4 0;
#X connect 3 1 5 0;
#X connect 4 0 7 0;
#X connect 5 0 7 0;
#X connect 7 0 8 0;
#X connect 8 0 6 0;
#X restore 438 614 pd getsavecolors;
#X connect 0 0 20 0;
#X connect 1 0 21 0;
#X connect 2 0 23 0;
#X connect 3 0 24 0;
#X connect 4 0 25 0;
#X connect 5 0 26 0;
#X connect 6 0 27 0;
#X connect 7 0 28 0;
#X connect 8 0 18 0;
#X connect 8 1 9 0;
#X connect 8 2 13 0;
#X connect 9 0 14 0;
#X connect 9 0 59 0;
#X connect 10 0 11 0;
#X connect 10 0 136 1;
#X connect 11 0 12 1;
#X connect 13 0 136 0;
#X connect 13 1 10 0;
#X connect 15 0 16 0;
#X connect 16 0 17 1;
#X connect 18 0 132 0;
#X connect 18 1 15 0;
#X connect 19 0 9 0;
#X connect 20 0 8 0;
#X connect 20 1 19 0;
#X connect 21 0 8 0;
#X connect 21 1 22 0;
#X connect 22 0 9 0;
#X connect 23 0 8 0;
#X connect 23 1 29 0;
#X connect 24 0 8 0;
#X connect 24 1 30 0;
#X connect 25 0 8 0;
#X connect 25 1 31 0;
#X connect 26 0 8 0;
#X connect 26 1 32 0;
#X connect 27 0 8 0;
#X connect 27 1 33 0;
#X connect 28 0 8 0;
#X connect 28 1 34 0;
#X connect 29 0 9 0;
#X connect 30 0 9 0;
#X connect 31 0 9 0;
#X connect 32 0 9 0;
#X connect 33 0 9 0;
#X connect 34 0 9 0;
#X connect 35 0 43 0;
#X connect 36 0 44 0;
#X connect 37 0 45 0;
#X connect 38 0 46 0;
#X connect 39 0 47 0;
#X connect 40 0 48 0;
#X connect 41 0 49 0;
#X connect 42 0 50 0;
#X connect 43 0 8 0;
#X connect 43 1 51 0;
#X connect 44 0 8 0;
#X connect 44 1 52 0;
#X connect 45 0 8 0;
#X connect 45 1 53 0;
#X connect 46 0 8 0;
#X connect 46 1 54 0;
#X connect 47 0 8 0;
#X connect 47 1 55 0;
#X connect 48 0 8 0;
#X connect 48 1 56 0;
#X connect 49 0 8 0;
#X connect 49 1 57 0;
#X connect 50 0 8 0;
#X connect 50 1 58 0;
#X connect 51 0 9 0;
#X connect 52 0 9 0;
#X connect 53 0 9 0;
#X connect 54 0 9 0;
#X connect 55 0 9 0;
#X connect 56 0 9 0;
#X connect 57 0 9 0;
#X connect 58 0 9 0;
#X connect 60 0 8 0;
#X connect 60 1 65 0;
#X connect 61 0 8 0;
#X connect 61 1 66 0;
#X connect 62 0 8 0;
#X connect 62 1 67 0;
#X connect 63 0 8 0;
#X connect 63 1 68 0;
#X connect 64 0 8 0;
#X connect 64 1 69 0;
#X connect 65 0 9 0;
#X connect 66 0 9 0;
#X connect 67 0 9 0;
#X connect 68 0 9 0;
#X connect 69 0 9 0;
#X connect 70 0 9 0;
#X connect 71 0 9 0;
#X connect 72 0 9 0;
#X connect 73 0 8 0;
#X connect 73 1 70 0;
#X connect 74 0 8 0;
#X connect 74 1 71 0;
#X connect 75 0 8 0;
#X connect 75 1 72 0;
#X connect 76 0 60 0;
#X connect 77 0 61 0;
#X connect 78 0 62 0;
#X connect 79 0 63 0;
#X connect 80 0 64 0;
#X connect 81 0 73 0;
#X connect 82 0 74 0;
#X connect 83 0 75 0;
#X connect 84 0 92 0;
#X connect 85 0 93 0;
#X connect 86 0 94 0;
#X connect 87 0 95 0;
#X connect 88 0 96 0;
#X connect 89 0 97 0;
#X connect 90 0 98 0;
#X connect 91 0 99 0;
#X connect 92 0 8 0;
#X connect 92 1 100 0;
#X connect 93 0 8 0;
#X connect 93 1 101 0;
#X connect 94 0 8 0;
#X connect 94 1 102 0;
#X connect 95 0 8 0;
#X connect 95 1 103 0;
#X connect 96 0 8 0;
#X connect 96 1 104 0;
#X connect 97 0 8 0;
#X connect 97 1 105 0;
#X connect 98 0 8 0;
#X connect 98 1 106 0;
#X connect 99 0 8 0;
#X connect 99 1 107 0;
#X connect 100 0 9 0;
#X connect 101 0 9 0;
#X connect 102 0 9 0;
#X connect 103 0 9 0;
#X connect 104 0 9 0;
#X connect 105 0 9 0;
#X connect 106 0 9 0;
#X connect 107 0 9 0;
#X connect 108 0 8 0;
#X connect 108 1 115 0;
#X connect 109 0 8 0;
#X connect 109 1 116 0;
#X connect 110 0 8 0;
#X connect 110 1 117 0;
#X connect 111 0 8 0;
#X connect 111 1 118 0;
#X connect 112 0 8 0;
#X connect 112 1 119 0;
#X connect 113 0 8 0;
#X connect 113 1 120 0;
#X connect 114 0 8 0;
#X connect 114 1 121 0;
#X connect 115 0 9 0;
#X connect 116 0 9 0;
#X connect 117 0 9 0;
#X connect 118 0 9 0;
#X connect 119 0 9 0;
#X connect 120 0 9 0;
#X connect 121 0 9 0;
#X connect 122 0 9 0;
#X connect 123 0 108 0;
#X connect 124 0 109 0;
#X connect 125 0 110 0;
#X connect 126 0 111 0;
#X connect 127 0 112 0;
#X connect 128 0 113 0;
#X connect 129 0 114 0;
#X connect 130 0 131 0;
#X connect 131 0 122 0;
#X connect 131 0 8 0;
#X connect 132 0 17 0;
#X connect 133 0 134 0;
#X connect 134 0 136 0;
#X connect 134 1 136 1;
#X connect 134 2 11 0;
#X connect 135 0 133 0;
#X connect 136 0 12 0;
#X restore 144 322 pd bangreceivesandcolors;
#X obj 864 230 r \$0-limitsnd;
#X obj 836 564 s \$0-limitrcv;
#N canvas 626 303 676 257 savecolors 0;
#N canvas 0 0 450 300 (subpatch) 0;
#X array \$0-saved 41 float 3 black black;
#A 0 0 1 1 1 1 1 1 1 1 1 1 1 1 1 0 0 0 0 0 0 0 0 0 0 0 0 0 0 0 0 0
0 0 0 0 0 0 0 0 0 0;
#X coords 0 1 41 0 200 140 1;
#X restore 30 30 graph;
#X obj 382 44 inlet savenumber;
#X obj 382 66 t b f;
#X msg 355 105 1;
#X msg 566 101 \; \$0-saved const 0;
#X obj 348 156 tabwrite \$0-saved;
#X obj 503 45 inlet clearnumber;
#X obj 503 67 t b f;
#X msg 478 97 0;
#X connect 1 0 2 0;
#X connect 2 0 3 0;
#X connect 2 1 5 1;
#X connect 3 0 5 0;
#X connect 6 0 7 0;
#X connect 7 0 8 0;
#X connect 7 1 5 1;
#X connect 8 0 5 0;
#X restore 280 398 pd savecolors;
#X obj 146 141 bng 20 250 50 0 empty empty clear 25 7 0 10 -215290
-1 -1;
#X obj 154 232 v \$0-currentpreset;
#X obj 426 219 r \$0-osc3pitchsnd;
#X obj 426 175 r \$0-osc1pitchsnd;
#X obj 426 197 r \$0-osc2pitchsnd;
#X obj 472 268 r \$0-fb1snd;
#X obj 566 173 r \$0-vcfcutoffsnd;
#X obj 566 195 r \$0-vcfqsnd;
#X obj 566 217 r \$0-volsnd;
#X obj 566 239 r \$0-overlapsnd;
#X obj 703 197 r \$0-osc1snsnd;
#X obj 703 175 r \$0-osc1sqsnd;
#X obj 703 219 r \$0-osc2sqsnd;
#X obj 704 241 r \$0-osc2snsnd;
#X obj 703 263 r \$0-osc3sqsnd;
#X obj 703 285 r \$0-osc3snsnd;
#X obj 437 240 r \$0-noisesnd;
#X obj 414 325 pack \$1 \$2 \$3 \$4 \$5 \$6 \$7 \$8 \$9 \$10 \$11 \$12
\$13 \$14 \$15 \$16 \$17 \$18;
#X obj 490 288 r \$0-fb2snd;
#X obj 375 528 s \$0-osc1pitchrcv;
#X obj 375 550 s \$0-osc2pitchrcv;
#X obj 375 572 s \$0-osc3pitchrcv;
#X obj 375 594 s \$0-noisercv;
#X obj 486 536 s \$0-fb1rcv;
#X obj 486 558 s \$0-fb2rcv;
#X obj 578 529 s \$0-vcfcutoffrcv;
#X obj 578 551 s \$0-vcfqrcv;
#X obj 578 573 s \$0-volrcv;
#X obj 578 595 s \$0-overlaprcv;
#X obj 709 521 s \$0-osc1sqrcv;
#X obj 709 543 s \$0-osc1snrcv;
#X obj 709 565 s \$0-osc2sqrcv;
#X obj 709 587 s \$0-osc2snrcv;
#X obj 709 608 s \$0-osc3sqrcv;
#X obj 709 630 s \$0-osc3snrcv;
#X obj 421 436 unpack \$1 \$2 \$3 \$4 \$5 \$6 \$7 \$8 \$9 \$10 \$11
\$12 \$13 \$14 \$15 \$16 \$17 \$18;
#X connect 41 0 87 0;
#X connect 42 0 45 0;
#X connect 43 0 44 0;
#X connect 43 0 46 1;
#X connect 43 0 51 0;
#X connect 45 1 69 0;
#X connect 45 2 43 0;
#X connect 46 0 41 0;
#X connect 47 0 69 0;
#X connect 48 0 41 1;
#X connect 49 0 69 17;
#X connect 52 0 53 0;
#X connect 53 0 51 1;
#X connect 54 0 69 3;
#X connect 55 0 69 1;
#X connect 56 0 69 2;
#X connect 57 0 69 5;
#X connect 58 0 69 7;
#X connect 59 0 69 8;
#X connect 60 0 69 9;
#X connect 61 0 69 10;
#X connect 62 0 69 12;
#X connect 63 0 69 11;
#X connect 64 0 69 13;
#X connect 65 0 69 14;
#X connect 66 0 69 15;
#X connect 67 0 69 16;
#X connect 68 0 69 4;
#X connect 69 0 46 0;
#X connect 70 0 69 6;
#X connect 87 1 71 0;
#X connect 87 2 72 0;
#X connect 87 3 73 0;
#X connect 87 4 74 0;
#X connect 87 5 75 0;
#X connect 87 6 76 0;
#X connect 87 7 77 0;
#X connect 87 8 78 0;
#X connect 87 9 79 0;
#X connect 87 10 80 0;
#X connect 87 11 81 0;
#X connect 87 12 82 0;
#X connect 87 13 83 0;
#X connect 87 14 84 0;
#X connect 87 15 85 0;
#X connect 87 16 86 0;
#X connect 87 17 50 0;
#X coords 0 -1 1 1 200 150 1 16 16;
#X restore 30 421 pd presets;
#X obj 539 88 lfopanel 0 3.59584 40 1;
#X obj 441 84 lfopanel 0 5.13495 44 2;
#X obj 341 84 lfopanel 0 0.890741 20 0;
#X connect 22 0 23 0;
#X connect 22 0 23 1;
#X connect 25 0 22 2;
#X connect 26 0 25 0;
#X connect 27 0 22 1;
#X coords 0 -1 1 1 300 250 2 19 19;
