#N canvas 5 24 1910 997 10;
#X obj 829 103 cnv 15 272 202 empty empty empty 20 12 0 14 -174755
-66577 0;
#X obj 938 282 cnv 15 272 202 empty empty empty 20 12 0 14 -257964
-66577 0;
#X obj 560 294 cnv 15 136 187 empty empty empty 20 12 0 14 -257268
-66577 0;
#X obj 1102 352 cnv 15 123 203 empty empty empty 20 12 0 14 -229339
-66577 0;
#X obj 810 519 cnv 15 395 182 empty empty empty 20 12 0 14 -134201
-66577 0;
#X obj 660 462 cnv 15 170 203 empty empty empty 20 12 0 14 -134201
-66577 0;
#X obj 639 191 cnv 15 239 202 empty empty empty 20 12 0 14 -257268
-66577 0;
#X obj 481 117 cnv 15 159 185 empty empty empty 20 12 0 14 -233017
-66577 0;
#N canvas 5 24 1910 997 soundstuff 1;
#X obj 36 42 block~ 1;
#X obj 405 318 cos~;
#X obj 400 856 delwrite~ \$0-delayL;
#X obj 261 251 delread4~ \$0-delayL;
#X obj 533 311 noise~;
#X obj 289 694 outlet~;
#X floatatom 525 513 5 0 0 0 - - -, f 5;
#X obj 429 460 hip~ 5;
#X obj 404 760 /~;
#X obj 456 629 sig~;
#X obj 449 650 lop~ 0.1;
#X obj 284 153 /~ 10;
#X obj 404 785 bob~;
#X obj 450 573 / 2;
#X obj 1182 302 cos~;
#X obj 1066 678 outlet~;
#X floatatom 1310 475 5 0 0 0 - - -, f 5;
#X obj 1208 448 hip~ 5;
#X obj 1195 739 /~;
#X obj 1245 645 sig~;
#X obj 1238 666 lop~ 0.1;
#X obj 1061 137 /~ 10;
#X obj 1195 764 bob~;
#X obj 1239 589 / 2;
#X obj 1239 614 - 30;
#X obj 450 598 - 30;
#X obj 1038 235 delread4~ \$0-delayR;
#X obj 1191 835 delwrite~ \$0-delayR;
#X obj 449 675 *~;
#X obj 1242 712 *~;
#X obj 436 528 f;
#X obj 575 434 tgl 15 0 empty empty empty 17 7 0 10 -262144 -1 -1 1
1;
#X obj 1241 529 f;
#X obj 1341 497 tgl 15 0 empty empty empty 17 7 0 10 -262144 -1 -1
1 1;
#X obj 525 471 metro 1;
#X obj 1302 535 metro 1;
#X obj 405 422 *~;
#X floatatom 588 390 5 1 5000 0 - - -, f 5;
#X obj 430 487 env~ 64;
#X obj 1185 417 *~;
#X obj 1236 472 env~ 64;
#X floatatom 1305 434 5 1 5000 0 - - -, f 5;
#X floatatom 832 304 5 0 0 0 - - -, f 5;
#X floatatom 538 641 5 0 0 0 - - -, f 5;
#X obj 433 711 clip~ 0 10000;
#X obj 1242 737 clip~ 0 10000;
#X obj 713 782 *~;
#X obj 808 786 *~;
#X obj 642 252 hip~ 3;
#X obj 533 336 *~ 0.0005;
#X obj 1543 565 key;
#X obj 1492 608 sel 39 44;
#X obj 456 27 r \$0-pitchmodsnd;
#X obj 861 679 r \$0-crossmodsnd;
#X obj 820 505 r \$0-ressnd;
#X obj 1431 487 r \$0-smoothRsnd;
#X obj 647 527 r \$0-smoothLsnd;
#X obj 731 248 r \$0-scalesnd;
#X obj 918 241 r \$0-offsetsnd;
#X obj 717 176 r \$0-scrubsnd;
#X obj 1321 317 r \$0-spdLsnd;
#X obj 1321 342 r \$0-spdRsnd;
#X obj 520 196 r \$0-fbsnd;
#X obj 730 489 r \$0-lpLsnd;
#X obj 904 493 r \$0-lpRsnd;
#X obj 1391 396 loadbang;
#X msg 1391 421 1;
#N canvas 0 0 450 300 smoother 0;
#X obj 58 20 inlet;
#X obj 99 105 line~;
#X obj 109 186 outlet~;
#X obj 85 66 pack 0 \$1;
#X obj 208 21 inlet;
#X connect 0 0 3 0;
#X connect 1 0 2 0;
#X connect 3 0 1 0;
#X connect 4 0 3 1;
#X restore 648 213 pd smoother 50;
#N canvas 0 0 450 300 smoother 0;
#X obj 58 20 inlet;
#X obj 99 105 line~;
#X obj 109 186 outlet~;
#X obj 85 66 pack 0 \$1;
#X obj 208 21 inlet;
#X connect 0 0 3 0;
#X connect 1 0 2 0;
#X connect 3 0 1 0;
#X connect 4 0 3 1;
#X restore 718 586 pd smoother 15;
#N canvas 0 0 450 300 smoother 0;
#X obj 58 20 inlet;
#X obj 99 105 line~;
#X obj 109 186 outlet~;
#X obj 85 66 pack 0 \$1;
#X obj 208 21 inlet;
#X connect 0 0 3 0;
#X connect 1 0 2 0;
#X connect 3 0 1 0;
#X connect 4 0 3 1;
#X restore 796 611 pd smoother 15;
#N canvas 0 0 450 300 smoother 0;
#X obj 58 20 inlet;
#X obj 99 105 line~;
#X obj 109 186 outlet~;
#X obj 85 66 pack 0 \$1;
#X obj 208 21 inlet;
#X connect 0 0 3 0;
#X connect 1 0 2 0;
#X connect 3 0 1 0;
#X connect 4 0 3 1;
#X restore 916 588 pd smoother 15;
#N canvas 0 0 450 300 smoother 0;
#X obj 58 20 inlet;
#X obj 99 105 line~;
#X obj 109 186 outlet~;
#X obj 85 66 pack 0 \$1;
#X obj 208 21 inlet;
#X connect 0 0 3 0;
#X connect 1 0 2 0;
#X connect 3 0 1 0;
#X connect 4 0 3 1;
#X restore 755 732 pd smoother 15;
#N canvas 0 0 450 300 smoother 0;
#X obj 58 20 inlet;
#X obj 99 105 line~;
#X obj 109 186 outlet~;
#X obj 85 66 pack 0 \$1;
#X obj 208 21 inlet;
#X connect 0 0 3 0;
#X connect 1 0 2 0;
#X connect 3 0 1 0;
#X connect 4 0 3 1;
#X restore 502 246 pd smoother 25;
#N canvas 0 0 450 300 smoother 0;
#X obj 58 20 inlet;
#X obj 99 105 line~;
#X obj 109 186 outlet~;
#X obj 85 66 pack 0 \$1;
#X obj 208 21 inlet;
#X connect 0 0 3 0;
#X connect 1 0 2 0;
#X connect 3 0 1 0;
#X connect 4 0 3 1;
#X restore 725 319 pd smoother 15;
#X connect 1 0 36 0;
#X connect 3 0 1 0;
#X connect 4 0 49 0;
#X connect 7 0 38 0;
#X connect 8 0 12 0;
#X connect 9 0 10 0;
#X connect 10 0 28 0;
#X connect 11 0 3 0;
#X connect 12 0 2 0;
#X connect 12 0 46 0;
#X connect 13 0 25 0;
#X connect 14 0 39 0;
#X connect 17 0 40 0;
#X connect 18 0 22 0;
#X connect 19 0 20 0;
#X connect 20 0 29 0;
#X connect 21 0 26 0;
#X connect 22 0 27 0;
#X connect 22 0 47 0;
#X connect 23 0 24 0;
#X connect 24 0 19 0;
#X connect 25 0 9 0;
#X connect 25 0 43 0;
#X connect 26 0 14 0;
#X connect 28 0 11 0;
#X connect 28 0 44 0;
#X connect 29 0 21 0;
#X connect 29 0 45 0;
#X connect 30 0 13 0;
#X connect 31 0 34 0;
#X connect 32 0 23 0;
#X connect 33 0 35 0;
#X connect 34 0 30 0;
#X connect 35 0 32 0;
#X connect 36 0 7 0;
#X connect 36 0 8 0;
#X connect 36 0 5 0;
#X connect 37 0 34 1;
#X connect 38 0 6 0;
#X connect 38 0 30 1;
#X connect 39 0 17 0;
#X connect 39 0 18 0;
#X connect 39 0 15 0;
#X connect 40 0 16 0;
#X connect 40 0 32 1;
#X connect 41 0 35 1;
#X connect 44 0 8 1;
#X connect 45 0 18 1;
#X connect 46 0 27 0;
#X connect 47 0 2 0;
#X connect 48 0 1 0;
#X connect 48 0 14 0;
#X connect 49 0 36 1;
#X connect 49 0 39 1;
#X connect 50 0 51 0;
#X connect 51 0 31 0;
#X connect 51 1 33 0;
#X connect 52 0 11 1;
#X connect 52 0 21 1;
#X connect 53 0 71 0;
#X connect 54 0 69 0;
#X connect 55 0 20 1;
#X connect 56 0 10 1;
#X connect 57 0 73 0;
#X connect 58 0 24 1;
#X connect 58 0 25 1;
#X connect 59 0 67 0;
#X connect 60 0 34 1;
#X connect 61 0 35 1;
#X connect 62 0 72 0;
#X connect 63 0 68 0;
#X connect 64 0 70 0;
#X connect 65 0 66 0;
#X connect 66 0 33 0;
#X connect 66 0 31 0;
#X connect 67 0 48 0;
#X connect 68 0 12 1;
#X connect 69 0 22 2;
#X connect 69 0 12 2;
#X connect 70 0 22 1;
#X connect 71 0 46 1;
#X connect 71 0 47 1;
#X connect 72 0 36 1;
#X connect 72 0 39 1;
#X connect 73 0 28 1;
#X connect 73 0 29 1;
#X restore 158 479 pd soundstuff;
#X obj 65 696 output;
#X obj 158 504 hip~ 5;
#X obj 216 507 hip~ 5;
#X obj 586 327 vsl 35 128 300 5 0 0 \$0-pitchmodsnd \$0-pitchmodrcv
pitchmod 0 -9 0 10 -188482 -261827 -1 0 0;
#X obj 639 326 vsl 35 128 0 1 0 0 \$0-crossmodsnd \$0-crossmodrcv crossmod
0 -9 0 10 -247906 -262144 -1 0 1;
#X obj 958 142 vsl 35 128 15 25000 1 0 \$0-lpLsnd \$0-lpLrcv lpL 0
-9 0 10 -258114 -3072 -1 0 0;
#X obj 985 302 vsl 35 128 1 4.4 0 0 \$0-ressnd \$0-resrcv res 0 -9
0 10 -112283 -261121 -1 0 1;
#X obj 704 499 vsl 35 128 0.1 10 1 0 \$0-smoothLsnd \$0-smoothLrcv
smL 0 -9 0 10 -99150 -259504 -1 0 1;
#X obj 756 500 vsl 35 128 0.1 10 1 0 \$0-smoothRsnd \$0-smoothRrcv
smR 0 -9 0 10 -253419 -184841 -1 0 1;
#X obj 531 153 vsl 35 128 4 0 0 0 \$0-scalesnd \$0-scalercv scale 0
-9 0 10 -198169 -212212 -1 0 1;
#X obj 579 152 vsl 35 128 0 40 0 0 \$0-offsetsnd \$0-offsetrcv offset
0 -9 0 10 -142976 -213058 -1 0 0;
#X obj 1131 397 vsl 35 128 -1 1 0 0 \$0-scrubsnd \$0-scrubrcv scrub
0 -9 0 10 -261263 -258049 -1 0 0;
#X obj 788 239 vsl 35 128 0 2 0 0 \$0-fbsnd \$0-fbrcv fb 0 -9 0 10
-261965 -2828 -1 0 0;
#X obj 918 547 vsl 35 128 700 1 1 0 \$0-spdLsnd \$0-spdLrcv spdL 0
-9 0 10 -94014 -38114 -1 0 0;
#X obj 1009 548 vsl 35 128 700 1 1 0 \$0-spdRsnd \$0-spdRrcv spdR 0
-9 0 10 -46247 -4092 -1 0 0;
#X obj 234 695 adascope 0 20 1;
#X obj 349 692 adascope 0 25 1;
#X obj 1004 143 vsl 35 128 15 25000 1 0 \$0-lpRsnd \$0-lpRrcv lpR 0
-9 0 10 -163493 -1 -1 0 0;
#X obj 311 340 cnv 15 100 60 empty empty REFLECTOR\ 13 269 422 0 78
-233017 -66577 0;
#X obj 131 597 tanh~;
#X obj 217 603 tanh~;
#X connect 8 0 10 0;
#X connect 8 1 11 0;
#X connect 10 0 28 0;
#X connect 11 0 29 0;
#X connect 28 0 9 0;
#X connect 28 0 24 0;
#X connect 29 0 9 1;
#X connect 29 0 25 0;
