#N canvas 964 36 952 1008 10;
#X obj 699 223 cnv 15 220 193 empty empty convolvement 12 179 0 14
-235312 -66577 0;
#X obj 698 12 cnv 15 220 193 empty empty centroid 12 179 0 14 -232120
-66577 0;
#X obj 18 10 cnv 15 663 277 empty empty cyclicity\\\ parameters 11
259 0 14 -223350 -66577 0;
#X obj 33 30 vsl 25 200 -88 128 0 0 \$0-pitch1snd \$0-pitch1rcv p 10
31 0 10 -262144 -1 -1 8400 1;
#X obj 735 35 vsl 25 128 0 0.8 0 0 \$0-fbsnd \$0-fbrcv Feedback 0 -9
0 10 -262144 -1 -1 2100 1;
#X obj 217 262 bng 20 250 50 0 \$0-randompitchsnd \$0-randompitchrcv
rnd 0 9 0 10 -262144 -1 -1;
#X obj 824 53 vsl 25 128 5 15005 1 0 \$0-delsnd \$0-delrcv delay 0
-9 0 10 -262144 -1 -1 2171 1;
#X obj 769 53 vsl 25 128 100 10000 1 0 \$0-modfiltsnd \$0-modfiltrcv
filt 0 -9 0 10 -262144 -1 -1 9400 1;
#N canvas 175 79 1360 715 soundstuff 0;
#X obj 157 171 phasor~;
#X obj 318 180 phasor~;
#X obj 491 188 phasor~;
#X obj 702 186 phasor~;
#X obj 157 256 cos~;
#X obj 318 266 cos~;
#X obj 490 272 cos~;
#X obj 702 270 cos~;
#X obj 157 213 +~;
#X obj 318 223 +~;
#X obj 490 231 +~;
#X obj 702 228 +~;
#X obj 159 83 mtof;
#X obj 325 89 mtof;
#X obj 491 96 mtof;
#X obj 705 99 mtof;
#X obj 157 234 wrap~;
#X obj 318 244 wrap~;
#X obj 490 251 wrap~;
#X obj 702 249 wrap~;
#X obj 20 444 random 100;
#X obj 20 466 / 100;
#X obj 20 488 s \$0-randomphase;
#X obj 702 207 +~ 0;
#X obj 490 209 +~ 0;
#X obj 318 201 +~ 0;
#X obj 156 192 +~ 0;
#X obj 60 609 block~ 1;
#X obj 328 654 outlet~;
#X obj 184 1 r \$0-pitch1snd;
#X obj 248 21 r \$0-pitch2snd;
#X obj 298 0 r \$0-pitch3snd;
#X obj 352 23 r \$0-pitch4snd;
#X obj 922 564 *~;
#X obj 954 564 *~;
#X obj 987 563 *~;
#X obj 1019 563 *~;
#X obj 890 362 r \$0-fb1snd;
#X obj 972 359 r \$0-fb2snd;
#X obj 1053 361 r \$0-fb3snd;
#X obj 1135 361 r \$0-fb4snd;
#X obj 899 397 smoother 10;
#X obj 982 398 smoother 10;
#X obj 1063 399 smoother 10;
#X obj 1143 399 smoother 10;
#X obj 701 293 *~, f 4;
#X obj 701 315 clip~ -1 1;
#X obj 496 297 *~;
#X obj 496 319 clip~ -1 1;
#X obj 333 295 *~;
#X obj 333 317 clip~ -1 1;
#X obj 165 288 *~;
#X obj 165 310 clip~ -1 1;
#N canvas 457 256 450 300 shapercv 0;
#X obj 36 38 r \$0-shape1snd;
#X obj 134 40 r \$0-shape2snd;
#X obj 231 41 r \$0-shape3snd;
#X obj 328 41 r \$0-shape4snd;
#X obj 33 102 smoother 10;
#X obj 133 107 smoother 10;
#X obj 231 109 smoother 10;
#X obj 323 112 smoother 10;
#X obj 75 142 outlet~;
#X obj 143 143 outlet~;
#X obj 216 145 outlet~;
#X obj 284 146 outlet~;
#X obj 36 60 + 1;
#X obj 137 70 + 1;
#X obj 231 73 + 1;
#X obj 326 75 + 1;
#X connect 0 0 12 0;
#X connect 1 0 13 0;
#X connect 2 0 14 0;
#X connect 3 0 15 0;
#X connect 4 0 8 0;
#X connect 5 0 9 0;
#X connect 6 0 10 0;
#X connect 7 0 11 0;
#X connect 12 0 4 0;
#X connect 13 0 5 0;
#X connect 14 0 6 0;
#X connect 15 0 7 0;
#X restore 779 240 pd shapercv;
#X obj 290 431 adamonopan;
#X obj 413 652 outlet~;
#X obj 370 433 adamonopan;
#X obj 453 435 adamonopan;
#X obj 537 435 adamonopan;
#N canvas 456 232 450 300 panrcv 0;
#X obj 79 35 r \$0-pan1snd;
#X obj 79 57 r \$0-pan2snd;
#X obj 79 79 r \$0-pan3snd;
#X obj 79 101 r \$0-pan4snd;
#X obj 85 197 outlet;
#X obj 134 199 outlet;
#X obj 188 198 outlet;
#X obj 237 200 outlet;
#X connect 0 0 4 0;
#X connect 1 0 5 0;
#X connect 2 0 6 0;
#X connect 3 0 7 0;
#X restore 677 388 pd panrcv;
#N canvas 249 135 1006 580 verb 0;
#X obj 150 276 freeverb~, f 11;
#X obj 107 494 outlet~;
#X obj 239 488 outlet~;
#X obj 36 9 inlet~;
#X obj 247 12 inlet~;
#X obj 502 380 *~;
#X obj 546 322 r \$0-verbfbsnd;
#X obj 546 344 smoother 15;
#X obj 312 16 r \$0-verbfreezesnd;
#X obj 312 38 tgl 15 0 empty empty empty 17 7 0 10 -262144 -1 -1 0
1;
#X msg 312 58 freeze \$1;
#X obj 124 348 vcf~;
#X obj 224 349 vcf~;
#X obj 265 282 r \$0-verbfiltsnd;
#X obj 265 304 smoother 15;
#X obj 600 213 loadbang;
#X msg 599 259 wet 0.5;
#X obj 440 23 r \$0-verbsizesnd;
#X msg 609 276 damping 0.7;
#X msg 440 45 roomsize \$1;
#X obj 384 103 r \$0-verbdrywetsnd;
#X obj 360 126 expr 1-$f1;
#X obj 367 151 smoother 10;
#X obj 441 150 smoother 10;
#X obj 502 425 outlet~ fbL;
#X obj 598 430 outlet~ fbR;
#X obj 570 389 *~;
#X msg 600 235 3;
#X obj 61 67 *~;
#X obj 90 67 *~;
#X obj 229 63 *~;
#X obj 258 63 *~;
#X obj 115 418 *~;
#X obj 264 424 *~;
#X obj 348 385 r \$0-verbmutesnd;
#X obj 339 441 smoother 4;
#X obj 348 407 == 0;
#X connect 0 0 11 0;
#X connect 0 1 12 0;
#X connect 3 0 28 0;
#X connect 3 0 29 0;
#X connect 4 0 30 0;
#X connect 4 0 31 0;
#X connect 5 0 24 0;
#X connect 6 0 7 0;
#X connect 7 0 5 1;
#X connect 7 0 26 1;
#X connect 8 0 9 0;
#X connect 9 0 10 0;
#X connect 10 0 0 0;
#X connect 11 0 5 0;
#X connect 11 0 32 0;
#X connect 12 0 26 0;
#X connect 12 0 33 0;
#X connect 13 0 14 0;
#X connect 14 0 12 1;
#X connect 14 0 11 1;
#X connect 15 0 27 0;
#X connect 15 0 16 0;
#X connect 15 0 18 0;
#X connect 16 0 0 0;
#X connect 17 0 19 0;
#X connect 18 0 0 0;
#X connect 19 0 0 0;
#X connect 20 0 21 0;
#X connect 20 0 23 0;
#X connect 21 0 22 0;
#X connect 22 0 30 1;
#X connect 22 0 28 1;
#X connect 23 0 31 1;
#X connect 23 0 29 1;
#X connect 26 0 25 0;
#X connect 27 0 12 2;
#X connect 27 0 11 2;
#X connect 28 0 1 0;
#X connect 29 0 0 0;
#X connect 30 0 2 0;
#X connect 31 0 0 1;
#X connect 32 0 1 0;
#X connect 33 0 2 0;
#X connect 34 0 36 0;
#X connect 35 0 33 1;
#X connect 35 0 32 1;
#X connect 36 0 35 0;
#X restore 322 540 pd verb;
#X obj 1077 567 *~;
#X obj 1109 567 *~;
#X obj 1142 566 *~;
#X obj 1174 566 *~;
#N canvas 456 232 614 305 individualoscsends 0;
#X obj 102 63 inlet~;
#X obj 156 62 inlet~;
#X obj 212 63 inlet~;
#X obj 266 62 inlet~;
#X obj 61 207 delwrite~ \$0-osc1snd 50;
#X obj 112 233 delwrite~ \$0-osc2snd 50;
#X obj 277 232 delwrite~ \$0-osc3snd 50;
#X obj 320 206 delwrite~ \$0-osc4snd 50;
#X obj 445 111 block~ 1;
#X connect 0 0 4 0;
#X connect 1 0 5 0;
#X connect 2 0 6 0;
#X connect 3 0 7 0;
#X restore 415 385 pd individualoscsends;
#X obj 320 113 smoother 30;
#X obj 158 106 smoother 30;
#X obj 493 122 smoother 30;
#X obj 704 119 smoother 30;
#N canvas 456 232 619 310 outputamtLEFT 0;
#X obj 113 50 inlet~;
#X obj 167 49 inlet~;
#X obj 222 47 inlet~;
#X obj 276 46 inlet~;
#X obj 145 206 outlet~;
#X obj 354 67 r \$0-output1snd;
#X obj 386 89 r \$0-output2snd;
#X obj 416 113 r \$0-output3snd;
#X obj 435 140 r \$0-output4snd;
#X obj 111 108 *~;
#X obj 155 108 *~;
#X obj 202 110 *~;
#X obj 246 110 *~;
#X obj 333 156 smoother 15;
#X obj 365 178 smoother 15;
#X obj 402 201 smoother 15;
#X obj 427 222 smoother 15;
#X connect 0 0 9 0;
#X connect 1 0 10 0;
#X connect 2 0 11 0;
#X connect 3 0 12 0;
#X connect 5 0 13 0;
#X connect 6 0 14 0;
#X connect 7 0 15 0;
#X connect 8 0 16 0;
#X connect 9 0 4 0;
#X connect 10 0 4 0;
#X connect 11 0 4 0;
#X connect 12 0 4 0;
#X connect 13 0 9 1;
#X connect 14 0 10 1;
#X connect 15 0 11 1;
#X connect 16 0 12 1;
#X restore 290 482 pd outputamtLEFT;
#N canvas 456 232 619 310 outputamtRIGHT 0;
#X obj 113 50 inlet~;
#X obj 167 49 inlet~;
#X obj 222 47 inlet~;
#X obj 276 46 inlet~;
#X obj 145 206 outlet~;
#X obj 354 67 r \$0-output1snd;
#X obj 386 89 r \$0-output2snd;
#X obj 416 113 r \$0-output3snd;
#X obj 435 140 r \$0-output4snd;
#X obj 111 108 *~;
#X obj 155 108 *~;
#X obj 202 110 *~;
#X obj 246 110 *~;
#X obj 333 156 smoother 15;
#X obj 365 178 smoother 15;
#X obj 402 201 smoother 15;
#X obj 427 222 smoother 15;
#X connect 0 0 9 0;
#X connect 1 0 10 0;
#X connect 2 0 11 0;
#X connect 3 0 12 0;
#X connect 5 0 13 0;
#X connect 6 0 14 0;
#X connect 7 0 15 0;
#X connect 8 0 16 0;
#X connect 9 0 4 0;
#X connect 10 0 4 0;
#X connect 11 0 4 0;
#X connect 12 0 4 0;
#X connect 13 0 9 1;
#X connect 14 0 10 1;
#X connect 15 0 11 1;
#X connect 16 0 12 1;
#X restore 416 485 pd outputamtRIGHT;
#N canvas 964 36 472 1008 delrcv 0;
#X obj 179 329 outlet~;
#X obj 246 330 outlet~;
#X obj 321 329 outlet~;
#X obj 388 330 outlet~;
#X obj 204 220 *~;
#X obj 482 222 r \$0-fbsnd;
#X obj 482 248 smoother 15;
#X obj 204 138 *~ 1;
#X obj 307 11 r \$0-delsnd;
#X obj 307 53 / 100;
#X obj 307 32 - 5;
#X obj 382 89 r \$0-modfiltsnd;
#X obj 293 75 smoother 5;
#X obj 382 111 smoother 15;
#X obj 488 153 sig~;
#X obj 490 72 r \$0-ressnd;
#X obj 199 184 bob~;
#X obj 204 115 vd~ \$0-fb1L;
#X obj 297 143 *~ 1;
#X obj 292 189 bob~;
#X obj 297 120 vd~ \$0-fb1R;
#X obj 290 222 *~;
#X obj 144 256 adapan;
#X obj 200 255 adapan;
#X obj 267 257 adapan;
#X obj 319 257 adapan;
#N canvas 457 256 450 300 panrcv 0;
#X obj 59 42 r \$0-pan1snd;
#X obj 157 42 r \$0-pan2snd;
#X obj 254 46 r \$0-pan3snd;
#X obj 348 44 r \$0-pan4snd;
#X obj 85 199 outlet~;
#X obj 134 199 outlet~;
#X obj 188 198 outlet~;
#X obj 237 200 outlet~;
#X obj 70 112 smoother 10;
#X obj 147 122 smoother 10;
#X obj 244 112 smoother 10;
#X obj 325 111 smoother 10;
#X obj 59 64 + 1;
#X obj 59 86 * 0.5;
#X obj 157 69 + 1;
#X obj 157 91 * 0.5;
#X obj 249 70 + 1;
#X obj 249 92 * 0.5;
#X obj 339 66 + 1;
#X obj 339 88 * 0.5;
#X connect 0 0 12 0;
#X connect 1 0 14 0;
#X connect 2 0 16 0;
#X connect 3 0 18 0;
#X connect 8 0 4 0;
#X connect 9 0 5 0;
#X connect 10 0 6 0;
#X connect 11 0 7 0;
#X connect 12 0 13 0;
#X connect 13 0 8 0;
#X connect 14 0 15 0;
#X connect 15 0 9 0;
#X connect 16 0 17 0;
#X connect 17 0 10 0;
#X connect 18 0 19 0;
#X connect 19 0 11 0;
#X restore 391 197 pd panrcv;
#N canvas 121 294 515 384 osctodelay 0;
#X obj 48 50 delread~ \$0-osc1snd;
#X obj 112 79 delread~ \$0-osc2snd;
#X obj 212 51 delread~ \$0-osc3snd;
#X obj 256 82 delread~ \$0-osc4snd;
#X obj 141 194 *~;
#X obj 191 194 *~;
#X obj 233 193 *~;
#X obj 292 116 r \$0-osc1todelaysnd;
#X obj 310 140 r \$0-osc2todelaysnd;
#X obj 323 163 r \$0-osc3todelaysnd;
#X obj 338 186 r \$0-osc4todelaysnd;
#X obj 434 60 block~ 1;
#X obj 100 316 outlet~;
#X obj 91 191 *~;
#X obj 65 235 *~ 10;
#X obj 117 238 *~ 10;
#X obj 165 234 *~ 10;
#X obj 214 246 *~ 10;
#X connect 0 0 13 0;
#X connect 1 0 4 0;
#X connect 2 0 5 0;
#X connect 3 0 6 0;
#X connect 4 0 15 0;
#X connect 5 0 16 0;
#X connect 6 0 17 0;
#X connect 7 0 13 1;
#X connect 8 0 4 1;
#X connect 9 0 5 1;
#X connect 10 0 6 1;
#X connect 13 0 14 0;
#X connect 14 0 12 0;
#X connect 15 0 12 0;
#X connect 16 0 12 0;
#X connect 17 0 12 0;
#X restore 64 34 pd osctodelay;
#X obj 210 21 inlet~ lfo;
#X obj 211 65 *~;
#X obj 170 7 r \$0-lfotodelaysnd;
#X obj 170 29 - 1;
#X obj 204 159 cyclone/tanh~;
#X obj 297 164 cyclone/tanh~;
#X connect 4 0 22 0;
#X connect 4 0 23 0;
#X connect 4 0 24 0;
#X connect 4 0 25 0;
#X connect 5 0 6 0;
#X connect 6 0 4 1;
#X connect 6 0 21 1;
#X connect 7 0 32 0;
#X connect 8 0 10 0;
#X connect 9 0 12 0;
#X connect 10 0 9 0;
#X connect 11 0 13 0;
#X connect 12 0 17 0;
#X connect 12 0 20 0;
#X connect 13 0 16 1;
#X connect 13 0 19 1;
#X connect 14 0 16 2;
#X connect 14 0 19 2;
#X connect 15 0 14 0;
#X connect 16 0 4 0;
#X connect 17 0 7 0;
#X connect 18 0 33 0;
#X connect 19 0 21 0;
#X connect 20 0 18 0;
#X connect 21 0 22 2;
#X connect 21 0 23 2;
#X connect 21 0 24 2;
#X connect 21 0 25 2;
#X connect 22 0 0 0;
#X connect 22 1 0 0;
#X connect 23 0 1 0;
#X connect 23 1 1 0;
#X connect 24 0 2 0;
#X connect 24 1 2 0;
#X connect 25 0 3 0;
#X connect 25 1 3 0;
#X connect 26 0 22 1;
#X connect 26 1 23 1;
#X connect 26 2 24 1;
#X connect 26 3 25 1;
#X connect 27 0 17 0;
#X connect 27 0 20 0;
#X connect 28 0 29 0;
#X connect 29 0 17 0;
#X connect 29 0 20 0;
#X connect 30 0 31 0;
#X connect 31 0 29 1;
#X connect 32 0 16 0;
#X connect 33 0 19 0;
#X restore 804 139 pd delrcv;
#N canvas 456 232 450 300 prefxproc 0;
#X obj 128 44 inlet~;
#X obj 251 44 inlet~;
#X obj 119 245 outlet~;
#X obj 265 249 outlet~;
#X obj 137 160 hip~ 10;
#X obj 137 119 clip~ -1 1;
#X obj 222 164 hip~ 10;
#X obj 222 123 clip~ -1 1;
#X obj 137 182 lop~ 16000;
#X obj 222 186 lop~ 16000;
#X obj 139 95 *~ 0.3;
#X obj 222 101 *~ 0.3;
#X connect 0 0 10 0;
#X connect 1 0 11 0;
#X connect 4 0 8 0;
#X connect 5 0 4 0;
#X connect 6 0 9 0;
#X connect 7 0 6 0;
#X connect 8 0 2 0;
#X connect 9 0 3 0;
#X connect 10 0 5 0;
#X connect 11 0 7 0;
#X restore 308 509 pd prefxproc;
#X obj 22 420 r \$0-randomphasebangsnd;
#N canvas 460 328 631 323 lfotoosc 0;
#X obj 95 7 inlet~;
#X obj 65 210 outlet~;
#X obj 137 211 outlet~;
#X obj 204 212 outlet~;
#X obj 270 213 outlet~;
#X obj 223 44 r \$0-lfoto1snd;
#X obj 317 43 r \$0-lfoto2snd;
#X obj 403 42 r \$0-lfoto3snd;
#X obj 497 42 r \$0-lfoto4snd;
#X obj 88 172 *~;
#X obj 152 173 *~;
#X obj 209 172 *~;
#X obj 284 171 *~;
#X obj 515 135 r \$0-pitchlfosnd;
#X obj 515 157 mtof, f 5;
#X obj 221 95 /;
#X obj 315 94 /;
#X obj 401 93 /;
#X obj 495 93 /;
#X obj 515 201 t b f;
#X floatatom 544 238 5 0 0 0 - - -;
#X floatatom 345 191 5 0 0 0 - - -;
#X obj 221 117 smoother 10;
#X obj 314 120 smoother 10;
#X obj 397 124 smoother 10;
#X obj 479 119 smoother 10;
#X obj 515 179 pow 0.7;
#X obj 223 66 - 1;
#X obj 316 65 - 1;
#X obj 403 66 - 1;
#X obj 500 66 - 1;
#X obj 228 7 inlet~;
#X obj 290 5 inlet~;
#X obj 384 8 inlet~;
#X connect 0 0 9 0;
#X connect 5 0 27 0;
#X connect 6 0 28 0;
#X connect 7 0 29 0;
#X connect 8 0 30 0;
#X connect 9 0 1 0;
#X connect 10 0 2 0;
#X connect 11 0 3 0;
#X connect 12 0 4 0;
#X connect 13 0 14 0;
#X connect 14 0 26 0;
#X connect 15 0 22 0;
#X connect 16 0 21 0;
#X connect 16 0 23 0;
#X connect 17 0 24 0;
#X connect 18 0 25 0;
#X connect 19 0 18 0;
#X connect 19 0 17 0;
#X connect 19 0 16 0;
#X connect 19 0 15 0;
#X connect 19 1 18 1;
#X connect 19 1 17 1;
#X connect 19 1 16 1;
#X connect 19 1 15 1;
#X connect 19 1 20 0;
#X connect 22 0 9 1;
#X connect 23 0 10 1;
#X connect 24 0 11 1;
#X connect 25 0 12 1;
#X connect 26 0 19 0;
#X connect 27 0 15 0;
#X connect 28 0 16 0;
#X connect 29 0 17 0;
#X connect 30 0 18 0;
#X connect 31 0 10 0;
#X connect 32 0 11 0;
#X connect 33 0 12 0;
#X restore 905 145 pd lfotoosc;
#N canvas 458 280 808 408 pitchshifter 0;
#X obj 108 69 inlet~;
#X obj 228 68 inlet~;
#X obj 87 276 outlet~;
#X obj 167 277 outlet~;
#X obj 79 177 ps2unitexp;
#X obj 146 177 ps2unitexp;
#X obj 282 178 ps2unitexp;
#X obj 349 178 ps2unitexp;
#X obj 338 44 r \$0-bypasssnd;
#X obj 371 64 r \$0-voice1snd;
#X obj 392 86 r \$0-voice2snd;
#X obj 53 177 *~;
#X obj 250 179 *~;
#X obj 85 217 ps2arpdelay;
#X obj 159 217 ps2arpdelay;
#X obj 283 220 ps2arpdelay;
#X obj 357 219 ps2arpdelay;
#X obj 21 72 loadbang;
#X msg 21 94 48;
#X obj 465 213 *~ 2;
#X obj 450 190 smoother 25;
#X obj 583 216 *~ 2;
#X obj 568 193 smoother 25;
#X obj 450 168 r \$0-arpdelayleftsnd;
#X obj 568 170 r \$0-arpdelayrightsnd;
#X obj 499 70 r \$0-voice1pitchsnd;
#X obj 487 106 r \$0-voice2pitchsnd;
#X obj 672 228 block~ 64;
#X obj 241 277 s~ \$0-arpfb1L;
#X obj 421 278 s~ \$0-arpfb1R;
#X obj 325 273 s~ \$0-arpfb2L;
#X obj 514 277 s~ \$0-arpfb2R;
#N canvas 456 232 450 300 arpfb 0;
#X obj 34 47 r~ \$0-arpfb1L;
#X obj 128 48 r~ \$0-arpfb2L;
#X obj 235 44 r~ \$0-arpfb1R;
#X obj 329 44 r~ \$0-arpfb2R;
#X obj 66 187 outlet~;
#X obj 123 188 outlet~;
#X obj 186 189 outlet~;
#X obj 243 190 outlet~;
#X obj 74 106 *~;
#X obj 132 105 *~;
#X obj 194 105 *~;
#X obj 252 104 *~;
#X obj 306 127 smoother 25;
#X obj 326 72 r \$0-arpfbsnd;
#X obj 326 94 / 100;
#X connect 0 0 8 0;
#X connect 1 0 9 0;
#X connect 2 0 10 0;
#X connect 3 0 11 0;
#X connect 8 0 4 0;
#X connect 9 0 5 0;
#X connect 10 0 6 0;
#X connect 11 0 7 0;
#X connect 12 0 11 1;
#X connect 12 0 10 1;
#X connect 12 0 9 1;
#X connect 12 0 8 1;
#X connect 13 0 14 0;
#X connect 14 0 12 0;
#X restore 187 14 pd arpfb;
#X connect 0 0 11 0;
#X connect 0 0 4 0;
#X connect 0 0 5 0;
#X connect 1 0 12 0;
#X connect 1 0 6 0;
#X connect 1 0 7 0;
#X connect 4 0 13 0;
#X connect 5 0 14 0;
#X connect 6 0 15 0;
#X connect 7 0 16 0;
#X connect 8 0 11 1;
#X connect 8 0 12 1;
#X connect 9 0 4 3;
#X connect 9 0 6 3;
#X connect 10 0 7 3;
#X connect 10 0 5 3;
#X connect 11 0 2 0;
#X connect 12 0 3 0;
#X connect 13 0 2 0;
#X connect 13 0 28 0;
#X connect 14 0 2 0;
#X connect 14 0 30 0;
#X connect 15 0 3 0;
#X connect 15 0 29 0;
#X connect 16 0 3 0;
#X connect 16 0 31 0;
#X connect 17 0 18 0;
#X connect 18 0 7 2;
#X connect 18 0 6 2;
#X connect 18 0 5 2;
#X connect 18 0 4 2;
#X connect 19 0 14 1;
#X connect 20 0 19 0;
#X connect 20 0 13 1;
#X connect 21 0 16 1;
#X connect 22 0 21 0;
#X connect 22 0 15 1;
#X connect 23 0 20 0;
#X connect 24 0 22 0;
#X connect 25 0 4 1;
#X connect 25 0 6 1;
#X connect 26 0 7 1;
#X connect 26 0 5 1;
#X connect 32 0 4 0;
#X connect 32 1 5 0;
#X connect 32 2 6 0;
#X connect 32 3 7 0;
#X restore 319 597 pd pitchshifter;
#X obj 319 619 hip~ 30;
#X obj 393 623 hip~ 30;
#N canvas 1284 36 632 1008 lfo 0;
#X obj 145 70 phasor~;
#X obj 145 92 +~ 0.25;
#X obj 195 94 +~ 0.5;
#X obj 255 92 +~ 0.75;
#X obj 145 117 wrap~;
#X obj 195 116 wrap~;
#X obj 255 116 wrap~;
#X obj 142 146 *~ 1;
#X obj 194 144 *~ 1;
#X obj 257 147 *~ 1;
#X obj 98 150 *~ 1;
#X obj 86 242 outlet~;
#X obj 155 242 outlet~;
#X obj 225 243 outlet~;
#X obj 294 243 outlet~;
#X obj 261 3 r \$0-pitchlfosnd;
#X obj 234 35 mtof;
#X obj 298 35 r \$0-lfoshapesnd;
#X obj 56 189 cyclone/tanh~;
#X obj 140 171 cyclone/tanh~;
#X obj 205 197 cyclone/tanh~;
#X obj 250 171 cyclone/tanh~;
#X connect 0 0 1 0;
#X connect 0 0 2 0;
#X connect 0 0 3 0;
#X connect 0 0 10 0;
#X connect 1 0 4 0;
#X connect 2 0 5 0;
#X connect 3 0 6 0;
#X connect 4 0 7 0;
#X connect 5 0 8 0;
#X connect 6 0 9 0;
#X connect 7 0 19 0;
#X connect 8 0 20 0;
#X connect 9 0 21 0;
#X connect 10 0 18 0;
#X connect 15 0 16 0;
#X connect 16 0 0 0;
#X connect 17 0 10 1;
#X connect 17 0 7 1;
#X connect 17 0 8 1;
#X connect 17 0 9 1;
#X connect 18 0 11 0;
#X connect 19 0 12 0;
#X connect 20 0 13 0;
#X connect 21 0 14 0;
#X restore 893 50 pd lfo;
#X obj 949 619 delwrite~ \$0-fb1L 16000;
#X obj 1096 611 delwrite~ \$0-fb1R 16000;
#X connect 0 0 26 0;
#X connect 1 0 25 0;
#X connect 2 0 24 0;
#X connect 3 0 23 0;
#X connect 4 0 51 0;
#X connect 5 0 49 0;
#X connect 6 0 47 0;
#X connect 7 0 45 0;
#X connect 8 0 16 0;
#X connect 9 0 17 0;
#X connect 10 0 18 0;
#X connect 11 0 19 0;
#X connect 12 0 67 0;
#X connect 13 0 66 0;
#X connect 14 0 68 0;
#X connect 15 0 69 0;
#X connect 16 0 4 0;
#X connect 17 0 5 0;
#X connect 18 0 6 0;
#X connect 19 0 7 0;
#X connect 20 0 21 0;
#X connect 21 0 22 0;
#X connect 23 0 11 0;
#X connect 24 0 10 0;
#X connect 25 0 9 0;
#X connect 26 0 8 0;
#X connect 29 0 12 0;
#X connect 30 0 13 0;
#X connect 31 0 14 0;
#X connect 32 0 15 0;
#X connect 33 0 80 0;
#X connect 34 0 80 0;
#X connect 35 0 80 0;
#X connect 36 0 80 0;
#X connect 37 0 41 0;
#X connect 38 0 42 0;
#X connect 39 0 43 0;
#X connect 40 0 44 0;
#X connect 41 0 33 1;
#X connect 41 0 61 1;
#X connect 42 0 34 1;
#X connect 42 0 62 1;
#X connect 43 0 35 1;
#X connect 43 0 63 1;
#X connect 44 0 36 1;
#X connect 44 0 64 1;
#X connect 45 0 46 0;
#X connect 46 0 58 0;
#X connect 46 0 65 3;
#X connect 47 0 48 0;
#X connect 48 0 57 0;
#X connect 48 0 65 2;
#X connect 49 0 50 0;
#X connect 50 0 56 0;
#X connect 50 0 65 1;
#X connect 51 0 52 0;
#X connect 52 0 54 0;
#X connect 52 0 65 0;
#X connect 53 0 51 1;
#X connect 53 1 49 1;
#X connect 53 2 47 1;
#X connect 53 3 45 1;
#X connect 54 0 33 0;
#X connect 54 0 70 0;
#X connect 54 1 61 0;
#X connect 54 1 71 0;
#X connect 56 0 34 0;
#X connect 56 0 70 1;
#X connect 56 1 62 0;
#X connect 56 1 71 1;
#X connect 57 0 35 0;
#X connect 57 0 70 2;
#X connect 57 1 63 0;
#X connect 57 1 71 2;
#X connect 58 0 36 0;
#X connect 58 0 70 3;
#X connect 58 1 64 0;
#X connect 58 1 71 3;
#X connect 59 0 54 1;
#X connect 59 1 56 1;
#X connect 59 2 57 1;
#X connect 59 3 58 1;
#X connect 60 0 76 0;
#X connect 60 1 76 1;
#X connect 60 2 80 0;
#X connect 60 3 81 0;
#X connect 61 0 81 0;
#X connect 62 0 81 0;
#X connect 63 0 81 0;
#X connect 64 0 81 0;
#X connect 66 0 1 0;
#X connect 67 0 0 0;
#X connect 68 0 2 0;
#X connect 69 0 3 0;
#X connect 70 0 73 0;
#X connect 71 0 73 1;
#X connect 72 0 8 1;
#X connect 72 1 9 1;
#X connect 72 2 10 1;
#X connect 72 3 11 1;
#X connect 73 0 60 0;
#X connect 73 1 60 1;
#X connect 74 0 20 0;
#X connect 75 0 8 1;
#X connect 75 1 9 1;
#X connect 75 2 10 1;
#X connect 75 3 11 1;
#X connect 76 0 77 0;
#X connect 76 1 78 0;
#X connect 77 0 28 0;
#X connect 78 0 55 0;
#X connect 79 0 75 0;
#X connect 79 0 72 0;
#X connect 79 1 75 1;
#X connect 79 2 75 2;
#X connect 79 3 75 3;
#X restore 1171 343 pd soundstuff;
#N canvas 457 256 450 300 init 0;
#X obj 120 260 s \$0-osc3snsnd;
#X obj 88 -12 r initbang;
#X obj 266 -29 loadbang;
#X obj 266 -7 delay 300;
#X msg 265 17 \; pd dsp 1;
#X obj 328 22 s initbang;
#X connect 2 0 3 0;
#X connect 3 0 4 0;
#X connect 3 0 5 0;
#X restore 1246 63 pd init;
#N canvas 194 24 976 691 stereochorus2 0;
#X obj 12 37 inlet~;
#X obj 81 738 outlet~;
#X obj 475 654 outlet~;
#X obj 84 422 cos~;
#X obj 75 471 +~ 1;
#X obj 160 448 cos~;
#X obj 165 478 +~ 1;
#X obj 171 318 phasor~;
#X obj 182 548 *~ 0.3;
#X obj 251 456 cos~;
#X obj 259 485 +~ 1;
#X obj 329 453 cos~;
#X obj 334 483 +~ 1;
#X obj 92 548 *~ 0.31;
#X obj 160 420 +~ 0.16666;
#X obj 325 421 +~ 0.5;
#X obj 250 420 +~ 0.33333;
#X obj 404 449 cos~;
#X obj 405 473 +~ 1;
#X obj 430 546 *~ 0.3;
#X obj 479 454 cos~;
#X obj 484 484 +~ 1;
#X obj 495 543 *~ 0.31;
#X obj 394 420 +~ 0.66666;
#X obj 475 422 +~ 0.833333;
#X obj 270 553 *~ 0.29;
#X obj 347 547 *~ 0.29;
#X obj 106 114 hsl 128 15 0 1 0 1 empty empty speed 0 7 0 10 -262144
-1 -162280 6350 1;
#X obj 159 171 t f f;
#X obj 165 195 *;
#X obj 169 223 * 9.9;
#X obj 173 249 + 0.1;
#X obj -5 587 abs_dly_short_vd1;
#X obj 96 505 *~;
#X obj 106 132 hsl 128 15 0 1 0 1 empty empty depth 0 7 0 10 -262144
-1 -162280 3810 1;
#X obj 211 162 t f f;
#X obj 217 186 *;
#X obj 223 248 + 1;
#X obj 72 328 *~ 0.16666;
#X obj 347 311 line~;
#X msg 226 278 \$1 30;
#X obj 187 513 *~;
#X obj 124 590 abs_dly_short_vd1;
#X obj 277 521 *~;
#X obj 248 593 abs_dly_short_vd1;
#X obj 367 595 abs_dly_short_vd1;
#X obj 338 514 *~;
#X obj 426 513 *~;
#X obj 496 598 abs_dly_short_vd1;
#X obj 484 516 *~;
#X obj 620 601 abs_dly_short_vd1;
#X obj 223 219 * 20;
#X obj 372 62 inlet speed;
#X obj 509 73 inlet depth;
#X connect 0 0 38 0;
#X connect 3 0 4 0;
#X connect 4 0 33 0;
#X connect 5 0 6 0;
#X connect 6 0 41 0;
#X connect 7 0 3 0;
#X connect 7 0 14 0;
#X connect 7 0 15 0;
#X connect 7 0 16 0;
#X connect 7 0 23 0;
#X connect 7 0 24 0;
#X connect 9 0 10 0;
#X connect 10 0 43 0;
#X connect 11 0 12 0;
#X connect 12 0 46 0;
#X connect 14 0 5 0;
#X connect 15 0 11 0;
#X connect 16 0 9 0;
#X connect 17 0 18 0;
#X connect 18 0 47 0;
#X connect 20 0 21 0;
#X connect 21 0 49 0;
#X connect 23 0 17 0;
#X connect 24 0 20 0;
#X connect 27 0 28 0;
#X connect 28 0 29 0;
#X connect 28 1 29 1;
#X connect 29 0 30 0;
#X connect 30 0 31 0;
#X connect 31 0 7 0;
#X connect 32 0 1 0;
#X connect 33 0 13 0;
#X connect 34 0 35 0;
#X connect 35 0 36 0;
#X connect 35 1 36 1;
#X connect 36 0 51 0;
#X connect 37 0 40 0;
#X connect 39 0 33 1;
#X connect 39 0 41 1;
#X connect 39 0 43 1;
#X connect 39 0 47 1;
#X connect 39 0 49 1;
#X connect 40 0 39 0;
#X connect 41 0 8 0;
#X connect 42 0 2 0;
#X connect 43 0 25 0;
#X connect 44 0 1 0;
#X connect 45 0 2 0;
#X connect 46 0 26 0;
#X connect 47 0 19 0;
#X connect 48 0 1 0;
#X connect 49 0 22 0;
#X connect 50 0 2 0;
#X connect 51 0 37 0;
#X connect 52 0 27 0;
#X connect 53 0 34 0;
#X coords 0 -1 1 1 140 50 1 100 100;
#X restore 1201 409 pd stereochorus2;
#X obj 1242 172 r initbang;
#X msg 1242 194 0.5;
#X msg 1286 202 0.3;
#X obj 166 32 vsl 25 200 -88 128 0 0 \$0-pitch2snd \$0-pitch2rcv empty
0 -9 0 10 -262144 -1 -1 4150 1;
#X obj 306 30 vsl 25 200 -88 128 0 0 \$0-pitch3snd \$0-pitch3rcv empty
0 -9 0 10 -262144 -1 -1 707 1;
#X obj 441 34 vsl 25 200 -88 128 0 0 \$0-pitch4snd \$0-pitch4rcv empty
0 -9 0 10 -262144 -1 -1 7700 1;
#X obj 63 99 vsl 15 128 0 1 0 0 \$0-fb1snd \$0-fb1rcv f 4 38 0 10 -262144
-1 -1 0 1;
#X obj 196 105 vsl 15 128 0 1 0 0 \$0-fb2snd \$0-fb2rcv empty 0 -9
0 10 -262144 -1 -1 7500 1;
#X obj 336 100 vsl 15 128 0 1 0 0 \$0-fb3snd \$0-fb3rcv empty 0 -9
0 10 -262144 -1 -1 5100 1;
#X obj 470 105 vsl 15 128 0 1 0 0 \$0-fb4snd \$0-fb4rcv empty 0 -9
0 10 -262144 -1 -1 3900 1;
#X obj 1155 552 output;
#X obj 32 240 hsl 75 15 1 -1 0 0 \$0-pan1snd \$0-pan1rcv empty -2 -8
0 10 -262144 -1 -1 0 1;
#X obj 166 243 hsl 75 15 1 -1 0 0 \$0-pan2snd \$0-pan2rcv empty -2
-8 0 10 -262144 -1 -1 3500 1;
#X obj 302 243 hsl 75 15 1 -1 0 0 \$0-pan3snd \$0-pan3rcv empty -2
-8 0 10 -262144 -1 -1 5200 1;
#X obj 439 245 hsl 75 15 1 -1 0 0 \$0-pan4snd \$0-pan4rcv empty -2
-8 0 10 -262144 -1 -1 7400 1;
#X obj 798 38 vsl 15 128 0.1 3 0 0 \$0-ressnd \$0-resrcv res 0 -9 0
10 -262144 -1 -1 8700 1;
#X obj 724 242 vsl 25 128 0.01 2 1 0 \$0-verbfbsnd \$0-verbfbrcv verb\\\ fb
0 -9 0 10 -262144 -1 -1 10886 1;
#X obj 755 252 vsl 25 128 35 10000 1 0 \$0-verbfiltsnd \$0-verbfiltrcv
verbfilt 0 -9 0 10 -262144 -1 -1 7300 1;
#X obj 787 262 vsl 25 128 0.1 1 0 0 \$0-verbsizesnd \$0-verbsizercv
size 0 -9 0 10 -262144 -1 -1 11400 1;
#X obj 868 292 tgl 35 0 \$0-verbfreezesnd \$0-verbfreezercv freeze
1 41 0 10 -262144 -1 -1 0 1;
#X obj 818 272 vsl 25 128 0 1 0 0 \$0-verbdrywetsnd \$0-verbdrywetrcv
drywet 0 -9 0 10 -262144 -1 -1 7700 1;
#X obj 85 206 tgl 25 0 \$0-shape1snd \$0-shape1rcv shape 0 10 0 10
-262144 -1 -1 0 44;
#X obj 218 213 tgl 25 0 \$0-shape2snd \$0-shape2rcv shape 0 10 0 10
-262144 -1 -1 44 44;
#X obj 360 211 tgl 25 0 \$0-shape3snd \$0-shape3rcv shape 0 10 0 10
-262144 -1 -1 44 44;
#X obj 491 210 tgl 25 0 \$0-shape4snd \$0-shape4rcv shape 0 10 0 10
-262144 -1 -1 44 44;
#N canvas 458 280 450 300 rndpitch 0;
#X obj 138 81 r \$0-randompitchsnd;
#X obj 90 204 s \$0-pitch1rcv;
#X obj 167 233 s \$0-pitch2rcv;
#X obj 259 209 s \$0-pitch3rcv;
#X obj 339 238 s \$0-pitch4rcv;
#X obj 105 163 - 84;
#X obj 181 163 - 84;
#X obj 265 165 - 84;
#X obj 341 164 - 84;
#X obj 105 143 random 158;
#X obj 182 143 random 158;
#X obj 265 144 random 158;
#X obj 341 144 random 158;
#X connect 0 0 9 0;
#X connect 0 0 10 0;
#X connect 0 0 11 0;
#X connect 0 0 12 0;
#X connect 5 0 1 0;
#X connect 6 0 2 0;
#X connect 7 0 3 0;
#X connect 8 0 4 0;
#X connect 9 0 5 0;
#X connect 10 0 6 0;
#X connect 11 0 7 0;
#X connect 12 0 8 0;
#X restore 1246 33 pd rndpitch;
#X obj 464 303 cnv 15 220 145 empty empty curvature 126 130 0 14 -235312
-66577 0;
#X obj 544 334 tgl 25 0 \$0-osc1todelaysnd \$0-osc1todelayrcv empty
17 7 0 10 -262144 -1 -1 1 1;
#X obj 572 334 tgl 25 0 \$0-osc2todelaysnd \$0-osc2todelayrcv empty
17 7 0 10 -262144 -1 -1 1 1;
#X obj 600 334 tgl 25 0 \$0-osc3todelaysnd \$0-osc3todelayrcv empty
17 7 0 10 -262144 -1 -1 1 1;
#X obj 628 334 tgl 25 0 \$0-osc4todelaysnd \$0-osc4todelayrcv empty
17 7 0 10 -262144 -1 -1 1 1;
#X text 547 312 o1;
#X text 578 312 o2;
#X text 604 312 o3;
#X text 631 312 o4;
#X text 479 340 delaytime;
#X obj 985 192 ctlin;
#X floatatom 985 214 5 0 0 0 - - -;
#N canvas 0 24 1360 692 presets 0;
#X obj 18 18 cnv 15 196 146 empty empty closed\\\ timelike 66 130 0
14 -238512 -66577 0;
#X obj 28 28 bng 20 250 50 0 \$0-preset1snd \$0-preset1rcv empty 17
7 0 10 -99865 -1 -262144;
#X obj 50 28 bng 20 250 50 0 \$0-preset2snd \$0-preset2rcv empty 17
7 0 10 -262144 -1 -262144;
#X obj 72 28 bng 20 250 50 0 \$0-preset3snd \$0-preset3rcv empty 17
7 0 10 -99865 -1 -262144;
#X obj 94 28 bng 20 250 50 0 \$0-preset4snd \$0-preset4rcv empty 17
7 0 10 -262144 -1 -262144;
#X obj 116 28 bng 20 250 50 0 \$0-preset5snd \$0-preset5rcv empty 17
7 0 10 -262144 -1 -262144;
#X obj 138 28 bng 20 250 50 0 \$0-preset6snd \$0-preset6rcv empty 17
7 0 10 -262144 -1 -262144;
#X obj 160 28 bng 20 250 50 0 \$0-preset7snd \$0-preset7rcv empty 17
7 0 10 -262144 -1 -262144;
#X obj 182 28 bng 20 250 50 0 \$0-preset8snd \$0-preset8rcv empty 17
7 0 10 -262144 -1 -262144;
#X obj 28 50 bng 20 250 50 0 \$0-preset9snd \$0-preset9rcv empty 17
7 0 10 -262144 -1 -262144;
#X obj 50 50 bng 20 250 50 0 \$0-preset10snd \$0-preset10rcv empty
17 7 0 10 -262144 -1 -262144;
#X obj 72 50 bng 20 250 50 0 \$0-preset11snd \$0-preset11rcv empty
17 7 0 10 -262144 -1 -262144;
#X obj 94 50 bng 20 250 50 0 \$0-preset12snd \$0-preset12rcv empty
17 7 0 10 -99865 -1 -262144;
#X obj 116 50 bng 20 250 50 0 \$0-preset13snd \$0-preset13rcv empty
17 7 0 10 -262144 -1 -262144;
#X obj 138 50 bng 20 250 50 0 \$0-preset14snd \$0-preset14rcv empty
17 7 0 10 -262144 -1 -262144;
#X obj 160 50 bng 20 250 50 0 \$0-preset15snd \$0-preset15rcv empty
17 7 0 10 -262144 -1 -262144;
#X obj 182 50 bng 20 250 50 0 \$0-preset16snd \$0-preset16rcv empty
17 7 0 10 -262144 -1 -262144;
#X obj 28 72 bng 20 250 50 0 \$0-preset17snd \$0-preset17rcv empty
17 7 0 10 -262144 -1 -262144;
#X obj 50 72 bng 20 250 50 0 \$0-preset18snd \$0-preset18rcv empty
17 7 0 10 -262144 -1 -262144;
#X obj 72 72 bng 20 250 50 0 \$0-preset19snd \$0-preset19rcv empty
17 7 0 10 -262144 -1 -262144;
#X obj 94 72 bng 20 250 50 0 \$0-preset20snd \$0-preset20rcv empty
17 7 0 10 -262144 -1 -262144;
#X obj 116 72 bng 20 250 50 0 \$0-preset21snd \$0-preset21rcv empty
17 7 0 10 -262144 -1 -262144;
#X obj 138 72 bng 20 250 50 0 \$0-preset22snd \$0-preset22rcv empty
17 7 0 10 -262144 -1 -262144;
#X obj 160 72 bng 20 250 50 0 \$0-preset23snd \$0-preset23rcv empty
17 7 0 10 -99865 -1 -262144;
#X obj 182 72 bng 20 250 50 0 \$0-preset24snd \$0-preset24rcv empty
17 7 0 10 -262144 -1 -262144;
#X obj 28 94 bng 20 250 50 0 \$0-preset25snd \$0-preset25rcv empty
17 7 0 10 -262144 -1 -262144;
#X obj 50 94 bng 20 250 50 0 \$0-preset26snd \$0-preset26rcv empty
17 7 0 10 -262144 -1 -262144;
#X obj 72 94 bng 20 250 50 0 \$0-preset27snd \$0-preset27rcv empty
17 7 0 10 -262144 -1 -262144;
#X obj 94 94 bng 20 250 50 0 \$0-preset28snd \$0-preset28rcv empty
17 7 0 10 -262144 -1 -262144;
#X obj 116 94 bng 20 250 50 0 \$0-preset29snd \$0-preset29rcv empty
17 7 0 10 -262144 -1 -262144;
#X obj 138 94 bng 20 250 50 0 \$0-preset30snd \$0-preset30rcv empty
17 7 0 10 -262144 -1 -1;
#X obj 160 94 bng 20 250 50 0 \$0-preset31snd \$0-preset31rcv empty
17 7 0 10 -262144 -1 -1;
#X obj 182 94 bng 20 250 50 0 \$0-preset32snd \$0-preset32rcv empty
17 7 0 10 -262144 -1 -1;
#X obj 28 116 bng 20 250 50 0 empty empty empty 17 7 0 10 -262144 -1
-1;
#X obj 50 116 bng 20 250 50 0 empty empty empty 17 7 0 10 -262144 -1
-1;
#X obj 72 116 bng 20 250 50 0 empty empty empty 17 7 0 10 -262144 -1
-1;
#X obj 94 116 bng 20 250 50 0 empty empty empty 17 7 0 10 -262144 -1
-1;
#X obj 116 116 bng 20 250 50 0 empty empty empty 17 7 0 10 -262144
-1 -1;
#X obj 138 116 bng 20 250 50 0 empty empty empty 17 7 0 10 -262144
-1 -1;
#X obj 160 116 bng 20 250 50 0 empty empty empty 17 7 0 10 -262144
-1 -1;
#X obj 182 116 bng 20 250 50 0 empty empty empty 17 7 0 10 -262144
-1 -1;
#X obj 227 42 r \$0-pitch1snd;
#X obj 257 65 r \$0-pitch2snd;
#X obj 289 87 r \$0-pitch3snd;
#X obj 317 107 r \$0-pitch4snd;
#X obj 353 37 r \$0-fb1snd;
#X obj 378 59 r \$0-fb2snd;
#X obj 400 83 r \$0-fb3snd;
#X obj 419 102 r \$0-fb4snd;
#X obj 459 40 r \$0-shape1snd;
#X obj 480 62 r \$0-shape2snd;
#X obj 504 84 r \$0-shape3snd;
#X obj 526 106 r \$0-shape4snd;
#X obj 596 37 r \$0-pan1snd;
#X obj 611 58 r \$0-pan2snd;
#X obj 630 79 r \$0-pan3snd;
#X obj 646 100 r \$0-pan4snd;
#X obj 751 34 r \$0-fbsnd;
#X obj 767 57 r \$0-modfiltsnd;
#X obj 787 78 r \$0-ressnd;
#X obj 797 101 r \$0-delsnd;
#X obj 948 122 r \$0-verbfbsnd;
#X obj 969 141 r \$0-verbfiltsnd;
#X obj 990 164 r \$0-verbsizesnd;
#X obj 1011 186 r \$0-verbdrywetsnd;
#X obj 893 38 r \$0-osc1todelaysnd;
#X obj 924 57 r \$0-osc2todelaysnd;
#X obj 924 79 r \$0-osc3todelaysnd;
#X obj 924 101 r \$0-osc4todelaysnd;
#N canvas 0 24 1360 692 presets 0;
#X obj 108 23 inlet data;
#X msg 296 332 0 -73.8895 -50.0101 -42.9548 -48.9246 0 0.771654 0 0
0 44 0 0 1 -0.027027 1 1 0.516535 6471.78 0.237008 5 0 0 0 0 0.01 10000
0.730709 0 0 0.637795 0 0 0 -95.2011 1 1 1 1 1 1 1 1 1 -8.4 -1.7 368
231 46;
#X msg 395 326 0 117.146 -36.9089 -14.115 126.915 0 0.645669 0 0 0
44 0 0 1 0 0 -1 0.634142 5700.4 0.716535 6.03891 0 0 0 0 1.30653 8004.05
0.1 0.65748 0.448819 0.925197 0 0.606299 1 -64.6834 2.21622 1.16661
1.53899 2.93937 2.67965 1 1 0 0 -6 -7 368 231 89;
#X msg 489 322 0 -10.9347 -55.3612 -14.115 -46.7538 0.0944882 0.645669
0 0 0 44 44 44 1 0.594595 0.243243 -0.297297 0.634142 9470.61 0.716535
5 0 0 0 0 0.617395 8004.05 0.1 0.688976 0.448819 0.925197 0 0.606299
1 -64.6834 2.21622 1.16661 1.53899 2.93937 2.67965 1 1 1 1 -6 -7 368
231 89;
#X msg 559 331 0 -65.1301 -42.3361 -60.7883 -71.6426 0.244094 0.346457
0.244094 0.0708661 0 44 0 0 0 0 0 0 0.412598 4585.82 1.08189 5.65763
0 0 0 0 0.0987864 3434.68 0.411811 0.330709 0.267717 0.80315 0 0 0
-53.153 3.06757 1.16661 2.49102 2.93937 2.67965 1.26979 1 0 0 -6 5
368 231 28;
#X msg 54 401 0 -85 -29.5 -85 -68.5 0.267717 0.503937 0.818898 0.669291
44 0 44 44 1 -0.486486 1 -0.594595 0.16 728.651 0.419685 8.09937 0
0 0 0 0.309534 10000 1 0 0.818898 0.551181 0.629921 0.566929;
#X msg 87 401 0 8 35 -14.5 -16 0.267717 0.503937 0.818898 0.669291
0 0 0 0 1 -0.486486 1 -0.594595 0.426667 192.142 0.419685 314.93 0
0 0 0 0.309583 68.2557 0.893701 0.889764 0.818898 0.551181 0.629921
0.566929 0 -64.6834 2.21622 1.16661 1.53899 2.93937 2.67965 1 1 1 0
10 5 368 231 28;
#X msg 121 401;
#X msg 154 401 0 -61.9497 -52.7236 -36.9089 -68.4623 0 0.590551 0.401575
0.456693 0 44 44 44 1 0.0540541 -0.405405 -1 0.262488 1075.22 1.74409
19.6512 1 1 1 1 1.82918 4291.18 0.730709 0.338583 0.220472 0.925197
0.511811 0.661417 1 -64.6857 3.31081 4.24915 3.01177 3.6001 2.81898
1.84115 1 0 0 10 5 368 231 28;
#X msg 186 401;
#X msg 219 401 0 -70.6332 -41.8693 -43.4215 -17.4472 0.141732 0.590551
0.377953 0.590551 0 0 0 0 0.405405 0.0540541 -0.405405 -0.351351 0.375874
804.474 1.31024 16.2705 0 0 0 0 0.978321 2200.42 0.872441 0.330709
0 0.65748 0.456693 0.80315 0 -74.1809 6.22973 1.96942 2.84988 1.90945
6.15504 2.04735 1 0 0 10 5 368 231 28;
#X msg 253 401 0 -65.206 -63.0352 -67.9196 -48.9246 0.173228 0.401575
0.370079 0.133858 0 0 0 0 1 -0.432432 1 1 0.680315 1435.52 0.648031
97.7717 0 0 0 0 0.392201 529.284 0.886614 0.799213 0.818898 0.551181
0.685039 0.519685 0 -82.1308 1 1 1.27741 1.36063 1.17969 1.61236 1
1 1 -6.33 5.38 368 231 28;
#X msg 306 404 0 -45.1256 -40.2412 -49.4673 -60.8643 0.173228 0.598425
0.590551 0.228346 44 0 0 44 1 1 -1 1 0.327559 1135.32 0.488189 58.1868
0 0 0 0 0.898135 790.19 0.773228 0.220472 0 0.708661 0.732283 0.023622
0 -78.2865 5.62162 1.3435 2.17514 1.75313 2.79267 1.08287 1 1 1 5 -6
530 751 0;
#X msg 57 507 0 -40.2412 -5.50754 -52.7236 -48.9246 0.173228 0.401575
0.370079 0.385827 0 0 0 0 1 -0.432432 1 1 0.680315 1035.8 0.556693
97.7898 0 0 0 0 0.392207 529.284 0.886614 0 0.818898 0.559055 0.732283
0.543307 0 -107.503 1 1.35547 1.73149 1.50581 2.5882 2.53161 1 0 0
-2 3 0 0 0;
#X msg 90 507 0 -40.2412 -5.50754 -52.7236 -48.9246 0.173228 0.401575
0.370079 0.385827 0 0 0 0 1 -0.432432 1 1 0.655118 291.135 0.556693
97.7898 0 0 0 0 1.18381 74.6131 0.808661 0.492126 0.818898 0.559055
0.732283 0.543307 0 -22.1609 1 1.35547 1.73149 1.50581 3.25135 2.53161
1 1 1 -15 -17 340 364 60;
#X msg 124 507 0 -29.3869 66.1307 68.8442 35.7387 0.409449 0.322835
0.283465 0.251969 0 0 0 0 1 -1 1 -1 0.277165 403.924 0.659449 97.7898
0 0 0 0 0.41718 442.932 0.808661 0.531496 0.818898 0.653543 0.732283
0.488189 0 -109.809 2.94595 5.89547 5.6986 3.22101 8.51816 2.10241
1 1 1 -12 -17 340 364 60;
#X msg 157 507 0 -29.3869 -43.4975 -57.0653 -39.1558 0.409449 0.322835
0.283465 0.251969 0 0 0 0 1 -1 1 -1 0.655118 10000 0.1 93.2817 0 0
0 0 0.717567 517.631 0.808661 0.169291 0 0.653543 0.645669 0 0 -95.9699
2.58108 5.89547 5.6986 3.22101 8.51816 29.873 1 1 0 17 -17 340 364
0;
#X msg 189 507 0 -64.1206 -61.9497 -62.4925 -70.6332 0.401575 0.511811
0.488189 0.377953 44 0 0 0 1 -1 1 -1 0.696063 10000 0.1 5 0 0 0 0 0.884003
618.546 0.808661 0.240157 0 0.653543 0.645669 0.0551181 0 -105.196
1.60811 1 1.15426 1.13943 1.12138 1 1 1 1 17 -17 340 364 0;
#X msg 222 507 0 -52.1809 -56.5226 -65.7487 -59.7789 0.472441 0.385827
0.80315 0.503937 0 0 0 0 1 -1 1 -1 0.538583 382.54 0.1 936.513 0 0
0 0 0.400134 136.106 1 0 0.0866142 0.724409 0.488189 0.275591 0 -110.578
1.60811 1.6186 1.34384 1.54446 3.42042 2.81513 1 0 0 42 -17 340 364
0;
#X msg 256 507 0 -79.6748 -75.0074 -81.7371 -76.234 0.409449 0.708661
0.149606 0.590551 0 0 0 0 0.324324 -0.243243 0.621622 0.27027 0.299213
324.946 1.2189 104.134 0 0 0 0 0.832808 1032.19 0.985827 0.665354 0.570866
0.653543 0.535433 0.677165 0 -118.774 1.60811 1 1 1 1 1 1 1 1 -9 -5
208 136 64;
#X msg 289 507 0 -74.9749 -61.9497 -79.8593 -58.6935 0.622047 0.661417
0.732283 0.708661 0 0 0 0 0.324324 -0.243243 0.513514 0.486486 0.513386
349.387 1.49291 118.128 0 0 0 0 0.0295854 237.467 0.985827 0.688976
0.015748 0.551181 0.173228 0.692913 0 -114.422 1 1.25622 1.5386 1.25622
1.50009 1 1 1 1 -9 -5 18 45 64;
#X msg 750 440 0 -46.7538 -39.1558 -49.4673 -43.4975 0.188976 0.519685
0.614173 0.417323 0 0 0 0 0.324324 -0.378378 0.594595 -0.445946 0.352756
761.886 1.24173 544.903 0 0 0 0 0.232631 646.711 0.865354 0.653543
0 0.464567 0.456693 0.314961 0 -119.035 1.97297 1.13511 1.37833 1.32658
1.27289 2.96859 1 1 1 -1.33 5 340 364 41;
#X msg 794 441 0 -17.4472 -21.7889 -24.5025 -12.0201 0.188976 0.582677
0.614173 0.417323 0 0 0 0 0.324324 -0.378378 0.594595 -0.445946 0.31811
748.197 1.31024 544.903 0 0 0 0 0.232631 646.711 1 0.799213 0 0.464567
0.456693 0.314961 0 -122.879 1.97297 1.13511 1.37833 1.32658 1.27289
3.57462 1 1 1 -1.33 5 340 364 40;
#X msg 838 439 0 57.6535 22.3988 62.082 72.5238 0.188976 0.582677 0.889764
0.614173 0 0 0 0 0.324324 -0.378378 0.594595 -0.445946 0.24252 3191.07
0.876378 310.716 0 0 0 0 0.474184 232.239 1 0.685039 0.314961 0.511811
0.622047 0.598425 0 -75.98 2.58108 4.3494 16.1091 8.65526 8.09712 1.339
1 1 1 -4.27 5 340 364 40;
#X msg 876 435 0 -60.0285 -54.9705 -55.9908 -68.0499 0.574803 0.582677
0.0551181 0.393701 0 0 0 0 0.324324 -0.378378 0.594595 -0.445946 0.4
1036.93 2.24646 7267.17 0 0 0 0 0.782289 646.711 1 0 0.314961 0.385827
0.503937 0.598425 0 -36.0001 3.43243 4.3494 11.0144 8.65526 8.09712
18.0423 1 0 0 -4.27 5 340 364 40;
#X msg 911 434;
#X msg 950 434;
#X msg 988 430;
#X msg 1029 429;
#X msg 827 523;
#X msg 860 523;
#X msg 894 523;
#X msg 927 523;
#X msg 959 523;
#X msg 992 523;
#X msg 1026 523;
#X msg 1059 523;
#X obj 80 102 list prepend set;
#X obj 163 19 route 1 2 3 4 5 6 7 8 9 10 11 12 13 14 15 16 17 18 19
20 21 22 23 24 25 26 27 28 29 30 31 32 33 34 35 36 37 38 39 40;
#X obj 80 125 list trim;
#X msg 51 316 0 -30.4724 -16.3618 -45.1256 -33.7286 0.488189 0.677165
0.535433 0.472441 44 44 44 44 1 -1 1 -1 0.535433 10000 0.374016 5 0
0 0 0 0.110971 3754.59 0.610236 0 0.251969 0.740157 0.795276 0.338583
0 -95.2011 1.97297 1.09693 1.68816 1.36063 1.90945 1 1 0 0 0 0 0 0
;
#X obj 187 104 list prepend set;
#X obj 187 126 list trim;
#X obj 295 104 list prepend set;
#X obj 295 126 list trim;
#X obj 403 103 list prepend set;
#X obj 403 125 list trim;
#X obj 512 103 list prepend set;
#X obj 512 125 list trim;
#X obj 620 102 list prepend set;
#X obj 620 124 list trim;
#X obj 732 103 list prepend set;
#X obj 732 125 list trim;
#X obj 840 102 list prepend set;
#X obj 840 124 list trim;
#X obj 740 21 inlet loadnumber;
#X obj 731 62 sel 1 2 3 4 5 6 7 8 9 10 11 12 13 14 15 16 17 18 19 20
21 22 23 24 25 26 27 28 29 30 31 32 33 34 35 36 37 38 39 40;
#X obj 421 612 outlet loaddata;
#X msg 83 319 0 37.6708 126.915 126.915 37.9095 0.102362 0.401575 0.535433
0.11811 0 0 0 0 1 1 -1 -1 0.359055 10000 2.49764 5 0 0 0 0 0.934278
10000 0.929134 0.208661 0.244094 0.629921 0.590551 0.456693;
#X msg 129 323 0 -65.206 -63.0352 -67.9196 -48.9246 0.173228 0.401575
0.370079 0.133858 0 0 0 0 1 -0.432432 1 1 0.680315 1435.52 0.648031
97.7898 0 0 0 0 0.392207 529.284 1 0.783465 0.818898 0.551181 0.685039
0.519685 0 -82.1308 1 1 1.27741 1.36063 1.17969 1.61236 1 0 0 -6 5
368 231;
#X msg 171 324 0 -65.206 -46.7538 -27.7588 -48.9246 0.173228 0.401575
0.535433 0.133858 0 0 0 0 1 -1 1 1 0.667717 230.253 2.4748 58.1868
1 0 0 1 1.43246 1179.71 0.815748 0.385827 0.204724 0.653543 0.740157
0.11811 0 -78.2865 2.33784 5.9934 1.68816 1.70925 2.46027 2.53161 0
0 1 3 -8 368 233 0;
#X obj 78 158 list prepend set;
#X obj 78 180 list trim;
#X obj 186 157 list prepend set;
#X obj 186 179 list trim;
#X obj 294 157 list prepend set;
#X obj 294 179 list trim;
#X obj 402 156 list prepend set;
#X obj 402 178 list trim;
#X obj 511 156 list prepend set;
#X obj 511 178 list trim;
#X obj 619 155 list prepend set;
#X obj 619 177 list trim;
#X obj 731 156 list prepend set;
#X obj 731 178 list trim;
#X obj 839 155 list prepend set;
#X obj 839 177 list trim;
#X obj 69 207 list prepend set;
#X obj 69 229 list trim;
#X obj 177 206 list prepend set;
#X obj 177 228 list trim;
#X obj 285 206 list prepend set;
#X obj 285 228 list trim;
#X obj 393 205 list prepend set;
#X obj 393 227 list trim;
#X obj 502 205 list prepend set;
#X obj 502 227 list trim;
#X obj 610 204 list prepend set;
#X obj 610 226 list trim;
#X obj 722 205 list prepend set;
#X obj 722 227 list trim;
#X obj 830 204 list prepend set;
#X obj 830 226 list trim;
#X obj 517 261 list prepend set;
#X obj 517 283 list trim;
#X obj 625 260 list prepend set;
#X obj 625 282 list trim;
#X obj 66 260 list prepend set;
#X obj 66 282 list trim;
#X obj 174 259 list prepend set;
#X obj 174 281 list trim;
#X obj 736 262 list prepend set;
#X obj 736 284 list trim;
#X obj 844 261 list prepend set;
#X obj 844 283 list trim;
#X obj 285 261 list prepend set;
#X obj 284 283 list trim;
#X obj 393 260 list prepend set;
#X obj 393 282 list trim;
#X connect 0 0 38 0;
#X connect 1 0 57 0;
#X connect 2 0 57 0;
#X connect 3 0 57 0;
#X connect 4 0 57 0;
#X connect 5 0 57 0;
#X connect 6 0 57 0;
#X connect 7 0 57 0;
#X connect 8 0 57 0;
#X connect 9 0 57 0;
#X connect 10 0 57 0;
#X connect 11 0 57 0;
#X connect 12 0 57 0;
#X connect 13 0 57 0;
#X connect 14 0 57 0;
#X connect 15 0 57 0;
#X connect 16 0 57 0;
#X connect 17 0 57 0;
#X connect 18 0 57 0;
#X connect 19 0 57 0;
#X connect 20 0 57 0;
#X connect 21 0 57 0;
#X connect 22 0 57 0;
#X connect 23 0 57 0;
#X connect 24 0 57 0;
#X connect 25 0 57 0;
#X connect 26 0 57 0;
#X connect 27 0 57 0;
#X connect 28 0 57 0;
#X connect 29 0 57 0;
#X connect 30 0 57 0;
#X connect 31 0 57 0;
#X connect 32 0 57 0;
#X connect 33 0 57 0;
#X connect 34 0 57 0;
#X connect 35 0 57 0;
#X connect 36 0 57 0;
#X connect 37 0 39 0;
#X connect 38 0 37 0;
#X connect 38 1 41 0;
#X connect 38 2 43 0;
#X connect 38 3 45 0;
#X connect 38 4 47 0;
#X connect 38 5 49 0;
#X connect 38 6 51 0;
#X connect 38 7 53 0;
#X connect 38 8 61 0;
#X connect 38 9 63 0;
#X connect 38 10 65 0;
#X connect 38 11 67 0;
#X connect 38 12 69 0;
#X connect 38 13 71 0;
#X connect 38 14 73 0;
#X connect 38 15 75 0;
#X connect 38 16 77 0;
#X connect 38 17 79 0;
#X connect 38 18 81 0;
#X connect 38 19 83 0;
#X connect 38 20 85 0;
#X connect 38 21 87 0;
#X connect 38 22 89 0;
#X connect 38 23 91 0;
#X connect 38 24 97 0;
#X connect 38 25 99 0;
#X connect 38 26 105 0;
#X connect 38 27 107 0;
#X connect 38 28 93 0;
#X connect 38 29 95 0;
#X connect 38 30 101 0;
#X connect 38 31 103 0;
#X connect 39 0 40 0;
#X connect 40 0 57 0;
#X connect 41 0 42 0;
#X connect 42 0 58 0;
#X connect 43 0 44 0;
#X connect 44 0 59 0;
#X connect 45 0 46 0;
#X connect 46 0 60 0;
#X connect 47 0 48 0;
#X connect 48 0 1 0;
#X connect 49 0 50 0;
#X connect 50 0 2 0;
#X connect 51 0 52 0;
#X connect 52 0 3 0;
#X connect 53 0 54 0;
#X connect 54 0 4 0;
#X connect 55 0 56 0;
#X connect 56 0 40 0;
#X connect 56 1 58 0;
#X connect 56 2 59 0;
#X connect 56 3 60 0;
#X connect 56 4 1 0;
#X connect 56 5 2 0;
#X connect 56 6 3 0;
#X connect 56 7 4 0;
#X connect 56 8 5 0;
#X connect 56 9 6 0;
#X connect 56 10 7 0;
#X connect 56 11 8 0;
#X connect 56 12 9 0;
#X connect 56 13 10 0;
#X connect 56 14 11 0;
#X connect 56 15 12 0;
#X connect 56 16 13 0;
#X connect 56 17 14 0;
#X connect 56 18 15 0;
#X connect 56 19 16 0;
#X connect 56 20 17 0;
#X connect 56 21 18 0;
#X connect 56 22 19 0;
#X connect 56 23 20 0;
#X connect 56 24 21 0;
#X connect 56 25 22 0;
#X connect 56 26 23 0;
#X connect 56 27 24 0;
#X connect 56 28 25 0;
#X connect 56 29 26 0;
#X connect 56 30 27 0;
#X connect 56 31 28 0;
#X connect 58 0 57 0;
#X connect 59 0 57 0;
#X connect 60 0 57 0;
#X connect 61 0 62 0;
#X connect 62 0 5 0;
#X connect 63 0 64 0;
#X connect 64 0 6 0;
#X connect 65 0 66 0;
#X connect 66 0 7 0;
#X connect 67 0 68 0;
#X connect 68 0 8 0;
#X connect 69 0 70 0;
#X connect 70 0 9 0;
#X connect 71 0 72 0;
#X connect 72 0 10 0;
#X connect 73 0 74 0;
#X connect 74 0 11 0;
#X connect 75 0 76 0;
#X connect 76 0 12 0;
#X connect 77 0 78 0;
#X connect 78 0 13 0;
#X connect 79 0 80 0;
#X connect 80 0 14 0;
#X connect 81 0 82 0;
#X connect 82 0 15 0;
#X connect 83 0 84 0;
#X connect 84 0 16 0;
#X connect 85 0 86 0;
#X connect 86 0 17 0;
#X connect 87 0 88 0;
#X connect 88 0 18 0;
#X connect 89 0 90 0;
#X connect 90 0 19 0;
#X connect 91 0 92 0;
#X connect 92 0 20 0;
#X connect 93 0 94 0;
#X connect 94 0 25 0;
#X connect 95 0 96 0;
#X connect 96 0 26 0;
#X connect 97 0 98 0;
#X connect 98 0 21 0;
#X connect 99 0 100 0;
#X connect 100 0 22 0;
#X connect 101 0 102 0;
#X connect 102 0 27 0;
#X connect 103 0 104 0;
#X connect 104 0 28 0;
#X connect 105 0 106 0;
#X connect 106 0 23 0;
#X connect 107 0 108 0;
#X connect 108 0 24 0;
#X restore 417 399 pd presets;
#X obj 1103 37 r \$0-output1snd;
#X obj 1120 57 r \$0-output2snd;
#X obj 1143 74 r \$0-output3snd;
#X obj 1163 92 r \$0-output4snd;
#X obj 26 140 bng 20 250 50 0 empty empty save 25 7 0 10 -169710 -1
-1;
#X obj 278 230 v \$0-currentpreset;
#X floatatom 328 266 5 0 0 0 - - -;
#X obj 237 203 t b b b;
#X obj 417 375 list prepend;
#X obj 255 288 bng 15 250 50 0 empty empty empty 17 7 0 10 -262144
-1 -1;
#X obj 50 547 s \$0-pitch1rcv;
#X obj 47 568 s \$0-pitch2rcv;
#X obj 51 590 s \$0-pitch3rcv;
#X obj 59 614 s \$0-pitch4rcv;
#X obj 159 547 s \$0-fb1rcv;
#X obj 168 568 s \$0-fb2rcv;
#X obj 176 589 s \$0-fb3rcv;
#X obj 184 611 s \$0-fb4rcv;
#X obj 255 553 s \$0-shape1rcv;
#X obj 263 573 s \$0-shape2rcv;
#X obj 274 594 s \$0-shape3rcv;
#X obj 278 617 s \$0-shape4rcv;
#X obj 351 554 s \$0-pan1rcv;
#X obj 368 574 s \$0-pan2rcv;
#X obj 383 596 s \$0-pan3rcv;
#X obj 399 620 s \$0-pan4rcv;
#X obj 437 551 s \$0-modfiltrcv;
#X obj 407 531 s \$0-fbrcv;
#X obj 456 572 s \$0-resrcv;
#X obj 480 591 s \$0-delrcv;
#X obj 545 546 s \$0-osc1todelayrcv;
#X obj 571 569 s \$0-osc2todelayrcv;
#X obj 590 591 s \$0-osc3todelayrcv;
#X obj 619 614 s \$0-osc4todelayrcv;
#X obj 745 564 s \$0-verbfiltrcv;
#X obj 719 544 s \$0-verbfbrcv;
#X obj 765 586 s \$0-verbsizercv;
#X obj 805 610 s \$0-verbdrywetrcv;
#X obj 913 541 s \$0-output1rcv;
#X obj 952 563 s \$0-output2rcv;
#X obj 968 582 s \$0-output3rcv;
#X obj 1008 605 s \$0-output4rcv;
#N canvas 122 127 1360 692 bangreceivesandcolors 0;
#X obj 59 25 r \$0-preset1snd;
#X obj 183 26 r \$0-preset2snd;
#X obj 296 27 r \$0-preset3snd;
#X obj 441 29 r \$0-preset4snd;
#X obj 559 28 r \$0-preset5snd;
#X obj 666 28 r \$0-preset6snd;
#X obj 777 28 r \$0-preset7snd;
#X obj 898 26 r \$0-preset8snd;
#X obj 267 418 t b b b;
#X msg 280 480 12;
#X obj 470 512 v \$0-currentpreset;
#X obj 478 544 makefilename \$0-preset%drcv;
#X obj 412 619 s;
#X obj 433 481 t b b, f 6;
#X msg 423 559 color 0;
#X obj 263 523 v \$0-currentpreset;
#X obj 184 559 v \$0-currentpreset;
#X obj 192 591 makefilename \$0-preset%drcv;
#X obj 126 666 s;
#X obj 147 528 t b b, f 6;
#X msg 308 251 set 1;
#X obj 284 217 t b b;
#X obj 350 216 t b b;
#X msg 374 250 set 2;
#X obj 428 216 t b b;
#X obj 494 215 t b b;
#X obj 570 210 t b b;
#X obj 636 209 t b b;
#X obj 713 209 t b b;
#X obj 779 208 t b b;
#X msg 452 250 set 3;
#X msg 518 250 set 4;
#X msg 594 244 set 5;
#X msg 659 243 set 6;
#X msg 737 243 set 7;
#X msg 803 242 set 8;
#X msg 136 606 color 21;
#X obj 189 145 r \$0-preset1snd;
#X obj 313 146 r \$0-preset2snd;
#X obj 426 147 r \$0-preset3snd;
#X obj 571 149 r \$0-preset4snd;
#X obj 689 148 r \$0-preset5snd;
#X obj 796 148 r \$0-preset6snd;
#X obj 907 148 r \$0-preset7snd;
#X obj 1028 146 r \$0-preset8snd;
#X obj 89 55 r \$0-preset9snd;
#X obj 212 56 r \$0-preset10snd;
#X obj 326 57 r \$0-preset11snd;
#X obj 469 59 r \$0-preset12snd;
#X obj 589 58 r \$0-preset13snd;
#X obj 696 58 r \$0-preset14snd;
#X obj 808 58 r \$0-preset15snd;
#X obj 928 56 r \$0-preset16snd;
#X obj 316 286 t b b;
#X obj 382 285 t b b;
#X obj 460 285 t b b;
#X obj 526 284 t b b;
#X obj 602 279 t b b;
#X obj 668 278 t b b;
#X obj 745 278 t b b;
#X obj 811 277 t b b;
#X msg 340 320 set 9;
#X msg 406 319 set 10;
#X msg 484 319 set 11;
#X msg 550 319 set 12;
#X msg 626 313 set 13;
#X msg 691 312 set 14;
#X msg 769 312 set 15;
#X msg 835 311 set 16;
#X obj 321 643 outlet currentpreset;
#X obj 433 351 t b b;
#X obj 499 350 t b b;
#X obj 577 350 t b b;
#X obj 643 349 t b b;
#X obj 719 344 t b b;
#X msg 457 385 set 17;
#X msg 523 384 set 18;
#X msg 601 384 set 19;
#X msg 667 384 set 20;
#X msg 743 378 set 21;
#X msg 821 382 set 22;
#X msg 886 377 set 23;
#X msg 952 376 set 24;
#X obj 796 345 t b b;
#X obj 862 344 t b b;
#X obj 938 339 t b b;
#X obj 119 85 r \$0-preset17snd;
#X obj 243 86 r \$0-preset18snd;
#X obj 356 87 r \$0-preset19snd;
#X obj 501 89 r \$0-preset20snd;
#X obj 619 88 r \$0-preset21snd;
#X obj 726 88 r \$0-preset22snd;
#X obj 837 88 r \$0-preset23snd;
#X obj 958 86 r \$0-preset24snd;
#X obj 149 115 r \$0-preset25snd;
#X obj 273 116 r \$0-preset26snd;
#X obj 386 117 r \$0-preset27snd;
#X obj 531 119 r \$0-preset28snd;
#X obj 649 118 r \$0-preset29snd;
#X obj 756 118 r \$0-preset30snd;
#X obj 867 118 r \$0-preset31snd;
#X obj 988 116 r \$0-preset32snd;
#X obj 677 423 t b b;
#X obj 743 422 t b b;
#X obj 821 422 t b b;
#X obj 887 421 t b b;
#X obj 963 416 t b b;
#X obj 1040 417 t b b;
#X obj 1106 416 t b b;
#X obj 1182 411 t b b;
#X msg 701 457 set 25;
#X msg 767 455 set 26;
#X msg 845 456 set 27;
#X msg 911 456 set 28;
#X msg 987 450 set 29;
#X msg 1065 454 set 30;
#X msg 1130 449 set 31;
#X msg 1196 448 set 32;
#X connect 0 0 21 0;
#X connect 1 0 22 0;
#X connect 2 0 24 0;
#X connect 3 0 25 0;
#X connect 4 0 26 0;
#X connect 5 0 27 0;
#X connect 6 0 28 0;
#X connect 7 0 29 0;
#X connect 8 0 19 0;
#X connect 8 1 9 0;
#X connect 8 2 13 0;
#X connect 9 0 15 0;
#X connect 9 0 69 0;
#X connect 10 0 11 0;
#X connect 11 0 12 1;
#X connect 13 0 14 0;
#X connect 13 1 10 0;
#X connect 14 0 12 0;
#X connect 16 0 17 0;
#X connect 17 0 18 1;
#X connect 19 0 36 0;
#X connect 19 1 16 0;
#X connect 20 0 9 0;
#X connect 21 0 8 0;
#X connect 21 1 20 0;
#X connect 22 0 8 0;
#X connect 22 1 23 0;
#X connect 23 0 9 0;
#X connect 24 0 8 0;
#X connect 24 1 30 0;
#X connect 25 0 8 0;
#X connect 25 1 31 0;
#X connect 26 0 8 0;
#X connect 26 1 32 0;
#X connect 27 0 8 0;
#X connect 27 1 33 0;
#X connect 28 0 8 0;
#X connect 28 1 34 0;
#X connect 29 0 8 0;
#X connect 29 1 35 0;
#X connect 30 0 9 0;
#X connect 31 0 9 0;
#X connect 32 0 9 0;
#X connect 33 0 9 0;
#X connect 34 0 9 0;
#X connect 35 0 9 0;
#X connect 36 0 18 0;
#X connect 45 0 53 0;
#X connect 46 0 54 0;
#X connect 47 0 55 0;
#X connect 48 0 56 0;
#X connect 49 0 57 0;
#X connect 50 0 58 0;
#X connect 51 0 59 0;
#X connect 52 0 60 0;
#X connect 53 0 8 0;
#X connect 53 1 61 0;
#X connect 54 0 8 0;
#X connect 54 1 62 0;
#X connect 55 0 8 0;
#X connect 55 1 63 0;
#X connect 56 0 8 0;
#X connect 56 1 64 0;
#X connect 57 0 8 0;
#X connect 57 1 65 0;
#X connect 58 0 8 0;
#X connect 58 1 66 0;
#X connect 59 0 8 0;
#X connect 59 1 67 0;
#X connect 60 0 8 0;
#X connect 60 1 68 0;
#X connect 61 0 9 0;
#X connect 62 0 9 0;
#X connect 63 0 9 0;
#X connect 64 0 9 0;
#X connect 65 0 9 0;
#X connect 66 0 9 0;
#X connect 67 0 9 0;
#X connect 68 0 9 0;
#X connect 70 0 8 0;
#X connect 70 1 75 0;
#X connect 71 0 8 0;
#X connect 71 1 76 0;
#X connect 72 0 8 0;
#X connect 72 1 77 0;
#X connect 73 0 8 0;
#X connect 73 1 78 0;
#X connect 74 0 8 0;
#X connect 74 1 79 0;
#X connect 75 0 9 0;
#X connect 76 0 9 0;
#X connect 77 0 9 0;
#X connect 78 0 9 0;
#X connect 79 0 9 0;
#X connect 80 0 9 0;
#X connect 81 0 9 0;
#X connect 82 0 9 0;
#X connect 83 0 8 0;
#X connect 83 1 80 0;
#X connect 84 0 8 0;
#X connect 84 1 81 0;
#X connect 85 0 8 0;
#X connect 85 1 82 0;
#X connect 86 0 70 0;
#X connect 87 0 71 0;
#X connect 88 0 72 0;
#X connect 89 0 73 0;
#X connect 90 0 74 0;
#X connect 91 0 83 0;
#X connect 92 0 84 0;
#X connect 93 0 85 0;
#X connect 94 0 102 0;
#X connect 95 0 103 0;
#X connect 96 0 104 0;
#X connect 97 0 105 0;
#X connect 98 0 106 0;
#X connect 99 0 107 0;
#X connect 100 0 108 0;
#X connect 101 0 109 0;
#X connect 102 0 8 0;
#X connect 102 1 110 0;
#X connect 103 0 8 0;
#X connect 103 1 111 0;
#X connect 104 0 8 0;
#X connect 104 1 112 0;
#X connect 105 0 8 0;
#X connect 105 1 113 0;
#X connect 106 0 8 0;
#X connect 106 1 114 0;
#X connect 107 0 8 0;
#X connect 107 1 115 0;
#X connect 108 0 8 0;
#X connect 108 1 116 0;
#X connect 109 1 117 0;
#X connect 110 0 9 0;
#X connect 111 0 9 0;
#X connect 112 0 9 0;
#X connect 113 0 9 0;
#X connect 114 0 9 0;
#X connect 115 0 9 0;
#X connect 116 0 9 0;
#X connect 117 0 9 0;
#X restore 144 322 pd bangreceivesandcolors;
#X obj 1179 119 r \$0-verbmutesnd;
#X obj 1110 593 s \$0-verbmutercv;
#X obj 1176 153 r \$0-pitchlfosnd;
#X obj 1186 173 r \$0-lfoshapesnd;
#X obj 1189 192 r \$0-lfoto1snd;
#X obj 1189 214 r \$0-lfoto2snd;
#X obj 1189 236 r \$0-lfoto3snd;
#X obj 1189 258 r \$0-lfoto4snd;
#X obj 1051 451 s \$0-pitchlforcv;
#X obj 1051 473 s \$0-lfoshapercv;
#X obj 1051 495 s \$0-lfoto1rcv;
#X obj 1051 517 s \$0-lfoto2rcv;
#X obj 1051 539 s \$0-lfoto3rcv;
#X obj 1051 561 s \$0-lfoto4rcv;
#X obj 1193 280 r \$0-lfotodelaysnd;
#X obj 1247 592 s \$0-lfotodelayrcv;
#X obj 1130 315 r \$0-bypasssnd;
#X obj 1130 337 r \$0-voice1snd;
#X obj 1130 359 r \$0-voice2snd;
#X obj 1130 381 r \$0-voice1pitchsnd;
#X obj 1130 403 r \$0-voice2pitchsnd;
#X obj 1268 319 r \$0-arpdelayleftsnd;
#X obj 1268 341 r \$0-arpdelayrightsnd;
#X obj 1183 446 s \$0-bypassrcv;
#X obj 1183 468 s \$0-voice1rcv;
#X obj 1183 490 s \$0-voice2rcv;
#X obj 1183 512 s \$0-voice1pitchrcv;
#X obj 1183 534 s \$0-voice2pitchrcv;
#X obj 1297 446 s \$0-arpdelayleftrcv;
#X obj 1291 469 s \$0-arpdelayrightrcv;
#X obj 1268 363 r \$0-arpfbsnd;
#X obj 421 314 pack \$1 \$2 \$3 \$4 \$5 \$6 \$7 \$8 \$9 \$10 \$11 \$12
\$13 \$14 \$15 \$16 \$17 \$18 \$19 \$20 \$21 \$22 \$23 \$24 \$25 \$26
\$27 \$28 \$29 \$30 \$31 \$32 \$33 \$34 \$35 \$36 \$37 \$38 \$39 \$40
\$41 \$42 \$43 \$44 \$45 \$46 \$47 \$48 \$49;
#X obj 347 430 unpack \$1 \$2 \$3 \$4 \$5 \$6 \$7 \$8 \$9 \$10 \$11
\$12 \$13 \$14 \$15 \$16 \$17 \$18 \$19 \$20 \$21 \$22 \$23 \$24 \$25
\$26 \$27 \$28 \$29 \$30 \$31 \$32 \$33 \$34 \$35 \$36 \$37 \$38 \$39
\$40 \$41 \$42 \$43 \$44 \$45 \$46 \$47 \$48 \$49;
#X obj 1297 488 s \$0-arpfbrcv;
#X connect 41 0 144 1;
#X connect 42 0 144 2;
#X connect 43 0 144 3;
#X connect 44 0 144 4;
#X connect 45 0 144 5;
#X connect 46 0 144 6;
#X connect 47 0 144 7;
#X connect 48 0 144 8;
#X connect 49 0 144 9;
#X connect 50 0 144 10;
#X connect 51 0 144 11;
#X connect 52 0 144 12;
#X connect 53 0 144 13;
#X connect 54 0 144 14;
#X connect 55 0 144 15;
#X connect 56 0 144 16;
#X connect 57 0 144 17;
#X connect 58 0 144 18;
#X connect 59 0 144 19;
#X connect 60 0 144 20;
#X connect 61 0 144 25;
#X connect 62 0 144 26;
#X connect 63 0 144 27;
#X connect 64 0 144 28;
#X connect 65 0 144 21;
#X connect 66 0 144 22;
#X connect 67 0 144 23;
#X connect 68 0 144 24;
#X connect 69 0 145 0;
#X connect 70 0 144 29;
#X connect 71 0 144 30;
#X connect 72 0 144 31;
#X connect 73 0 144 32;
#X connect 74 0 77 0;
#X connect 75 0 76 0;
#X connect 75 0 78 1;
#X connect 77 1 144 0;
#X connect 77 2 75 0;
#X connect 78 0 69 0;
#X connect 79 0 144 0;
#X connect 112 0 69 1;
#X connect 113 0 144 33;
#X connect 115 0 144 34;
#X connect 116 0 144 35;
#X connect 117 0 144 36;
#X connect 118 0 144 37;
#X connect 119 0 144 38;
#X connect 120 0 144 39;
#X connect 127 0 144 40;
#X connect 129 0 144 41;
#X connect 130 0 144 42;
#X connect 131 0 144 43;
#X connect 132 0 144 44;
#X connect 133 0 144 45;
#X connect 134 0 144 46;
#X connect 135 0 144 47;
#X connect 143 0 144 48;
#X connect 144 0 78 0;
#X connect 145 1 80 0;
#X connect 145 2 81 0;
#X connect 145 3 82 0;
#X connect 145 4 83 0;
#X connect 145 5 84 0;
#X connect 145 6 85 0;
#X connect 145 7 86 0;
#X connect 145 8 87 0;
#X connect 145 9 88 0;
#X connect 145 10 89 0;
#X connect 145 11 90 0;
#X connect 145 12 91 0;
#X connect 145 13 92 0;
#X connect 145 14 93 0;
#X connect 145 15 94 0;
#X connect 145 16 95 0;
#X connect 145 17 97 0;
#X connect 145 18 96 0;
#X connect 145 19 98 0;
#X connect 145 20 99 0;
#X connect 145 21 100 0;
#X connect 145 22 101 0;
#X connect 145 23 102 0;
#X connect 145 24 103 0;
#X connect 145 25 105 0;
#X connect 145 26 104 0;
#X connect 145 27 106 0;
#X connect 145 28 107 0;
#X connect 145 29 108 0;
#X connect 145 30 109 0;
#X connect 145 31 110 0;
#X connect 145 32 111 0;
#X connect 145 33 114 0;
#X connect 145 34 121 0;
#X connect 145 35 122 0;
#X connect 145 36 123 0;
#X connect 145 37 124 0;
#X connect 145 38 125 0;
#X connect 145 39 126 0;
#X connect 145 40 128 0;
#X connect 145 41 136 0;
#X connect 145 42 137 0;
#X connect 145 43 138 0;
#X connect 145 44 139 0;
#X connect 145 45 140 0;
#X connect 145 46 141 0;
#X connect 145 47 142 0;
#X connect 145 48 146 0;
#X coords 0 -1 1 1 200 150 1 16 16;
#X restore 19 297 pd presets;
#X obj 90 67 vsl 15 128 0 1 0 0 \$0-output1snd \$0-output1rcv o 4 37
0 10 -262144 -1 -1 3900 1;
#X obj 224 72 vsl 15 128 0 1 0 0 \$0-output2snd \$0-output2rcv empty
0 -9 0 10 -262144 -1 -1 11750 1;
#X obj 365 73 vsl 15 128 0 1 0 0 \$0-output3snd \$0-output3rcv empty
0 -9 0 10 -262144 -1 -1 6500 1;
#X obj 495 74 vsl 15 128 0 1 0 0 \$0-output4snd \$0-output4rcv empty
0 -9 0 10 -262144 -1 -1 8400 1;
#X obj 1037 206 keyb;
#X floatatom 991 244 5 0 0 0 - - -;
#X floatatom 1030 165 5 0 0 0 - - -;
#N canvas 0 24 1360 692 nanokontrol 0;
#X obj 50 42 ctlin 16;
#X obj 50 64 * 1.5;
#X obj 50 86 - 85;
#X obj 50 108 s \$0-pitch1rcv;
#X text 51 14 knobs;
#X obj 161 66 * 1.5;
#X obj 161 88 - 85;
#X obj 160 44 ctlin 17;
#X obj 160 109 s \$0-pitch2rcv;
#X obj 278 64 * 1.5;
#X obj 278 86 - 85;
#X obj 277 42 ctlin 18;
#X obj 277 107 s \$0-pitch3rcv;
#X obj 394 61 * 1.5;
#X obj 394 83 - 85;
#X obj 393 39 ctlin 19;
#X obj 392 104 s \$0-pitch4rcv;
#X obj 55 169 ctlin 0;
#X obj 55 191 / 127;
#X obj 55 214 s \$0-fb1rcv;
#X obj 155 191 / 127;
#X obj 155 168 ctlin 1;
#X obj 155 214 s \$0-fb2rcv;
#X obj 261 194 / 127;
#X obj 262 171 ctlin 2;
#X obj 261 217 s \$0-fb3rcv;
#X obj 360 193 / 127;
#X obj 361 170 ctlin 3;
#X obj 360 216 s \$0-fb4rcv;
#X obj 666 169 ctlin 7;
#X obj 666 191 / 150;
#X obj 666 213 s \$0-fbrcv;
#X obj 578 132 ctlin 6;
#X obj 580 209 * 9900;
#X obj 580 230 + 100;
#X obj 587 254 s \$0-modfiltrcv;
#X obj 581 183 pow 2;
#X obj 494 169 ctlin 5;
#X obj 497 300 s \$0-delrcv;
#X obj 494 191 / 127;
#X obj 578 154 / 127;
#X obj 497 254 * 2000;
#X obj 497 276 + 5;
#X obj 494 213 pow 2;
#X connect 0 0 1 0;
#X connect 1 0 2 0;
#X connect 2 0 3 0;
#X connect 5 0 6 0;
#X connect 6 0 8 0;
#X connect 7 0 5 0;
#X connect 9 0 10 0;
#X connect 10 0 12 0;
#X connect 11 0 9 0;
#X connect 13 0 14 0;
#X connect 14 0 16 0;
#X connect 15 0 13 0;
#X connect 17 0 18 0;
#X connect 18 0 19 0;
#X connect 20 0 22 0;
#X connect 21 0 20 0;
#X connect 23 0 25 0;
#X connect 24 0 23 0;
#X connect 26 0 28 0;
#X connect 27 0 26 0;
#X connect 29 0 30 0;
#X connect 30 0 31 0;
#X connect 32 0 40 0;
#X connect 33 0 34 0;
#X connect 34 0 35 0;
#X connect 36 0 33 0;
#X connect 37 0 39 0;
#X connect 39 0 43 0;
#X connect 40 0 36 0;
#X connect 41 0 42 0;
#X connect 42 0 38 0;
#X connect 43 0 41 0;
#X restore 987 543 pd nanokontrol;
#X obj 867 350 tgl 35 0 \$0-verbmutesnd \$0-verbmutercv mute 1 41 0
10 -262144 -1 -1 1 1;
#X text 61 69 1;
#X text 196 72 2;
#X text 335 71 3;
#X text 471 75 4;
#X obj 597 33 vsl 25 200 -128 25 0 0 \$0-pitchlfosnd \$0-pitchlforcv
empty 0 -9 0 10 -262144 -1 -1 11200 1;
#X obj 871 55 bng 25 250 50 0 \$0-randomphasebangsnd \$0-randomphasebangrcv
empty 17 7 0 10 -262144 -1 -1;
#X obj 556 72 vsl 15 128 1 25 1 0 \$0-lfoto1snd \$0-lfoto1rcv 1 0 -9
0 10 -262144 -1 -1 5708 1;
#X obj 576 73 vsl 15 128 1 25 1 0 \$0-lfoto2snd \$0-lfoto2rcv 2 0 -9
0 10 -262144 -1 -1 6750 1;
#X obj 628 72 vsl 15 128 1 25 1 0 \$0-lfoto3snd \$0-lfoto3rcv 3 0 -9
0 10 -262144 -1 -1 10054 1;
#X obj 648 72 vsl 15 128 1 25 1 0 \$0-lfoto4snd \$0-lfoto4rcv 4 0 -9
0 10 -262144 -1 -1 4089 1;
#X obj 568 247 hsl 75 15 1 10 0 0 \$0-lfoshapesnd \$0-lfoshapercv shape
-2 -8 0 10 -262144 -1 -1 1900 1;
#X text 597 16 lfo;
#X obj 503 371 hsl 140 15 1 40 1 0 \$0-lfotodelaysnd \$0-lfotodelayrcv
lfo->delay -2 -8 0 10 -262144 -1 -1 5800 1;
#X obj 228 301 cnv 15 220 145 empty empty displacement 111 132 0 14
-248760 -66577 0;
#X obj 260 335 tgl 25 0 \$0-bypasssnd \$0-bypassrcv bypass -1 31 0
10 -262144 -1 -1 1 1;
#X obj 317 316 tgl 25 0 \$0-voice1snd \$0-voice1rcv voice1 -4 30 0
10 -262144 -1 -1 0 1;
#X obj 380 319 tgl 25 0 \$0-voice2snd \$0-voice2rcv voice2 -4 30 0
10 -262144 -1 -1 0 1;
#X obj 305 357 nbx 5 14 -48 48 0 0 \$0-voice1pitchsnd \$0-voice1pitchrcv
empty 0 -8 0 11 -262144 -1 -1 10 256;
#X obj 369 358 nbx 5 14 -48 48 0 0 \$0-voice2pitchsnd \$0-voice2pitchrcv
empty 0 -8 0 11 -262144 -1 -1 5 256;
#X obj 262 407 nbx 3 14 0 2500 0 0 \$0-arpdelayleftsnd \$0-arpdelayleftrcv
delL 0 -8 0 11 -262144 -1 -1 368 256;
#X obj 382 407 nbx 3 14 0 2500 0 0 \$0-arpdelayrightsnd \$0-arpdelayrightrcv
delR 0 -8 0 11 -262144 -1 -1 231 256;
#X obj 318 409 nbx 3 14 0 100 0 0 \$0-arpfbsnd \$0-arpfbrcv arpFB 0
-8 0 11 -262144 -1 -1 28 256;
#X connect 8 0 21 0;
#X connect 8 0 10 0;
#X connect 8 1 21 1;
#X connect 10 0 21 0;
#X connect 10 1 21 1;
#X connect 11 0 12 0;
#X connect 11 0 13 0;
#X connect 12 0 10 1;
#X connect 13 0 10 2;
#X connect 47 0 48 0;
#X connect 47 1 55 0;
#X connect 47 2 56 0;
#X coords 0 0 1 1 150 175 0;
