#N canvas 0 32 1920 1048 10;
#X obj 740 437 cnv 15 202 203 empty empty recurrence 64 187 0 20 -219039
-222030 0;
#X obj 514 462 cnv 15 229 39 empty empty empty 14 352 0 28 -198299
-249749 0;
#X obj 514 128 cnv 15 197 372 empty empty centricities 14 352 0 28
-215008 -249749 0;
#X obj 23 46 cnv 15 476 438 empty empty circumstances 78 376 0 28 -202135
-249749 0;
#X obj 740 233 cnv 15 202 203 empty empty smears 125 181 0 20 -257268
-222030 0;
#N canvas 1054 36 862 1008 soundstuff 0;
#X obj 280 645 outlet~ L;
#X obj 450 652 outlet~ R;
#X obj 683 335 r \$0-fb1snd;
#X obj 683 379 adlib/smoother 25;
#X obj 871 42 r \$0-deltimesnd;
#X obj 394 200 noise~;
#X obj 871 64 - 0.1;
#X obj 490 303 bob~;
#X obj 729 182 r \$0-cutoffsnd;
#X obj 749 208 r \$0-ressnd;
#X obj 644 217 adlib/adlib/smoother 15;
#X obj 750 233 adlib/smoother 15;
#X obj 486 333 hip~ 0.1;
#X obj 762 352 r \$0-hipsnd;
#X obj 762 374 - 0.01;
#X obj 322 584 lop~ 16000;
#X obj 683 357 - 0.1;
#N canvas 1444 36 472 1008 verb 0;
#X obj 150 276 freeverb~, f 11;
#X obj 107 494 outlet~;
#X obj 239 488 outlet~;
#X obj 36 9 inlet~;
#X obj 247 12 inlet~;
#X obj 312 16 r \$0-verbfreezesnd;
#X obj 312 38 tgl 15 0 empty empty empty 17 7 0 10 -262144 -1 -1 0
1;
#X msg 312 58 freeze \$1;
#X obj 150 357 vcf~;
#X obj 270 356 vcf~;
#X obj 313 237 r \$0-verbfiltsnd;
#X obj 313 259 adlib/smoother 15;
#X obj 593 151 loadbang;
#X msg 592 197 wet 0.5;
#X obj 440 23 r \$0-verbsizesnd;
#X msg 602 214 damping 0.7;
#X msg 440 45 roomsize \$1;
#X obj 442 85 r \$0-verbdrywetsnd;
#X obj 418 108 expr 1-$f1;
#X obj 362 156 adlib/smoother 10;
#X obj 449 153 adlib/smoother 10;
#X msg 557 186 3;
#X obj 61 67 *~;
#X obj 90 67 *~;
#X obj 229 63 *~;
#X obj 258 63 *~;
#X obj 456 316 noise~;
#X obj 388 391 lop~ 2;
#X obj 450 347 phasor~ 3;
#X obj 390 367 samphold~;
#X obj 388 413 *~ 25;
#X msg 645 184 width 0.5;
#X obj 604 323 noise~;
#X obj 536 398 lop~ 2;
#X obj 598 354 phasor~ 3;
#X obj 538 374 samphold~;
#X obj 536 420 *~ 25;
#X obj 759 217 r \$0-verbmutesnd;
#X obj 778 339 switch~ 1;
#X connect 0 0 8 0;
#X connect 0 1 9 0;
#X connect 3 0 22 0;
#X connect 3 0 23 0;
#X connect 4 0 24 0;
#X connect 4 0 25 0;
#X connect 5 0 6 0;
#X connect 6 0 7 0;
#X connect 7 0 0 0;
#X connect 8 0 1 0;
#X connect 9 0 2 0;
#X connect 10 0 11 0;
#X connect 11 0 9 1;
#X connect 11 0 8 1;
#X connect 12 0 21 0;
#X connect 12 0 13 0;
#X connect 12 0 15 0;
#X connect 12 0 31 0;
#X connect 13 0 0 0;
#X connect 14 0 16 0;
#X connect 15 0 0 0;
#X connect 16 0 0 0;
#X connect 17 0 18 0;
#X connect 17 0 20 0;
#X connect 18 0 19 0;
#X connect 19 0 24 1;
#X connect 19 0 22 1;
#X connect 20 0 25 1;
#X connect 20 0 23 1;
#X connect 21 0 9 2;
#X connect 21 0 8 2;
#X connect 22 0 1 0;
#X connect 23 0 0 0;
#X connect 24 0 2 0;
#X connect 25 0 0 1;
#X connect 26 0 29 0;
#X connect 27 0 30 0;
#X connect 28 0 29 1;
#X connect 29 0 27 0;
#X connect 30 0 8 1;
#X connect 31 0 0 0;
#X connect 32 0 35 0;
#X connect 33 0 36 0;
#X connect 34 0 35 1;
#X connect 35 0 33 0;
#X connect 36 0 9 1;
#X connect 37 0 38 0;
#X restore 671 541 pd verb;
#X obj 516 508 *~;
#X obj 941 284 r \$0-verbauxsnd;
#X obj 911 314 - 0.01;
#X obj 911 336 adlib/smoother 15;
#X obj 669 480 *~;
#X obj 492 404 *~ 1;
#X obj 907 374 r \$0-verbmutesnd;
#N canvas 354 64 808 431 pitchshifter 0;
#X obj 102 22 inlet~;
#X obj 269 26 inlet~;
#X obj 87 276 outlet~;
#X obj 167 277 outlet~;
#X obj 79 177 ps2unitexp;
#X obj 146 177 ps2unitexp;
#X obj 282 178 ps2unitexp;
#X obj 349 178 ps2unitexp;
#X obj 338 44 r \$0-bypasssnd;
#X obj 360 68 r \$0-voice1snd;
#X obj 393 89 r \$0-voice2snd;
#X obj 53 177 *~;
#X obj 250 179 *~;
#X obj 85 217 ps2arpdelay;
#X obj 159 217 ps2arpdelay;
#X obj 283 220 ps2arpdelay;
#X obj 357 219 ps2arpdelay;
#X obj 21 72 loadbang;
#X msg 21 94 48;
#X obj 488 183 *~ 2;
#X obj 473 160 adlib/smoother 25;
#X obj 630 207 *~ 2;
#X obj 615 184 adlib/smoother 25;
#X obj 473 138 r \$0-arpdelayleftsnd;
#X obj 615 161 r \$0-arpdelayrightsnd;
#X obj 494 71 r \$0-voice1pitchsnd;
#X obj 509 104 r \$0-voice2pitchsnd;
#N canvas 456 232 450 300 arpfb 0;
#X obj 66 187 outlet~;
#X obj 123 188 outlet~;
#X obj 186 189 outlet~;
#X obj 243 190 outlet~;
#X obj 74 106 *~;
#X obj 132 105 *~;
#X obj 194 105 *~;
#X obj 252 104 *~;
#X obj 306 127 adlib/smoother 25;
#X obj 326 72 r \$0-arpfbsnd;
#X obj 326 94 / 100;
#X obj 17 47 delread~ \$0-arpfb1L;
#X obj 144 50 delread~ \$0-arpfb2L;
#X obj 246 19 delread~ \$0-arpfb1R;
#X obj 329 44 delread~ \$0-arpfb2R;
#X connect 4 0 0 0;
#X connect 5 0 1 0;
#X connect 6 0 2 0;
#X connect 7 0 3 0;
#X connect 8 0 7 1;
#X connect 8 0 6 1;
#X connect 8 0 5 1;
#X connect 8 0 4 1;
#X connect 9 0 10 0;
#X connect 10 0 8 0;
#X connect 11 0 4 0;
#X connect 12 0 5 0;
#X connect 13 0 6 0;
#X connect 14 0 7 0;
#X restore 187 14 pd arpfb;
#X obj 672 228 block~ 1;
#X obj 207 308 delwrite~ \$0-arpfb1L 50;
#X obj 311 332 delwrite~ \$0-arpfb2L 50;
#X obj 380 301 delwrite~ \$0-arpfb1R 50;
#X obj 514 277 delwrite~ \$0-arpfb2R 50;
#X connect 0 0 11 0;
#X connect 0 0 4 0;
#X connect 0 0 5 0;
#X connect 1 0 12 0;
#X connect 1 0 6 0;
#X connect 1 0 7 0;
#X connect 4 0 13 0;
#X connect 5 0 14 0;
#X connect 6 0 15 0;
#X connect 7 0 16 0;
#X connect 8 0 11 1;
#X connect 8 0 12 1;
#X connect 9 0 4 3;
#X connect 9 0 6 3;
#X connect 10 0 7 3;
#X connect 10 0 5 3;
#X connect 11 0 2 0;
#X connect 12 0 3 0;
#X connect 13 0 2 0;
#X connect 13 0 29 0;
#X connect 14 0 2 0;
#X connect 14 0 30 0;
#X connect 15 0 3 0;
#X connect 15 0 31 0;
#X connect 16 0 3 0;
#X connect 16 0 32 0;
#X connect 17 0 18 0;
#X connect 18 0 7 2;
#X connect 18 0 6 2;
#X connect 18 0 5 2;
#X connect 18 0 4 2;
#X connect 19 0 14 1;
#X connect 20 0 19 0;
#X connect 20 0 13 1;
#X connect 21 0 16 1;
#X connect 22 0 21 0;
#X connect 22 0 15 1;
#X connect 23 0 20 0;
#X connect 24 0 22 0;
#X connect 25 0 4 1;
#X connect 25 0 6 1;
#X connect 26 0 7 1;
#X connect 26 0 5 1;
#X connect 27 0 4 0;
#X connect 27 1 5 0;
#X connect 27 2 6 0;
#X connect 27 3 7 0;
#X restore 656 586 pd pitchshifter;
#X obj 871 93 adlib/smoother 50;
#X obj 684 158 *~;
#X obj 803 150 r \$0-fbmutesnd;
#X obj 393 222 *~ 0.001;
#X obj 440 124 r \$0-injectsnd;
#X obj 982 433 - 0.01;
#X obj 981 467 adlib/smoother 15;
#X obj 891 489 *~;
#X obj 852 569 hip~ 30;
#X obj 980 414 r \$0-tremauxsnd;
#N canvas 121 103 1360 692 trem 0;
#X obj 135 141 inlet~;
#X obj 146 363 outlet~;
#X obj 148 291 *~;
#X obj 264 201 +~ 1;
#X obj 264 245 *~;
#X obj 318 272 *~;
#X obj 404 197 r \$0-tremshapesnd;
#X obj 404 219 sel 0 1;
#X msg 404 241 0 1;
#X msg 442 240 1 0;
#X obj 404 263 unpack f f;
#X obj 266 168 *~;
#X obj 411 95 r \$0-tremdepthsnd;
#X obj 411 119 adlib/smoother 15;
#X obj 316 -2 r \$0-tremspdsnd;
#X obj 314 23 adlib/smoother 15;
#X obj 317 169 >~ 0;
#X obj 317 191 -~ 0.5;
#X obj 319 212 *~;
#X obj 319 234 +~ 1;
#X obj 460 140 r \$0-trempwsnd;
#X obj 712 165 inlet~;
#X obj 707 288 *~;
#X obj 698 372 outlet~;
#X obj 377 55 phasor~;
#X obj 251 126 cos~;
#X obj 568 264 +~ 1;
#X obj 568 308 *~;
#X obj 622 325 *~;
#X obj 570 231 *~;
#X obj 621 232 >~ 0;
#X obj 621 254 -~ 0.5;
#X obj 623 275 *~;
#X obj 623 297 +~ 1;
#X obj 555 189 cos~;
#X obj 609 18 r \$0-tremphasesnd;
#X obj 608 122 +~ 0;
#X obj 608 144 wrap~;
#X obj 944 148 r \$0-tremmutesnd;
#X obj 969 254 switch~ 1;
#X connect 0 0 2 0;
#X connect 2 0 1 0;
#X connect 3 0 4 0;
#X connect 4 0 2 1;
#X connect 5 0 2 1;
#X connect 6 0 7 0;
#X connect 7 0 8 0;
#X connect 7 1 9 0;
#X connect 8 0 10 0;
#X connect 9 0 10 0;
#X connect 10 0 4 1;
#X connect 10 0 27 1;
#X connect 10 1 5 1;
#X connect 10 1 28 1;
#X connect 11 0 3 0;
#X connect 12 0 13 0;
#X connect 13 0 11 1;
#X connect 13 0 18 1;
#X connect 13 0 29 1;
#X connect 13 0 32 1;
#X connect 14 0 15 0;
#X connect 15 0 24 0;
#X connect 16 0 17 0;
#X connect 17 0 18 0;
#X connect 18 0 19 0;
#X connect 19 0 5 0;
#X connect 20 0 16 1;
#X connect 20 0 30 1;
#X connect 21 0 22 0;
#X connect 22 0 23 0;
#X connect 24 0 25 0;
#X connect 24 0 36 0;
#X connect 25 0 11 0;
#X connect 25 0 16 0;
#X connect 26 0 27 0;
#X connect 27 0 22 1;
#X connect 28 0 22 1;
#X connect 29 0 26 0;
#X connect 30 0 31 0;
#X connect 31 0 32 0;
#X connect 32 0 33 0;
#X connect 33 0 28 0;
#X connect 34 0 29 0;
#X connect 34 0 30 0;
#X connect 35 0 36 1;
#X connect 36 0 37 0;
#X connect 37 0 34 0;
#X connect 38 0 39 0;
#X restore 883 540 pd trem;
#X obj 685 63 *~;
#X obj 685 85 *~ 15;
#X obj 789 22 r \$0-delmodsnd;
#X obj 789 44 - 0.1;
#X obj 685 108 lop~ 100;
#X obj 847 117 r \$0-delmodlopsnd;
#X obj 440 146 - 0.001;
#X obj 745 483 *~;
#X obj 685 41 delread~ \$0-fb1L;
#X obj 685 133 vd~ \$0-fb1L;
#X obj 1053 179 *~;
#X obj 1053 85 *~;
#X obj 1053 107 *~ 15;
#X obj 1053 131 lop~ 100;
#X obj 1052 53 delread~ \$0-fb1R;
#X obj 1053 154 vd~ \$0-fb1R;
#X obj 588 299 bob~;
#X obj 584 329 hip~ 0.1;
#X obj 597 402 *~ 1;
#X obj 442 592 lop~ 16000;
#X obj 592 508 *~;
#X obj 954 492 *~;
#X obj 905 562 hip~ 30;
#X obj 785 667 delwrite~ \$0-fb1R 6000;
#X obj 598 664 delwrite~ \$0-fb1L 6000;
#X obj 322 562 lop~ 17000;
#X obj 442 570 lop~ 17000;
#X obj 442 542 *~ 0.65;
#X obj 321 534 *~ 0.65;
#N canvas 576 299 450 300 echounit 0;
#N canvas 459 245 809 470 echoes 0;
#X obj 105 23 inlet~;
#X obj 289 22 inlet~;
#X obj 487 221 outlet~;
#X obj 619 221 outlet~;
#X obj 99 258 delwrite~ \$0-echoL 10000;
#X obj 298 260 delwrite~ \$0-echoR 10000;
#X obj 412 82 vd~ \$0-echoL;
#X obj 530 85 vd~ \$0-echoR;
#X obj 330 150 *~;
#X obj 420 154 *~;
#X obj 572 28 r \$0-deltimeRsnd;
#X obj 411 21 r \$0-deltimeLsnd;
#X obj 629 122 r \$0-echofbsnd;
#X obj 629 144 adlib/smoother 15;
#X obj 330 172 hip~ 30;
#X obj 416 180 hip~ 30;
#X obj 330 194 *~;
#X obj 409 205 *~;
#X obj 198 130 r \$0-echomutesnd;
#X obj 411 43 adlib/smoother 15;
#X obj 547 55 adlib/smoother 15;
#X obj 198 152 adlib/smoother 3;
#X obj 643 299 block~ 1;
#X connect 0 0 4 0;
#X connect 1 0 5 0;
#X connect 6 0 8 0;
#X connect 6 0 2 0;
#X connect 7 0 9 0;
#X connect 7 0 3 0;
#X connect 8 0 14 0;
#X connect 9 0 15 0;
#X connect 10 0 20 0;
#X connect 11 0 19 0;
#X connect 12 0 13 0;
#X connect 13 0 9 1;
#X connect 13 0 8 1;
#X connect 14 0 16 0;
#X connect 15 0 17 0;
#X connect 16 0 4 0;
#X connect 17 0 5 0;
#X connect 18 0 21 0;
#X connect 19 0 6 0;
#X connect 20 0 7 0;
#X connect 21 0 16 1;
#X connect 21 0 17 1;
#X restore 131 155 pd echoes;
#X obj 104 29 inlet~;
#X obj 181 32 inlet~;
#X obj 131 177 outlet~;
#X obj 187 178 outlet~;
#X obj 295 53 r \$0-echomutesnd;
#X obj 336 133 switch~ 1;
#X connect 0 0 3 0;
#X connect 0 1 4 0;
#X connect 1 0 0 0;
#X connect 2 0 0 1;
#X connect 5 0 6 0;
#X restore 1086 550 pd echounit;
#X obj 1168 456 - 0.01;
#X obj 1167 490 adlib/smoother 15;
#X obj 1077 512 *~;
#X obj 1140 515 *~;
#X obj 1166 437 r \$0-echoauxsnd;
#X obj 1077 635 hip~ 40;
#X obj 1138 640 hip~ 40;
#X obj 212 249 r \$0-onoff;
#X obj 180 318 switch~ 1 1 1;
#X obj 1092 598 lop~;
#X obj 1148 601 lop~;
#X obj 1204 568 r \$0-echolopsnd;
#X connect 2 0 16 0;
#X connect 3 0 18 1;
#X connect 3 0 57 1;
#X connect 4 0 6 0;
#X connect 5 0 29 0;
#X connect 6 0 26 0;
#X connect 7 0 12 0;
#X connect 8 0 10 0;
#X connect 9 0 11 0;
#X connect 10 0 7 1;
#X connect 10 0 53 1;
#X connect 11 0 7 2;
#X connect 11 0 53 2;
#X connect 12 0 23 0;
#X connect 13 0 14 0;
#X connect 14 0 12 1;
#X connect 14 0 54 1;
#X connect 15 0 0 0;
#X connect 16 0 3 0;
#X connect 17 0 25 0;
#X connect 17 1 25 1;
#X connect 18 0 61 0;
#X connect 19 0 20 0;
#X connect 20 0 21 0;
#X connect 21 0 22 1;
#X connect 21 0 44 1;
#X connect 22 0 17 0;
#X connect 23 0 18 0;
#X connect 23 0 22 0;
#X connect 23 0 33 0;
#X connect 23 0 65 0;
#X connect 23 0 69 0;
#X connect 25 0 61 0;
#X connect 25 1 60 0;
#X connect 26 0 46 0;
#X connect 26 0 52 0;
#X connect 27 0 7 0;
#X connect 28 0 27 1;
#X connect 28 0 47 1;
#X connect 29 0 7 0;
#X connect 29 0 53 0;
#X connect 30 0 43 0;
#X connect 31 0 32 0;
#X connect 32 0 33 1;
#X connect 32 0 58 1;
#X connect 33 0 36 0;
#X connect 34 0 61 0;
#X connect 35 0 31 0;
#X connect 36 0 34 0;
#X connect 36 1 59 0;
#X connect 37 0 38 0;
#X connect 38 0 41 0;
#X connect 39 0 40 0;
#X connect 40 0 37 1;
#X connect 40 0 48 1;
#X connect 41 0 46 0;
#X connect 42 0 41 1;
#X connect 42 0 50 1;
#X connect 43 0 29 1;
#X connect 44 0 17 1;
#X connect 45 0 37 0;
#X connect 46 0 27 0;
#X connect 47 0 53 0;
#X connect 48 0 49 0;
#X connect 49 0 50 0;
#X connect 50 0 52 0;
#X connect 51 0 48 0;
#X connect 52 0 47 0;
#X connect 53 0 54 0;
#X connect 54 0 55 0;
#X connect 55 0 44 0;
#X connect 55 0 57 0;
#X connect 55 0 58 0;
#X connect 55 0 64 0;
#X connect 55 0 70 0;
#X connect 56 0 1 0;
#X connect 57 0 60 0;
#X connect 58 0 36 1;
#X connect 59 0 60 0;
#X connect 62 0 15 0;
#X connect 63 0 56 0;
#X connect 64 0 63 0;
#X connect 65 0 62 0;
#X connect 66 0 76 0;
#X connect 66 1 77 0;
#X connect 67 0 68 0;
#X connect 68 0 69 1;
#X connect 68 0 70 1;
#X connect 69 0 66 0;
#X connect 70 0 66 1;
#X connect 71 0 67 0;
#X connect 72 0 25 0;
#X connect 73 0 25 1;
#X connect 74 0 75 0;
#X connect 76 0 72 0;
#X connect 77 0 73 0;
#X connect 78 0 76 1;
#X connect 78 0 77 1;
#X restore 956 328 pd soundstuff;
#X obj 949 474 output;
#X obj 528 172 vsl 25 200 0.1 4 1 0 \$0-fb1snd \$0-fb1rcv fb1 0 -9
0 10 -262144 -1 -1 3307 1;
#X obj 138 133 vsl 25 200 0.1 10000 1 0 \$0-deltimesnd \$0-deltimercv
deltime 0 -9 0 10 -262144 -1 -1 150 1;
#X obj 1111 477 adascope 0 15 1;
#X obj 1214 477 adascope 0 15 1;
#X obj 295 97 vsl 25 200 38 20000 1 0 \$0-cutoffsnd \$0-cutoffrcv cutoff
0 -9 0 10 -262144 -1 -1 19100 0;
#X obj 343 158 vsl 25 200 0.03 3 1 0 \$0-ressnd \$0-resrcv res 0 -9
0 10 -262144 -1 -1 9500 1;
#X obj 394 220 vsl 25 200 0.01 15000 1 0 \$0-hipsnd \$0-hiprcv hip
0 -9 0 10 -262144 -1 -1 19527 1;
#X obj 758 256 vsl 25 128 35 10000 1 0 \$0-verbfiltsnd \$0-verbfiltrcv
verbfilt 0 -9 0 10 -262144 -1 -1 6550 1;
#X obj 791 272 vsl 25 128 0.1 1 0 0 \$0-verbsizesnd \$0-verbsizercv
size 0 -9 0 10 -262144 -1 -1 6600 1;
#X obj 822 282 vsl 25 128 0 1 0 0 \$0-verbdrywetsnd \$0-verbdrywetrcv
drywet 0 -9 0 10 -262144 -1 -1 11600 1;
#X obj 865 308 tgl 35 0 \$0-verbfreezesnd \$0-verbfreezercv freeze
1 41 0 10 -262144 -1 -1 0 1;
#X obj 565 222 vsl 25 200 0.01 15 1 0 \$0-verbauxsnd \$0-verbauxrcv
verb 0 -9 0 10 -262144 -1 -1 0 1;
#X obj 565 434 tgl 25 0 \$0-verbmutesnd \$0-verbmutercv empty 17 7
0 10 -262144 -1 -1 1 1;
#X obj 943 164 cnv 15 220 145 empty empty vocalizations 106 132 0 14
-248816 -128135 0;
#X obj 965 196 tgl 30 0 \$0-bypasssnd \$0-bypassrcv bypass -2 34 0
10 -262144 -1 -1 1 1;
#X obj 1022 180 tgl 30 0 \$0-voice1snd \$0-voice1rcv voice1 -1 34 0
10 -262144 -1 -1 1 1;
#X obj 1088 179 tgl 30 0 \$0-voice2snd \$0-voice2rcv voice2 -1 34 0
10 -262144 -1 -1 1 1;
#X obj 1011 222 nbx 5 17 -48 48 0 0 \$0-voice1pitchsnd \$0-voice1pitchrcv
empty 0 -8 0 11 -262144 -1 -1 -7 256;
#X obj 1077 222 nbx 5 17 -48 48 0 0 \$0-voice2pitchsnd \$0-voice2pitchrcv
empty 0 -8 0 11 -262144 -1 -1 -10 256;
#X obj 967 270 nbx 3 14 0 2500 0 0 \$0-arpdelayleftsnd \$0-arpdelayleftrcv
delL 0 -8 0 11 -262144 -1 -1 86 256;
#X obj 1087 270 nbx 3 14 0 2500 0 0 \$0-arpdelayrightsnd \$0-arpdelayrightrcv
delR 0 -8 0 11 -262144 -1 -1 38 256;
#X obj 1023 272 nbx 3 14 0 100 0 0 \$0-arpfbsnd \$0-arpfbrcv arpFB
0 -8 0 11 -262144 -1 -1 22 256;
#X obj 528 385 tgl 25 0 \$0-fbmutesnd \$0-fbmutercv empty 17 7 0 10
-238739 -262083 -1 1 1;
#X obj 89 90 vsl 25 200 0.001 0.05 1 0 \$0-injectsnd \$0-injectrcv
inject 0 -9 0 10 -262144 -1 -1 400 1;
#X obj 601 154 vsl 25 200 0.01 10 1 0 \$0-tremauxsnd \$0-tremauxrcv
trem 0 -9 0 10 -262144 -1 -1 15500 1;
#X obj 602 369 tgl 25 0 \$0-tremmutesnd \$0-tremmutercv empty 17 7
0 10 -262144 -1 -1 1 1;
#X obj 740 32 cnv 15 202 203 empty empty urges 134 150 0 20 -244395
-120068 0;
#X obj 752 53 vsl 25 128 0.2 40 1 0 \$0-tremspdsnd \$0-tremspdrcv speed
0 -9 0 10 -262144 -1 -1 11372 1;
#X obj 780 61 vsl 25 128 0.01 1 1 0 \$0-tremdepthsnd \$0-tremdepthrcv
depth 0 -9 0 10 -262144 -1 -1 12600 1;
#X obj 870 72 hradio 25 0 0 2 \$0-tremshapesnd \$0-tremshapercv shape
0 -8 0 10 -262144 -1 -1 0;
#X obj 192 83 vsl 25 200 0.1 0.2 1 0 \$0-delmodsnd \$0-delmodrcv delmod
0 -9 0 10 -262144 -1 -1 19150 1;
#X obj 239 145 vsl 25 200 50 500 1 0 \$0-delmodlopsnd \$0-delmodloprcv
dmlop 0 -9 0 10 -262144 -1 -1 16900 1;
#X obj 809 75 vsl 25 128 0.01 0.999 1 0 \$0-trempwsnd \$0-trempwrcv
pw 0 -9 0 10 -262144 -1 -1 12700 1;
#N canvas 123 151 1360 692 presets 0;
#X obj 18 18 cnv 15 196 146 empty empty scars 66 130 0 14 -144531 -241604
0;
#X obj 28 28 bng 20 250 50 0 \$0-preset1snd \$0-preset1rcv empty 17
7 0 10 -261681 -1 -262144;
#X obj 50 28 bng 20 250 50 0 \$0-preset2snd \$0-preset2rcv empty 17
7 0 10 -261681 -1 -262144;
#X obj 72 28 bng 20 250 50 0 \$0-preset3snd \$0-preset3rcv empty 17
7 0 10 -261681 -1 -262144;
#X obj 94 28 bng 20 250 50 0 \$0-preset4snd \$0-preset4rcv empty 17
7 0 10 -261681 -1 -262144;
#X obj 116 28 bng 20 250 50 0 \$0-preset5snd \$0-preset5rcv empty 17
7 0 10 -261681 -1 -262144;
#X obj 138 28 bng 20 250 50 0 \$0-preset6snd \$0-preset6rcv empty 17
7 0 10 -261681 -1 -262144;
#X obj 160 28 bng 20 250 50 0 \$0-preset7snd \$0-preset7rcv empty 17
7 0 10 -261681 -1 -262144;
#X obj 182 28 bng 20 250 50 0 \$0-preset8snd \$0-preset8rcv empty 17
7 0 10 -261681 -1 -262144;
#X obj 28 50 bng 20 250 50 0 \$0-preset9snd \$0-preset9rcv empty 17
7 0 10 -261681 -1 -262144;
#X obj 50 50 bng 20 250 50 0 \$0-preset10snd \$0-preset10rcv empty
17 7 0 10 -261681 -1 -262144;
#X obj 72 50 bng 20 250 50 0 \$0-preset11snd \$0-preset11rcv empty
17 7 0 10 -143491 -1 -262144;
#X obj 94 50 bng 20 250 50 0 \$0-preset12snd \$0-preset12rcv empty
17 7 0 10 -261681 -1 -262144;
#X obj 116 50 bng 20 250 50 0 \$0-preset13snd \$0-preset13rcv empty
17 7 0 10 -261681 -1 -262144;
#X obj 138 50 bng 20 250 50 0 \$0-preset14snd \$0-preset14rcv empty
17 7 0 10 -261681 -1 -262144;
#X obj 160 50 bng 20 250 50 0 \$0-preset15snd \$0-preset15rcv empty
17 7 0 10 -261681 -1 -262144;
#X obj 182 50 bng 20 250 50 0 \$0-preset16snd \$0-preset16rcv empty
17 7 0 10 -261681 -1 -262144;
#X obj 28 72 bng 20 250 50 0 \$0-preset17snd \$0-preset17rcv empty
17 7 0 10 -261681 -1 -262144;
#X obj 50 72 bng 20 250 50 0 \$0-preset18snd \$0-preset18rcv empty
17 7 0 10 -261681 -1 -262144;
#X obj 72 72 bng 20 250 50 0 \$0-preset19snd \$0-preset19rcv empty
17 7 0 10 -261681 -1 -262144;
#X obj 94 72 bng 20 250 50 0 \$0-preset20snd \$0-preset20rcv empty
17 7 0 10 -261681 -1 -262144;
#X obj 116 72 bng 20 250 50 0 \$0-preset21snd \$0-preset21rcv empty
17 7 0 10 -261681 -1 -262144;
#X obj 138 72 bng 20 250 50 0 \$0-preset22snd \$0-preset22rcv empty
17 7 0 10 -261681 -1 -262144;
#X obj 160 72 bng 20 250 50 0 \$0-preset23snd \$0-preset23rcv empty
17 7 0 10 -262144 -1 -262144;
#X obj 182 72 bng 20 250 50 0 \$0-preset24snd \$0-preset24rcv empty
17 7 0 10 -262144 -1 -262144;
#X obj 28 94 bng 20 250 50 0 \$0-preset25snd \$0-preset25rcv empty
17 7 0 10 -261681 -1 -262144;
#X obj 50 94 bng 20 250 50 0 \$0-preset26snd \$0-preset26rcv empty
17 7 0 10 -262144 -1 -262144;
#X obj 72 94 bng 20 250 50 0 \$0-preset27snd \$0-preset27rcv empty
17 7 0 10 -262144 -1 -262144;
#X obj 94 94 bng 20 250 50 0 \$0-preset28snd \$0-preset28rcv empty
17 7 0 10 -262144 -1 -262144;
#X obj 116 94 bng 20 250 50 0 \$0-preset29snd \$0-preset29rcv empty
17 7 0 10 -262144 -1 -262144;
#X obj 138 94 bng 20 250 50 0 \$0-preset30snd \$0-preset30rcv empty
17 7 0 10 -262144 -1 -262144;
#X obj 160 94 bng 20 250 50 0 \$0-preset31snd \$0-preset31rcv empty
17 7 0 10 -261681 -1 -262144;
#X obj 182 94 bng 20 250 50 0 \$0-preset32snd \$0-preset32rcv empty
17 7 0 10 -262144 -1 -262144;
#X obj 28 116 bng 20 250 50 0 \$0-preset33snd \$0-preset33rcv empty
17 7 0 10 -262144 -1 -262144;
#X obj 50 116 bng 20 250 50 0 \$0-preset34snd \$0-preset34rcv empty
17 7 0 10 -261681 -1 -262144;
#X obj 72 116 bng 20 250 50 0 \$0-preset35snd \$0-preset35rcv empty
17 7 0 10 -262144 -1 -262144;
#X obj 94 116 bng 20 250 50 0 \$0-preset36snd \$0-preset36rcv empty
17 7 0 10 -262144 -1 -262144;
#X obj 116 116 bng 20 250 50 0 \$0-preset37snd \$0-preset37rcv empty
17 7 0 10 -262144 -1 -262144;
#X obj 138 116 bng 20 250 50 0 \$0-preset38snd \$0-preset38rcv empty
17 7 0 10 -262144 -1 -262144;
#X obj 160 116 bng 20 250 50 0 \$0-preset39snd \$0-preset39rcv empty
17 7 0 10 -262144 -1 -262144;
#X obj 182 116 bng 20 250 50 0 \$0-preset40snd \$0-preset40rcv empty
17 7 0 10 -262144 -1 -262144;
#N canvas 0 24 1360 692 presets 0;
#X obj 108 23 inlet data;
#X msg 109 416 0 0.00108181 0 0.109066 0.194843 353.359 15546.5 0.270331
11490.2 0.01 2.17112 0.1846 1 1 1 22.9852 0.964388 0.999 0 646.711
0.567717 0.913386 1 1 1 -7 -10 86 22 38 58.1407 0.57874 0.01 1 10000
10000 1;
#X msg 174 416 0 0.00108181 0 0.109066 0.114152 353.359 5950.56 1.02279
0.363213 0.01 1.53437 0.933451 1 1 1 39.5355 0.964388 0.999 0 646.711
0.567717 0.913386 1 1 1 -7 -10 86 22 38 58.1407 0.531496 0.01 0 1225.59
1583.15 0.251969;
#X msg 66 530 0 0.00101985 0 14.4812 0.107215 50 20000 0.0344685 0.302057
0.736801 0.172259 0.213832 1 1 1 0.398091 1 0.181724 1 517.631 1 0.913386
1 1 1 -6 -19 140 35 164 43.6181 0.547244 0.01 0 15 15 0 0.00101985
;
#X msg 99 530;
#X msg 133 530;
#X msg 166 530;
#X msg 198 530;
#X msg 231 530;
#X msg 265 530 0 0.00119354 0 0.194511 0.13329 430.173 8960.4 2.02426
131.914 0.0783023 1.35883 0.420647 1 1 1 40 1 0.999 0 807.979 1 1 1
0 1 -7 -10 161 22 45 19.6985 0.444882 0.01 0 10000 10000 0 0.00119354
;
#X msg 298 530;
#X msg 585 597;
#X msg 618 597 0 0.00106075 0 14.0683 0.110822 235.688 20000 0.607651
3659.72 0.387298 0.994231 0.213832 1 1 1 1.19459 1 0.963432 1 212.451
0.723622 0.96063 1 1 1 -4.53 -11.55 161 68 45 58.5678 0.523622 0.252354
1 1429.06 948.783 0.590551;
#X msg 652 597;
#X msg 685 597;
#X msg 717 597;
#X msg 750 597;
#X msg 784 597;
#X msg 817 597;
#X obj 107 103 list prepend set;
#X obj 104 52 route 1 2 3 4 5 6 7 8 9 10 11 12 13 14 15 16 17 18 19
20 21 22 23 24 25 26 27 28 29 30 31 32 33 34 35 36 37 38 39 40;
#X obj 107 125 list trim;
#X obj 215 102 list prepend set;
#X obj 215 124 list trim;
#X obj 323 102 list prepend set;
#X obj 323 124 list trim;
#X obj 433 101 list prepend set;
#X obj 433 123 list trim;
#X obj 540 101 list prepend set;
#X obj 540 123 list trim;
#X obj 648 100 list prepend set;
#X obj 648 122 list trim;
#X obj 760 101 list prepend set;
#X obj 760 123 list trim;
#X obj 868 100 list prepend set;
#X obj 868 122 list trim;
#X obj 728 17 inlet loadnumber;
#X obj 728 55 sel 1 2 3 4 5 6 7 8 9 10 11 12 13 14 15 16 17 18 19 20
21 22 23 24 25 26 27 28 29 30 31 32 33 34 35 36 37 38 39 40;
#X obj 444 674 outlet loaddata;
#X obj 116 149 list prepend set;
#X obj 116 171 list trim;
#X obj 224 148 list prepend set;
#X obj 224 170 list trim;
#X obj 332 148 list prepend set;
#X obj 332 170 list trim;
#X obj 440 147 list prepend set;
#X obj 440 169 list trim;
#X obj 549 147 list prepend set;
#X obj 549 169 list trim;
#X obj 657 146 list prepend set;
#X obj 657 168 list trim;
#X obj 769 147 list prepend set;
#X obj 769 169 list trim;
#X obj 877 146 list prepend set;
#X obj 877 168 list trim;
#X obj 137 193 list prepend set;
#X obj 137 215 list trim;
#X obj 245 192 list prepend set;
#X obj 245 214 list trim;
#X obj 353 192 list prepend set;
#X obj 353 214 list trim;
#X obj 461 191 list prepend set;
#X obj 461 213 list trim;
#X obj 570 191 list prepend set;
#X obj 570 213 list trim;
#X obj 678 190 list prepend set;
#X obj 678 212 list trim;
#X obj 790 191 list prepend set;
#X obj 790 213 list trim;
#X obj 898 190 list prepend set;
#X obj 898 212 list trim;
#X msg 1144 341 0 0.00106075 0 0.137465 0.147201 238.431 20000 0.607651
4.19287 0.0542215 0.514109 0.405337 1 1 1 0.638917 1 0.13118 0 517.631
0.879528 0.96063 1 1 1 -4.53 -11.55 161 68 45 17.5628 0.523622 0.01
1 3978.88 3780.29 1;
#X msg 41 415 0 0.00106075 0 0.137465 0.147201 238.431 20000 0.607651
4.19287 0.0542215 0.514109 0.405337 1 1 1 0.638917 1 0.13118 0 517.631
0.879528 0.96063 1 1 1 -4.53 -11.55 161 68 45 17.5628 0.523622 0.01
1 3978.88 3780.29 1;
#X msg 75 416 0 0.00108181 0 0.357079 0.147715 200.44 13706.8 0.24643
3723.03 0.103152 0.560717 0.366524 1 1 1 6.30637 1 0.981055 0 362.506
1 0.913386 1 1 1 -7 -10 161 54 45 63.2663 0.519685 0.01 1 10000 10000
1;
#X msg 142 416 0 0.00108181 0 0.109066 0.114152 353.359 756.608 0.270331
0.363213 0.01 2.17112 1.11464 1 1 1 22.9852 0.964388 0.999 0 646.711
0.567717 0.913386 1 1 1 -7 -10 86 22 38 58.1407 0.57874 0.01 0 1225.59
1583.15 0;
#X msg 207 416 0 0.00108181 0 0.109066 0.114152 353.359 16298.4 2.00098
0.363213 0.01 1.53437 0.986832 1 1 1 39.5355 0.964388 0.999 0 646.711
0.567717 0.913386 1 1 1 -7 -10 86 22 38 40.6281 0.531496 0.01 0 1225.59
1583.15 0.251969;
#X msg 240 416 0 0.00108181 0 0.109066 0.112377 353.359 19077.4 2.00098
0.363213 0.01 1.82518 0.986832 1 1 1 5.56448 0.964388 0.999 0 646.711
0.567717 0.913386 1 1 1 -7 -10 86 22 38 40.6281 0.531496 0.01 0 1225.59
1583.15 0.251969;
#X msg 274 416 0 0.00108181 0 0.109066 0.114152 353.359 8682.66 2.00098
0.363213 6.68291 1.53437 0.352726 1 1 1 39.5355 0.964388 0.999 0 2249.96
0.567717 0.913386 1 1 1 -7 -10 86 22 38 85.4774 0.531496 0.01 0 1225.59
1583.15 0.251969;
#X msg 58 492 0 0.00106075 0 0.137465 0.158372 238.431 20000 0.607651
3659.72 0.539123 0.305439 0.213832 1 1 1 15.2209 1 0.963432 1 1261.19
0.723622 0.96063 1 1 1 -4.53 -11.55 161 68 45 58.5678 0.523622 0.252354
1 1429.06 948.783 0.590551;
#X msg 91 492 0 0.00108181 0 0.308994 0.105916 357.471 2350.48 0.270331
157.83 0.157405 0.0151672 0.1 1 1 1 0.720486 0.964388 0.999 1 1800.88
0.567717 0.913386 1 1 1 3.38 -2.17 301 47 200 58.1407 0.57874 0.0723263
1 1225.59 1357.74 0.511811;
#X msg 125 492 0 0.00108181 0 0.308994 0.105916 353.359 1103.99 0.270331
157.83 0.196237 0.01 1.34166 1 1 1 22.9852 0.964388 0.999 0 473.526
0.567717 0.913386 1 1 1 -7 -10 86 22 38 58.1407 0.57874 0.0723263 1
1225.59 1357.74 0.511811;
#X msg 158 492 0 0.001 0 0.194511 0.128952 430.173 14597.7 1.21664
0.159566 0.227312 0.212145 0.166491 1 1 1 40 1 0.999 0 807.979 1 0.913386
0 0 1 -7 -10 161 22 45 19.6985 0.444882 0.0954772 1 3412.36 5409.71
0.165354;
#X msg 190 492 0 0.001 0 0.194511 0.128952 430.173 14597.7 1.21664
0.952428 0.01 0.911589 0.166491 1 1 1 0.760006 1 0.999 0 807.979 1
0.913386 0 0 1 -7 -10 161 22 45 19.6985 0.444882 0.0954772 1 3412.36
5409.71 0.165354 0.001;
#X msg 223 492 0 0.00101985 0 14.4812 0.164741 100.11 885.613 0.117513
0.431785 0.398268 0.139871 0.153166 1 1 1 0.398091 1 0.181724 1 117.979
1 0.913386 1 1 1 -11 -14 140 35 164 43.6181 0.547244 0.0567243 1 263.803
340.766 0.362205;
#X msg 257 492;
#X msg 32 344 0 0.00101985 0 14.4812 0.1 50 20000 0.0344685 0.302057
0.0542215 0.0337006 0.213832 1 1 1 0.398091 1 0.181724 1 517.631 1
0.913386 1 1 1 -11 -14 140 35 164 43.6181 0.547244 0.01 0 15 15 0;
#X msg 254 335 0 0.00108181 0 0.357079 0.1 50 4014.44 0.270331 0.643349
0.094097 0.560717 0.191572 1 1 1 0.783181 1 0.579327 0 452.904 1 0.913386
1 1 1 -7 -10 161 22 45 63.2663 0.519685 0.01 1 2509.81 2045.03 0;
#X msg 394 342 0 0.001 0 0.194511 0.128952 430.173 20000 1.21664 0.159566
0.0149818 1.64468 0.207968 1 1 1 40 1 0.999 0 9779.82 1 0.913386 1
0 0 -7 -10 161 22 45 19.6985 0.444882 0.01 0 10000 10000 0;
#X msg 652 391 0 0.001 0 0.318063 0.105731 50 20000 0.03 5.01303 0.01
0.61155 0.147592 1 1 1 3.86752 1 0.999 0 578.582 1 1 1 1 1 -11.21 -3.74
182 59 144 15 0.531496 0.01 0 10000 10000 0;
#X msg 804 333 0 0.00131682 0 1.35099 0.126065 500 208.071 0.840151
34.7172 0.094097 0.471375 1.23268 1 1 1 0.586301 1 0.280564 1 706.946
0.348031 0.952756 1 0 1 34.41 44 464 49 388 35.9296 0.555118 0.01 0
1225.59 1583.15 0;
#X msg 872 346 0 0.00106075 0 0.137465 0.147201 238.431 20000 0.607651
3659.72 0.26819 0.36333 0.213832 1 1 1 15.2209 1 0.963432 0 4013.93
0.723622 0.96063 1 1 1 -4.53 -11.55 161 68 45 39.1332 0.523622 0.01
0 1225.59 1583.15 0;
#X msg 998 346 0 0.00106075 0 0.137465 0.1 238.431 20000 0.607651 6482.36
0.01 0.327397 0.1 1 1 1 1.89026 1 0.126509 1 194.349 0.475591 0.96063
1 1 1 -48 -35.55 161 68 45 39.1332 0.523622 0.01 1 3978.88 3780.29
1;
#X msg 290 492;
#X obj 147 241 list prepend set;
#X obj 147 263 list trim;
#X obj 255 240 list prepend set;
#X obj 255 262 list trim;
#X obj 363 240 list prepend set;
#X obj 363 262 list trim;
#X obj 471 239 list prepend set;
#X obj 471 261 list trim;
#X obj 580 239 list prepend set;
#X obj 580 261 list trim;
#X obj 688 238 list prepend set;
#X obj 688 260 list trim;
#X obj 800 239 list prepend set;
#X obj 800 261 list trim;
#X obj 908 238 list prepend set;
#X obj 908 260 list trim;
#X obj 167 291 list prepend set;
#X obj 167 313 list trim;
#X obj 275 290 list prepend set;
#X obj 275 312 list trim;
#X obj 383 290 list prepend set;
#X obj 383 312 list trim;
#X obj 491 289 list prepend set;
#X obj 491 311 list trim;
#X obj 600 289 list prepend set;
#X obj 600 311 list trim;
#X obj 708 288 list prepend set;
#X obj 708 310 list trim;
#X obj 820 289 list prepend set;
#X obj 820 311 list trim;
#X obj 928 288 list prepend set;
#X obj 928 310 list trim;
#X connect 0 0 20 0;
#X connect 1 0 38 0;
#X connect 2 0 38 0;
#X connect 3 0 38 0;
#X connect 4 0 38 0;
#X connect 5 0 38 0;
#X connect 6 0 38 0;
#X connect 7 0 38 0;
#X connect 8 0 38 0;
#X connect 9 0 38 0;
#X connect 10 0 38 0;
#X connect 11 0 38 0;
#X connect 12 0 38 0;
#X connect 13 0 38 0;
#X connect 14 0 38 0;
#X connect 15 0 38 0;
#X connect 16 0 38 0;
#X connect 17 0 38 0;
#X connect 18 0 38 0;
#X connect 19 0 21 0;
#X connect 20 0 19 0;
#X connect 20 1 22 0;
#X connect 20 2 24 0;
#X connect 20 3 26 0;
#X connect 20 4 28 0;
#X connect 20 5 30 0;
#X connect 20 6 32 0;
#X connect 20 7 34 0;
#X connect 20 8 39 0;
#X connect 20 9 41 0;
#X connect 20 10 43 0;
#X connect 20 11 45 0;
#X connect 20 12 47 0;
#X connect 20 13 49 0;
#X connect 20 14 51 0;
#X connect 20 15 53 0;
#X connect 20 16 55 0;
#X connect 20 17 57 0;
#X connect 20 18 59 0;
#X connect 20 19 61 0;
#X connect 20 20 63 0;
#X connect 20 21 65 0;
#X connect 20 22 67 0;
#X connect 20 23 69 0;
#X connect 20 24 93 0;
#X connect 20 25 95 0;
#X connect 20 26 97 0;
#X connect 20 27 99 0;
#X connect 20 28 101 0;
#X connect 20 29 103 0;
#X connect 20 30 105 0;
#X connect 20 31 107 0;
#X connect 20 32 109 0;
#X connect 20 33 111 0;
#X connect 20 34 113 0;
#X connect 20 35 115 0;
#X connect 20 36 117 0;
#X connect 20 37 119 0;
#X connect 20 38 121 0;
#X connect 20 39 123 0;
#X connect 21 0 85 0;
#X connect 22 0 23 0;
#X connect 23 0 86 0;
#X connect 24 0 25 0;
#X connect 25 0 87 0;
#X connect 26 0 27 0;
#X connect 27 0 88 0;
#X connect 28 0 29 0;
#X connect 29 0 89 0;
#X connect 30 0 31 0;
#X connect 31 0 90 0;
#X connect 32 0 33 0;
#X connect 33 0 91 0;
#X connect 34 0 35 0;
#X connect 35 0 71 0;
#X connect 36 0 37 0;
#X connect 37 0 85 0;
#X connect 37 1 86 0;
#X connect 37 2 87 0;
#X connect 37 3 88 0;
#X connect 37 4 89 0;
#X connect 37 5 90 0;
#X connect 37 6 91 0;
#X connect 37 7 71 0;
#X connect 37 8 72 0;
#X connect 37 9 73 0;
#X connect 37 10 1 0;
#X connect 37 11 74 0;
#X connect 37 12 2 0;
#X connect 37 13 75 0;
#X connect 37 14 76 0;
#X connect 37 15 77 0;
#X connect 37 16 78 0;
#X connect 37 17 79 0;
#X connect 37 18 80 0;
#X connect 37 19 81 0;
#X connect 37 20 82 0;
#X connect 37 21 83 0;
#X connect 37 22 84 0;
#X connect 37 23 92 0;
#X connect 37 24 3 0;
#X connect 37 25 4 0;
#X connect 37 26 5 0;
#X connect 37 27 6 0;
#X connect 37 28 7 0;
#X connect 37 29 8 0;
#X connect 37 30 9 0;
#X connect 37 31 10 0;
#X connect 37 32 11 0;
#X connect 37 33 12 0;
#X connect 37 34 13 0;
#X connect 37 35 14 0;
#X connect 37 36 15 0;
#X connect 37 37 16 0;
#X connect 37 38 17 0;
#X connect 37 39 18 0;
#X connect 39 0 40 0;
#X connect 40 0 72 0;
#X connect 41 0 42 0;
#X connect 42 0 73 0;
#X connect 43 0 44 0;
#X connect 44 0 1 0;
#X connect 45 0 46 0;
#X connect 46 0 74 0;
#X connect 47 0 48 0;
#X connect 48 0 2 0;
#X connect 49 0 50 0;
#X connect 50 0 75 0;
#X connect 51 0 52 0;
#X connect 52 0 76 0;
#X connect 53 0 54 0;
#X connect 54 0 77 0;
#X connect 55 0 56 0;
#X connect 56 0 78 0;
#X connect 57 0 58 0;
#X connect 58 0 79 0;
#X connect 59 0 60 0;
#X connect 60 0 80 0;
#X connect 61 0 62 0;
#X connect 62 0 81 0;
#X connect 63 0 64 0;
#X connect 64 0 82 0;
#X connect 65 0 66 0;
#X connect 66 0 83 0;
#X connect 67 0 68 0;
#X connect 68 0 84 0;
#X connect 69 0 70 0;
#X connect 70 0 92 0;
#X connect 71 0 38 0;
#X connect 72 0 38 0;
#X connect 73 0 38 0;
#X connect 74 0 38 0;
#X connect 75 0 38 0;
#X connect 76 0 38 0;
#X connect 77 0 38 0;
#X connect 78 0 38 0;
#X connect 79 0 38 0;
#X connect 80 0 38 0;
#X connect 81 0 38 0;
#X connect 82 0 38 0;
#X connect 83 0 38 0;
#X connect 84 0 38 0;
#X connect 85 0 38 0;
#X connect 86 0 38 0;
#X connect 87 0 38 0;
#X connect 88 0 38 0;
#X connect 89 0 38 0;
#X connect 90 0 38 0;
#X connect 91 0 38 0;
#X connect 92 0 38 0;
#X connect 93 0 94 0;
#X connect 94 0 3 0;
#X connect 95 0 96 0;
#X connect 96 0 4 0;
#X connect 97 0 98 0;
#X connect 98 0 5 0;
#X connect 99 0 100 0;
#X connect 100 0 6 0;
#X connect 101 0 102 0;
#X connect 102 0 7 0;
#X connect 103 0 104 0;
#X connect 104 0 8 0;
#X connect 105 0 106 0;
#X connect 106 0 9 0;
#X connect 107 0 108 0;
#X connect 108 0 10 0;
#X connect 109 0 110 0;
#X connect 110 0 11 0;
#X connect 111 0 112 0;
#X connect 112 0 12 0;
#X connect 113 0 114 0;
#X connect 114 0 13 0;
#X connect 115 0 116 0;
#X connect 116 0 14 0;
#X connect 117 0 118 0;
#X connect 118 0 15 0;
#X connect 119 0 120 0;
#X connect 120 0 16 0;
#X connect 121 0 122 0;
#X connect 122 0 17 0;
#X connect 123 0 124 0;
#X connect 124 0 18 0;
#X restore 424 400 pd presets;
#X obj 26 140 bng 20 250 50 0 empty empty save 25 7 0 10 -169710 -1
-1;
#X obj 301 231 v \$0-currentpreset;
#X floatatom 379 262 5 0 0 0 - - -;
#X obj 237 203 t b b b;
#X obj 417 375 list prepend;
#X obj 255 288 bng 15 250 50 0 empty empty empty 17 7 0 10 -262144
-1 -1;
#N canvas 962 758 956 301 bangreceivesandcolors 0;
#X obj 59 25 r \$0-preset1snd;
#X obj 183 26 r \$0-preset2snd;
#X obj 296 27 r \$0-preset3snd;
#X obj 441 29 r \$0-preset4snd;
#X obj 559 28 r \$0-preset5snd;
#X obj 666 28 r \$0-preset6snd;
#X obj 777 28 r \$0-preset7snd;
#X obj 898 26 r \$0-preset8snd;
#X obj 284 485 t b b b;
#X msg 297 547 11;
#X obj 556 586 v \$0-currentpreset;
#X obj 564 618 makefilename \$0-preset%drcv;
#X obj 505 664 s;
#X obj 519 555 t b b, f 6;
#X obj 263 568 v \$0-currentpreset;
#X obj 184 604 v \$0-currentpreset;
#X obj 198 626 makefilename \$0-preset%drcv;
#X obj 137 659 s;
#X obj 147 573 t b b, f 6;
#X msg 286 222 set 1;
#X obj 262 188 t b b;
#X obj 328 187 t b b;
#X msg 352 221 set 2;
#X obj 406 187 t b b;
#X obj 471 187 t b b;
#X obj 548 181 t b b;
#X obj 614 180 t b b;
#X obj 691 180 t b b;
#X obj 757 179 t b b;
#X msg 430 221 set 3;
#X msg 496 221 set 4;
#X msg 572 215 set 5;
#X msg 637 214 set 6;
#X msg 715 214 set 7;
#X msg 781 213 set 8;
#X obj 89 55 r \$0-preset9snd;
#X obj 212 56 r \$0-preset10snd;
#X obj 326 57 r \$0-preset11snd;
#X obj 469 59 r \$0-preset12snd;
#X obj 589 58 r \$0-preset13snd;
#X obj 696 58 r \$0-preset14snd;
#X obj 808 58 r \$0-preset15snd;
#X obj 928 56 r \$0-preset16snd;
#X obj 294 257 t b b;
#X obj 360 256 t b b;
#X obj 438 256 t b b;
#X obj 504 255 t b b;
#X obj 580 250 t b b;
#X obj 646 249 t b b;
#X obj 723 249 t b b;
#X obj 789 248 t b b;
#X msg 318 291 set 9;
#X msg 384 290 set 10;
#X msg 462 290 set 11;
#X msg 528 290 set 12;
#X msg 604 284 set 13;
#X msg 669 283 set 14;
#X msg 747 283 set 15;
#X msg 813 282 set 16;
#X obj 318 666 outlet currentpreset;
#X obj 411 322 t b b;
#X obj 477 321 t b b;
#X obj 555 321 t b b;
#X obj 621 320 t b b;
#X obj 697 315 t b b;
#X msg 435 356 set 17;
#X msg 501 355 set 18;
#X msg 579 355 set 19;
#X msg 645 355 set 20;
#X msg 721 349 set 21;
#X msg 799 353 set 22;
#X msg 864 348 set 23;
#X msg 930 347 set 24;
#X obj 774 316 t b b;
#X obj 840 315 t b b;
#X obj 916 310 t b b;
#X obj 119 85 r \$0-preset17snd;
#X obj 243 86 r \$0-preset18snd;
#X obj 356 87 r \$0-preset19snd;
#X obj 501 89 r \$0-preset20snd;
#X obj 619 88 r \$0-preset21snd;
#X obj 726 88 r \$0-preset22snd;
#X obj 837 88 r \$0-preset23snd;
#X obj 958 86 r \$0-preset24snd;
#X obj 154 115 r \$0-preset25snd;
#X obj 273 116 r \$0-preset26snd;
#X obj 386 117 r \$0-preset27snd;
#X obj 531 119 r \$0-preset28snd;
#X obj 650 119 r \$0-preset29snd;
#X obj 756 118 r \$0-preset30snd;
#X obj 867 118 r \$0-preset31snd;
#X obj 988 116 r \$0-preset32snd;
#X obj 569 393 t b b;
#X obj 635 392 t b b;
#X obj 713 392 t b b;
#X obj 779 391 t b b;
#X obj 855 386 t b b;
#X obj 932 387 t b b;
#X obj 998 386 t b b;
#X obj 1074 381 t b b;
#X msg 593 427 set 25;
#X msg 659 427 set 26;
#X msg 734 426 set 27;
#X msg 802 426 set 28;
#X msg 879 420 set 29;
#X msg 956 424 set 30;
#X msg 1022 419 set 31;
#X msg 1088 418 set 32;
#X obj 650 473 t b b;
#X obj 716 472 t b b;
#X obj 794 472 t b b;
#X obj 860 471 t b b;
#X obj 936 466 t b b;
#X obj 1013 467 t b b;
#X obj 1079 466 t b b;
#X msg 674 507 set 33;
#X msg 740 507 set 34;
#X msg 815 506 set 35;
#X msg 883 506 set 36;
#X msg 960 500 set 37;
#X msg 1037 504 set 38;
#X msg 1103 499 set 39;
#X msg 1169 498 set 40;
#X obj 189 145 r \$0-preset33snd;
#X obj 309 145 r \$0-preset34snd;
#X obj 426 147 r \$0-preset35snd;
#X obj 571 149 r \$0-preset36snd;
#X obj 689 148 r \$0-preset37snd;
#X obj 798 146 r \$0-preset38snd;
#X obj 907 148 r \$0-preset39snd;
#X obj 1028 146 r \$0-preset40snd;
#X obj 1164 455 t b b;
#X msg 133 632 color 23;
#N canvas 576 299 450 300 getsavecolors 0;
#X obj 151 20 inlet presetnumber;
#X obj 29 30 inlet bang;
#X obj 151 42 tabread \$0-saved;
#X obj 151 64 sel 0 1;
#X msg 148 104 0;
#X msg 180 118 4;
#X obj 100 228 outlet;
#X msg 141 149 set color \$1;
#X msg 141 171 color 4;
#X connect 0 0 2 0;
#X connect 1 0 8 0;
#X connect 2 0 3 0;
#X connect 3 0 4 0;
#X connect 3 1 5 0;
#X connect 4 0 7 0;
#X connect 5 0 7 0;
#X connect 7 0 8 0;
#X connect 8 0 6 0;
#X restore 432 617 pd getsavecolors;
#N canvas 822 449 450 327 initcolours 0;
#X obj 213 20 loadbang;
#X obj 278 157 + 1;
#X obj 217 158 f 1;
#X obj 250 225 bang;
#X msg 190 113 1;
#X obj 142 283 outlet number;
#X obj 250 247 delay 1;
#X obj 217 189 sel 40;
#X obj 115 34 inlet;
#X connect 0 0 4 0;
#X connect 1 0 2 1;
#X connect 2 0 1 0;
#X connect 2 0 5 0;
#X connect 2 0 7 0;
#X connect 3 0 6 0;
#X connect 4 0 2 0;
#X connect 6 0 2 0;
#X connect 7 1 3 0;
#X connect 8 0 4 0;
#X restore 639 543 pd initcolours;
#X obj 638 565 t b f f;
#X obj 564 640 print;
#X obj 752 567 bng 15 250 50 0 empty empty reset 17 7 0 10 -262144
-1 -1;
#X connect 0 0 20 0;
#X connect 1 0 21 0;
#X connect 2 0 23 0;
#X connect 3 0 24 0;
#X connect 4 0 25 0;
#X connect 5 0 26 0;
#X connect 6 0 27 0;
#X connect 7 0 28 0;
#X connect 8 0 18 0;
#X connect 8 1 9 0;
#X connect 8 2 13 0;
#X connect 9 0 14 0;
#X connect 9 0 59 0;
#X connect 10 0 133 1;
#X connect 10 0 11 0;
#X connect 11 0 12 1;
#X connect 11 0 136 0;
#X connect 13 0 133 0;
#X connect 13 1 10 0;
#X connect 15 0 16 0;
#X connect 16 0 17 1;
#X connect 18 0 132 0;
#X connect 18 1 15 0;
#X connect 19 0 9 0;
#X connect 20 0 8 0;
#X connect 20 1 19 0;
#X connect 21 0 8 0;
#X connect 21 1 22 0;
#X connect 22 0 9 0;
#X connect 23 0 8 0;
#X connect 23 1 29 0;
#X connect 24 0 8 0;
#X connect 24 1 30 0;
#X connect 25 0 8 0;
#X connect 25 1 31 0;
#X connect 26 0 8 0;
#X connect 26 1 32 0;
#X connect 27 0 8 0;
#X connect 27 1 33 0;
#X connect 28 0 8 0;
#X connect 28 1 34 0;
#X connect 29 0 9 0;
#X connect 30 0 9 0;
#X connect 31 0 9 0;
#X connect 32 0 9 0;
#X connect 33 0 9 0;
#X connect 34 0 9 0;
#X connect 35 0 43 0;
#X connect 36 0 44 0;
#X connect 37 0 45 0;
#X connect 38 0 46 0;
#X connect 39 0 47 0;
#X connect 40 0 48 0;
#X connect 41 0 49 0;
#X connect 42 0 50 0;
#X connect 43 0 8 0;
#X connect 43 1 51 0;
#X connect 44 0 8 0;
#X connect 44 1 52 0;
#X connect 45 0 8 0;
#X connect 45 1 53 0;
#X connect 46 0 8 0;
#X connect 46 1 54 0;
#X connect 47 0 8 0;
#X connect 47 1 55 0;
#X connect 48 0 8 0;
#X connect 48 1 56 0;
#X connect 49 0 8 0;
#X connect 49 1 57 0;
#X connect 50 0 8 0;
#X connect 50 1 58 0;
#X connect 51 0 9 0;
#X connect 52 0 9 0;
#X connect 53 0 9 0;
#X connect 54 0 9 0;
#X connect 55 0 9 0;
#X connect 56 0 9 0;
#X connect 57 0 9 0;
#X connect 58 0 9 0;
#X connect 60 0 8 0;
#X connect 60 1 65 0;
#X connect 61 0 8 0;
#X connect 61 1 66 0;
#X connect 62 0 8 0;
#X connect 62 1 67 0;
#X connect 63 0 8 0;
#X connect 63 1 68 0;
#X connect 64 0 8 0;
#X connect 64 1 69 0;
#X connect 65 0 9 0;
#X connect 66 0 9 0;
#X connect 67 0 9 0;
#X connect 68 0 9 0;
#X connect 69 0 9 0;
#X connect 70 0 9 0;
#X connect 71 0 9 0;
#X connect 72 0 9 0;
#X connect 73 0 8 0;
#X connect 73 1 70 0;
#X connect 74 0 8 0;
#X connect 74 1 71 0;
#X connect 75 0 8 0;
#X connect 75 1 72 0;
#X connect 76 0 60 0;
#X connect 77 0 61 0;
#X connect 78 0 62 0;
#X connect 79 0 63 0;
#X connect 80 0 64 0;
#X connect 81 0 73 0;
#X connect 82 0 74 0;
#X connect 83 0 75 0;
#X connect 84 0 92 0;
#X connect 85 0 93 0;
#X connect 86 0 94 0;
#X connect 87 0 95 0;
#X connect 88 0 96 0;
#X connect 89 0 97 0;
#X connect 90 0 98 0;
#X connect 91 0 99 0;
#X connect 92 0 8 0;
#X connect 92 1 100 0;
#X connect 93 0 8 0;
#X connect 93 1 101 0;
#X connect 94 0 8 0;
#X connect 94 1 102 0;
#X connect 95 0 8 0;
#X connect 95 1 103 0;
#X connect 96 0 8 0;
#X connect 96 1 104 0;
#X connect 97 0 8 0;
#X connect 97 1 105 0;
#X connect 98 0 8 0;
#X connect 98 1 106 0;
#X connect 99 0 8 0;
#X connect 99 1 107 0;
#X connect 100 0 9 0;
#X connect 101 0 9 0;
#X connect 102 0 9 0;
#X connect 103 0 9 0;
#X connect 104 0 9 0;
#X connect 105 0 9 0;
#X connect 106 0 9 0;
#X connect 107 0 9 0;
#X connect 108 0 8 0;
#X connect 108 1 115 0;
#X connect 109 0 8 0;
#X connect 109 1 116 0;
#X connect 110 0 8 0;
#X connect 110 1 117 0;
#X connect 111 0 8 0;
#X connect 111 1 118 0;
#X connect 112 0 8 0;
#X connect 112 1 119 0;
#X connect 113 0 8 0;
#X connect 113 1 120 0;
#X connect 114 0 8 0;
#X connect 114 1 121 0;
#X connect 115 0 9 0;
#X connect 116 0 9 0;
#X connect 117 0 9 0;
#X connect 118 0 9 0;
#X connect 119 0 9 0;
#X connect 120 0 9 0;
#X connect 121 0 9 0;
#X connect 122 0 9 0;
#X connect 123 0 108 0;
#X connect 124 0 109 0;
#X connect 125 0 110 0;
#X connect 126 0 111 0;
#X connect 127 0 112 0;
#X connect 128 0 113 0;
#X connect 129 0 114 0;
#X connect 130 0 131 0;
#X connect 131 0 122 0;
#X connect 131 0 8 0;
#X connect 132 0 17 0;
#X connect 133 0 12 0;
#X connect 134 0 135 0;
#X connect 135 0 133 0;
#X connect 135 1 133 1;
#X connect 135 2 11 0;
#X connect 137 0 134 0;
#X restore 144 322 pd bangreceivesandcolors;
#X obj 340 77 r \$0-injectsnd;
#X obj 340 99 r \$0-scrubsnd;
#X obj 340 121 r \$0-deltimesnd;
#X obj 340 143 r \$0-delmodsnd;
#X obj 340 165 r \$0-delmodlopsnd;
#X obj 481 79 r \$0-cutoffsnd;
#X obj 482 106 r \$0-ressnd;
#X obj 493 137 r \$0-hipsnd;
#X obj 585 86 r \$0-verbauxsnd;
#X obj 593 105 r \$0-tremauxsnd;
#X obj 600 125 r \$0-fb1snd;
#X obj 606 148 r \$0-verbmutesnd;
#X obj 618 171 r \$0-tremmutesnd;
#X obj 629 194 r \$0-fbmutesnd;
#X obj 767 63 r \$0-tremspdsnd;
#X obj 767 85 r \$0-tremdepthsnd;
#X obj 767 107 r \$0-trempwsnd;
#X obj 767 129 r \$0-tremshapesnd;
#X obj 899 83 r \$0-verbfiltsnd;
#X obj 899 105 r \$0-verbsizesnd;
#X obj 899 127 r \$0-verbdrywetsnd;
#X obj 1032 106 r \$0-bypasssnd;
#X obj 1032 128 r \$0-voice1snd;
#X obj 1032 150 r \$0-voice2snd;
#X obj 1032 172 r \$0-voice1pitchsnd;
#X obj 1032 195 r \$0-voice2pitchsnd;
#X obj 1032 217 r \$0-arpdelayleftsnd;
#X obj 1032 239 r \$0-arpfbsnd;
#X obj 1033 265 r \$0-arpdelayrightsnd;
#X obj 318 521 s \$0-injectrcv;
#X obj 318 543 s \$0-scrubrcv;
#X obj 318 565 s \$0-deltimercv;
#X obj 318 587 s \$0-delmodrcv;
#X obj 318 609 s \$0-delmodloprcv;
#X obj 452 516 s \$0-cutoffrcv;
#X obj 453 538 s \$0-resrcv;
#X obj 453 563 s \$0-hiprcv;
#X obj 560 520 s \$0-verbauxrcv;
#X obj 560 542 s \$0-tremauxrcv;
#X obj 560 564 s \$0-fb1rcv;
#X obj 560 586 s \$0-verbmutercv;
#X obj 560 608 s \$0-tremmutercv;
#X obj 560 630 s \$0-fbmutercv;
#X obj 725 560 s \$0-trempwrcv;
#X obj 725 516 s \$0-tremspdrcv;
#X obj 725 538 s \$0-tremdepthrcv;
#X obj 725 582 s \$0-tremshapercv;
#X obj 894 511 s \$0-verbfiltrcv;
#X obj 894 533 s \$0-verbsizercv;
#X obj 894 555 s \$0-verbdrywetrcv;
#X obj 1044 513 s \$0-bypassrcv;
#X obj 1044 535 s \$0-voice1rcv;
#X obj 1044 557 s \$0-voice2rcv;
#X obj 1045 578 s \$0-voice1pitchrcv;
#X obj 1044 601 s \$0-voice2pitchrcv;
#X obj 1044 623 s \$0-arpdelayleftrcv;
#X obj 1044 645 s \$0-arpfbrcv;
#X obj 1044 667 s \$0-arpdelayrightrcv;
#X obj 1007 291 r \$0-limitsnd;
#X obj 1150 467 s \$0-limitrcv;
#X obj 1085 317 r \$0-tremphasesnd;
#X obj 1146 502 s \$0-tremphasercv;
#X obj 1254 286 r \$0-echoauxsnd;
#X obj 1254 308 r \$0-echomutesnd;
#X obj 1254 330 r \$0-deltimeLsnd;
#X obj 1250 353 r \$0-deltimeRsnd;
#X obj 1254 374 r \$0-echofbsnd;
#X obj 1208 547 s \$0-echoauxrcv;
#X obj 1208 569 s \$0-echomutercv;
#X obj 1208 591 s \$0-deltimeLrcv;
#X obj 1208 613 s \$0-deltimeRrcv;
#X obj 1213 631 s \$0-echofbrcv;
#N canvas 626 303 676 257 savecolors 0;
#N canvas 0 0 450 300 (subpatch) 0;
#X array \$0-saved 41 float 3;
#A 0 0 1 1 1 1 1 1 1 1 1 1 1 1 1 1 1 1 1 1 1 1 1 1 0 0 1 0 0 0 0 0
1 0 0 1 0 0 0 0 0 0;
#X coords 0 1 41 0 200 140 1;
#X restore 30 30 graph;
#X obj 382 44 inlet savenumber;
#X obj 382 66 t b f;
#X msg 355 105 1;
#X msg 566 101 \; \$0-saved const 0;
#X obj 348 156 tabwrite \$0-saved;
#X obj 503 45 inlet clearnumber;
#X obj 503 67 t b f;
#X msg 478 97 0;
#X connect 1 0 2 0;
#X connect 2 0 3 0;
#X connect 2 1 5 1;
#X connect 3 0 5 0;
#X connect 6 0 7 0;
#X connect 7 0 8 0;
#X connect 7 1 5 1;
#X connect 8 0 5 0;
#X restore 254 397 pd savecolors;
#X obj 140 140 bng 20 250 50 0 empty empty clear 25 7 0 10 -215290
-1 -1;
#X obj 128 231 v \$0-currentpreset;
#X obj 414 313 pack \$1 \$2 \$3 \$4 \$5 \$6 \$7 \$8 \$9 \$10 \$11 \$12
\$13 \$14 \$15 \$16 \$17 \$18 \$19 \$20 \$21 \$22 \$23 \$24 \$25 \$26
\$27 \$28 \$29 \$30 \$31 \$32 \$33 \$34 \$35 \$36 \$37 \$38;
#X obj 423 437 unpack \$1 \$2 \$3 \$4 \$5 \$6 \$7 \$8 \$9 \$10 \$11
\$12 \$13 \$14 \$15 \$16 \$17 \$18 \$19 \$20 \$21 \$22 \$23 \$24 \$25
\$26 \$27 \$28 \$29 \$30 \$31 \$32 \$33 \$34 \$35 \$36 \$37 \$38;
#X obj 1114 370 r \$0-injectsnd;
#X obj 1281 504 s \$0-injectrcv;
#X floatatom 1114 392 5 0 0 0 - - -;
#X obj 549 381 print;
#X connect 41 0 125 0;
#X connect 42 0 45 0;
#X connect 43 0 44 0;
#X connect 43 0 46 1;
#X connect 43 0 121 0;
#X connect 45 1 124 0;
#X connect 45 2 43 0;
#X connect 46 0 41 0;
#X connect 47 0 124 0;
#X connect 48 0 41 1;
#X connect 49 0 124 1;
#X connect 50 0 124 2;
#X connect 51 0 124 3;
#X connect 52 0 124 4;
#X connect 53 0 124 5;
#X connect 54 0 124 6;
#X connect 55 0 124 7;
#X connect 56 0 124 8;
#X connect 57 0 124 9;
#X connect 58 0 124 10;
#X connect 59 0 124 11;
#X connect 60 0 124 12;
#X connect 61 0 124 13;
#X connect 62 0 124 14;
#X connect 63 0 124 15;
#X connect 64 0 124 16;
#X connect 65 0 124 17;
#X connect 66 0 124 18;
#X connect 67 0 124 19;
#X connect 68 0 124 20;
#X connect 69 0 124 21;
#X connect 70 0 124 22;
#X connect 71 0 124 23;
#X connect 72 0 124 24;
#X connect 73 0 124 25;
#X connect 74 0 124 26;
#X connect 75 0 124 27;
#X connect 76 0 124 28;
#X connect 77 0 124 29;
#X connect 107 0 124 30;
#X connect 109 0 124 31;
#X connect 111 0 124 32;
#X connect 112 0 124 33;
#X connect 113 0 124 34;
#X connect 114 0 124 35;
#X connect 115 0 124 36;
#X connect 122 0 123 0;
#X connect 123 0 121 1;
#X connect 124 0 46 0;
#X connect 124 0 129 0;
#X connect 125 1 78 0;
#X connect 125 2 79 0;
#X connect 125 3 80 0;
#X connect 125 4 81 0;
#X connect 125 5 82 0;
#X connect 125 6 83 0;
#X connect 125 7 84 0;
#X connect 125 8 85 0;
#X connect 125 9 86 0;
#X connect 125 10 87 0;
#X connect 125 11 88 0;
#X connect 125 12 89 0;
#X connect 125 13 90 0;
#X connect 125 14 91 0;
#X connect 125 15 93 0;
#X connect 125 16 94 0;
#X connect 125 17 92 0;
#X connect 125 18 95 0;
#X connect 125 19 96 0;
#X connect 125 20 97 0;
#X connect 125 21 98 0;
#X connect 125 22 99 0;
#X connect 125 23 100 0;
#X connect 125 24 101 0;
#X connect 125 25 102 0;
#X connect 125 26 103 0;
#X connect 125 27 104 0;
#X connect 125 28 105 0;
#X connect 125 29 106 0;
#X connect 125 30 108 0;
#X connect 125 31 110 0;
#X connect 125 32 116 0;
#X connect 125 33 117 0;
#X connect 125 34 118 0;
#X connect 125 35 119 0;
#X connect 125 36 120 0;
#X connect 125 37 127 0;
#X connect 126 0 124 37;
#X connect 126 0 128 0;
#X coords 0 -1 1 1 200 150 1 16 16;
#X restore 77 500 pd presets;
#X floatatom 394 430 5 0 0 0 - - -;
#X obj 666 199 vsl 20 200 100 15 0 0 \$0-limitsnd \$0-limitrcv lim
0 -9 0 10 -262144 -1 -1 9800 1;
#N canvas 116 190 600 382 limiter2 0;
#X obj 7 14 inlet~;
#X obj 115 56 env~ 1024;
#X obj 115 78 moses;
#X obj 382 18 inlet thresh;
#X obj 238 19 iemguts/initbang;
#X obj 153 121 expr (($f1 - $f3) / $f2) - $f1 + $f3;
#X obj 153 143 expr 100 + $f1;
#X obj 153 165 dbtorms;
#X msg 116 124 1;
#X obj 115 100 bang;
#X obj 31 233 *~;
#X obj 92 222 line~;
#X obj 33 339 outlet~;
#X msg 317 76 10;
#X floatatom 74 79 5 0 0 0 - - -;
#X obj 379 86 dbtorms, f 15;
#X obj 379 108 expr 1/$f1;
#X obj 31 255 *~;
#X msg 243 52 6;
#X obj 33 165 z~ 1024;
#X obj 404 128 pow 0.85;
#X obj 379 152 adlib/smoother 10;
#X msg 112 195 \$1 5;
#X floatatom 153 187 5 0 0 0 - - -;
#X obj 521 16 inlet~;
#X obj 629 58 env~ 1024;
#X obj 629 80 moses;
#X obj 752 21 iemguts/initbang;
#X obj 667 123 expr (($f1 - $f3) / $f2) - $f1 + $f3;
#X obj 667 145 expr 100 + $f1;
#X obj 667 167 dbtorms;
#X msg 630 126 1;
#X obj 629 102 bang;
#X obj 545 235 *~;
#X obj 606 224 line~;
#X obj 547 341 outlet~;
#X msg 831 78 10;
#X floatatom 588 81 5 0 0 0 - - -;
#X obj 893 88 dbtorms, f 15;
#X obj 893 110 expr 1/$f1;
#X obj 545 257 *~;
#X msg 757 54 6;
#X obj 547 167 z~ 1024;
#X obj 918 130 pow 0.85;
#X obj 893 154 adlib/smoother 10;
#X msg 626 197 \$1 5;
#X floatatom 667 189 5 0 0 0 - - -;
#X obj 288 237 s \$0-limdispL;
#X obj 802 239 s \$0-limdispR;
#X msg 103 167 \$1 27;
#X msg 617 171 \$1 27;
#X connect 0 0 1 0;
#X connect 0 0 19 0;
#X connect 1 0 2 0;
#X connect 1 0 14 0;
#X connect 2 0 9 0;
#X connect 2 1 5 0;
#X connect 3 0 5 2;
#X connect 3 0 2 1;
#X connect 3 0 15 0;
#X connect 3 0 38 0;
#X connect 3 0 28 2;
#X connect 3 0 26 1;
#X connect 4 0 18 0;
#X connect 5 0 6 0;
#X connect 6 0 7 0;
#X connect 7 0 22 0;
#X connect 7 0 23 0;
#X connect 7 0 47 0;
#X connect 8 0 49 0;
#X connect 8 0 47 0;
#X connect 9 0 8 0;
#X connect 10 0 17 0;
#X connect 11 0 10 1;
#X connect 13 0 5 2;
#X connect 13 0 2 1;
#X connect 15 0 16 0;
#X connect 16 0 20 0;
#X connect 17 0 12 0;
#X connect 18 0 5 1;
#X connect 19 0 10 0;
#X connect 20 0 21 0;
#X connect 21 0 17 1;
#X connect 22 0 11 0;
#X connect 24 0 25 0;
#X connect 24 0 42 0;
#X connect 25 0 26 0;
#X connect 25 0 37 0;
#X connect 26 0 32 0;
#X connect 26 1 28 0;
#X connect 27 0 41 0;
#X connect 28 0 29 0;
#X connect 29 0 30 0;
#X connect 30 0 45 0;
#X connect 30 0 46 0;
#X connect 30 0 48 0;
#X connect 31 0 50 0;
#X connect 31 0 48 0;
#X connect 32 0 31 0;
#X connect 33 0 40 0;
#X connect 34 0 33 1;
#X connect 36 0 28 2;
#X connect 36 0 26 1;
#X connect 38 0 39 0;
#X connect 39 0 43 0;
#X connect 40 0 35 0;
#X connect 41 0 28 1;
#X connect 42 0 33 0;
#X connect 43 0 44 0;
#X connect 44 0 40 1;
#X connect 45 0 34 0;
#X connect 49 0 11 0;
#X connect 50 0 34 0;
#X restore 956 368 pd limiter2;
#X obj 688 199 vsl 8 200 0 1 0 0 \$0-foo \$0-limdispL empty 0 -9 0
10 -262144 -1 -1 19900 1;
#X obj 698 199 vsl 8 200 0 1 0 0 \$0-foo \$0-limdispR empty 0 -9 0
10 -262144 -1 -1 19900 1;
#X obj 973 349 r \$0-limitsnd;
#X obj 639 133 cnv 15 62 24 empty empty ------> 1 10 0 15 -215008 -249749
0;
#X obj 604 405 cnv 15 135 22 empty empty -------------> 1 10 0 15 -215008
-249749 0;
#X text 319 547 most presets will need to be activated by moving their
centricities;
#X obj 839 86 vsl 25 128 0 1 0 0 \$0-tremphasesnd \$0-tremphasercv
phase 0 -9 0 10 -262144 -1 -1 7350 1;
#X obj 633 228 vsl 25 200 0.01 10 1 0 \$0-echoauxsnd \$0-echoauxrcv
echo 0 -9 0 10 -262144 -1 -1 0 1;
#X obj 634 443 tgl 25 0 \$0-echomutesnd \$0-echomutercv empty 17 7
0 10 -262144 -1 -1 1 1;
#X obj 777 460 vsl 25 128 15 10000 1 0 \$0-deltimeLsnd \$0-deltimeLrcv
echoL 0 -9 0 10 -262144 -1 -1 12700 1;
#X obj 809 461 vsl 25 128 15 10000 1 0 \$0-deltimeRsnd \$0-deltimeRrcv
echoR 0 -9 0 10 -262144 -1 -1 12700 1;
#X obj 843 479 vsl 25 128 0 1 0 0 \$0-echofbsnd \$0-echofbrcv echofb
0 -9 0 10 -262144 -1 -1 12700 1;
#X obj 678 440 cnv 15 61 22 empty empty ---------> 1 10 0 15 -215008
-249749 0;
#X obj 954 87 tgl 50 1 \$0-onoff empty on/off 17 7 0 10 -262144 -1
-1 0 1;
#X text 75 668 be sure to save before you exit or your presets will
not be remembered!;
#X obj 956 404 hip~ 25;
#X obj 1019 404 hip~ 25;
#N canvas 610 302 728 519 looooop 0;
#X obj 191 166 r \$0-xcoordraw;
#X obj 187 219 sig~;
#X obj 418 196 delread~ \$0-xloop 5000;
#X obj 418 218 *~;
#X obj 108 120 tgl 25 0 \$0-loopbutton \$0-loopbuttonrcv R 10 11 0
10 -261039 -1 -1 0 1;
#X obj 495 136 tgl 25 0 empty empty empty 17 7 0 10 -262144 -1 -1 1
1;
#X obj 489 372 snapshot~;
#X obj 678 259 tgl 15 0 empty empty empty 17 7 0 10 -262144 -1 -1 0
1;
#X obj 211 282 *~;
#X obj 662 339 metro 10;
#X obj 634 149 sel 0;
#X msg 694 242 1;
#X msg 651 239 0;
#X obj 181 335 delwrite~ \$0-xloop 30000;
#X obj 130 25 key;
#X obj 130 47 sel 32;
#X obj 599 181 sel 1 0;
#X obj 678 179 timer;
#X obj 138 120 bng 25 250 50 0 \$0-clearbutton \$0-clearbuttonrcv clear
-2 -6 0 10 -166441 -1 -262144;
#X msg 329 369 flashtime 50 \$1;
#X msg 207 433 0;
#X obj 567 50 r \$0-loopbutton;
#X msg 40 406 color 4;
#X msg 102 406 color 1;
#X obj 178 386 delay;
#X obj 95 355 r \$0-clearbutton;
#X obj 60 438 s \$0-clearbuttonrcv;
#X msg 240 435 1;
#X floatatom 191 75 5 0 0 0 - - -;
#X obj 382 32 iemguts/initbang;
#X msg 427 88 1;
#X obj 512 441 outlet;
#X obj 289 111 inlet;
#X connect 0 0 1 0;
#X connect 1 0 8 0;
#X connect 2 0 3 0;
#X connect 3 0 6 0;
#X connect 3 0 13 0;
#X connect 5 0 3 1;
#X connect 6 0 31 0;
#X connect 7 0 9 0;
#X connect 8 0 13 0;
#X connect 9 0 6 0;
#X connect 11 0 7 0;
#X connect 12 0 7 0;
#X connect 14 0 15 0;
#X connect 14 0 28 0;
#X connect 15 0 4 0;
#X connect 16 0 12 0;
#X connect 16 0 17 0;
#X connect 16 1 11 0;
#X connect 16 1 17 1;
#X connect 17 0 2 0;
#X connect 17 0 19 0;
#X connect 17 0 24 1;
#X connect 20 0 5 0;
#X connect 20 0 7 0;
#X connect 21 0 8 1;
#X connect 21 0 16 0;
#X connect 22 0 26 0;
#X connect 23 0 26 0;
#X connect 24 0 23 0;
#X connect 24 0 27 0;
#X connect 25 0 20 0;
#X connect 25 0 24 0;
#X connect 25 0 22 0;
#X connect 27 0 5 0;
#X connect 29 0 30 0;
#X connect 30 0 5 0;
#X connect 32 0 1 0;
#X coords 0 -1 1 1 75 40 2 99 109;
#X restore 1219 257 pd looooop;
#X obj 1226 108 r \$0-cutoffsnd;
#X obj 1219 302 s \$0-cutoffrcv;
#X obj 883 480 vsl 25 128 50 14000 1 0 \$0-echolopsnd \$0-echoloprcv
echolop 0 -9 0 10 -262144 -1 -1 2200 1;
#X connect 5 0 43 0;
#X connect 5 1 43 2;
#X connect 13 0 41 0;
#X connect 43 0 59 0;
#X connect 43 1 60 0;
#X connect 46 0 43 1;
#X connect 59 0 9 0;
#X connect 59 0 6 0;
#X connect 60 0 10 0;
#X connect 60 0 6 1;
#X connect 61 0 63 0;
#X connect 62 0 61 0;
