#N canvas 5 24 1910 997 10;
#N canvas 0 0 450 300 (subpatch) 0;
#X array sample-L 4e+06 float 0 black black;
#X coords 0 1 4e+06 -1 1000 140 1;
#X restore 414 57 graph;
#N canvas 0 0 450 300 (subpatch) 0;
#X array sample-R 4e+06 float 0 black black;
#X coords 0 1 4e+06 -1 1000 140 1;
#X restore 418 227 graph;
#X obj 412 203 hsl 1000 15 0 1 0 0 empty progressbar empty -2 -8 0
10 -262144 -1 -1 46541 1;
#X obj 521 597 soundfiler;
#X obj 524 542 openpanel;
#X obj 531 469 bng 35 250 50 0 empty empty empty 17 7 0 10 -262144
-1 -1;
#X msg 524 567 read -resize \$1 sample-L sample-R;
#X msg 531 512 symbol /home/ada/Desktop;
#X obj 581 679 samplerate~;
#X obj 387 640 loadbang;
#X obj 454 627 bng 15 250 50 0 empty empty empty 17 7 0 10 -262144
-1 -1;
#X obj 519 716 /;
#X obj 519 741 * 1000;
#X obj 463 790 pack f f;
#X floatatom 577 630 5 0 0 0 - - -, f 5;
#X obj 503 628 t f f;
#X obj 463 815 s sampleinfo;
#X obj 416 372 hsl 1000 15 0 1 0 0 startpos empty empty -2 -8 0 10
-262144 -1 -1 43600 1;
#X obj 460 400 hsl 300 15 0 1 0 1 length lengthcontrol length -2 -8
0 10 -262144 -1 -1 11000 1;
#X obj 498 442 hradio 15 0 1 8 lengthmult empty empty 0 -8 0 10 -262144
-1 -1 4;
#X obj 569 859 adascope 0 25 1;
#X obj 461 421 hsl 300 15 1 500 0 1 decay empty decay -2 -8 0 10 -262144
-1 -1 10400 1;
#X obj 788 400 hsl 300 15 1 300 0 1 repeat empty repeat -2 -8 0 10
-262144 -1 -1 10500 1;
#X obj 786 424 hsl 300 15 0.2 50 1 1 speed empty speed -2 -8 0 10 -262144
-1 -1 9215 1;
#N canvas 5 24 1910 997 soundstuff 0;
#X obj 263 269 vline~;
#X obj 238 424 tabread4~ sample-L;
#X obj 377 425 tabread4~ sample-R;
#X obj 309 74 r sampleinfo;
#X msg 306 119 set \$1 \$2;
#X msg 243 240 0 0 \, \$1 \$2;
#X obj 219 132 bng 15 250 50 0 empty empty empty 17 7 0 10 -262144
-1 -1;
#X obj 456 323 /;
#X obj 403 294 snapshot~;
#X obj 462 249 loadbang;
#X obj 462 274 metro 10;
#X obj 404 147 unpack f f;
#X floatatom 403 319 5 0 0 0 - - -, f 5;
#X obj 673 97 tgl 15 0 empty empty empty 17 7 0 10 -262144 -1 -1 0
1;
#X obj 453 392 s progressbar;
#X obj 745 117 bng 50 250 50 0 empty empty empty 17 7 0 10 -262144
-1 -1;
#N canvas 5 24 1910 997 repeatbang 1;
#X obj 520 359 f;
#X obj 547 359 + 1;
#X obj 515 400 select 4;
#X msg 536 447 0;
#X obj 511 473 spigot;
#X obj 501 529 bng 15 250 50 0 empty empty empty 17 7 0 10 -262144
-1 -1;
#X msg 579 442 1;
#X obj 519 226 t b b b;
#X msg 612 299 0;
#X floatatom 454 391 5 0 0 0 - - -, f 5;
#X obj 519 277 delay 500;
#X obj 395 105 inlet bang;
#X obj 340 619 outlet bang;
#X obj 674 142 inlet repeat;
#X obj 970 125 inlet time;
#X obj 1111 195 inlet clear;
#X connect 0 0 1 0;
#X connect 0 0 2 0;
#X connect 0 0 9 0;
#X connect 1 0 0 1;
#X connect 2 0 3 0;
#X connect 2 1 4 0;
#X connect 3 0 4 1;
#X connect 4 0 5 0;
#X connect 5 0 10 0;
#X connect 5 0 12 0;
#X connect 6 0 4 1;
#X connect 7 0 0 0;
#X connect 7 1 8 0;
#X connect 7 2 6 0;
#X connect 8 0 0 1;
#X connect 10 0 0 0;
#X connect 11 0 7 0;
#X connect 13 0 2 1;
#X connect 14 0 10 1;
#X connect 15 0 3 0;
#X restore 748 327 pd repeatbang;
#X floatatom 799 216 5 0 0 0 - - -, f 5;
#X floatatom 869 215 5 1 500 0 - - -, f 5;
#X obj 252 372 +~;
#X obj 479 183 r startpos;
#X obj 326 294 *;
#X floatatom 348 337 10 0 0 0 - - -, f 10;
#X floatatom 479 208 5 0 0 0 - - -, f 5;
#X obj 219 300 clip~ 0 22100;
#X obj 751 399 s trigger;
#X obj 198 77 r trigger;
#X obj 869 239 clip 1 400;
#X obj 489 63 r length;
#X obj 496 113 *;
#X obj 496 138 /;
#X obj 580 100 r lengthmult;
#X obj 580 175 + 1;
#X floatatom 637 204 5 0 0 0 - - -, f 5;
#X obj 580 200 t b f;
#X floatatom 496 163 9 0 0 0 - - -, f 9;
#X obj 580 150 * 100;
#X obj 798 248 clip 1 400;
#X obj 237 500 *~;
#X obj 376 501 *~;
#X obj 284 342 sig~;
#X obj 331 241 f;
#X floatatom 346 368 10 0 0 0 - - -, f 10;
#X obj 541 264 / 44.1;
#X floatatom 541 289 5 0 0 0 - - -, f 5;
#X obj 104 505 vline~;
#X obj 979 241 bng 15 250 50 0 empty empty empty 17 7 0 10 -262144
-1 -1;
#X obj 56 486 print;
#X obj 82 367 r decay;
#X obj 90 431 f;
#X floatatom 42 457 5 0 0 0 - - -, f 5;
#X msg 105 470 1 1 \, 0 \$1 1;
#X obj 903 149 r repeat;
#X obj 817 115 bng 50 250 50 0 empty empty empty 17 7 0 10 -262144
-1 -1;
#X obj 598 398 vline~;
#X obj 667 238 *;
#X obj 688 210 t b f;
#X floatatom 680 276 5 0 0 0 - - -, f 5;
#X obj 930 -62 key;
#X obj 930 -13 sel 39 44 46;
#X obj 242 110 r speed;
#X msg 250 152 4e+06 90703;
#X obj 251 173 unpack f f;
#X obj 243 211 pack f f;
#X obj 308 196 / 1;
#X obj 903 174 int;
#X obj 258 600 outlet~;
#X obj 376 609 outlet~;
#X obj 621 255 f;
#X obj 712 27 r precession;
#X obj 599 319 pack f f;
#X msg 595 364 0 0 \, \$2 \$1 0 \, 0 0 \$1;
#X connect 0 0 24 0;
#X connect 1 0 38 0;
#X connect 2 0 39 0;
#X connect 3 0 4 0;
#X connect 3 0 11 0;
#X connect 4 0 61 0;
#X connect 5 0 0 0;
#X connect 6 0 61 0;
#X connect 6 0 41 0;
#X connect 6 0 49 0;
#X connect 7 0 14 0;
#X connect 8 0 7 0;
#X connect 8 0 12 0;
#X connect 9 0 10 0;
#X connect 10 0 8 0;
#X connect 11 0 21 1;
#X connect 11 0 29 1;
#X connect 11 0 7 1;
#X connect 13 0 10 0;
#X connect 15 0 16 0;
#X connect 16 0 25 0;
#X connect 17 0 37 0;
#X connect 18 0 27 0;
#X connect 19 0 8 0;
#X connect 19 0 1 0;
#X connect 19 0 2 0;
#X connect 20 0 23 0;
#X connect 20 0 41 1;
#X connect 21 0 22 0;
#X connect 21 0 40 0;
#X connect 21 0 42 0;
#X connect 24 0 19 0;
#X connect 26 0 6 0;
#X connect 27 0 16 2;
#X connect 27 0 56 0;
#X connect 28 0 29 0;
#X connect 29 0 30 0;
#X connect 30 0 24 2;
#X connect 30 0 35 0;
#X connect 30 0 43 0;
#X connect 31 0 36 0;
#X connect 32 0 33 0;
#X connect 32 0 34 0;
#X connect 34 0 30 0;
#X connect 34 1 30 1;
#X connect 36 0 32 0;
#X connect 37 0 16 1;
#X connect 37 0 55 0;
#X connect 38 0 66 0;
#X connect 39 0 67 0;
#X connect 40 0 19 1;
#X connect 41 0 21 0;
#X connect 43 0 44 0;
#X connect 43 0 27 0;
#X connect 45 0 39 1;
#X connect 45 0 38 1;
#X connect 46 0 16 3;
#X connect 48 0 49 1;
#X connect 49 0 51 0;
#X connect 49 0 50 0;
#X connect 51 0 45 0;
#X connect 52 0 65 0;
#X connect 53 0 16 0;
#X connect 53 0 55 0;
#X connect 53 0 68 0;
#X connect 54 0 19 1;
#X connect 55 0 57 0;
#X connect 55 0 68 1;
#X connect 56 0 55 0;
#X connect 56 1 55 1;
#X connect 58 0 59 0;
#X connect 59 0 15 0;
#X connect 59 1 53 0;
#X connect 59 2 46 0;
#X connect 60 0 64 1;
#X connect 61 0 62 0;
#X connect 62 0 63 0;
#X connect 62 1 64 0;
#X connect 63 0 5 0;
#X connect 64 0 63 1;
#X connect 65 0 37 0;
#X connect 68 0 70 0;
#X connect 69 0 70 1;
#X connect 70 0 71 0;
#X connect 71 0 54 0;
#X restore 980 540 pd soundstuff;
#X obj 1079 641 delaypanel 0 1 543.833 0.285224 1571.89 0.0504043 2.17194
1 1 0;
#X obj 1084 847 output;
#X obj 1112 406 hsl 300 15 22100 441000 1 1 precession empty precession
-2 -8 0 10 -262144 -1 -1 22400 1;
#X obj 126 423 key;
#X obj 146 491 sel 97 111 101;
#X obj 123 530 hsl 300 15 0 1 0 0 lengthcontrol empty length -2 -8
0 10 -262144 -1 -1 5400 1;
#X obj 122 557 hsl 300 15 0 1 0 0 lengthcontrol empty length -2 -8
0 10 -262144 -1 -1 11000 1;
#X obj 125 587 hsl 300 15 0 1 0 0 lengthcontrol empty length -2 -8
0 10 -262144 -1 -1 24700 1;
#X obj 839 482 bng 15 250 50 0 empty empty empty 17 7 0 10 -262144
-1 -1;
#X msg 839 505 1;
#X connect 3 0 14 0;
#X connect 3 0 15 0;
#X connect 4 0 6 0;
#X connect 5 0 7 0;
#X connect 6 0 3 0;
#X connect 7 0 4 0;
#X connect 8 0 11 1;
#X connect 9 0 8 0;
#X connect 10 0 8 0;
#X connect 11 0 12 0;
#X connect 12 0 13 1;
#X connect 13 0 16 0;
#X connect 15 0 13 0;
#X connect 15 1 11 0;
#X connect 24 0 25 0;
#X connect 24 1 25 1;
#X connect 25 0 26 0;
#X connect 25 1 26 1;
#X connect 28 0 29 0;
#X connect 29 0 30 0;
#X connect 29 1 31 0;
#X connect 29 2 32 0;
#X connect 33 0 34 0;
#X connect 34 0 23 0;
