#N canvas 5 24 1910 997 10;
#X obj 1441 56 output;
#X obj 1440 -120 mixer4 0.163487 0.01 0.01 0.01 -6 0 0 0 1 0 0 0 1
0;
#X obj 248 870 bus 1;
#N canvas 0 0 450 300 (subpatch) 0;
#X array \$0-sampleL 4e+06 float 0 black black;
#X coords 0 1 4e+06 -1 200 140 1;
#X restore 319 -693 graph;
#X obj 597 -68 tabread4~ \$0-sampleL;
#N canvas 0 0 450 300 (subpatch) 0;
#X array \$0-sampleR 4e+06 float 0 black black;
#X coords 0 1 4e+06 -1 200 140 1;
#X restore 319 -551 graph;
#X obj 665 -43 tabread4~ \$0-sampleR;
#X obj 365 -311 tgl 50 0 empty empty empty 17 7 0 10 -262144 -1 -1
0 1;
#X obj 420 -311 tgl 50 0 empty empty empty 17 7 0 10 -262144 -1 -1
0 1;
#X obj 475 -311 tgl 50 0 empty empty empty 17 7 0 10 -262144 -1 -1
0 1;
#X obj 530 -311 tgl 50 0 empty empty empty 17 7 0 10 -262144 -1 -1
0 1;
#X obj 1177 -579 soundfiler;
#X obj 1194 -679 bng 15 250 50 0 empty empty empty 17 7 0 10 -262144
-1 -1;
#X obj 1194 -656 openpanel;
#X msg 1194 -631 read -resize \$1 \$0-sampleL \$0-sampleR;
#X floatatom 1322 -582 5 0 0 0 - - -, f 5;
#X obj 1177 -282 t b f;
#X obj 1177 -232 /;
#X obj 1176 -176 phasor~;
#X obj 1176 -151 *~ 1;
#X msg 1177 -257 44100;
#X obj 1177 -207 *;
#X obj 639 -559 vsl 30 128 0.01 10 1 1 empty empty speed 0 -9 0 10
-262144 -1 -1 12700 1;
#X obj 1041 -338 t b f;
#X obj 467 -207 sel 1 0;
#X msg 433 -98 5.81102;
#X obj 665 -18 *~;
#X obj 597 -43 *~;
#X msg 475 -106 1;
#X msg 502 -144 0;
#X obj 601 -560 vsl 30 128 0 41 0 1 empty empty start 0 -9 0 10 -262144
-1 -1 1800 1;
#X obj 190 -352 key;
#X floatatom 190 -327 5 0 0 0 - - -, f 5;
#X obj 235 -369 sel 39 44 46 112;
#X msg 406 -144 set \$1;
#X obj 597 -18 *~;
#X obj 665 7 *~;
#X obj 676 -560 vsl 30 128 0 1 0 1 empty empty vol 0 -9 0 10 -262144
-1 -1 9300 1;
#X obj 682 -417 smoother 50;
#X obj 223 -272 keyup;
#X obj 223 -247 sel 39 44 46 112;
#X msg 223 -222 0;
#X msg 235 -344 1;
#X obj 639 -418 - 0.01;
#X obj 1240 -286 t b f;
#X obj 1240 -236 /;
#X obj 1239 -180 phasor~;
#X obj 1239 -155 *~ 1;
#X msg 1240 -261 44100;
#X obj 1240 -211 *;
#X obj 1309 -288 t b f;
#X obj 1309 -238 /;
#X obj 1308 -182 phasor~;
#X obj 1308 -157 *~ 1;
#X msg 1309 -263 44100;
#X obj 1309 -213 *;
#X obj 1368 -286 t b f;
#X obj 1368 -236 /;
#X obj 1367 -180 phasor~;
#X obj 1367 -155 *~ 1;
#X msg 1368 -261 44100;
#X obj 1368 -211 *;
#X obj 797 -71 tabread4~ \$0-sampleL;
#X obj 865 -46 tabread4~ \$0-sampleR;
#X obj 865 -21 *~;
#X obj 797 -46 *~;
#X obj 797 -21 *~;
#X obj 865 4 *~;
#X obj 1001 -75 tabread4~ \$0-sampleL;
#X obj 1069 -50 tabread4~ \$0-sampleR;
#X obj 1069 -25 *~;
#X obj 1001 -50 *~;
#X obj 1001 -25 *~;
#X obj 1069 0 *~;
#X obj 1199 -80 tabread4~ \$0-sampleL;
#X obj 1267 -55 tabread4~ \$0-sampleR;
#X obj 1267 -30 *~;
#X obj 1199 -55 *~;
#X obj 1199 -30 *~;
#X obj 1267 -5 *~;
#X msg 264 -345 1;
#X msg 295 -345 1;
#X msg 324 -346 1;
#X obj 721 -252 sel 1 0;
#X msg 687 -143 17.5428;
#X msg 729 -151 1;
#X msg 756 -189 0;
#X msg 660 -189 set \$1;
#X obj 781 -560 vsl 30 128 0.01 10 1 1 empty empty speed 0 -9 0 10
-262144 -1 -1 12700 1;
#X obj 743 -561 vsl 30 128 0 41 0 1 empty empty start 0 -9 0 10 -262144
-1 -1 5434 1;
#X obj 818 -561 vsl 30 128 0 1 0 1 empty empty vol 0 -9 0 10 -262144
-1 -1 8800 1;
#X obj 824 -418 smoother 50;
#X obj 781 -419 - 0.01;
#X obj 921 -562 vsl 30 128 0.01 10 1 1 empty empty speed 0 -9 0 10
-262144 -1 -1 10400 1;
#X obj 883 -563 vsl 30 128 0 41 0 1 empty empty start 0 -9 0 10 -262144
-1 -1 9000 1;
#X obj 958 -563 vsl 30 128 0 1 0 1 empty empty vol 0 -9 0 10 -262144
-1 -1 10450 1;
#X obj 964 -420 smoother 50;
#X obj 921 -421 - 0.01;
#X obj 1073 -562 vsl 30 128 0.01 10 1 1 empty empty speed 0 -9 0 10
-262144 -1 -1 9500 1;
#X obj 1035 -563 vsl 30 128 0 41 0 1 empty empty start 0 -9 0 10 -262144
-1 -1 7750 1;
#X obj 1110 -563 vsl 30 128 0 1 0 1 empty empty vol 0 -9 0 10 -262144
-1 -1 10200 1;
#X obj 1116 -420 smoother 50;
#X obj 1073 -421 - 0.01;
#X obj 918 -242 sel 1 0;
#X msg 926 -141 1;
#X msg 953 -179 0;
#X msg 857 -179 set \$1;
#X obj 1077 -236 sel 1 0;
#X msg 1043 -127 25.0197;
#X msg 1085 -135 1;
#X msg 1112 -173 0;
#X msg 1016 -173 set \$1;
#X msg 884 -133 29.0551;
#X msg 252 -222 0;
#X msg 281 -220 0;
#X msg 310 -220 0;
#X obj 1095 -339 t b f;
#X obj 1161 -335 t b f;
#X obj 1215 -336 t b f;
#X obj 674 70 lop~ 20000;
#X obj 802 67 lop~ 20000;
#X obj 674 95 bus 1;
#X connect 1 0 0 0;
#X connect 1 1 0 1;
#X connect 4 0 27 0;
#X connect 6 0 26 0;
#X connect 7 0 24 0;
#X connect 8 0 83 0;
#X connect 9 0 103 0;
#X connect 10 0 107 0;
#X connect 11 0 15 0;
#X connect 11 0 16 0;
#X connect 11 0 19 1;
#X connect 11 0 44 0;
#X connect 11 0 56 0;
#X connect 11 0 50 0;
#X connect 11 0 47 1;
#X connect 11 0 59 1;
#X connect 11 0 53 1;
#X connect 12 0 13 0;
#X connect 13 0 14 0;
#X connect 14 0 11 0;
#X connect 16 0 20 0;
#X connect 16 1 17 1;
#X connect 17 0 21 0;
#X connect 18 0 19 0;
#X connect 19 0 6 0;
#X connect 19 0 4 0;
#X connect 20 0 17 0;
#X connect 21 0 18 0;
#X connect 22 0 43 0;
#X connect 23 0 20 0;
#X connect 23 1 21 1;
#X connect 24 0 25 0;
#X connect 24 0 28 0;
#X connect 24 1 29 0;
#X connect 25 0 18 1;
#X connect 26 0 36 0;
#X connect 27 0 35 0;
#X connect 28 0 27 1;
#X connect 28 0 26 1;
#X connect 29 0 27 1;
#X connect 29 0 26 1;
#X connect 30 0 34 0;
#X connect 31 0 32 0;
#X connect 31 0 33 0;
#X connect 33 0 42 0;
#X connect 33 1 80 0;
#X connect 33 2 81 0;
#X connect 33 3 82 0;
#X connect 34 0 25 0;
#X connect 35 0 119 0;
#X connect 36 0 120 0;
#X connect 37 0 38 0;
#X connect 38 0 36 1;
#X connect 38 0 35 1;
#X connect 39 0 40 0;
#X connect 40 0 41 0;
#X connect 40 1 113 0;
#X connect 40 2 114 0;
#X connect 40 3 115 0;
#X connect 41 0 7 0;
#X connect 42 0 7 0;
#X connect 43 0 23 0;
#X connect 44 0 48 0;
#X connect 44 1 45 1;
#X connect 45 0 49 0;
#X connect 46 0 47 0;
#X connect 47 0 63 0;
#X connect 47 0 62 0;
#X connect 48 0 45 0;
#X connect 49 0 46 0;
#X connect 50 0 54 0;
#X connect 50 1 51 1;
#X connect 51 0 55 0;
#X connect 52 0 53 0;
#X connect 53 0 69 0;
#X connect 53 0 68 0;
#X connect 54 0 51 0;
#X connect 55 0 52 0;
#X connect 56 0 60 0;
#X connect 56 1 57 1;
#X connect 57 0 61 0;
#X connect 58 0 59 0;
#X connect 59 0 75 0;
#X connect 59 0 74 0;
#X connect 60 0 57 0;
#X connect 61 0 58 0;
#X connect 62 0 65 0;
#X connect 63 0 64 0;
#X connect 64 0 67 0;
#X connect 65 0 66 0;
#X connect 66 0 119 0;
#X connect 67 0 120 0;
#X connect 68 0 71 0;
#X connect 69 0 70 0;
#X connect 70 0 73 0;
#X connect 71 0 72 0;
#X connect 72 0 119 0;
#X connect 73 0 120 0;
#X connect 74 0 77 0;
#X connect 75 0 76 0;
#X connect 76 0 79 0;
#X connect 77 0 78 0;
#X connect 78 0 119 0;
#X connect 79 0 120 0;
#X connect 80 0 8 0;
#X connect 81 0 9 0;
#X connect 82 0 10 0;
#X connect 83 0 84 0;
#X connect 83 0 85 0;
#X connect 83 1 86 0;
#X connect 84 0 46 1;
#X connect 85 0 65 1;
#X connect 85 0 64 1;
#X connect 86 0 65 1;
#X connect 86 0 64 1;
#X connect 87 0 84 0;
#X connect 88 0 92 0;
#X connect 89 0 87 0;
#X connect 90 0 91 0;
#X connect 91 0 66 1;
#X connect 91 0 67 1;
#X connect 92 0 116 0;
#X connect 93 0 97 0;
#X connect 94 0 106 0;
#X connect 95 0 96 0;
#X connect 96 0 72 1;
#X connect 96 0 73 1;
#X connect 97 0 117 0;
#X connect 98 0 102 0;
#X connect 99 0 111 0;
#X connect 100 0 101 0;
#X connect 101 0 78 1;
#X connect 101 0 79 1;
#X connect 102 0 118 0;
#X connect 103 0 112 0;
#X connect 103 0 104 0;
#X connect 103 1 105 0;
#X connect 104 0 71 1;
#X connect 104 0 70 1;
#X connect 105 0 70 1;
#X connect 105 0 71 1;
#X connect 106 0 112 0;
#X connect 107 0 108 0;
#X connect 107 0 109 0;
#X connect 107 1 110 0;
#X connect 108 0 58 1;
#X connect 109 0 77 1;
#X connect 109 0 76 1;
#X connect 110 0 77 1;
#X connect 110 0 76 1;
#X connect 111 0 108 0;
#X connect 112 0 52 1;
#X connect 113 0 8 0;
#X connect 114 0 9 0;
#X connect 115 0 10 0;
#X connect 116 0 48 0;
#X connect 116 1 49 1;
#X connect 117 0 54 0;
#X connect 117 1 55 1;
#X connect 118 0 60 0;
#X connect 118 1 61 1;
#X connect 119 0 121 0;
#X connect 120 0 121 1;
