#N canvas 150 26 801 490 10;
#X obj 102 102 cnv 15 146 31 empty empty empty 20 12 0 14 -261931 -66577
0;
#X obj 290 71 inlet~;
#X obj 404 70 inlet~;
#X obj 294 288 outlet~;
#X obj 415 286 outlet~;
#X obj 544 268 pdlua;
#X msg 548 226 load hipper.pd_lua;
#N canvas 710 73 450 300 \$0-hips 0;
#X obj 102 29 inlet~;
#X obj 223 30 inlet~;
#X obj 99 235 outlet~;
#X obj 237 236 outlet~;
#N canvas 0 23 676 567 \$0-hipL 0;
#X obj 10 10 inlet~;
#X obj 10 40 hip~;
#X obj 10 65 hip~;
#X obj 10 90 hip~;
#X obj 10 115 outlet~;
#X obj 60 10 inlet;
#X connect 0 0 1 0;
#X connect 1 0 2 0;
#X connect 2 0 3 0;
#X connect 3 0 4 0;
#X connect 5 0 1 1;
#X connect 5 0 2 1;
#X connect 5 0 3 1;
#X restore 112 115 pd \$0-hipL;
#N canvas 0 23 450 300 \$0-hipR 0;
#X obj 10 10 inlet~;
#X obj 10 40 hip~;
#X obj 10 65 hip~;
#X obj 10 90 hip~;
#X obj 10 115 outlet~;
#X obj 60 10 inlet;
#X connect 0 0 1 0;
#X connect 1 0 2 0;
#X connect 2 0 3 0;
#X connect 3 0 4 0;
#X connect 5 0 1 1;
#X connect 5 0 2 1;
#X connect 5 0 3 1;
#X restore 221 116 pd \$0-hipR;
#X obj 332 30 inlet control;
#X connect 0 0 4 0;
#X connect 1 0 5 0;
#X connect 4 0 2 0;
#X connect 5 0 3 0;
#X connect 6 0 4 1;
#X connect 6 0 5 1;
#X restore 307 188 pd \$0-hips;
#X obj 108 104 hsl 135 15 10 9000 1 0 \$0-cutoffsnd \$0-cutoffrcv cutoff 33.8157
20 7 0 10 -261923 -260527 -1 2400 1;
#X obj 108 121 hsl 135 10 1 10 0 0 \$0-numsnd \$0-numrcv num 3 20
5 0 10 -260991 -230784 -1 3700 1;
#N canvas 701 89 450 300 numhips 0;
#X obj 298 88 hipper;
#X obj 298 109 list trim;
#X obj 297 158 s pd-\$0-hipL;
#X obj 317 179 s pd-\$0-hipR;
#X obj 35 264 s pd-\$0-hips;
#X msg 30 217 connect 0 0 4 0 \, connect 4 0 2 0 \, connect 1 0 5 0
\, connect 5 0 3 0 \, connect 6 0 4 1 \, connect 6 0 5 1;
#X obj 200 24 r \$0-numsnd;
#X obj 198 135 s \$0-numrcv;
#X obj 198 53 int;
#X msg 198 108 label num \$1;
#X obj 274 59 t b f;
#X msg 358 50 4;
#X connect 0 0 1 0;
#X connect 1 0 2 0;
#X connect 1 0 3 0;
#X connect 5 0 4 0;
#X connect 6 0 8 0;
#X connect 8 0 9 0;
#X connect 8 0 10 0;
#X connect 9 0 7 0;
#X connect 10 0 5 0;
#X connect 10 1 0 0;
#X connect 11 0 0 0;
#X restore 647 306 pd numhips;
#X obj 420 131 r \$0-cutoffsnd;
#N canvas 0 23 450 300 state_saving 0;
#X obj 102 48 r \$0-cutoffsnd;
#X obj 136 75 r \$0-numsnd;
#X obj 103 180 outlet;
#X obj 103 161 pack \$1 f f;
#X obj 103 121 cyclone/bondo 3;
#X connect 0 0 4 1;
#X connect 1 0 4 2;
#X connect 3 0 2 0;
#X connect 4 0 3 0;
#X connect 4 1 3 1;
#X connect 4 2 3 2;
#X restore 90 181 pd state_saving;
#X obj 90 202 canvasargs;
#N canvas 0 23 450 300 state_loading 0;
#X obj 117 49 pack \$1 \$2 \$3;
#X obj 117 70 unpack f f f;
#X obj 123 109 s \$0-cutoffrcv;
#X obj 123 130 s \$0-numrcv;
#X obj 116 10 loadbang;
#X connect 0 0 1 0;
#X connect 1 1 2 0;
#X connect 1 2 3 0;
#X connect 4 0 0 0;
#X restore 94 251 pd state_loading;
#X obj 569 124 loadbang;
#X obj 270 404 hip~;
#X msg 468 398 label cutoff \$1;
#X obj 468 425 s \$0-cutoffrcv;
#X obj 467 363 r \$0-cutoffsnd;
#X connect 1 0 7 0;
#X connect 2 0 7 1;
#X connect 6 0 5 0;
#X connect 7 0 3 0;
#X connect 7 1 4 0;
#X connect 11 0 7 2;
#X connect 12 0 13 0;
#X connect 15 0 6 0;
#X connect 17 0 18 0;
#X connect 19 0 17 0;
#X coords 0 -1 1 1 150 35 2 100 100;
