#N canvas 239 184 813 410 10;
#X obj 178 106 hsl 64 15 0.5 1 0 0 \$0-widthsnd \$0-widthrcv empty
-2 -8 0 10 -259948 -261978 -1 0 1;
#X obj 109 106 hsl 64 15 -1 -0.5 0 0 \$0-width2snd \$0-width2rcv empty
-2 -8 0 10 -259881 -253324 -1 6300 1;
#X obj 293 50 inlet~ L;
#X obj 497 56 inlet~ R;
#X obj 386 55 inlet~ width;
#X obj 151 181 r \$0-widthsnd;
#X obj 151 203 * -1;
#X obj 151 225 s \$0-width2rcv;
#X obj 294 304 *~;
#X obj 488 310 *~;
#X obj 293 369 outlet~;
#X obj 449 374 outlet~;
#X obj 553 116 r \$0-widthsnd;
#X obj 353 305 *~;
#X obj 441 307 *~;
#X obj 553 138 smoother 15;
#X obj 411 213 expr~ 1-$v1;
#X obj 535 162 +~;
#X obj 535 184 clip~ 0.5 1;
#X obj 385 88 *~ 0.5;
#N canvas 401 138 450 300 state_saving 0;
#X obj 173 204 outlet;
#X msg 287 76 load savestate.pd_lua;
#X obj 287 98 pdlua;
#X obj 123 125 savestate \$0-index \$0-width;
#X obj 155 90 pack \$1 \$2;
#X obj 287 54 initbang;
#X connect 1 0 2 0;
#X connect 3 0 0 0;
#X connect 4 0 3 0;
#X connect 5 0 1 0;
#X connect 5 0 4 0;
#X restore 106 288 pd state_saving;
#X obj 106 310 canvasargs;
#X floatatom 73 181 5 0 0 0 index #0-indexrcv #0-indexsnd, f 5;
#X connect 2 0 13 0;
#X connect 2 0 8 0;
#X connect 3 0 14 0;
#X connect 3 0 9 0;
#X connect 4 0 19 0;
#X connect 5 0 6 0;
#X connect 6 0 7 0;
#X connect 8 0 10 0;
#X connect 9 0 11 0;
#X connect 12 0 15 0;
#X connect 13 0 11 0;
#X connect 14 0 10 0;
#X connect 15 0 17 0;
#X connect 16 0 13 1;
#X connect 16 0 14 1;
#X connect 17 0 18 0;
#X connect 18 0 16 0;
#X connect 18 0 9 1;
#X connect 18 0 8 1;
#X connect 19 0 17 1;
#X connect 20 0 21 0;
#X coords 0 -1 1 1 150 25 2 100 100;
