#N canvas 0 22 450 300 10;
#X obj 126 65 inlet bangs;
#X obj 237 66 inlet reset;
#X obj 128 244 outlet;
#X obj 140 142 f 0;
#X obj 201 141 + 1;
#X obj 150 183 mod \$1;
#X obj 237 88 route reset;
#X msg 237 110 0;
#X obj 339 109 r allsequencers;
#X connect 0 0 3 0;
#X connect 1 0 6 0;
#X connect 3 0 4 0;
#X connect 3 0 5 0;
#X connect 4 0 3 1;
#X connect 5 0 2 0;
#X connect 6 0 7 0;
#X connect 6 1 3 1;
#X connect 7 0 3 1;
#X connect 8 0 3 1;
