#N canvas 94 88 801 452 16;
#X obj 234 262 +~;
#X obj 252 233 line~;
#X obj 356 246 snapshot~;
#X obj 323 69 t b b;
#X obj 252 149 line~;
#X obj 234 171 *~;
#X obj 324 32 inlet;
#X obj 234 353 outlet~;
#X obj 235 37 inlet~;
#X text 323 208 try adjusting 3rd argument '10' to another value;
#X text 351 126 try adjusting 3rd argument '5' to another value;
#X msg 252 124 0 \, 1 4;
#X msg 252 208 \$1 \, 0 10;
#X connect 0 0 2 0;
#X connect 0 0 7 0;
#X connect 1 0 0 1;
#X connect 2 0 12 0;
#X connect 3 0 11 0;
#X connect 3 1 2 0;
#X connect 4 0 5 1;
#X connect 5 0 0 0;
#X connect 6 0 3 0;
#X connect 8 0 5 0;
#X connect 11 0 4 0;
#X connect 12 0 1 0;
