#N canvas 0 22 677 325 10;
#X obj 65 42 inlet~;
#X obj 135 43 inlet~;
#X obj 275 42 inlet~;
#X obj 110 188 *~;
#X obj 145 189 *~;
#X obj 275 188 *~;
#X obj 184 152 smoother 20;
#X obj 291 150 smoother 20;
#X obj 110 253 outlet~;
#X obj 406 23 inlet;
#X obj 406 45 sel 0 1 2;
#X msg 407 68 1 0 0;
#X msg 450 67 0 1 0;
#X msg 492 68 0 0 1;
#X obj 407 90 unpack f f f;
#X obj 375 163 smoother 20;
#X connect 0 0 3 0;
#X connect 1 0 4 0;
#X connect 2 0 5 0;
#X connect 3 0 8 0;
#X connect 4 0 8 0;
#X connect 5 0 8 0;
#X connect 6 0 3 1;
#X connect 7 0 4 1;
#X connect 9 0 10 0;
#X connect 10 0 11 0;
#X connect 10 1 12 0;
#X connect 10 2 13 0;
#X connect 11 0 14 0;
#X connect 12 0 14 0;
#X connect 13 0 14 0;
#X connect 14 0 6 0;
#X connect 14 1 7 0;
#X connect 14 2 15 0;
#X connect 15 0 5 1;
