#N canvas 460 140 626 362 10;
#X obj 118 239 outlet bangs;
#X obj 23 24 inlet toggle;
#X obj 233 56 inlet control;
#X obj 233 78 route time swing list;
#X obj 225 154 expr $f1 * (1+$f2) \; $f1 * (1-$f2);
#X obj 225 189 pack f f;
#X obj 132 81 loadbang;
#X msg 132 103 mode sequence;
#X obj 379 100 loadbang;
#X msg 379 122 0;
#X obj 283 122 t b f;
#X obj 419 169 pdlua;
#X msg 427 132 load listmultiply.pd_lua;
#X obj 269 239 listmultiply;
#X obj 92 139 f;
#X obj 222 119 t b f;
#X msg 49 136 start;
#X msg 507 156 load luametro.pd_lua;
#X obj 118 179 luametro;
#X obj 24 46 route float start stop reset;
#X msg 43 190 reset;
#X connect 1 0 19 0;
#X connect 2 0 3 0;
#X connect 3 0 13 1;
#X connect 3 0 15 0;
#X connect 3 1 10 0;
#X connect 3 2 13 0;
#X connect 4 0 5 0;
#X connect 4 1 5 1;
#X connect 5 0 18 1;
#X connect 6 0 7 0;
#X connect 7 0 18 0;
#X connect 8 0 9 0;
#X connect 8 0 12 0;
#X connect 8 0 17 0;
#X connect 9 0 4 1;
#X connect 10 0 4 0;
#X connect 10 1 4 1;
#X connect 12 0 11 0;
#X connect 13 0 18 1;
#X connect 14 0 18 0;
#X connect 15 0 14 0;
#X connect 15 1 4 0;
#X connect 16 0 18 0;
#X connect 17 0 11 0;
#X connect 18 0 0 0;
#X connect 19 0 14 0;
#X connect 19 1 16 0;
#X connect 19 3 20 0;
#X connect 20 0 18 0;
