#N canvas 268 212 450 300 10;
#X obj 114 197 outlet~;
#X obj 244 199 outlet~;
#X obj 113 163 *~;
#X obj 244 170 *~;
#X obj 309 32 inlet pan;
#X obj 119 58 inlet~ sig;
#X obj 308 98 expr 1-$f1;
#X obj 142 126 smoother 15;
#X obj 279 133 smoother 15;
#X obj 309 54 + 1;
#X obj 309 76 * 0.5;
#X connect 2 0 0 0;
#X connect 3 0 1 0;
#X connect 4 0 9 0;
#X connect 5 0 2 0;
#X connect 5 0 3 0;
#X connect 6 0 8 0;
#X connect 7 0 2 1;
#X connect 8 0 3 1;
#X connect 9 0 10 0;
#X connect 10 0 6 0;
#X connect 10 0 7 0;
