#N canvas 0 22 790 326 10;
#X obj 65 42 inlet~;
#X obj 135 43 inlet~;
#X obj 198 43 inlet~;
#X obj 110 188 *~;
#X obj 145 189 *~;
#X obj 178 189 *~;
#X obj 110 253 outlet~;
#X obj 406 3 inlet;
#X obj 248 43 inlet~;
#X obj 228 189 *~;
#X obj 298 43 inlet~;
#X obj 278 189 *~;
#X obj 407 90 unpack f f f f f;
#X msg 372 69 1 0 0 0 0;
#X msg 450 67 0 1 0 0 0;
#X msg 528 68 0 0 1 0 0;
#X msg 596 71 0 0 0 1 0;
#X msg 669 73 0 0 0 0 1;
#X obj 406 25 sel 0 1 2 3 4;
#X obj 343 125 smoother 10;
#X obj 356 145 smoother 10;
#X obj 367 163 smoother 10;
#X obj 456 125 smoother 10;
#X obj 467 143 smoother 10;
#X connect 0 0 3 0;
#X connect 1 0 4 0;
#X connect 2 0 5 0;
#X connect 3 0 6 0;
#X connect 4 0 6 0;
#X connect 5 0 6 0;
#X connect 7 0 18 0;
#X connect 8 0 9 0;
#X connect 9 0 6 0;
#X connect 10 0 11 0;
#X connect 11 0 6 0;
#X connect 12 0 19 0;
#X connect 12 1 20 0;
#X connect 12 2 21 0;
#X connect 12 3 22 0;
#X connect 12 4 23 0;
#X connect 13 0 12 0;
#X connect 14 0 12 0;
#X connect 15 0 12 0;
#X connect 16 0 12 0;
#X connect 17 0 12 0;
#X connect 18 0 13 0;
#X connect 18 1 14 0;
#X connect 18 2 15 0;
#X connect 18 3 16 0;
#X connect 18 4 17 0;
#X connect 19 0 3 1;
#X connect 20 0 4 1;
#X connect 21 0 5 1;
#X connect 22 0 9 1;
#X connect 23 0 11 1;
