#N canvas 271 284 450 300 10;
#X obj 114 197 outlet~;
#X obj 244 199 outlet~;
#X obj 113 163 *~;
#X obj 244 170 *~;
#X obj 119 58 inlet~ sig;
#X obj 309 98 expr~ 1-$v1;
#X obj 307 -5 inlet~ pan;
#X obj 308 17 +~ 1;
#X obj 309 39 *~ 0.5;
#X obj 309 61 clip~ 0 1;
#X connect 2 0 0 0;
#X connect 3 0 1 0;
#X connect 4 0 2 0;
#X connect 4 0 3 0;
#X connect 5 0 3 1;
#X connect 6 0 7 0;
#X connect 7 0 8 0;
#X connect 8 0 9 0;
#X connect 9 0 5 0;
#X connect 9 0 2 1;
