#N canvas 79 53 1280 685 10;
#X obj 83 72 inlet~;
#X obj 134 569 outlet~;
#X obj 166 416 vline~;
#X obj 135 453 *~;
#X obj 145 79 inlet;
#X obj 145 114 select 0;
#X msg 320 215 0 2;
#X msg 404 191 set 0 \$1;
#X obj 170 154 / 127;
#X msg 166 367 \$1 0 \, \$2 228.168 0;
#X msg 259 158 set \, adddollar 1 \, add2 \$1 \, addcomma \, adddollar
2 \, add2 \$2 \$1;
#X obj 170 187 t f f;
#X obj 165 291 pack 0 0;
#X obj 200 211 *;
#X obj 210 51 unpack f f f f;
#X obj 216 29 inlet;
#X obj 167 315 t l b;
#X obj 208 326 spigot;
#X obj 373 308 f \$2;
#X msg 195 348 0 2;
#X obj 233 130 pack 0 0;
#X obj 273 193 t b b;
#X msg 270 236 stop;
#X obj 234 480 lop~ 400;
#X obj 371 274 initbang;
#X obj 436 280 loadbang;
#X connect 0 0 3 0;
#X connect 2 0 23 0;
#X connect 3 0 1 0;
#X connect 4 0 5 0;
#X connect 5 0 21 0;
#X connect 5 1 8 0;
#X connect 6 0 2 0;
#X connect 7 0 6 0;
#X connect 8 0 11 0;
#X connect 9 0 2 0;
#X connect 10 0 9 0;
#X connect 11 0 12 0;
#X connect 11 1 13 0;
#X connect 12 0 16 0;
#X connect 13 0 12 1;
#X connect 14 0 20 0;
#X connect 14 1 20 1;
#X connect 14 2 13 1;
#X connect 14 3 7 0;
#X connect 15 0 14 0;
#X connect 16 0 9 0;
#X connect 16 1 17 0;
#X connect 17 0 19 0;
#X connect 18 0 17 1;
#X connect 19 0 2 0;
#X connect 20 0 10 0;
#X connect 21 0 6 0;
#X connect 21 1 22 0;
#X connect 22 0 2 0;
#X connect 23 0 3 1;
#X connect 24 0 18 0;
#X connect 25 0 18 0;
