#N canvas 603 338 288 264 10;
#X obj 56 154 arduino;
#X obj 56 181 route digital;
#X obj 74 234 outlet;
#X obj 72 37 unpack f f f;
#X obj 118 63 t f f;
#X msg 129 92 pinMode \$1 input;
#X msg 16 86 digital \$1 1;
#X obj 183 199 bang;
#X obj 72 15 pack \$1 \$2 \$3;
#X connect 0 0 1 0;
#X connect 0 1 7 0;
#X connect 1 0 2 0;
#X connect 3 0 4 0;
#X connect 3 1 4 0;
#X connect 3 2 4 0;
#X connect 4 0 6 0;
#X connect 4 1 5 0;
#X connect 5 0 0 0;
#X connect 6 0 0 0;
#X connect 7 0 8 0;
#X connect 8 0 3 0;
