#N canvas 562 288 450 323 10;
#X obj 142 30 inlet;
#X obj 272 89 r \$1;
#X obj 188 136 f;
#X obj 142 52 route add sub sadd ssub;
#X obj 262 145 f;
#X obj 148 94 bang;
#X obj 195 95 bang;
#X obj 191 170 + \$3;
#X obj 260 168 - \$3;
#X obj 260 222 s;
#X obj 190 219 s;
#X obj 328 154 initbang;
#X obj 328 176 symbol \$2;
#X connect 0 0 3 0;
#X connect 1 0 2 1;
#X connect 1 0 4 1;
#X connect 2 0 7 0;
#X connect 3 0 5 0;
#X connect 3 1 6 0;
#X connect 4 0 8 0;
#X connect 5 0 2 0;
#X connect 6 0 4 0;
#X connect 7 0 10 0;
#X connect 8 0 9 0;
#X connect 11 0 12 0;
#X connect 12 0 10 1;
#X connect 12 0 9 1;
