#N canvas 0 24 1360 692 10;
#X obj 327 665 outlet~;
#X obj 178 39 inlet trigger;
#X obj 329 529 tabread4~ \$1;
#X obj 329 497 line~;
#X obj 1066 101 samplerate~;
#X obj 1066 78 loadbang;
#X obj 1069 189 r \$2;
#X obj 1133 59 bng 15 250 50 0 empty empty empty 17 7 0 10 -262144
-1 -1;
#X obj 434 44 inlet start;
#X obj 417 311 pack f f 0;
#X obj 414 336 list split 1;
#X obj 319 305 pack f f f;
#X obj 312 336 list split 1;
#X obj 612 37 inlet duration;
#X text 1107 190 number of samples;
#X obj 292 44 inlet pitch;
#X obj 666 155 *;
#X obj 666 127 / 1000;
#X obj 535 217 +;
#X obj 434 140 *;
#X obj 454 103 t b f;
#X obj 494 176 t b f;
#X obj 613 89 t f f;
#X floatatom 696 180 9 0 0 0 - - -, f 9;
#X msg 630 62 250;
#X obj 314 165 t b f;
#X obj 329 581 *~;
#X obj 107 195 t b b b;
#X obj 503 621 line~;
#X obj 523 539 bang;
#X obj 583 516 * 0.9;
#X obj 523 561 pipe;
#X obj 94 134 r \$3;
#X obj 728 39 inlet randomstart;
#X obj 1069 211 s \$0-numsamples;
#X obj 454 75 r \$0-numsamples;
#X text 584 567 envelope;
#X obj 578 128 s \$0-toenv;
#X obj 616 487 r \$0-toenv;
#X obj 1066 123 s \$0-samplerate;
#X obj 705 144 r \$0-samplerate;
#X text 558 218 final sample number (start + duration);
#X obj 222 192 r \$0-numsamples;
#X obj 57 302 / 1000;
#X obj 57 324 *;
#X obj 728 61 s \$0-randomstart;
#X obj 142 292 r \$0-randomstart;
#X obj 57 280 random 0;
#X obj 57 346 s \$0-startendoffset;
#X obj 358 368 r \$0-startendoffset;
#X floatatom 75 391 17 0 0 0 - - -, f 17;
#X obj 721 105 s \$0-durationms;
#X obj 353 205 r \$0-durationms;
#X obj 281 366 unpack f f;
#X obj 282 391 +;
#X obj 282 418 pack f f;
#X obj 483 373 unpack f f;
#X obj 483 395 +;
#X obj 483 422 pack f f;
#X obj 314 95 midiratio;
#X obj 336 233 /;
#X obj 331 613 hip~ 35;
#X msg 523 583 0 0.07;
#X msg 502 515 1 0.06;
#X connect 1 0 27 0;
#X connect 2 0 26 0;
#X connect 3 0 2 0;
#X connect 4 0 39 0;
#X connect 5 0 4 0;
#X connect 6 0 34 0;
#X connect 7 0 4 0;
#X connect 8 0 19 0;
#X connect 9 0 10 0;
#X connect 10 1 56 0;
#X connect 11 0 12 0;
#X connect 12 1 53 0;
#X connect 13 0 22 0;
#X connect 15 0 59 0;
#X connect 16 0 18 0;
#X connect 16 0 23 0;
#X connect 17 0 16 0;
#X connect 18 0 11 1;
#X connect 19 0 21 0;
#X connect 19 0 9 1;
#X connect 20 0 19 0;
#X connect 20 1 19 1;
#X connect 21 0 18 0;
#X connect 21 1 18 1;
#X connect 22 0 17 0;
#X connect 22 1 37 0;
#X connect 22 1 51 0;
#X connect 24 0 22 0;
#X connect 25 0 60 0;
#X connect 25 1 60 1;
#X connect 26 0 61 0;
#X connect 27 0 63 0;
#X connect 27 0 47 0;
#X connect 27 1 11 0;
#X connect 27 2 9 0;
#X connect 28 0 26 1;
#X connect 29 0 31 0;
#X connect 30 0 31 1;
#X connect 31 0 62 0;
#X connect 32 0 27 0;
#X connect 33 0 45 0;
#X connect 35 0 20 0;
#X connect 38 0 30 0;
#X connect 40 0 16 1;
#X connect 42 0 44 1;
#X connect 43 0 44 0;
#X connect 44 0 48 0;
#X connect 44 0 50 0;
#X connect 46 0 47 1;
#X connect 47 0 43 0;
#X connect 49 0 54 1;
#X connect 49 0 57 1;
#X connect 52 0 60 0;
#X connect 53 0 54 0;
#X connect 53 1 55 1;
#X connect 54 0 55 0;
#X connect 55 0 3 0;
#X connect 56 0 57 0;
#X connect 56 1 58 1;
#X connect 57 0 58 0;
#X connect 58 0 3 0;
#X connect 59 0 25 0;
#X connect 60 0 11 2;
#X connect 61 0 0 0;
#X connect 62 0 28 0;
#X connect 63 0 28 0;
#X connect 63 0 29 0;
