#N canvas 1 53 450 300 10;
#X obj 145 56 inlet;
#X obj 172 127 list length;
#X obj 145 78 t a a;
#X obj 144 183 list split;
#X obj 172 149 - \$1;
#X obj 202 246 outlet last;
#X obj 106 245 outlet rest;
#X connect 0 0 2 0;
#X connect 1 0 4 0;
#X connect 2 0 3 0;
#X connect 2 1 1 0;
#X connect 3 0 6 0;
#X connect 3 1 5 0;
#X connect 4 0 3 1;
