#N canvas 729 238 450 300 10;
#X obj 150 59 inlet;
#X obj 150 81 unpack f f;
#X obj 152 144 - \$1;
#X obj 152 166 * \$2;
#X obj 155 228 pack f f;
#X obj 152 188 + \$1;
#X obj 155 250 outlet;
#X connect 0 0 1 0;
#X connect 1 0 2 0;
#X connect 1 1 4 1;
#X connect 2 0 3 0;
#X connect 3 0 5 0;
#X connect 4 0 6 0;
#X connect 5 0 4 0;
