#N canvas 306 154 928 490 10;
#X obj 126 11 inlet;
#X obj 148 420 outlet;
#X text 196 13 multiple delays for control messages;
#X obj 357 167 f;
#X obj 387 168 + 1;
#X obj 359 57 list split 1;
#X obj 357 209 pack f f;
#X obj 357 143 t b f;
#X obj 126 33 t a a;
#X obj 108 69 list split 1;
#X obj 71 185 list prepend;
#X obj 359 79 / 1;
#X obj 592 28 inlet tempo;
#X obj 591 57 route tempo;
#X obj 41 318 listpipe;
#X obj 97 318 listpipe;
#X obj 155 318 listpipe;
#X obj 211 317 listpipe;
#X obj 268 315 listpipe;
#X obj 326 316 listpipe;
#X obj 384 317 listpipe;
#X obj 441 318 listpipe;
#X obj 71 207 route 0 1 2 3 4 5 6 7 8 9 10 11 12 13 14 15;
#X obj 358 233 route 0 1 2 3 4 5 6 7 8 9 10 11 12 13 14 15;
#X obj 291 358 listpipe;
#X obj 347 358 listpipe;
#X obj 405 358 listpipe;
#X obj 461 357 listpipe;
#X obj 518 355 listpipe;
#X obj 576 356 listpipe;
#X obj 634 357 listpipe;
#X obj 691 358 listpipe;
#X obj 357 189 mod 16;
#X obj 359 100 t f b;
#X obj 506 120 snapshot~;
#X obj 727 33 inlet~ speed;
#X obj 506 171 midiratio;
#X obj 506 142 * 30;
#X obj 359 122 *;
#X connect 0 0 8 0;
#X connect 3 0 4 0;
#X connect 3 0 32 0;
#X connect 4 0 3 1;
#X connect 5 0 11 0;
#X connect 6 0 23 0;
#X connect 7 0 3 0;
#X connect 7 1 6 1;
#X connect 8 0 9 0;
#X connect 8 1 5 0;
#X connect 9 1 10 0;
#X connect 10 0 22 0;
#X connect 11 0 33 0;
#X connect 12 0 13 0;
#X connect 13 0 11 1;
#X connect 14 0 1 0;
#X connect 15 0 1 0;
#X connect 16 0 1 0;
#X connect 17 0 1 0;
#X connect 18 0 1 0;
#X connect 19 0 1 0;
#X connect 20 0 1 0;
#X connect 21 0 1 0;
#X connect 22 0 14 0;
#X connect 22 1 15 0;
#X connect 22 2 16 0;
#X connect 22 3 17 0;
#X connect 22 4 18 0;
#X connect 22 5 19 0;
#X connect 22 6 20 0;
#X connect 22 7 21 0;
#X connect 22 8 24 0;
#X connect 22 9 25 0;
#X connect 22 10 26 0;
#X connect 22 11 27 0;
#X connect 22 12 28 0;
#X connect 22 13 29 0;
#X connect 22 14 30 0;
#X connect 22 15 31 0;
#X connect 23 0 14 1;
#X connect 23 1 15 1;
#X connect 23 2 16 1;
#X connect 23 3 17 1;
#X connect 23 4 18 1;
#X connect 23 5 19 1;
#X connect 23 6 20 1;
#X connect 23 7 21 1;
#X connect 23 8 24 1;
#X connect 23 9 25 1;
#X connect 23 10 26 1;
#X connect 23 11 27 1;
#X connect 23 12 28 1;
#X connect 23 13 29 1;
#X connect 23 14 30 1;
#X connect 23 15 31 1;
#X connect 24 0 1 0;
#X connect 25 0 1 0;
#X connect 26 0 1 0;
#X connect 27 0 1 0;
#X connect 28 0 1 0;
#X connect 29 0 1 0;
#X connect 30 0 1 0;
#X connect 31 0 1 0;
#X connect 32 0 6 0;
#X connect 32 0 10 1;
#X connect 33 0 38 0;
#X connect 33 1 34 0;
#X connect 34 0 37 0;
#X connect 35 0 34 0;
#X connect 36 0 38 1;
#X connect 37 0 36 0;
#X connect 38 0 7 0;
