#N canvas 493 146 638 472 10;
#X floatatom 134 114 5 0 0 0 var1 #0-var1rcv #0-var1snd, f 5;
#X floatatom 134 134 5 0 0 0 var2 #0-var2rcv #0-var2snd, f 5;
#X floatatom 207 115 5 0 0 0 var3 #0-var3rcv #0-var3snd, f 5;
#X floatatom 207 135 5 0 0 0 var1 #0-var4rcv #0-var4snd, f 5;
#X obj 284 114 loadbang;
#X obj 284 136 t b b;
#X msg 276 168 load savestate.pd_lua;
#X obj 276 190 pdlua;
#X obj 83 217 pack \$1 \$2 \$3 \$4;
#X obj 83 239 savestate \$0-var1 \$0-var2 \$0-var3 \$0-var4;
#X obj 83 261 canvasargs;
#X text 165 264 <- saves any inputs as arguments to this instance of
the abstraction;
#X text 208 216 <- collects canvas arguments and sends them to savestate
;
#X text 436 170 <- loads the lua script;
#X text 65 60 check "properties" of the number boxes below to see how
the sends and receives are configured.;
#X connect 4 0 5 0;
#X connect 5 0 8 0;
#X connect 5 1 6 0;
#X connect 6 0 7 0;
#X connect 8 0 9 0;
#X connect 9 0 10 0;
#X coords 0 -1 1 1 150 60 2 100 100;
