#N canvas 493 146 638 472 10;
#X floatatom 134 114 5 0 0 0 var1 #0-var1rcv #0-var1snd, f 5;
#X floatatom 134 134 5 0 0 0 var2 #0-var2rcv #0-var2snd, f 5;
#X floatatom 207 115 5 0 0 0 var3 #0-var3rcv #0-var3snd, f 5;
#X floatatom 207 135 5 0 0 0 var1 #0-var4rcv #0-var4snd, f 5;
#X obj 314 147 loadbang;
#X obj 314 169 t b b;
#X msg 306 201 load savestate.pd_lua;
#X obj 306 223 pdlua;
#X obj 225 269 pack \$1 \$2 \$3 \$4;
#X obj 225 291 savestate \$0-var1 \$0-var2 \$0-var3 \$0-var4;
#X obj 225 313 canvasargs;
#X connect 4 0 5 0;
#X connect 5 0 8 0;
#X connect 5 1 6 0;
#X connect 6 0 7 0;
#X connect 8 0 9 0;
#X connect 9 0 10 0;
#X coords 0 -1 1 1 150 60 1 100 100;
