#N canvas 456 232 450 300 10;
#X obj 62 90 sel 1 0;
#X msg 62 118 64 127;
#X msg 110 119 64 0;
#X obj 49 32 inlet;
#X text 201 30 input is 1 or 0 \, output is a kv pair;
#X obj 194 87 loadbang;
#X obj 194 109 f \$1;
#X msg 194 131 set \$1 127;
#X msg 268 130 set \$1 0;
#X obj 63 162 outlet;
#X connect 0 0 1 0;
#X connect 0 1 2 0;
#X connect 1 0 9 0;
#X connect 2 0 9 0;
#X connect 3 0 0 0;
#X connect 5 0 6 0;
#X connect 6 0 7 0;
#X connect 6 0 8 0;
#X connect 7 0 1 0;
#X connect 8 0 2 0;
