#N canvas 498 172 450 300 10;
#X obj 239 47 inlet transp;
#X obj 151 44 inlet kv;
#X obj 152 92 unpack f f;
#X obj 153 194 pack f f;
#X obj 158 144 + \$1;
#X obj 153 216 outlet;
#X connect 0 0 4 1;
#X connect 1 0 2 0;
#X connect 2 0 4 0;
#X connect 2 1 3 1;
#X connect 3 0 5 0;
#X connect 4 0 3 0;
